999
FreeCAD v0.20 29177 +426 (Git)
  0
SECTION
  2
HEADER
  9
$ACADVER
  1
AC1014
  9
$ACADMAINTVER
 70
     9
  9
$DWGCODEPAGE
  3
ANSI_1252
  9
$TEXTSTYLE
  7
STANDARD
  9
$DIMSTYLE
  2
STANDARD
  9
$DIMTXSTY
  7
STANDARD
  9
$CMLSTYLE
  2
STANDARD
  9
$LUNITS
 70
2
  9
$INSUNITS
 70
4
  9
$PEXTMAX
 10
50
 20
50
 30
50
  9
$PEXTMIN
 10
0
 20
0
 30
0
  9
$HANDSEED
  5
FFFF
  0
ENDSEC
  0
SECTION
  2
CLASSES
  0
CLASS
  1
ACDBDICTIONARYWDFLT
  2
AcDbDictionaryWithDefault
  3
ObjectDBX Classes
 90
        0
280
     0
281
     0
  0
CLASS
  1
XRECORD
  2
AcDbXrecord
  3
ObjectDBX Classes
 90
        0
280
     0
281
     0
  0
CLASS
  1
LWPOLYLINE
  2
AcDbPolyline
  3
ObjectDBX Classes
 90
        0
280
     0
281
     1
  0
ENDSEC
  0
SECTION
  2
TABLES
  0
TABLE
  2
VPORT
  5
20
330
0
100
AcDbSymbolTable
 70
     1
  0
VPORT
  5
21
330
20
100
AcDbSymbolTableRecord
100
AcDbViewportTableRecord
  2
*ACTIVE
 70
     0
  0
ENDTAB
  0
TABLE
  2
LTYPE
  5
22
330
0
100
AcDbSymbolTable
 70
     1
  0
LTYPE
  5
23
330
21
100
AcDbSymbolTableRecord
100
AcDbLinetypeTableRecord
  2
BYBLOCK
 70
     0
  3

 72
    65
 73
     0
 40
0.0
  0
LTYPE
  5
24
330
21
100
AcDbSymbolTableRecord
100
AcDbLinetypeTableRecord
  2
BYLAYER
 70
     0
  3

 72
    65
 73
     0
 40
0.0
  0
LTYPE
  5
25
330
21
100
AcDbSymbolTableRecord
100
AcDbLinetypeTableRecord
  2
CONTINUOUS
 70
     0
  3
Solid line
 72
    65
 73
     0
 40
0.0
  0
ENDTAB
  0
TABLE
  2
LAYER
  5
A7C
330
0
100
AcDbSymbolTable
 70
4
  0
LAYER
  5
A7D
330
A7C
100
AcDbSymbolTableRecord
100
AcDbLayerTableRecord
  2
0
 70
   0
 62
   7
  6
CONTINUOUS
  0
LAYER
  5
A7E
330
A7C
100
AcDbSymbolTableRecord
100
AcDbLayerTableRecord
  2
View
 70
    0
 62
    7
  6
CONTINUOUS
  0
LAYER
  5
A7F
330
A7C
100
AcDbSymbolTableRecord
100
AcDbLayerTableRecord
  2
SectionView
 70
    0
 62
    7
  6
CONTINUOUS
  0
LAYER
  5
A80
330
A7C
100
AcDbSymbolTableRecord
100
AcDbLayerTableRecord
  2
SectionView001
 70
    0
 62
    7
  6
CONTINUOUS
  0
ENDTAB
  0
TABLE
  2
STYLE
  5
70
330
0
100
AcDbSymbolTable
 70
     2
  0
STYLE
  5
71
330
70
100
AcDbSymbolTableRecord
100
AcDbTextStyleTableRecord
  2
STANDARD
 70
     0
 40
0.0
 41
1.0
 50
0.0
 71
     0
 42
2.5
  3
arial.ttf
  4

  0
STYLE
  5
72
330
70
100
AcDbSymbolTableRecord
100
AcDbTextStyleTableRecord
  2
ANNOTATIVE
 70
     0
 40
0.0
 41
1.0
 50
0.0
 71
     0
 42
2.5
  3
arial.ttf
  4

  0
ENDTAB
  0
TABLE
  2
VIEW
  5
73
330
0
100
AcDbSymbolTable
 70
     0
  0
ENDTAB
  0
TABLE
  2
UCS
  5
74
330
0
100
AcDbSymbolTable
 70
     0
  0
ENDTAB
  0
TABLE
  2
APPID
  5
75
330
0
100
AcDbSymbolTable
 70
     2
  0
APPID
  5
76
330
75
100
AcDbSymbolTableRecord
100
AcDbRegAppTableRecord
  2
ACAD
 70
     0
  0
APPID
  5
77
330
75
100
AcDbSymbolTableRecord
100
AcDbRegAppTableRecord
  2
ACADANNOTATIVE
 70
     0
  0
ENDTAB
  0
TABLE
  2
DIMSTYLE
  5
78
330
0
100
AcDbSymbolTable
 70
     2
  0
DIMSTYLE
105
79
330
78
100
AcDbSymbolTableRecord
100
AcDbDimStyleTableRecord
  2
STANDARD
 70
     0
  3

  4

  5

  6

  7

 40
0.0
 41
2.5
 42
0.625
 43
3.75
 44
1.25
 45
0.0
 46
0.0
 47
0.0
 48
0.0
140
2.5
141
2.5
142
0.0
143
0.03937007874016
144
1.0
145
0.0
146
1.0
147
0.625
 71
     0
 72
     0
 73
     0
 74
     0
 75
     0
 76
     0
 77
     1
 78
     8
170
     0
171
     3
172
     1
173
     0
174
     0
175
     0
176
     0
177
     0
178
     0
270
     2
271
     2
272
     2
273
     2
274
     3
340
71
275
     0
280
     0
281
     0
282
     0
283
     0
284
     8
285
     0
286
     0
287
     3
288
     0
  0
ENDTAB
  0
TABLE
  2
BLOCK_RECORD
  5
A01
330
0
100
AcDbSymbolTable
  70
5
  0
BLOCK_RECORD
  5
A02
330
A01
100
AcDbSymbolTableRecord
100
AcDbBlockTableRecord
  2
*MODEL_SPACE
  0
BLOCK_RECORD
  5
A03
330
A01
100
AcDbSymbolTableRecord
100
AcDbBlockTableRecord
  2
*PAPER_SPACE
  0
ENDTAB
  0
ENDSEC
  0
SECTION
  2
BLOCKS
  0
BLOCK
  5
A04
330
A02
100
AcDbEntity
  8
0
100
AcDbBlockBegin
  2
*MODEL_SPACE
 70
   0
 10
0
 20
0
 30
0
  3
*MODEL_SPACE
  1
 
  0
ENDBLK
  5
A05
330
A02
100
AcDbEntity
  8
0
100
AcDbBlockEnd
  0
BLOCK
  5
A06
330
A03
100
AcDbEntity
 67
1
  8
0
100
AcDbBlockBegin
  2
*PAPER_SPACE
 70
   0
 10
0
 20
0
 30
0
  3
*PAPER_SPACE
  1
 
  0
ENDBLK
  5
A07
330
A03
100
AcDbEntity
 67
    1
  8
0
100
AcDbBlockEnd
  0
ENDSEC
  0
SECTION
  2
ENTITIES
  0
LINE
  5
A08
330
A02
100
AcDbEntity
  8
View
100
AcDbLine
 10
143.191
 20
109.387
 30
0
 11
143.191
 21
87.8872
 31
0
  0
LINE
  5
A09
330
A02
100
AcDbEntity
  8
View
100
AcDbLine
 10
190.73
 20
109.387
 30
0
 11
143.191
 21
109.387
 31
0
  0
LINE
  5
A0A
330
A02
100
AcDbEntity
  8
View
100
AcDbLine
 10
190.73
 20
104.087
 30
0
 11
190.73
 21
109.387
 31
0
  0
SPLINE
  5
A0B
330
A02
100
AcDbEntity
  8
View
100
AcDbSpline
210
0
220
0
230
1
 70
8
 71
3
 72
8
 73
4
 74
0
 40
-1.18875
 40
-1.18875
 40
-1.18875
 40
-1.18875
 40
-0.883822
 40
-0.883822
 40
-0.883822
 40
-0.883822
 10
189.273
 20
102.956
 30
0
 10
189.82
 20
103.409
 30
0
 10
190.298
 20
103.781
 30
0
 10
190.73
 20
104.087
 30
0
  0
SPLINE
  5
A0C
330
A02
100
AcDbEntity
  8
View
100
AcDbSpline
210
0
220
0
230
1
 70
8
 71
3
 72
17
 73
13
 74
0
 40
0
 40
0
 40
0
 40
0
 40
0.213467
 40
0.213467
 40
0.213467
 40
0.506774
 40
0.506774
 40
0.506774
 40
0.735926
 40
0.735926
 40
0.735926
 40
1
 40
1
 40
1
 40
1
 10
189.273
 20
102.956
 30
0
 10
189.045
 20
102.767
 30
0
 10
188.869
 20
102.517
 30
0
 10
188.783
 20
102.239
 30
0
 10
188.66
 20
101.858
 30
0
 10
188.717
 20
101.429
 30
0
 10
188.929
 20
101.087
 30
0
 10
189.093
 20
100.818
 30
0
 10
189.344
 20
100.603
 30
0
 10
189.633
 20
100.461
 30
0
 10
189.967
 20
100.295
 30
0
 10
190.349
 20
100.224
 30
0
 10
190.73
 20
100.225
 30
0
  0
LINE
  5
A0D
330
A02
100
AcDbEntity
  8
View
100
AcDbLine
 10
190.73
 20
87.8872
 30
0
 11
190.73
 21
100.225
 31
0
  0
SPLINE
  5
A0E
330
A02
100
AcDbEntity
  8
View
100
AcDbSpline
210
0
220
0
230
1
 70
8
 71
1
 72
4
 73
2
 74
0
 40
1.43e-13
 40
1.43e-13
 40
1.21009
 40
1.21009
 10
190.73
 20
87.8872
 30
0
 10
189.52
 20
87.8872
 30
0
  0
LINE
  5
A0F
330
A02
100
AcDbEntity
  8
View
100
AcDbLine
 10
189.52
 20
87.8872
 30
0
 11
143.191
 21
87.8872
 31
0
  0
SPLINE
  5
A10
330
A02
100
AcDbEntity
  8
View
100
AcDbSpline
210
0
220
0
230
1
 70
8
 71
2
 72
6
 73
3
 74
0
 40
0
 40
0
 40
0
 40
0.1
 40
0.1
 40
0.1
 10
196.741
 20
100.225
 30
0
 10
196.741
 20
100.224
 30
0
 10
196.741
 20
100.256
 30
0
  0
SPLINE
  5
A11
330
A02
100
AcDbEntity
  8
View
100
AcDbSpline
210
0
220
0
230
1
 70
8
 71
3
 72
8
 73
4
 74
0
 40
0.413149
 40
0.413149
 40
0.413149
 40
0.413149
 40
0.953246
 40
0.953246
 40
0.953246
 40
0.953246
 10
196.741
 20
100.826
 30
0
 10
196.741
 20
101.36
 30
0
 10
196.741
 20
102.289
 30
0
 10
196.741
 20
102.823
 30
0
  0
SPLINE
  5
A12
330
A02
100
AcDbEntity
  8
View
100
AcDbSpline
210
0
220
0
230
1
 70
8
 71
3
 72
17
 73
13
 74
0
 40
0
 40
0
 40
0
 40
0
 40
0.229167
 40
0.229167
 40
0.229167
 40
0.45567
 40
0.45567
 40
0.45567
 40
0.682173
 40
0.682173
 40
0.682173
 40
1
 40
1
 40
1
 40
1
 10
197.991
 20
100.225
 30
0
 10
197.992
 20
100.225
 30
0
 10
197.78
 20
100.225
 30
0
 10
197.385
 20
100.225
 30
0
 10
196.997
 20
100.225
 30
0
 10
196.431
 20
100.225
 30
0
 10
195.765
 20
100.225
 30
0
 10
195.1
 20
100.225
 30
0
 10
194.337
 20
100.225
 30
0
 10
193.581
 20
100.225
 30
0
 10
192.518
 20
100.225
 30
0
 10
191.478
 20
100.225
 30
0
 10
190.73
 20
100.225
 30
0
  0
SPLINE
  5
A13
330
A02
100
AcDbEntity
  8
View
100
AcDbSpline
210
0
220
0
230
1
 70
8
 71
3
 72
8
 73
4
 74
0
 40
0
 40
0
 40
0
 40
0
 40
1
 40
1
 40
1
 40
1
 10
189.52
 20
85.3872
 30
0
 10
189.627
 20
86.2855
 30
0
 10
190.022
 20
87.1739
 30
0
 10
190.73
 20
87.8872
 30
0
  0
SPLINE
  5
A14
330
A02
100
AcDbEntity
  8
View
100
AcDbSpline
210
0
220
0
230
1
 70
8
 71
3
 72
8
 73
4
 74
0
 40
4.22243
 40
4.22243
 40
4.22243
 40
4.22243
 40
4.71239
 40
4.71239
 40
4.71239
 40
4.71239
 10
143.191
 20
87.8872
 30
0
 10
143.518
 20
87.2746
 30
0
 10
143.691
 20
86.5816
 30
0
 10
143.691
 20
85.8872
 30
0
  0
LINE
  5
A15
330
A02
100
AcDbEntity
  8
View
100
AcDbLine
 10
189.52
 20
85.3872
 30
0
 11
143.691
 21
85.3872
 31
0
  0
LINE
  5
A16
330
A02
100
AcDbEntity
  8
View
100
AcDbLine
 10
196.741
 20
100.225
 30
0
 11
196.741
 21
102.956
 31
0
  0
SPLINE
  5
A17
330
A02
100
AcDbEntity
  8
View
100
AcDbSpline
210
0
220
0
230
1
 70
8
 71
1
 72
17
 73
15
 74
0
 40
2.35446
 40
2.35446
 40
2.52289
 40
2.69131
 40
2.85973
 40
3.02816
 40
3.19658
 40
3.365
 40
3.53343
 40
3.70185
 40
3.87027
 40
4.0387
 40
4.20712
 40
4.37554
 40
4.54397
 40
4.71239
 40
4.71239
 10
190.73
 20
104.087
 30
0
 10
191.276
 20
104.087
 30
0
 10
191.891
 20
104.087
 30
0
 10
192.559
 20
104.087
 30
0
 10
193.26
 20
104.087
 30
0
 10
193.974
 20
104.087
 30
0
 10
194.682
 20
104.087
 30
0
 10
195.364
 20
104.087
 30
0
 10
195.999
 20
104.087
 30
0
 10
196.571
 20
104.087
 30
0
 10
197.062
 20
104.087
 30
0
 10
197.46
 20
104.087
 30
0
 10
197.752
 20
104.087
 30
0
 10
197.931
 20
104.087
 30
0
 10
197.991
 20
104.087
 30
0
  0
SPLINE
  5
A18
330
A02
100
AcDbEntity
  8
View
100
AcDbSpline
210
0
220
0
230
1
 70
8
 71
1
 72
4
 73
2
 74
0
 40
0.749892
 40
0.749892
 40
0.875
 40
0.875
 10
143.689
 20
85.7622
 30
0
 10
143.69
 20
85.8247
 30
0
  0
SPLINE
  5
A19
330
A02
100
AcDbEntity
  8
View
100
AcDbSpline
210
0
220
0
230
1
 70
8
 71
1
 72
4
 73
2
 74
0
 40
0
 40
0
 40
0.000740767
 40
0.000740767
 10
143.691
 20
85.8872
 30
0
 10
143.691
 20
85.8887
 30
0
  0
SPLINE
  5
A1A
330
A02
100
AcDbEntity
  8
View
100
AcDbSpline
210
0
220
0
230
1
 70
8
 71
1
 72
4
 73
2
 74
0
 40
0.0102225
 40
0.0102225
 40
0.0587248
 40
0.0587248
 10
143.691
 20
85.9077
 30
0
 10
143.689
 20
86.0047
 30
0
  0
SPLINE
  5
A1B
330
A02
100
AcDbEntity
  8
View
100
AcDbSpline
210
0
220
0
230
1
 70
8
 71
1
 72
4
 73
2
 74
0
 40
0.0594635
 40
0.0594635
 40
0.0714377
 40
0.0714377
 10
143.689
 20
86.0062
 30
0
 10
143.688
 20
86.0301
 30
0
  0
SPLINE
  5
A1C
330
A02
100
AcDbEntity
  8
View
100
AcDbSpline
210
0
220
0
230
1
 70
8
 71
1
 72
4
 73
2
 74
0
 40
0.686717
 40
0.686717
 40
0.688331
 40
0.688331
 10
143.463
 20
87.2607
 30
0
 10
143.462
 20
87.2639
 30
0
  0
SPLINE
  5
A1D
330
A02
100
AcDbEntity
  8
View
100
AcDbSpline
210
0
220
0
230
1
 70
8
 71
3
 72
8
 73
4
 74
0
 40
0.238477
 40
0.238477
 40
0.238477
 40
0.238477
 40
1
 40
1
 40
1
 40
1
 10
190.277
 20
87.3495
 30
0
 10
189.85
 20
86.7482
 30
0
 10
189.602
 20
86.0724
 30
0
 10
189.52
 20
85.3872
 30
0
  0
LINE
  5
A1E
330
A02
100
AcDbEntity
  8
View
100
AcDbLine
 10
197.991
 20
106.703
 30
0
 11
202.503
 21
98.8872
 31
0
  0
LINE
  5
A1F
330
A02
100
AcDbEntity
  8
View
100
AcDbLine
 10
202.503
 20
98.8872
 30
0
 11
197.991
 21
91.0719
 31
0
  0
SPLINE
  5
A20
330
A02
100
AcDbEntity
  8
View
100
AcDbSpline
210
0
220
0
230
1
 70
8
 71
2
 72
30
 73
27
 74
0
 40
0
 40
0
 40
0
 40
0.168423
 40
0.168423
 40
0.336846
 40
0.336846
 40
0.50527
 40
0.50527
 40
0.673693
 40
0.673693
 40
0.842116
 40
0.842116
 40
1.01054
 40
1.01054
 40
1.17896
 40
1.17896
 40
1.34739
 40
1.34739
 40
1.68423
 40
1.68423
 40
1.85266
 40
1.85266
 40
2.02108
 40
2.02108
 40
2.1895
 40
2.1895
 40
2.35792
 40
2.35792
 40
2.35792
 10
197.991
 20
109.387
 30
0
 10
197.961
 20
109.387
 30
0
 10
197.931
 20
109.387
 30
0
 10
197.841
 20
109.387
 30
0
 10
197.752
 20
109.387
 30
0
 10
197.606
 20
109.387
 30
0
 10
197.46
 20
109.387
 30
0
 10
197.261
 20
109.387
 30
0
 10
197.062
 20
109.387
 30
0
 10
196.817
 20
109.387
 30
0
 10
196.571
 20
109.387
 30
0
 10
196.285
 20
109.387
 30
0
 10
195.999
 20
109.387
 30
0
 10
195.682
 20
109.387
 30
0
 10
195.364
 20
109.387
 30
0
 10
195.023
 20
109.387
 30
0
 10
194.682
 20
109.387
 30
0
 10
193.976
 20
109.387
 30
0
 10
193.26
 20
109.387
 30
0
 10
192.909
 20
109.387
 30
0
 10
192.559
 20
109.387
 30
0
 10
192.225
 20
109.387
 30
0
 10
191.891
 20
109.387
 30
0
 10
191.584
 20
109.387
 30
0
 10
191.276
 20
109.387
 30
0
 10
191.003
 20
109.387
 30
0
 10
190.73
 20
109.387
 30
0
  0
LINE
  5
A21
330
A02
100
AcDbEntity
  8
View
100
AcDbLine
 10
135.691
 20
109.387
 30
0
 11
74.4408
 21
109.387
 31
0
  0
SPLINE
  5
A22
330
A02
100
AcDbEntity
  8
View
100
AcDbSpline
210
0
220
0
230
1
 70
8
 71
1
 72
17
 73
15
 74
0
 40
3.63155
 40
3.63155
 40
3.78596
 40
3.94036
 40
4.09477
 40
4.24917
 40
4.40358
 40
4.55798
 40
4.71239
 40
4.86679
 40
5.0212
 40
5.17561
 40
5.33001
 40
5.48442
 40
5.63882
 40
5.79323
 40
5.79323
 10
135.691
 20
109.387
 30
0
 10
136.043
 20
109.387
 30
0
 10
136.476
 20
109.387
 30
0
 10
136.98
 20
109.387
 30
0
 10
137.542
 20
109.387
 30
0
 10
138.149
 20
109.387
 30
0
 10
138.787
 20
109.387
 30
0
 10
139.441
 20
109.387
 30
0
 10
140.094
 20
109.387
 30
0
 10
140.733
 20
109.387
 30
0
 10
141.34
 20
109.387
 30
0
 10
141.902
 20
109.387
 30
0
 10
142.406
 20
109.387
 30
0
 10
142.839
 20
109.387
 30
0
 10
143.191
 20
109.387
 30
0
  0
SPLINE
  5
A23
330
A02
100
AcDbEntity
  8
View
100
AcDbSpline
210
0
220
0
230
1
 70
8
 71
1
 72
4
 73
2
 74
0
 40
0.17777
 40
0.17777
 40
0.188883
 40
0.188883
 10
135.191
 20
85.8317
 30
0
 10
135.191
 20
85.8595
 30
0
  0
SPLINE
  5
A24
330
A02
100
AcDbEntity
  8
View
100
AcDbSpline
210
0
220
0
230
1
 70
8
 71
1
 72
4
 73
2
 74
0
 40
0.448917
 40
0.448917
 40
0.451506
 40
0.451506
 10
135.237
 20
86.5096
 30
0
 10
135.238
 20
86.516
 30
0
  0
SPLINE
  5
A25
330
A02
100
AcDbEntity
  8
View
100
AcDbSpline
210
0
220
0
230
1
 70
8
 71
1
 72
4
 73
2
 74
0
 40
0.4996
 40
0.4996
 40
0.50049
 40
0.50049
 10
135.257
 20
86.6363
 30
0
 10
135.258
 20
86.6385
 30
0
  0
SPLINE
  5
A26
330
A02
100
AcDbEntity
  8
View
100
AcDbSpline
210
0
220
0
230
1
 70
8
 71
1
 72
4
 73
2
 74
0
 40
0.562295
 40
0.562295
 40
0.627532
 40
0.627532
 10
135.288
 20
86.793
 30
0
 10
135.327
 20
86.9561
 30
0
  0
LINE
  5
A27
330
A02
100
AcDbEntity
  8
View
100
AcDbLine
 10
74.4408
 20
87.8872
 30
0
 11
74.4408
 21
109.387
 31
0
  0
LINE
  5
A28
330
A02
100
AcDbEntity
  8
View
100
AcDbLine
 10
135.691
 20
109.387
 30
0
 11
135.691
 21
87.8872
 31
0
  0
LINE
  5
A29
330
A02
100
AcDbEntity
  8
View
100
AcDbLine
 10
135.691
 20
87.8872
 30
0
 11
74.4408
 21
87.8872
 31
0
  0
SPLINE
  5
A2A
330
A02
100
AcDbEntity
  8
View
100
AcDbSpline
210
0
220
0
230
1
 70
8
 71
3
 72
8
 73
4
 74
0
 40
1.5708
 40
1.5708
 40
1.5708
 40
1.5708
 40
2.06075
 40
2.06075
 40
2.06075
 40
2.06075
 10
135.191
 20
85.8872
 30
0
 10
135.191
 20
86.5816
 30
0
 10
135.364
 20
87.2746
 30
0
 10
135.691
 20
87.8872
 30
0
  0
LINE
  5
A2B
330
A02
100
AcDbEntity
  8
View
100
AcDbLine
 10
74.4408
 20
85.3872
 30
0
 11
74.4408
 21
87.8872
 31
0
  0
LINE
  5
A2C
330
A02
100
AcDbEntity
  8
View
100
AcDbLine
 10
135.191
 20
85.3872
 30
0
 11
74.4408
 21
85.3872
 31
0
  0
LINE
  5
A2D
330
A02
100
AcDbEntity
  8
View
100
AcDbLine
 10
195.391
 20
102.956
 30
0
 11
195.391
 21
100.225
 31
0
  0
SPLINE
  5
A2E
330
A02
100
AcDbEntity
  8
View
100
AcDbSpline
210
0
220
0
230
1
 70
8
 71
1
 72
17
 73
15
 74
0
 40
3.14159
 40
3.14159
 40
3.36599
 40
3.59039
 40
3.81479
 40
4.03919
 40
4.26359
 40
4.48799
 40
4.71239
 40
4.93679
 40
5.16119
 40
5.38559
 40
5.60999
 40
5.83439
 40
6.05879
 40
6.28319
 40
6.28319
 10
135.191
 20
85.3872
 30
0
 10
135.297
 20
85.3872
 30
0
 10
135.612
 20
85.3872
 30
0
 10
136.118
 20
85.3872
 30
0
 10
136.791
 20
85.3872
 30
0
 10
137.597
 20
85.3872
 30
0
 10
138.495
 20
85.3872
 30
0
 10
139.441
 20
85.3872
 30
0
 10
140.387
 20
85.3872
 30
0
 10
141.285
 20
85.3872
 30
0
 10
142.091
 20
85.3872
 30
0
 10
142.764
 20
85.3872
 30
0
 10
143.27
 20
85.3872
 30
0
 10
143.584
 20
85.3872
 30
0
 10
143.691
 20
85.3872
 30
0
  0
SPLINE
  5
A2F
330
A02
100
AcDbEntity
  8
View
100
AcDbSpline
210
0
220
0
230
1
 70
8
 71
2
 72
6
 73
3
 74
0
 40
3.25951
 40
3.25951
 40
3.25951
 40
3.45575
 40
3.45575
 40
3.45575
 10
135.22
 20
85.3872
 30
0
 10
135.27
 20
85.3872
 30
0
 10
135.399
 20
85.3872
 30
0
  0
SPLINE
  5
A30
330
A02
100
AcDbEntity
  8
View
100
AcDbSpline
210
0
220
0
230
1
 70
8
 71
2
 72
30
 73
27
 74
0
 40
0
 40
0
 40
0
 40
0.168423
 40
0.168423
 40
0.336846
 40
0.336846
 40
0.50527
 40
0.50527
 40
0.673693
 40
0.673693
 40
0.842116
 40
0.842116
 40
1.01054
 40
1.01054
 40
1.17896
 40
1.17896
 40
1.34739
 40
1.34739
 40
1.68423
 40
1.68423
 40
1.85266
 40
1.85266
 40
2.02108
 40
2.02108
 40
2.1895
 40
2.1895
 40
2.35792
 40
2.35792
 40
2.35792
 10
197.991
 20
85.3872
 30
0
 10
197.961
 20
85.3872
 30
0
 10
197.931
 20
85.3872
 30
0
 10
197.841
 20
85.3872
 30
0
 10
197.752
 20
85.3872
 30
0
 10
197.606
 20
85.3872
 30
0
 10
197.46
 20
85.3872
 30
0
 10
197.261
 20
85.3872
 30
0
 10
197.062
 20
85.3872
 30
0
 10
196.817
 20
85.3872
 30
0
 10
196.571
 20
85.3872
 30
0
 10
196.285
 20
85.3872
 30
0
 10
195.999
 20
85.3872
 30
0
 10
195.682
 20
85.3872
 30
0
 10
195.364
 20
85.3872
 30
0
 10
195.023
 20
85.3872
 30
0
 10
194.682
 20
85.3872
 30
0
 10
193.976
 20
85.3872
 30
0
 10
193.26
 20
85.3872
 30
0
 10
192.909
 20
85.3872
 30
0
 10
192.559
 20
85.3872
 30
0
 10
192.225
 20
85.3872
 30
0
 10
191.891
 20
85.3872
 30
0
 10
191.584
 20
85.3872
 30
0
 10
191.276
 20
85.3872
 30
0
 10
191.003
 20
85.3872
 30
0
 10
190.73
 20
85.3872
 30
0
  0
SPLINE
  5
A31
330
A02
100
AcDbEntity
  8
View
100
AcDbSpline
210
0
220
0
230
1
 70
8
 71
2
 72
28
 73
25
 74
0
 40
0.787128
 40
0.787128
 40
0.787128
 40
0.834682
 40
0.834682
 40
0.929789
 40
0.929789
 40
1.0249
 40
1.0249
 40
1.07245
 40
1.07245
 40
1.12
 40
1.12
 40
1.16756
 40
1.16756
 40
1.21511
 40
1.21511
 40
1.26266
 40
1.26266
 40
1.31022
 40
1.31022
 40
1.35777
 40
1.35777
 40
1.40532
 40
1.40532
 40
1.45288
 40
1.45288
 40
1.45288
 10
190.73
 20
85.3872
 30
0
 10
190.661
 20
85.3872
 30
0
 10
190.591
 20
85.3872
 30
0
 10
190.457
 20
85.3872
 30
0
 10
190.335
 20
85.3872
 30
0
 10
190.215
 20
85.3872
 30
0
 10
190.109
 20
85.3872
 30
0
 10
190.058
 20
85.3872
 30
0
 10
190.008
 20
85.3872
 30
0
 10
189.962
 20
85.3872
 30
0
 10
189.915
 20
85.3872
 30
0
 10
189.874
 20
85.3872
 30
0
 10
189.832
 20
85.3872
 30
0
 10
189.794
 20
85.3872
 30
0
 10
189.757
 20
85.3872
 30
0
 10
189.724
 20
85.3872
 30
0
 10
189.691
 20
85.3872
 30
0
 10
189.663
 20
85.3872
 30
0
 10
189.634
 20
85.3872
 30
0
 10
189.611
 20
85.3872
 30
0
 10
189.587
 20
85.3872
 30
0
 10
189.568
 20
85.3872
 30
0
 10
189.549
 20
85.3872
 30
0
 10
189.535
 20
85.3872
 30
0
 10
189.52
 20
85.3872
 30
0
  0
SPLINE
  5
A32
330
A02
100
AcDbEntity
  8
View
100
AcDbSpline
210
0
220
0
230
1
 70
8
 71
3
 72
11
 73
7
 74
0
 40
0
 40
0
 40
0
 40
0
 40
0.430004
 40
0.430004
 40
0.430004
 40
0.856873
 40
0.856873
 40
0.856873
 40
0.856873
 10
190.622
 20
102.956
 30
0
 10
191.009
 20
102.576
 30
0
 10
191.176
 20
101.991
 30
0
 10
191.05
 20
101.463
 30
0
 10
190.932
 20
100.938
 30
0
 10
190.53
 20
100.489
 30
0
 10
190.02
 20
100.315
 30
0
  0
SPLINE
  5
A33
330
A02
100
AcDbEntity
  8
View
100
AcDbSpline
210
0
220
0
230
1
 70
8
 71
3
 72
14
 73
10
 74
0
 40
0
 40
0
 40
0
 40
0
 40
0.430004
 40
0.430004
 40
0.430004
 40
0.790003
 40
0.790003
 40
0.790003
 40
1
 40
1
 40
1
 40
1
 10
196.859
 20
102.956
 30
0
 10
196.473
 20
102.576
 30
0
 10
196.305
 20
101.991
 30
0
 10
196.432
 20
101.463
 30
0
 10
196.532
 20
101.021
 30
0
 10
196.831
 20
100.63
 30
0
 10
197.231
 20
100.416
 30
0
 10
197.463
 20
100.291
 30
0
 10
197.727
 20
100.224
 30
0
 10
197.991
 20
100.225
 30
0
  0
SPLINE
  5
A34
330
A02
100
AcDbEntity
  8
View
100
AcDbSpline
210
0
220
0
230
1
 70
8
 71
3
 72
17
 73
13
 74
0
 40
0.275041
 40
0.275041
 40
0.275041
 40
0.275041
 40
0.443617
 40
0.443617
 40
0.443617
 40
0.582713
 40
0.582713
 40
0.582713
 40
0.721809
 40
0.721809
 40
0.721809
 40
1
 40
1
 40
1
 40
1
 10
190.73
 20
100.225
 30
0
 10
191.21
 20
100.225
 30
0
 10
191.808
 20
100.225
 30
0
 10
192.457
 20
100.225
 30
0
 10
193.368
 20
100.225
 30
0
 10
194.381
 20
100.225
 30
0
 10
195.272
 20
100.225
 30
0
 10
196.165
 20
100.225
 30
0
 10
196.936
 20
100.225
 30
0
 10
197.415
 20
100.225
 30
0
 10
197.791
 20
100.225
 30
0
 10
197.992
 20
100.225
 30
0
 10
197.991
 20
100.225
 30
0
  0
LINE
  5
A35
330
A02
100
AcDbEntity
  8
View
100
AcDbLine
 10
196.859
 20
102.956
 30
0
 11
197.991
 21
104.087
 31
0
  0
LINE
  5
A36
330
A02
100
AcDbEntity
  8
View
100
AcDbLine
 10
190.622
 20
102.956
 30
0
 11
190.02
 21
103.558
 31
0
  0
LINE
  5
A37
330
A02
100
AcDbEntity
  8
View
100
AcDbLine
 10
192.091
 20
100.225
 30
0
 11
192.091
 21
102.956
 31
0
  0
LINE
  5
A38
330
A02
100
AcDbEntity
  8
View
100
AcDbLine
 10
197.991
 20
104.087
 30
0
 11
197.991
 21
109.387
 31
0
  0
LINE
  5
A39
330
A02
100
AcDbEntity
  8
View
100
AcDbLine
 10
197.991
 20
85.3872
 30
0
 11
197.991
 21
100.225
 31
0
  0
LINE
  5
A3A
330
A02
100
AcDbEntity
  8
View
100
AcDbLine
 10
135.191
 20
85.8872
 30
0
 11
135.191
 21
85.3872
 31
0
  0
LINE
  5
A3B
330
A02
100
AcDbEntity
  8
View
100
AcDbLine
 10
143.691
 20
85.8872
 30
0
 11
143.691
 21
85.3872
 31
0
  0
LINE
  5
A3C
330
A02
100
AcDbEntity
  8
View
100
AcDbLine
 10
197.991
 20
85.3872
 30
0
 11
197.991
 21
91.0719
 31
0
  0
SPLINE
  5
A3D
330
A02
100
AcDbEntity
  8
View
100
AcDbSpline
210
0
220
0
230
1
 70
8
 71
3
 72
8
 73
4
 74
0
 40
0.618143
 40
0.618143
 40
0.618143
 40
0.618143
 40
0.979451
 40
0.979451
 40
0.979451
 40
0.979451
 10
190.622
 20
102.956
 30
0
 10
190.094
 20
102.956
 30
0
 10
189.635
 20
102.956
 30
0
 10
189.273
 20
102.956
 30
0
  0
SPLINE
  5
A3E
330
A02
100
AcDbEntity
  8
View
100
AcDbSpline
210
0
220
0
230
1
 70
8
 71
1
 72
17
 73
15
 74
0
 40
1.5708
 40
1.5708
 40
1.7952
 40
2.0196
 40
2.24399
 40
2.46839
 40
2.69279
 40
2.91719
 40
3.14159
 40
3.36599
 40
3.59039
 40
3.81479
 40
4.03919
 40
4.26359
 40
4.48799
 40
4.71239
 40
4.71239
 10
190.622
 20
102.956
 30
0
 10
190.7
 20
102.956
 30
0
 10
190.931
 20
102.956
 30
0
 10
191.303
 20
102.956
 30
0
 10
191.796
 20
102.956
 30
0
 10
192.388
 20
102.956
 30
0
 10
193.047
 20
102.956
 30
0
 10
193.741
 20
102.956
 30
0
 10
194.435
 20
102.956
 30
0
 10
195.094
 20
102.956
 30
0
 10
195.685
 20
102.956
 30
0
 10
196.179
 20
102.956
 30
0
 10
196.551
 20
102.956
 30
0
 10
196.781
 20
102.956
 30
0
 10
196.859
 20
102.956
 30
0
  0
SPLINE
  5
A3F
330
A02
100
AcDbEntity
  8
View
100
AcDbSpline
210
0
220
0
230
1
 70
8
 71
1
 72
4
 73
2
 74
0
 40
0
 40
0
 40
1.21009
 40
1.21009
 10
189.52
 20
85.3872
 30
0
 10
189.52
 20
87.8872
 30
0
  0
LINE
  5
A40
330
A02
100
AcDbEntity
  8
SectionView
100
AcDbLine
 10
227.104
 20
201.169
 30
0
 11
274.644
 21
201.169
 31
0
  0
ARC
  5
A41
330
A02
100
AcDbEntity
  8
SectionView
100
AcDbCircle
 10
277.654
 20
198.169
 30
0
 40
4.25
100
AcDbArc
 50
-45.0991
 51
135.099
  0
LINE
  5
A42
330
A02
100
AcDbEntity
  8
SectionView
100
AcDbLine
 10
280.654
 20
195.158
 30
0
 11
280.654
 21
185.169
 31
0
  0
LINE
  5
A43
330
A02
100
AcDbEntity
  8
SectionView
100
AcDbLine
 10
281.509
 20
185.169
 30
0
 11
280.654
 21
185.169
 31
0
  0
LINE
  5
A44
330
A02
100
AcDbEntity
  8
SectionView
100
AcDbLine
 10
281.509
 20
185.169
 30
0
 11
281.509
 21
182.169
 31
0
  0
LINE
  5
A45
330
A02
100
AcDbEntity
  8
SectionView
100
AcDbLine
 10
281.509
 20
182.169
 30
0
 11
280.654
 21
182.169
 31
0
  0
LINE
  5
A46
330
A02
100
AcDbEntity
  8
SectionView
100
AcDbLine
 10
280.654
 20
182.169
 30
0
 11
280.654
 21
164.169
 31
0
  0
LINE
  5
A47
330
A02
100
AcDbEntity
  8
SectionView
100
AcDbLine
 10
281.509
 20
164.169
 30
0
 11
280.654
 21
164.169
 31
0
  0
LINE
  5
A48
330
A02
100
AcDbEntity
  8
SectionView
100
AcDbLine
 10
281.509
 20
161.169
 30
0
 11
281.509
 21
164.169
 31
0
  0
LINE
  5
A49
330
A02
100
AcDbEntity
  8
SectionView
100
AcDbLine
 10
281.509
 20
161.169
 30
0
 11
280.654
 21
161.169
 31
0
  0
LINE
  5
A4A
330
A02
100
AcDbEntity
  8
SectionView
100
AcDbLine
 10
280.654
 20
161.169
 30
0
 11
280.654
 21
151.179
 31
0
  0
ARC
  5
A4B
330
A02
100
AcDbEntity
  8
SectionView
100
AcDbCircle
 10
277.654
 20
148.169
 30
0
 40
4.25
100
AcDbArc
 50
-135.099
 51
45.0991
  0
LINE
  5
A4C
330
A02
100
AcDbEntity
  8
SectionView
100
AcDbLine
 10
274.644
 20
145.169
 30
0
 11
227.104
 21
145.169
 31
0
  0
ARC
  5
A4D
330
A02
100
AcDbEntity
  8
SectionView
100
AcDbCircle
 10
223.354
 20
147.169
 30
0
 40
4.25
100
AcDbArc
 50
-151.928
 51
-28.0725
  0
LINE
  5
A4E
330
A02
100
AcDbEntity
  8
SectionView
100
AcDbLine
 10
219.604
 20
145.169
 30
0
 11
158.354
 21
145.169
 31
0
  0
LINE
  5
A4F
330
A02
100
AcDbEntity
  8
SectionView
100
AcDbLine
 10
158.354
 20
145.169
 30
0
 11
158.354
 21
201.169
 31
0
  0
LINE
  5
A50
330
A02
100
AcDbEntity
  8
SectionView
100
AcDbLine
 10
158.354
 20
201.169
 30
0
 11
219.604
 21
201.169
 31
0
  0
ARC
  5
A51
330
A02
100
AcDbEntity
  8
SectionView
100
AcDbCircle
 10
223.354
 20
199.169
 30
0
 40
4.25
100
AcDbArc
 50
28.0725
 51
151.928
  0
CIRCLE
  5
A52
330
A02
100
AcDbEntity
  8
SectionView
100
AcDbCircle
 10
168.354
 20
155.169
 40
1.65
  0
CIRCLE
  5
A53
330
A02
100
AcDbEntity
  8
SectionView
100
AcDbCircle
 10
223.354
 20
147.169
 40
1.65
  0
CIRCLE
  5
A54
330
A02
100
AcDbEntity
  8
SectionView
100
AcDbCircle
 10
277.654
 20
148.169
 40
1.65
  0
CIRCLE
  5
A55
330
A02
100
AcDbEntity
  8
SectionView
100
AcDbCircle
 10
168.354
 20
191.169
 40
1.65
  0
LINE
  5
A56
330
A02
100
AcDbEntity
  8
SectionView
100
AcDbLine
 10
235.154
 20
192.169
 30
0
 11
232.254
 21
192.169
 31
0
  0
LINE
  5
A57
330
A02
100
AcDbEntity
  8
SectionView
100
AcDbLine
 10
232.254
 20
192.169
 30
0
 11
232.254
 21
197.169
 31
0
  0
LINE
  5
A58
330
A02
100
AcDbEntity
  8
SectionView
100
AcDbLine
 10
232.254
 20
197.169
 30
0
 11
227.104
 21
197.169
 31
0
  0
ARC
  5
A59
330
A02
100
AcDbEntity
  8
SectionView
100
AcDbCircle
 10
223.354
 20
199.169
 30
0
 40
4.25
100
AcDbArc
 50
-159.333
 51
-28.0725
  0
LINE
  5
A5A
330
A02
100
AcDbEntity
  8
SectionView
100
AcDbLine
 10
219.378
 20
197.669
 30
0
 11
200.354
 21
197.669
 31
0
  0
LINE
  5
A5B
330
A02
100
AcDbEntity
  8
SectionView
100
AcDbLine
 10
200.354
 20
197.669
 30
0
 11
200.354
 21
188.669
 31
0
  0
LINE
  5
A5C
330
A02
100
AcDbEntity
  8
SectionView
100
AcDbLine
 10
200.354
 20
188.669
 30
0
 11
208.354
 21
188.669
 31
0
  0
LINE
  5
A5D
330
A02
100
AcDbEntity
  8
SectionView
100
AcDbLine
 10
208.354
 20
188.669
 30
0
 11
208.354
 21
185.969
 31
0
  0
LINE
  5
A5E
330
A02
100
AcDbEntity
  8
SectionView
100
AcDbLine
 10
208.354
 20
185.969
 30
0
 11
164.354
 21
185.969
 31
0
  0
LINE
  5
A5F
330
A02
100
AcDbEntity
  8
SectionView
100
AcDbLine
 10
164.354
 20
160.369
 30
0
 11
164.354
 21
185.969
 31
0
  0
LINE
  5
A60
330
A02
100
AcDbEntity
  8
SectionView
100
AcDbLine
 10
164.354
 20
160.369
 30
0
 11
208.354
 21
160.369
 31
0
  0
LINE
  5
A61
330
A02
100
AcDbEntity
  8
SectionView
100
AcDbLine
 10
208.354
 20
160.369
 30
0
 11
208.354
 21
149.169
 31
0
  0
LINE
  5
A62
330
A02
100
AcDbEntity
  8
SectionView
100
AcDbLine
 10
208.354
 20
149.169
 30
0
 11
219.604
 21
149.169
 31
0
  0
ARC
  5
A63
330
A02
100
AcDbEntity
  8
SectionView
100
AcDbCircle
 10
223.354
 20
147.169
 30
0
 40
4.25
100
AcDbArc
 50
28.0725
 51
151.928
  0
LINE
  5
A64
330
A02
100
AcDbEntity
  8
SectionView
100
AcDbLine
 10
227.104
 20
149.169
 30
0
 11
232.254
 21
149.169
 31
0
  0
LINE
  5
A65
330
A02
100
AcDbEntity
  8
SectionView
100
AcDbLine
 10
232.254
 20
149.169
 30
0
 11
232.254
 21
154.169
 31
0
  0
LINE
  5
A66
330
A02
100
AcDbEntity
  8
SectionView
100
AcDbLine
 10
235.154
 20
154.169
 30
0
 11
232.254
 21
154.169
 31
0
  0
LINE
  5
A67
330
A02
100
AcDbEntity
  8
SectionView
100
AcDbLine
 10
235.154
 20
154.169
 30
0
 11
235.154
 21
149.169
 31
0
  0
LINE
  5
A68
330
A02
100
AcDbEntity
  8
SectionView
100
AcDbLine
 10
235.154
 20
149.169
 30
0
 11
273.523
 21
149.169
 31
0
  0
ARC
  5
A69
330
A02
100
AcDbEntity
  8
SectionView
100
AcDbCircle
 10
277.654
 20
148.169
 30
0
 40
4.25
100
AcDbArc
 50
103.609
 51
166.391
  0
LINE
  5
A6A
330
A02
100
AcDbEntity
  8
SectionView
100
AcDbLine
 10
276.654
 20
152.299
 30
0
 11
276.654
 21
194.038
 31
0
  0
ARC
  5
A6B
330
A02
100
AcDbEntity
  8
SectionView
100
AcDbCircle
 10
277.654
 20
198.169
 30
0
 40
4.25
100
AcDbArc
 50
-166.391
 51
-103.609
  0
LINE
  5
A6C
330
A02
100
AcDbEntity
  8
SectionView
100
AcDbLine
 10
273.523
 20
197.169
 30
0
 11
235.154
 21
197.169
 31
0
  0
LINE
  5
A6D
330
A02
100
AcDbEntity
  8
SectionView
100
AcDbLine
 10
235.154
 20
192.169
 30
0
 11
235.154
 21
197.169
 31
0
  0
CIRCLE
  5
A6E
330
A02
100
AcDbEntity
  8
SectionView
100
AcDbCircle
 10
223.354
 20
199.169
 40
1.65
  0
CIRCLE
  5
A6F
330
A02
100
AcDbEntity
  8
SectionView
100
AcDbCircle
 10
277.654
 20
198.169
 40
1.65
  0
LINE
  5
A70
330
A02
100
AcDbEntity
  8
SectionView001
100
AcDbLine
 10
58.2139
 20
186.207
 30
0
 11
114.214
 21
186.207
 31
0
  0
LINE
  5
A71
330
A02
100
AcDbEntity
  8
SectionView001
100
AcDbLine
 10
58.2139
 20
164.707
 30
0
 11
58.2139
 21
186.207
 31
0
  0
LINE
  5
A72
330
A02
100
AcDbEntity
  8
SectionView001
100
AcDbLine
 10
114.214
 20
186.207
 30
0
 11
114.214
 21
164.707
 31
0
  0
SPLINE
  5
A73
330
A02
100
AcDbEntity
  8
SectionView001
100
AcDbSpline
210
0
220
0
230
1
 70
8
 71
1
 72
4
 73
2
 74
0
 40
0
 40
0
 40
1
 40
1
 10
111.714
 20
162.207
 30
0
 10
114.214
 20
164.707
 30
0
  0
LINE
  5
A74
330
A02
100
AcDbEntity
  8
SectionView001
100
AcDbLine
 10
111.714
 20
162.207
 30
0
 11
60.7139
 21
162.207
 31
0
  0
LINE
  5
A75
330
A02
100
AcDbEntity
  8
SectionView001
100
AcDbLine
 10
58.2139
 20
164.707
 30
0
 11
60.7139
 21
162.207
 31
0
  0
CIRCLE
  5
A76
330
A02
100
AcDbEntity
  8
SectionView001
100
AcDbCircle
 10
66.2139
 20
174.207
 40
1.9
  0
CIRCLE
  5
A77
330
A02
100
AcDbEntity
  8
SectionView001
100
AcDbCircle
 10
106.214
 20
174.207
 40
1.9
  0
LINE
  5
A78
330
A02
100
AcDbEntity
  8
SectionView001
100
AcDbLine
 10
73.4139
 20
169.207
 30
0
 11
99.0139
 21
169.207
 31
0
  0
LINE
  5
A79
330
A02
100
AcDbEntity
  8
SectionView001
100
AcDbLine
 10
99.0139
 20
169.207
 30
0
 11
99.0139
 21
182.207
 31
0
  0
LINE
  5
A7A
330
A02
100
AcDbEntity
  8
SectionView001
100
AcDbLine
 10
73.4139
 20
182.207
 30
0
 11
99.0139
 21
182.207
 31
0
  0
LINE
  5
A7B
330
A02
100
AcDbEntity
  8
SectionView001
100
AcDbLine
 10
73.4139
 20
182.207
 30
0
 11
73.4139
 21
169.207
 31
0
  0
ENDSEC
  0
SECTION
  2
OBJECTS
  0
DICTIONARY
  5
F000
330
0
100
AcDbDictionary
  3
ACAD_GROUP
350
F001
  0
DICTIONARY
  5
F001
330
F000
100
AcDbDictionary
  0
ENDSEC
  0
EOF