999
FreeCAD v0.19 24276 (Git)
  0
SECTION
  2
HEADER
  9
$ACADVER
  1
AC1014
  9
$ACADMAINTVER
 70
     9
  9
$DWGCODEPAGE
  3
ANSI_1252
  9
$TEXTSTYLE
  7
STANDARD
  9
$DIMSTYLE
  2
STANDARD
  9
$DIMTXSTY
  7
STANDARD
  9
$CMLSTYLE
  2
STANDARD
  9
$PEXTMAX
 10
50
 20
50
 30
50
  9
$PEXTMIN
 10
0
 20
0
 30
0
  9
$HANDSEED
  5
FFFF
  0
ENDSEC
  0
SECTION
  2
CLASSES
  0
CLASS
  1
ACDBDICTIONARYWDFLT
  2
AcDbDictionaryWithDefault
  3
ObjectDBX Classes
 90
        0
280
     0
281
     0
  0
CLASS
  1
XRECORD
  2
AcDbXrecord
  3
ObjectDBX Classes
 90
        0
280
     0
281
     0
  0
CLASS
  1
LWPOLYLINE
  2
AcDbPolyline
  3
ObjectDBX Classes
 90
        0
280
     0
281
     1
  0
ENDSEC
  0
SECTION
  2
TABLES
  0
TABLE
  2
VPORT
  5
20
330
0
100
AcDbSymbolTable
 70
     1
  0
VPORT
  5
21
330
20
100
AcDbSymbolTableRecord
100
AcDbViewportTableRecord
  2
*ACTIVE
 70
     0
  0
ENDTAB
  0
TABLE
  2
LTYPE
  5
22
330
0
100
AcDbSymbolTable
 70
     1
  0
LTYPE
  5
23
330
21
100
AcDbSymbolTableRecord
100
AcDbLinetypeTableRecord
  2
BYBLOCK
 70
     0
  3

 72
    65
 73
     0
 40
0.0
  0
LTYPE
  5
24
330
21
100
AcDbSymbolTableRecord
100
AcDbLinetypeTableRecord
  2
BYLAYER
 70
     0
  3

 72
    65
 73
     0
 40
0.0
  0
LTYPE
  5
25
330
21
100
AcDbSymbolTableRecord
100
AcDbLinetypeTableRecord
  2
CONTINUOUS
 70
     0
  3
Solid line
 72
    65
 73
     0
 40
0.0
  0
ENDTAB
  0
TABLE
  2
LAYER
  5
A4E
330
0
100
AcDbSymbolTable
 70
4
  0
LAYER
  5
A4F
330
A4E
100
AcDbSymbolTableRecord
100
AcDbLayerTableRecord
  2
0
 70
   0
 62
   7
  6
CONTINUOUS
  0
LAYER
  5
A50
330
A4E
100
AcDbSymbolTableRecord
100
AcDbLayerTableRecord
  2
View
 70
    0
 62
    7
  6
CONTINUOUS
  0
LAYER
  5
A51
330
A4E
100
AcDbSymbolTableRecord
100
AcDbLayerTableRecord
  2
SectionView
 70
    0
 62
    7
  6
CONTINUOUS
  0
LAYER
  5
A52
330
A4E
100
AcDbSymbolTableRecord
100
AcDbLayerTableRecord
  2
SectionView001
 70
    0
 62
    7
  6
CONTINUOUS
  0
ENDTAB
  0
TABLE
  2
STYLE
  5
70
330
0
100
AcDbSymbolTable
 70
     2
  0
STYLE
  5
71
330
70
100
AcDbSymbolTableRecord
100
AcDbTextStyleTableRecord
  2
STANDARD
 70
     0
 40
0.0
 41
1.0
 50
0.0
 71
     0
 42
2.5
  3
arial.ttf
  4

  0
STYLE
  5
72
330
70
100
AcDbSymbolTableRecord
100
AcDbTextStyleTableRecord
  2
ANNOTATIVE
 70
     0
 40
0.0
 41
1.0
 50
0.0
 71
     0
 42
2.5
  3
arial.ttf
  4

  0
ENDTAB
  0
TABLE
  2
VIEW
  5
73
330
0
100
AcDbSymbolTable
 70
     0
  0
ENDTAB
  0
TABLE
  2
UCS
  5
74
330
0
100
AcDbSymbolTable
 70
     0
  0
ENDTAB
  0
TABLE
  2
APPID
  5
75
330
0
100
AcDbSymbolTable
 70
     2
  0
APPID
  5
76
330
75
100
AcDbSymbolTableRecord
100
AcDbRegAppTableRecord
  2
ACAD
 70
     0
  0
APPID
  5
77
330
75
100
AcDbSymbolTableRecord
100
AcDbRegAppTableRecord
  2
ACADANNOTATIVE
 70
     0
  0
ENDTAB
  0
TABLE
  2
DIMSTYLE
  5
78
330
0
100
AcDbSymbolTable
 70
     2
  0
DIMSTYLE
105
79
330
78
100
AcDbSymbolTableRecord
100
AcDbDimStyleTableRecord
  2
STANDARD
 70
     0
  3

  4

  5

  6

  7

 40
0.0
 41
2.5
 42
0.625
 43
3.75
 44
1.25
 45
0.0
 46
0.0
 47
0.0
 48
0.0
140
2.5
141
2.5
142
0.0
143
0.03937007874016
144
1.0
145
0.0
146
1.0
147
0.625
 71
     0
 72
     0
 73
     0
 74
     0
 75
     0
 76
     0
 77
     1
 78
     8
170
     0
171
     3
172
     1
173
     0
174
     0
175
     0
176
     0
177
     0
178
     0
270
     2
271
     2
272
     2
273
     2
274
     3
340
71
275
     0
280
     0
281
     0
282
     0
283
     0
284
     8
285
     0
286
     0
287
     3
288
     0
  0
ENDTAB
  0
TABLE
  2
BLOCK_RECORD
  5
A01
330
0
100
AcDbSymbolTable
  70
5
  0
BLOCK_RECORD
  5
A02
330
A01
100
AcDbSymbolTableRecord
100
AcDbBlockTableRecord
  2
*MODEL_SPACE
  0
BLOCK_RECORD
  5
A03
330
A01
100
AcDbSymbolTableRecord
100
AcDbBlockTableRecord
  2
*PAPER_SPACE
  0
ENDTAB
  0
ENDSEC
  0
SECTION
  2
BLOCKS
  0
BLOCK
  5
A04
330
A02
100
AcDbEntity
  8
0
100
AcDbBlockBegin
  2
*MODEL_SPACE
 70
   0
 10
0
 20
0
 30
0
  3
*MODEL_SPACE
  1
 
  0
ENDBLK
  5
A05
330
A02
100
AcDbEntity
  8
0
100
AcDbBlockEnd
  0
BLOCK
  5
A06
330
A03
100
AcDbEntity
 67
1
  8
0
100
AcDbBlockBegin
  2
*PAPER_SPACE
 70
   0
 10
0
 20
0
 30
0
  3
*PAPER_SPACE
  1
 
  0
ENDBLK
  5
A07
330
A03
100
AcDbEntity
 67
    1
  8
0
100
AcDbBlockEnd
  0
ENDSEC
  0
SECTION
  2
ENTITIES
  0
SPLINE
  5
A08
330
A02
100
AcDbEntity
  8
View
100
AcDbSpline
210
0
220
0
230
1
 70
8
 71
2
 72
6
 73
3
 74
0
 40
0
 40
0
 40
0
 40
0.1
 40
0.1
 40
0.1
 10
201.219
 20
100.525
 30
0
 10
201.219
 20
100.524
 30
0
 10
201.219
 20
100.556
 30
0
  0
SPLINE
  5
A09
330
A02
100
AcDbEntity
  8
View
100
AcDbSpline
210
0
220
0
230
1
 70
8
 71
3
 72
8
 73
4
 74
0
 40
0.413149
 40
0.413149
 40
0.413149
 40
0.413149
 40
0.953246
 40
0.953246
 40
0.953246
 40
0.953246
 10
201.219
 20
101.126
 30
0
 10
201.219
 20
101.66
 30
0
 10
201.219
 20
102.589
 30
0
 10
201.219
 20
103.123
 30
0
  0
SPLINE
  5
A0A
330
A02
100
AcDbEntity
  8
View
100
AcDbSpline
210
0
220
0
230
1
 70
8
 71
3
 72
17
 73
13
 74
0
 40
0
 40
0
 40
0
 40
0
 40
0.213182
 40
0.213182
 40
0.213182
 40
0.482324
 40
0.482324
 40
0.482324
 40
0.794086
 40
0.794086
 40
0.794086
 40
1
 40
1
 40
1
 40
1
 10
202.469
 20
100.525
 30
0
 10
202.47
 20
100.525
 30
0
 10
202.287
 20
100.525
 30
0
 10
201.943
 20
100.525
 30
0
 10
201.511
 20
100.525
 30
0
 10
200.821
 20
100.525
 30
0
 10
200.004
 20
100.525
 30
0
 10
199.06
 20
100.525
 30
0
 10
197.951
 20
100.525
 30
0
 10
196.956
 20
100.525
 30
0
 10
196.299
 20
100.525
 30
0
 10
195.694
 20
100.525
 30
0
 10
195.208
 20
100.525
 30
0
  0
SPLINE
  5
A0B
330
A02
100
AcDbEntity
  8
View
100
AcDbSpline
210
0
220
0
230
1
 70
8
 71
3
 72
17
 73
13
 74
0
 40
0
 40
0
 40
0
 40
0
 40
0.213467
 40
0.213467
 40
0.213467
 40
0.506774
 40
0.506774
 40
0.506774
 40
0.735926
 40
0.735926
 40
0.735926
 40
1
 40
1
 40
1
 40
1
 10
193.751
 20
103.256
 30
0
 10
193.523
 20
103.067
 30
0
 10
193.347
 20
102.817
 30
0
 10
193.26
 20
102.539
 30
0
 10
193.138
 20
102.158
 30
0
 10
193.195
 20
101.729
 30
0
 10
193.407
 20
101.387
 30
0
 10
193.571
 20
101.118
 30
0
 10
193.822
 20
100.903
 30
0
 10
194.111
 20
100.761
 30
0
 10
194.445
 20
100.595
 30
0
 10
194.827
 20
100.524
 30
0
 10
195.208
 20
100.525
 30
0
  0
LINE
  5
A0C
330
A02
100
AcDbEntity
  8
View
100
AcDbLine
 10
79.9188
 20
87.8872
 30
0
 11
79.9188
 21
109.387
 31
0
  0
LINE
  5
A0D
330
A02
100
AcDbEntity
  8
View
100
AcDbLine
 10
193.998
 20
87.8872
 30
0
 11
79.9188
 21
87.8872
 31
0
  0
SPLINE
  5
A0E
330
A02
100
AcDbEntity
  8
View
100
AcDbSpline
210
0
220
0
230
1
 70
8
 71
1
 72
4
 73
2
 74
0
 40
1.24e-13
 40
1.24e-13
 40
1.21009
 40
1.21009
 10
195.208
 20
87.8872
 30
0
 10
193.998
 20
87.8872
 30
0
  0
LINE
  5
A0F
330
A02
100
AcDbEntity
  8
View
100
AcDbLine
 10
195.208
 20
87.8872
 30
0
 11
195.208
 21
100.525
 31
0
  0
SPLINE
  5
A10
330
A02
100
AcDbEntity
  8
View
100
AcDbSpline
210
0
220
0
230
1
 70
8
 71
3
 72
8
 73
4
 74
0
 40
-1.18875
 40
-1.18875
 40
-1.18875
 40
-1.18875
 40
-0.883822
 40
-0.883822
 40
-0.883822
 40
-0.883822
 10
193.751
 20
103.256
 30
0
 10
194.298
 20
103.709
 30
0
 10
194.776
 20
104.081
 30
0
 10
195.208
 20
104.387
 30
0
  0
LINE
  5
A11
330
A02
100
AcDbEntity
  8
View
100
AcDbLine
 10
195.208
 20
104.387
 30
0
 11
195.208
 21
109.387
 31
0
  0
LINE
  5
A12
330
A02
100
AcDbEntity
  8
View
100
AcDbLine
 10
195.208
 20
109.387
 30
0
 11
79.9188
 21
109.387
 31
0
  0
SPLINE
  5
A13
330
A02
100
AcDbEntity
  8
View
100
AcDbSpline
210
0
220
0
230
1
 70
8
 71
1
 72
17
 73
15
 74
0
 40
2.35446
 40
2.35446
 40
2.52289
 40
2.69131
 40
2.85973
 40
3.02816
 40
3.19658
 40
3.365
 40
3.53343
 40
3.70185
 40
3.87027
 40
4.0387
 40
4.20712
 40
4.37554
 40
4.54397
 40
4.71239
 40
4.71239
 10
195.208
 20
104.387
 30
0
 10
195.754
 20
104.387
 30
0
 10
196.369
 20
104.387
 30
0
 10
197.037
 20
104.387
 30
0
 10
197.738
 20
104.387
 30
0
 10
198.452
 20
104.387
 30
0
 10
199.16
 20
104.387
 30
0
 10
199.842
 20
104.387
 30
0
 10
200.477
 20
104.387
 30
0
 10
201.049
 20
104.387
 30
0
 10
201.54
 20
104.387
 30
0
 10
201.938
 20
104.387
 30
0
 10
202.23
 20
104.387
 30
0
 10
202.409
 20
104.387
 30
0
 10
202.469
 20
104.387
 30
0
  0
LINE
  5
A14
330
A02
100
AcDbEntity
  8
View
100
AcDbLine
 10
193.998
 20
85.3872
 30
0
 11
79.9188
 21
85.3872
 31
0
  0
LINE
  5
A15
330
A02
100
AcDbEntity
  8
View
100
AcDbLine
 10
79.9188
 20
85.3872
 30
0
 11
79.9188
 21
87.8872
 31
0
  0
SPLINE
  5
A16
330
A02
100
AcDbEntity
  8
View
100
AcDbSpline
210
0
220
0
230
1
 70
8
 71
3
 72
8
 73
4
 74
0
 40
0
 40
0
 40
0
 40
0
 40
1
 40
1
 40
1
 40
1
 10
193.998
 20
85.3872
 30
0
 10
194.105
 20
86.285
 30
0
 10
194.499
 20
87.1732
 30
0
 10
195.208
 20
87.8872
 30
0
  0
SPLINE
  5
A17
330
A02
100
AcDbEntity
  8
View
100
AcDbSpline
210
0
220
0
230
1
 70
8
 71
3
 72
8
 73
4
 74
0
 40
0.110101
 40
0.110101
 40
0.110101
 40
0.110101
 40
1
 40
1
 40
1
 40
1
 10
194.986
 20
87.6457
 30
0
 10
194.416
 20
86.9763
 30
0
 10
194.094
 20
86.1868
 30
0
 10
193.998
 20
85.3872
 30
0
  0
SPLINE
  5
A18
330
A02
100
AcDbEntity
  8
View
100
AcDbSpline
210
0
220
0
230
1
 70
8
 71
2
 72
30
 73
27
 74
0
 40
0
 40
0
 40
0
 40
0.168423
 40
0.168423
 40
0.336846
 40
0.336846
 40
0.50527
 40
0.50527
 40
0.673693
 40
0.673693
 40
0.842116
 40
0.842116
 40
1.01054
 40
1.01054
 40
1.17896
 40
1.17896
 40
1.34739
 40
1.34739
 40
1.68423
 40
1.68423
 40
1.85266
 40
1.85266
 40
2.02108
 40
2.02108
 40
2.1895
 40
2.1895
 40
2.35792
 40
2.35792
 40
2.35792
 10
202.469
 20
109.387
 30
0
 10
202.439
 20
109.387
 30
0
 10
202.409
 20
109.387
 30
0
 10
202.319
 20
109.387
 30
0
 10
202.23
 20
109.387
 30
0
 10
202.084
 20
109.387
 30
0
 10
201.938
 20
109.387
 30
0
 10
201.739
 20
109.387
 30
0
 10
201.54
 20
109.387
 30
0
 10
201.295
 20
109.387
 30
0
 10
201.049
 20
109.387
 30
0
 10
200.763
 20
109.387
 30
0
 10
200.477
 20
109.387
 30
0
 10
200.16
 20
109.387
 30
0
 10
199.842
 20
109.387
 30
0
 10
199.501
 20
109.387
 30
0
 10
199.16
 20
109.387
 30
0
 10
198.454
 20
109.387
 30
0
 10
197.738
 20
109.387
 30
0
 10
197.387
 20
109.387
 30
0
 10
197.037
 20
109.387
 30
0
 10
196.703
 20
109.387
 30
0
 10
196.369
 20
109.387
 30
0
 10
196.062
 20
109.387
 30
0
 10
195.754
 20
109.387
 30
0
 10
195.481
 20
109.387
 30
0
 10
195.208
 20
109.387
 30
0
  0
LINE
  5
A19
330
A02
100
AcDbEntity
  8
View
100
AcDbLine
 10
199.869
 20
103.256
 30
0
 11
199.869
 21
100.525
 31
0
  0
SPLINE
  5
A1A
330
A02
100
AcDbEntity
  8
View
100
AcDbSpline
210
0
220
0
230
1
 70
8
 71
2
 72
30
 73
27
 74
0
 40
0
 40
0
 40
0
 40
0.168423
 40
0.168423
 40
0.336846
 40
0.336846
 40
0.50527
 40
0.50527
 40
0.673693
 40
0.673693
 40
0.842116
 40
0.842116
 40
1.01054
 40
1.01054
 40
1.17896
 40
1.17896
 40
1.34739
 40
1.34739
 40
1.68423
 40
1.68423
 40
1.85266
 40
1.85266
 40
2.02108
 40
2.02108
 40
2.1895
 40
2.1895
 40
2.35792
 40
2.35792
 40
2.35792
 10
202.469
 20
85.3872
 30
0
 10
202.439
 20
85.3872
 30
0
 10
202.409
 20
85.3872
 30
0
 10
202.319
 20
85.3872
 30
0
 10
202.23
 20
85.3872
 30
0
 10
202.084
 20
85.3872
 30
0
 10
201.938
 20
85.3872
 30
0
 10
201.739
 20
85.3872
 30
0
 10
201.54
 20
85.3872
 30
0
 10
201.295
 20
85.3872
 30
0
 10
201.049
 20
85.3872
 30
0
 10
200.763
 20
85.3872
 30
0
 10
200.477
 20
85.3872
 30
0
 10
200.16
 20
85.3872
 30
0
 10
199.842
 20
85.3872
 30
0
 10
199.501
 20
85.3872
 30
0
 10
199.16
 20
85.3872
 30
0
 10
198.454
 20
85.3872
 30
0
 10
197.738
 20
85.3872
 30
0
 10
197.387
 20
85.3872
 30
0
 10
197.037
 20
85.3872
 30
0
 10
196.703
 20
85.3872
 30
0
 10
196.369
 20
85.3872
 30
0
 10
196.062
 20
85.3872
 30
0
 10
195.754
 20
85.3872
 30
0
 10
195.481
 20
85.3872
 30
0
 10
195.208
 20
85.3872
 30
0
  0
SPLINE
  5
A1B
330
A02
100
AcDbEntity
  8
View
100
AcDbSpline
210
0
220
0
230
1
 70
8
 71
2
 72
28
 73
25
 74
0
 40
0.787128
 40
0.787128
 40
0.787128
 40
0.834682
 40
0.834682
 40
0.929789
 40
0.929789
 40
1.0249
 40
1.0249
 40
1.07245
 40
1.07245
 40
1.12
 40
1.12
 40
1.16756
 40
1.16756
 40
1.21511
 40
1.21511
 40
1.26266
 40
1.26266
 40
1.31022
 40
1.31022
 40
1.35777
 40
1.35777
 40
1.40532
 40
1.40532
 40
1.45288
 40
1.45288
 40
1.45288
 10
195.208
 20
85.3872
 30
0
 10
195.139
 20
85.3872
 30
0
 10
195.069
 20
85.3872
 30
0
 10
194.935
 20
85.3872
 30
0
 10
194.812
 20
85.3872
 30
0
 10
194.693
 20
85.3872
 30
0
 10
194.587
 20
85.3872
 30
0
 10
194.536
 20
85.3872
 30
0
 10
194.486
 20
85.3872
 30
0
 10
194.44
 20
85.3872
 30
0
 10
194.393
 20
85.3872
 30
0
 10
194.352
 20
85.3872
 30
0
 10
194.31
 20
85.3872
 30
0
 10
194.272
 20
85.3872
 30
0
 10
194.235
 20
85.3872
 30
0
 10
194.202
 20
85.3872
 30
0
 10
194.169
 20
85.3872
 30
0
 10
194.141
 20
85.3872
 30
0
 10
194.112
 20
85.3872
 30
0
 10
194.089
 20
85.3872
 30
0
 10
194.065
 20
85.3872
 30
0
 10
194.046
 20
85.3872
 30
0
 10
194.027
 20
85.3872
 30
0
 10
194.013
 20
85.3872
 30
0
 10
193.998
 20
85.3872
 30
0
  0
SPLINE
  5
A1C
330
A02
100
AcDbEntity
  8
View
100
AcDbSpline
210
0
220
0
230
1
 70
8
 71
3
 72
11
 73
7
 74
0
 40
0
 40
0
 40
0
 40
0
 40
0.430004
 40
0.430004
 40
0.430004
 40
0.856873
 40
0.856873
 40
0.856873
 40
0.856873
 10
195.1
 20
103.256
 30
0
 10
195.487
 20
102.876
 30
0
 10
195.654
 20
102.291
 30
0
 10
195.528
 20
101.763
 30
0
 10
195.41
 20
101.238
 30
0
 10
195.008
 20
100.789
 30
0
 10
194.498
 20
100.615
 30
0
  0
SPLINE
  5
A1D
330
A02
100
AcDbEntity
  8
View
100
AcDbSpline
210
0
220
0
230
1
 70
8
 71
3
 72
14
 73
10
 74
0
 40
0
 40
0
 40
0
 40
0
 40
0.430004
 40
0.430004
 40
0.430004
 40
0.790003
 40
0.790003
 40
0.790003
 40
1
 40
1
 40
1
 40
1
 10
201.337
 20
103.256
 30
0
 10
200.951
 20
102.876
 30
0
 10
200.783
 20
102.291
 30
0
 10
200.91
 20
101.763
 30
0
 10
201.01
 20
101.321
 30
0
 10
201.309
 20
100.93
 30
0
 10
201.709
 20
100.716
 30
0
 10
201.941
 20
100.591
 30
0
 10
202.205
 20
100.524
 30
0
 10
202.469
 20
100.525
 30
0
  0
SPLINE
  5
A1E
330
A02
100
AcDbEntity
  8
View
100
AcDbSpline
210
0
220
0
230
1
 70
8
 71
3
 72
17
 73
13
 74
0
 40
0.218896
 40
0.218896
 40
0.218896
 40
0.218896
 40
0.247733
 40
0.247733
 40
0.247733
 40
0.495465
 40
0.495465
 40
0.495465
 40
0.743198
 40
0.743198
 40
0.743198
 40
1
 40
1
 40
1
 40
1
 10
195.208
 20
100.525
 30
0
 10
195.312
 20
100.525
 30
0
 10
195.42
 20
100.525
 30
0
 10
195.534
 20
100.525
 30
0
 10
196.531
 20
100.525
 30
0
 10
197.917
 20
100.525
 30
0
 10
199.176
 20
100.525
 30
0
 10
200.088
 20
100.525
 30
0
 10
200.924
 20
100.525
 30
0
 10
201.513
 20
100.525
 30
0
 10
202.128
 20
100.525
 30
0
 10
202.471
 20
100.525
 30
0
 10
202.469
 20
100.525
 30
0
  0
SPLINE
  5
A1F
330
A02
100
AcDbEntity
  8
View
100
AcDbSpline
210
0
220
0
230
1
 70
8
 71
2
 72
6
 73
3
 74
0
 40
0
 40
0
 40
0
 40
0.0472239
 40
0.0472239
 40
0.0472239
 10
201.337
 20
103.256
 30
0
 10
201.274
 20
103.193
 30
0
 10
201.219
 20
103.123
 30
0
  0
SPLINE
  5
A20
330
A02
100
AcDbEntity
  8
View
100
AcDbSpline
210
0
220
0
230
1
 70
8
 71
1
 72
4
 73
2
 74
0
 40
0.999839
 40
0.999839
 40
1
 40
1
 10
202.468
 20
100.525
 30
0
 10
202.469
 20
100.525
 30
0
  0
LINE
  5
A21
330
A02
100
AcDbEntity
  8
View
100
AcDbLine
 10
201.337
 20
103.256
 30
0
 11
202.469
 21
104.387
 31
0
  0
LINE
  5
A22
330
A02
100
AcDbEntity
  8
View
100
AcDbLine
 10
195.1
 20
103.256
 30
0
 11
194.498
 21
103.858
 31
0
  0
LINE
  5
A23
330
A02
100
AcDbEntity
  8
View
100
AcDbLine
 10
201.337
 20
103.256
 30
0
 11
202.469
 21
104.387
 31
0
  0
LINE
  5
A24
330
A02
100
AcDbEntity
  8
View
100
AcDbLine
 10
196.569
 20
100.525
 30
0
 11
196.569
 21
103.256
 31
0
  0
LINE
  5
A25
330
A02
100
AcDbEntity
  8
View
100
AcDbLine
 10
202.469
 20
85.3872
 30
0
 11
202.469
 21
100.525
 31
0
  0
LINE
  5
A26
330
A02
100
AcDbEntity
  8
View
100
AcDbLine
 10
202.469
 20
104.387
 30
0
 11
202.469
 21
109.387
 31
0
  0
SPLINE
  5
A27
330
A02
100
AcDbEntity
  8
View
100
AcDbSpline
210
0
220
0
230
1
 70
8
 71
1
 72
17
 73
15
 74
0
 40
1.5708
 40
1.5708
 40
1.7952
 40
2.0196
 40
2.24399
 40
2.46839
 40
2.69279
 40
2.91719
 40
3.14159
 40
3.36599
 40
3.59039
 40
3.81479
 40
4.03919
 40
4.26359
 40
4.48799
 40
4.71239
 40
4.71239
 10
195.1
 20
103.256
 30
0
 10
195.178
 20
103.256
 30
0
 10
195.409
 20
103.256
 30
0
 10
195.781
 20
103.256
 30
0
 10
196.274
 20
103.256
 30
0
 10
196.866
 20
103.256
 30
0
 10
197.525
 20
103.256
 30
0
 10
198.219
 20
103.256
 30
0
 10
198.913
 20
103.256
 30
0
 10
199.572
 20
103.256
 30
0
 10
200.163
 20
103.256
 30
0
 10
200.657
 20
103.256
 30
0
 10
201.029
 20
103.256
 30
0
 10
201.259
 20
103.256
 30
0
 10
201.337
 20
103.256
 30
0
  0
SPLINE
  5
A28
330
A02
100
AcDbEntity
  8
View
100
AcDbSpline
210
0
220
0
230
1
 70
8
 71
3
 72
8
 73
4
 74
0
 40
0.618143
 40
0.618143
 40
0.618143
 40
0.618143
 40
0.979451
 40
0.979451
 40
0.979451
 40
0.979451
 10
195.1
 20
103.256
 30
0
 10
194.572
 20
103.256
 30
0
 10
194.113
 20
103.256
 30
0
 10
193.751
 20
103.256
 30
0
  0
SPLINE
  5
A29
330
A02
100
AcDbEntity
  8
View
100
AcDbSpline
210
0
220
0
230
1
 70
8
 71
1
 72
4
 73
2
 74
0
 40
0
 40
0
 40
1.276
 40
1.276
 10
193.998
 20
85.3872
 30
0
 10
193.998
 20
87.8872
 30
0
  0
ARC
  5
A2A
330
A02
100
AcDbEntity
  8
SectionView
100
AcDbCircle
 10
277.154
 20
198.169
 30
0
 40
4.25
100
AcDbArc
 50
-166.391
 51
-90
  0
LINE
  5
A2B
330
A02
100
AcDbEntity
  8
SectionView
100
AcDbLine
 10
277.154
 20
152.419
 30
0
 11
277.154
 21
193.919
 31
0
  0
LINE
  5
A2C
330
A02
100
AcDbEntity
  8
SectionView
100
AcDbLine
 10
280.154
 20
195.158
 30
0
 11
280.154
 21
151.179
 31
0
  0
ARC
  5
A2D
330
A02
100
AcDbEntity
  8
SectionView
100
AcDbCircle
 10
277.154
 20
148.169
 30
0
 40
4.25
100
AcDbArc
 50
-135.099
 51
45.0991
  0
LINE
  5
A2E
330
A02
100
AcDbEntity
  8
SectionView
100
AcDbLine
 10
274.144
 20
145.169
 30
0
 11
158.854
 21
145.169
 31
0
  0
LINE
  5
A2F
330
A02
100
AcDbEntity
  8
SectionView
100
AcDbLine
 10
158.854
 20
145.169
 30
0
 11
158.854
 21
201.169
 31
0
  0
LINE
  5
A30
330
A02
100
AcDbEntity
  8
SectionView
100
AcDbLine
 10
158.854
 20
201.169
 30
0
 11
274.144
 21
201.169
 31
0
  0
ARC
  5
A31
330
A02
100
AcDbEntity
  8
SectionView
100
AcDbCircle
 10
277.154
 20
198.169
 30
0
 40
4.25
100
AcDbArc
 50
-45.0991
 51
135.099
  0
CIRCLE
  5
A32
330
A02
100
AcDbEntity
  8
SectionView
100
AcDbCircle
 10
168.854
 20
155.169
 40
1.65
  0
CIRCLE
  5
A33
330
A02
100
AcDbEntity
  8
SectionView
100
AcDbCircle
 10
277.154
 20
148.169
 40
1.65
  0
CIRCLE
  5
A34
330
A02
100
AcDbEntity
  8
SectionView
100
AcDbCircle
 10
168.854
 20
191.169
 40
1.65
  0
LINE
  5
A35
330
A02
100
AcDbEntity
  8
SectionView
100
AcDbLine
 10
273.023
 20
197.169
 30
0
 11
224.854
 21
197.169
 31
0
  0
LINE
  5
A36
330
A02
100
AcDbEntity
  8
SectionView
100
AcDbLine
 10
224.854
 20
197.169
 30
0
 11
224.854
 21
197.669
 31
0
  0
LINE
  5
A37
330
A02
100
AcDbEntity
  8
SectionView
100
AcDbLine
 10
224.854
 20
197.669
 30
0
 11
200.854
 21
197.669
 31
0
  0
LINE
  5
A38
330
A02
100
AcDbEntity
  8
SectionView
100
AcDbLine
 10
200.854
 20
197.669
 30
0
 11
200.854
 21
188.669
 31
0
  0
LINE
  5
A39
330
A02
100
AcDbEntity
  8
SectionView
100
AcDbLine
 10
200.854
 20
188.669
 30
0
 11
208.854
 21
188.669
 31
0
  0
LINE
  5
A3A
330
A02
100
AcDbEntity
  8
SectionView
100
AcDbLine
 10
208.854
 20
188.669
 30
0
 11
208.854
 21
185.969
 31
0
  0
LINE
  5
A3B
330
A02
100
AcDbEntity
  8
SectionView
100
AcDbLine
 10
208.854
 20
185.969
 30
0
 11
164.854
 21
185.969
 31
0
  0
LINE
  5
A3C
330
A02
100
AcDbEntity
  8
SectionView
100
AcDbLine
 10
164.854
 20
160.369
 30
0
 11
164.854
 21
185.969
 31
0
  0
LINE
  5
A3D
330
A02
100
AcDbEntity
  8
SectionView
100
AcDbLine
 10
164.854
 20
160.369
 30
0
 11
208.854
 21
160.369
 31
0
  0
LINE
  5
A3E
330
A02
100
AcDbEntity
  8
SectionView
100
AcDbLine
 10
208.854
 20
160.369
 30
0
 11
208.854
 21
149.169
 31
0
  0
LINE
  5
A3F
330
A02
100
AcDbEntity
  8
SectionView
100
AcDbLine
 10
208.854
 20
149.169
 30
0
 11
273.023
 21
149.169
 31
0
  0
ARC
  5
A40
330
A02
100
AcDbEntity
  8
SectionView
100
AcDbCircle
 10
277.154
 20
148.169
 30
0
 40
4.25
100
AcDbArc
 50
90
 51
166.391
  0
CIRCLE
  5
A41
330
A02
100
AcDbEntity
  8
SectionView
100
AcDbCircle
 10
277.154
 20
198.169
 40
1.65
  0
LINE
  5
A42
330
A02
100
AcDbEntity
  8
SectionView001
100
AcDbLine
 10
58.2139
 20
186.207
 30
0
 11
114.214
 21
186.207
 31
0
  0
LINE
  5
A43
330
A02
100
AcDbEntity
  8
SectionView001
100
AcDbLine
 10
58.2139
 20
164.707
 30
0
 11
58.2139
 21
186.207
 31
0
  0
LINE
  5
A44
330
A02
100
AcDbEntity
  8
SectionView001
100
AcDbLine
 10
114.214
 20
186.207
 30
0
 11
114.214
 21
164.707
 31
0
  0
SPLINE
  5
A45
330
A02
100
AcDbEntity
  8
SectionView001
100
AcDbSpline
210
0
220
0
230
1
 70
8
 71
1
 72
4
 73
2
 74
0
 40
0
 40
0
 40
1
 40
1
 10
111.714
 20
162.207
 30
0
 10
114.214
 20
164.707
 30
0
  0
LINE
  5
A46
330
A02
100
AcDbEntity
  8
SectionView001
100
AcDbLine
 10
111.714
 20
162.207
 30
0
 11
60.7139
 21
162.207
 31
0
  0
LINE
  5
A47
330
A02
100
AcDbEntity
  8
SectionView001
100
AcDbLine
 10
58.2139
 20
164.707
 30
0
 11
60.7139
 21
162.207
 31
0
  0
CIRCLE
  5
A48
330
A02
100
AcDbEntity
  8
SectionView001
100
AcDbCircle
 10
66.2139
 20
174.207
 40
1.9
  0
CIRCLE
  5
A49
330
A02
100
AcDbEntity
  8
SectionView001
100
AcDbCircle
 10
106.214
 20
174.207
 40
1.9
  0
LINE
  5
A4A
330
A02
100
AcDbEntity
  8
SectionView001
100
AcDbLine
 10
99.0139
 20
169.207
 30
0
 11
99.0139
 21
182.207
 31
0
  0
LINE
  5
A4B
330
A02
100
AcDbEntity
  8
SectionView001
100
AcDbLine
 10
99.0139
 20
182.207
 30
0
 11
73.4139
 21
182.207
 31
0
  0
LINE
  5
A4C
330
A02
100
AcDbEntity
  8
SectionView001
100
AcDbLine
 10
73.4139
 20
182.207
 30
0
 11
73.4139
 21
169.207
 31
0
  0
LINE
  5
A4D
330
A02
100
AcDbEntity
  8
SectionView001
100
AcDbLine
 10
99.0139
 20
169.207
 30
0
 11
73.4139
 21
169.207
 31
0
  0
ENDSEC
  0
SECTION
  2
OBJECTS
  0
DICTIONARY
  5
F000
330
0
100
AcDbDictionary
  3
ACAD_GROUP
350
F001
  0
DICTIONARY
  5
F001
330
F000
100
AcDbDictionary
  0
ENDSEC
  0
EOF