#define laser_width 64
#define laser_height 32
static char laser_bits[] = {
  0x00, 0x00, 0x00, 0x00, 0x00, 0x00, 0x01, 0x00, 0x00, 0x00, 0x00, 0x00, 
  0x00, 0x00, 0x01, 0x00, 0x00, 0x00, 0x00, 0x00, 0x00, 0x00, 0x01, 0x00, 
  0x00, 0x00, 0x00, 0x00, 0x10, 0x00, 0x01, 0x10, 0x00, 0x00, 0x00, 0x00, 
  0x20, 0x08, 0x21, 0x08, 0x00, 0x00, 0x00, 0x00, 0x40, 0x08, 0x21, 0x04, 
  0x00, 0x00, 0x00, 0x00, 0x80, 0x10, 0x11, 0x02, 0x00, 0x00, 0x00, 0x00, 
  0x00, 0x11, 0x11, 0x01, 0x00, 0x00, 0x00, 0x00, 0x00, 0x22, 0x89, 0x00, 
  0x00, 0x00, 0x00, 0x00, 0x00, 0x24, 0x49, 0x00, 0x00, 0x00, 0x00, 0x00, 
  0x60, 0x48, 0x25, 0x0C, 0x00, 0x00, 0x00, 0x00, 0x80, 0x51, 0x15, 0x03, 
  0x00, 0x00, 0x00, 0x00, 0x00, 0xA6, 0xCB, 0x00, 0x00, 0x00, 0x00, 0x00, 
  0x00, 0xD8, 0x37, 0x00, 0x00, 0x00, 0x00, 0x00, 0x00, 0xE0, 0x0F, 0x00, 
  0xFF, 0xFF, 0xFF, 0xFF, 0xFF, 0xFF, 0xFF, 0xFF, 0x00, 0x00, 0x00, 0x00, 
  0x00, 0xE0, 0x0F, 0x00, 0x00, 0x00, 0x00, 0x00, 0x00, 0xD8, 0x37, 0x00, 
  0x00, 0x00, 0x00, 0x00, 0x00, 0xA6, 0xCB, 0x00, 0x00, 0x00, 0x00, 0x00, 
  0x80, 0x51, 0x15, 0x03, 0x00, 0x00, 0x00, 0x00, 0x60, 0x48, 0x25, 0x0C, 
  0x00, 0x00, 0x00, 0x00, 0x00, 0x24, 0x49, 0x00, 0x00, 0x00, 0x00, 0x00, 
  0x00, 0x22, 0x89, 0x00, 0x00, 0x00, 0x00, 0x00, 0x00, 0x11, 0x11, 0x01, 
  0x00, 0x00, 0x00, 0x00, 0x80, 0x10, 0x11, 0x02, 0x00, 0x00, 0x00, 0x00, 
  0x40, 0x08, 0x21, 0x04, 0x00, 0x00, 0x00, 0x00, 0x20, 0x08, 0x21, 0x08, 
  0x00, 0x00, 0x00, 0x00, 0x10, 0x00, 0x01, 0x10, 0x00, 0x00, 0x00, 0x00, 
  0x00, 0x00, 0x01, 0x00, 0x00, 0x00, 0x00, 0x00, 0x00, 0x00, 0x01, 0x00, 
  0x00, 0x00, 0x00, 0x00, 0x00, 0x00, 0x01, 0x00, 0x00, 0x00, 0x00, 0x00, 
  0x00, 0x00, 0x00, 0x00, };
