solid OpenSCAD_Model
  facet normal 0.866026 0.5 0
    outer loop
      vertex 2.74064 1.22021 1.5
      vertex 2.42705 1.76336 0
      vertex 2.42705 1.76336 1.5
    endloop
  endfacet
  facet normal 0.866026 0.5 0
    outer loop
      vertex 2.42705 1.76336 0
      vertex 2.74064 1.22021 1.5
      vertex 2.74064 1.22021 0
    endloop
  endfacet
  facet normal -0.994522 0.104529 0
    outer loop
      vertex -3 0 0
      vertex -2.93444 0.623734 1.5
      vertex -2.93444 0.623734 0
    endloop
  endfacet
  facet normal -0.994522 0.104529 0
    outer loop
      vertex -2.93444 0.623734 1.5
      vertex -3 0 0
      vertex -3 0 1.5
    endloop
  endfacet
  facet normal 0.743144 0.669131 0
    outer loop
      vertex 2.42705 1.76336 1.5
      vertex 2.00739 2.22943 0
      vertex 2.00739 2.22943 1.5
    endloop
  endfacet
  facet normal 0.743144 0.669131 0
    outer loop
      vertex 2.00739 2.22943 0
      vertex 2.42705 1.76336 1.5
      vertex 2.42705 1.76336 0
    endloop
  endfacet
  facet normal -0.406737 0.913545 0
    outer loop
      vertex -0.927051 2.85317 0
      vertex -1.5 2.59808 1.5
      vertex -0.927051 2.85317 1.5
    endloop
  endfacet
  facet normal -0.406737 0.913545 0
    outer loop
      vertex -1.5 2.59808 1.5
      vertex -0.927051 2.85317 0
      vertex -1.5 2.59808 0
    endloop
  endfacet
  facet normal -0.951056 0.309017 0
    outer loop
      vertex -2.93444 0.623734 0
      vertex -2.74064 1.22021 1.5
      vertex -2.74064 1.22021 0
    endloop
  endfacet
  facet normal -0.951056 0.309017 0
    outer loop
      vertex -2.74064 1.22021 1.5
      vertex -2.93444 0.623734 0
      vertex -2.93444 0.623734 1.5
    endloop
  endfacet
  facet normal 0.994522 -0.104529 0
    outer loop
      vertex 2.93444 -0.623734 1.5
      vertex 3 0 0
      vertex 3 0 1.5
    endloop
  endfacet
  facet normal 0.994522 -0.104529 0
    outer loop
      vertex 3 0 0
      vertex 2.93444 -0.623734 1.5
      vertex 2.93444 -0.623734 0
    endloop
  endfacet
  facet normal 0.587786 0.809016 -0
    outer loop
      vertex 2.00739 2.22943 0
      vertex 1.5 2.59808 1.5
      vertex 2.00739 2.22943 1.5
    endloop
  endfacet
  facet normal 0.587786 0.809016 0
    outer loop
      vertex 1.5 2.59808 1.5
      vertex 2.00739 2.22943 0
      vertex 1.5 2.59808 0
    endloop
  endfacet
  facet normal 0 1 -0
    outer loop
      vertex 0.313585 2.98357 0
      vertex -0.313585 2.98357 1.5
      vertex 0.313585 2.98357 1.5
    endloop
  endfacet
  facet normal 0 1 0
    outer loop
      vertex -0.313585 2.98357 1.5
      vertex 0.313585 2.98357 0
      vertex -0.313585 2.98357 0
    endloop
  endfacet
  facet normal 0.406737 0.913545 -0
    outer loop
      vertex 1.5 2.59808 0
      vertex 0.927051 2.85317 1.5
      vertex 1.5 2.59808 1.5
    endloop
  endfacet
  facet normal 0.406737 0.913545 0
    outer loop
      vertex 0.927051 2.85317 1.5
      vertex 1.5 2.59808 0
      vertex 0.927051 2.85317 0
    endloop
  endfacet
  facet normal 0 0 1
    outer loop
      vertex 1.6 0 1.5
      vertex 3 0 1.5
      vertex 2.93444 0.623734 1.5
    endloop
  endfacet
  facet normal 0 0 1
    outer loop
      vertex 1.56504 0.332658 1.5
      vertex 2.93444 0.623734 1.5
      vertex 2.74064 1.22021 1.5
    endloop
  endfacet
  facet normal 0 0 1
    outer loop
      vertex 3 0 1.5
      vertex 1.6 0 1.5
      vertex 2.93444 -0.623734 1.5
    endloop
  endfacet
  facet normal 0 0 1
    outer loop
      vertex 1.46167 0.650778 1.5
      vertex 2.74064 1.22021 1.5
      vertex 2.42705 1.76336 1.5
    endloop
  endfacet
  facet normal -0 0 1
    outer loop
      vertex 1.56504 -0.332658 1.5
      vertex 2.93444 -0.623734 1.5
      vertex 1.6 0 1.5
    endloop
  endfacet
  facet normal 0 0 1
    outer loop
      vertex 1.29443 0.940456 1.5
      vertex 2.42705 1.76336 1.5
      vertex 2.00739 2.22943 1.5
    endloop
  endfacet
  facet normal 0 0 1
    outer loop
      vertex 2.93444 -0.623734 1.5
      vertex 1.56504 -0.332658 1.5
      vertex 2.74064 -1.22021 1.5
    endloop
  endfacet
  facet normal -0 0 1
    outer loop
      vertex 1.46167 -0.650778 1.5
      vertex 2.74064 -1.22021 1.5
      vertex 1.56504 -0.332658 1.5
    endloop
  endfacet
  facet normal 0 0 1
    outer loop
      vertex 2.93444 0.623734 1.5
      vertex 1.56504 0.332658 1.5
      vertex 1.6 0 1.5
    endloop
  endfacet
  facet normal 0 0 1
    outer loop
      vertex 1.07061 1.18903 1.5
      vertex 2.00739 2.22943 1.5
      vertex 1.5 2.59808 1.5
    endloop
  endfacet
  facet normal 0 0 1
    outer loop
      vertex 2.74064 1.22021 1.5
      vertex 1.46167 0.650778 1.5
      vertex 1.56504 0.332658 1.5
    endloop
  endfacet
  facet normal 0 0 1
    outer loop
      vertex 2.42705 1.76336 1.5
      vertex 1.29443 0.940456 1.5
      vertex 1.46167 0.650778 1.5
    endloop
  endfacet
  facet normal 0 0 1
    outer loop
      vertex 2.00739 2.22943 1.5
      vertex 1.07061 1.18903 1.5
      vertex 1.29443 0.940456 1.5
    endloop
  endfacet
  facet normal 0 0 1
    outer loop
      vertex 0.799999 1.38564 1.5
      vertex 1.5 2.59808 1.5
      vertex 0.927051 2.85317 1.5
    endloop
  endfacet
  facet normal 0 0 1
    outer loop
      vertex 1.5 2.59808 1.5
      vertex 0.799999 1.38564 1.5
      vertex 1.07061 1.18903 1.5
    endloop
  endfacet
  facet normal 0 0 1
    outer loop
      vertex 0.927051 2.85317 1.5
      vertex 0.494427 1.52169 1.5
      vertex 0.799999 1.38564 1.5
    endloop
  endfacet
  facet normal 0 0 1
    outer loop
      vertex 0.313585 2.98357 1.5
      vertex 0.494427 1.52169 1.5
      vertex 0.927051 2.85317 1.5
    endloop
  endfacet
  facet normal 0 0 1
    outer loop
      vertex 0.313585 2.98357 1.5
      vertex 0.167245 1.59123 1.5
      vertex 0.494427 1.52169 1.5
    endloop
  endfacet
  facet normal 0 0 1
    outer loop
      vertex 0.313585 2.98357 1.5
      vertex -0.167245 1.59123 1.5
      vertex 0.167245 1.59123 1.5
    endloop
  endfacet
  facet normal -0 0 1
    outer loop
      vertex -0.313585 2.98357 1.5
      vertex -0.167245 1.59123 1.5
      vertex 0.313585 2.98357 1.5
    endloop
  endfacet
  facet normal 0 0 1
    outer loop
      vertex -0.313585 2.98357 1.5
      vertex -0.494427 1.52169 1.5
      vertex -0.167245 1.59123 1.5
    endloop
  endfacet
  facet normal -0 0 1
    outer loop
      vertex -0.927051 2.85317 1.5
      vertex -0.494427 1.52169 1.5
      vertex -0.313585 2.98357 1.5
    endloop
  endfacet
  facet normal 0 0 1
    outer loop
      vertex -0.494427 1.52169 1.5
      vertex -0.927051 2.85317 1.5
      vertex -0.799999 1.38564 1.5
    endloop
  endfacet
  facet normal -0 0 1
    outer loop
      vertex -1.5 2.59808 1.5
      vertex -0.799999 1.38564 1.5
      vertex -0.927051 2.85317 1.5
    endloop
  endfacet
  facet normal 0 0 1
    outer loop
      vertex -0.799999 1.38564 1.5
      vertex -1.5 2.59808 1.5
      vertex -1.07061 1.18903 1.5
    endloop
  endfacet
  facet normal -0 0 1
    outer loop
      vertex -2.00739 2.22943 1.5
      vertex -1.07061 1.18903 1.5
      vertex -1.5 2.59808 1.5
    endloop
  endfacet
  facet normal 0 0 1
    outer loop
      vertex -1.07061 1.18903 1.5
      vertex -2.00739 2.22943 1.5
      vertex -1.29443 0.940456 1.5
    endloop
  endfacet
  facet normal -0 0 1
    outer loop
      vertex -2.42705 1.76336 1.5
      vertex -1.29443 0.940456 1.5
      vertex -2.00739 2.22943 1.5
    endloop
  endfacet
  facet normal 0 0 1
    outer loop
      vertex -1.29443 0.940456 1.5
      vertex -2.42705 1.76336 1.5
      vertex -1.46167 0.650778 1.5
    endloop
  endfacet
  facet normal -0 0 1
    outer loop
      vertex -2.74064 1.22021 1.5
      vertex -1.46167 0.650778 1.5
      vertex -2.42705 1.76336 1.5
    endloop
  endfacet
  facet normal 0 0 1
    outer loop
      vertex 2.74064 -1.22021 1.5
      vertex 1.46167 -0.650778 1.5
      vertex 2.42705 -1.76336 1.5
    endloop
  endfacet
  facet normal -0 0 1
    outer loop
      vertex 1.29443 -0.940456 1.5
      vertex 2.42705 -1.76336 1.5
      vertex 1.46167 -0.650778 1.5
    endloop
  endfacet
  facet normal 0 0 1
    outer loop
      vertex 2.42705 -1.76336 1.5
      vertex 1.29443 -0.940456 1.5
      vertex 2.00739 -2.22943 1.5
    endloop
  endfacet
  facet normal -0 0 1
    outer loop
      vertex 1.07061 -1.18903 1.5
      vertex 2.00739 -2.22943 1.5
      vertex 1.29443 -0.940456 1.5
    endloop
  endfacet
  facet normal 0 0 1
    outer loop
      vertex 2.00739 -2.22943 1.5
      vertex 1.07061 -1.18903 1.5
      vertex 1.5 -2.59808 1.5
    endloop
  endfacet
  facet normal -0 0 1
    outer loop
      vertex 0.799999 -1.38564 1.5
      vertex 1.5 -2.59808 1.5
      vertex 1.07061 -1.18903 1.5
    endloop
  endfacet
  facet normal 0 0 1
    outer loop
      vertex 1.5 -2.59808 1.5
      vertex 0.799999 -1.38564 1.5
      vertex 0.927051 -2.85317 1.5
    endloop
  endfacet
  facet normal -0 0 1
    outer loop
      vertex 0.494427 -1.52169 1.5
      vertex 0.927051 -2.85317 1.5
      vertex 0.799999 -1.38564 1.5
    endloop
  endfacet
  facet normal 0 0 1
    outer loop
      vertex 0.494427 -1.52169 1.5
      vertex 0.313585 -2.98357 1.5
      vertex 0.927051 -2.85317 1.5
    endloop
  endfacet
  facet normal -0 0 1
    outer loop
      vertex 0.167245 -1.59123 1.5
      vertex 0.313585 -2.98357 1.5
      vertex 0.494427 -1.52169 1.5
    endloop
  endfacet
  facet normal -0 0 1
    outer loop
      vertex -0.167245 -1.59123 1.5
      vertex 0.313585 -2.98357 1.5
      vertex 0.167245 -1.59123 1.5
    endloop
  endfacet
  facet normal 0 0 1
    outer loop
      vertex -0.167245 -1.59123 1.5
      vertex -0.313585 -2.98357 1.5
      vertex 0.313585 -2.98357 1.5
    endloop
  endfacet
  facet normal 0 0 1
    outer loop
      vertex -0.494427 -1.52169 1.5
      vertex -0.313585 -2.98357 1.5
      vertex -0.167245 -1.59123 1.5
    endloop
  endfacet
  facet normal 0 0 1
    outer loop
      vertex -0.927051 -2.85317 1.5
      vertex -0.494427 -1.52169 1.5
      vertex -0.799999 -1.38564 1.5
    endloop
  endfacet
  facet normal 0 0 1
    outer loop
      vertex -0.494427 -1.52169 1.5
      vertex -0.927051 -2.85317 1.5
      vertex -0.313585 -2.98357 1.5
    endloop
  endfacet
  facet normal 0 0 1
    outer loop
      vertex -1.5 -2.59808 1.5
      vertex -0.799999 -1.38564 1.5
      vertex -1.07061 -1.18903 1.5
    endloop
  endfacet
  facet normal 0 0 1
    outer loop
      vertex -2.00739 -2.22943 1.5
      vertex -1.07061 -1.18903 1.5
      vertex -1.29443 -0.940456 1.5
    endloop
  endfacet
  facet normal 0 0 1
    outer loop
      vertex -2.42705 -1.76336 1.5
      vertex -1.29443 -0.940456 1.5
      vertex -1.46167 -0.650778 1.5
    endloop
  endfacet
  facet normal 0 0 1
    outer loop
      vertex -0.799999 -1.38564 1.5
      vertex -1.5 -2.59808 1.5
      vertex -0.927051 -2.85317 1.5
    endloop
  endfacet
  facet normal 0 0 1
    outer loop
      vertex -2.74064 -1.22021 1.5
      vertex -1.46167 -0.650778 1.5
      vertex -1.56504 -0.332658 1.5
    endloop
  endfacet
  facet normal 0 0 1
    outer loop
      vertex -2.93444 -0.623734 1.5
      vertex -1.56504 -0.332658 1.5
      vertex -1.6 0 1.5
    endloop
  endfacet
  facet normal 0 0 1
    outer loop
      vertex -1.46167 0.650778 1.5
      vertex -2.74064 1.22021 1.5
      vertex -1.56504 0.332658 1.5
    endloop
  endfacet
  facet normal 0 0 1
    outer loop
      vertex -1.07061 -1.18903 1.5
      vertex -2.00739 -2.22943 1.5
      vertex -1.5 -2.59808 1.5
    endloop
  endfacet
  facet normal -0 0 1
    outer loop
      vertex -2.93444 0.623734 1.5
      vertex -1.56504 0.332658 1.5
      vertex -2.74064 1.22021 1.5
    endloop
  endfacet
  facet normal 0 0 1
    outer loop
      vertex -1.29443 -0.940456 1.5
      vertex -2.42705 -1.76336 1.5
      vertex -2.00739 -2.22943 1.5
    endloop
  endfacet
  facet normal 0 0 1
    outer loop
      vertex -1.56504 0.332658 1.5
      vertex -2.93444 0.623734 1.5
      vertex -1.6 0 1.5
    endloop
  endfacet
  facet normal 0 0 1
    outer loop
      vertex -1.46167 -0.650778 1.5
      vertex -2.74064 -1.22021 1.5
      vertex -2.42705 -1.76336 1.5
    endloop
  endfacet
  facet normal 0 0 1
    outer loop
      vertex -3 0 1.5
      vertex -1.6 0 1.5
      vertex -2.93444 0.623734 1.5
    endloop
  endfacet
  facet normal 0 0 1
    outer loop
      vertex -1.56504 -0.332658 1.5
      vertex -2.93444 -0.623734 1.5
      vertex -2.74064 -1.22021 1.5
    endloop
  endfacet
  facet normal 0 0 1
    outer loop
      vertex -1.6 0 1.5
      vertex -3 0 1.5
      vertex -2.93444 -0.623734 1.5
    endloop
  endfacet
  facet normal -0.866026 0.5 0
    outer loop
      vertex -2.74064 1.22021 0
      vertex -2.42705 1.76336 1.5
      vertex -2.42705 1.76336 0
    endloop
  endfacet
  facet normal -0.866026 0.5 0
    outer loop
      vertex -2.42705 1.76336 1.5
      vertex -2.74064 1.22021 0
      vertex -2.74064 1.22021 1.5
    endloop
  endfacet
  facet normal -0.587785 0.809017 0
    outer loop
      vertex -1.5 2.59808 0
      vertex -2.00739 2.22943 1.5
      vertex -1.5 2.59808 1.5
    endloop
  endfacet
  facet normal -0.587785 0.809017 0
    outer loop
      vertex -2.00739 2.22943 1.5
      vertex -1.5 2.59808 0
      vertex -2.00739 2.22943 0
    endloop
  endfacet
  facet normal -0.207911 0.978148 0
    outer loop
      vertex -0.313585 2.98357 0
      vertex -0.927051 2.85317 1.5
      vertex -0.313585 2.98357 1.5
    endloop
  endfacet
  facet normal -0.207911 0.978148 0
    outer loop
      vertex -0.927051 2.85317 1.5
      vertex -0.313585 2.98357 0
      vertex -0.927051 2.85317 0
    endloop
  endfacet
  facet normal -0.743144 0.669131 0
    outer loop
      vertex -2.42705 1.76336 0
      vertex -2.00739 2.22943 1.5
      vertex -2.00739 2.22943 0
    endloop
  endfacet
  facet normal -0.743144 0.669131 0
    outer loop
      vertex -2.00739 2.22943 1.5
      vertex -2.42705 1.76336 0
      vertex -2.42705 1.76336 1.5
    endloop
  endfacet
  facet normal 0.994522 0.104529 0
    outer loop
      vertex 3 0 1.5
      vertex 2.93444 0.623734 0
      vertex 2.93444 0.623734 1.5
    endloop
  endfacet
  facet normal 0.994522 0.104529 0
    outer loop
      vertex 2.93444 0.623734 0
      vertex 3 0 1.5
      vertex 3 0 0
    endloop
  endfacet
  facet normal -0.994522 -0.104529 0
    outer loop
      vertex -2.93444 -0.623734 0
      vertex -3 0 1.5
      vertex -3 0 0
    endloop
  endfacet
  facet normal -0.994522 -0.104529 0
    outer loop
      vertex -3 0 1.5
      vertex -2.93444 -0.623734 0
      vertex -2.93444 -0.623734 1.5
    endloop
  endfacet
  facet normal 0.587786 -0.809016 0
    outer loop
      vertex 1.5 -2.59808 0
      vertex 2.00739 -2.22943 1.5
      vertex 1.5 -2.59808 1.5
    endloop
  endfacet
  facet normal 0.587786 -0.809016 0
    outer loop
      vertex 2.00739 -2.22943 1.5
      vertex 1.5 -2.59808 0
      vertex 2.00739 -2.22943 0
    endloop
  endfacet
  facet normal 0.951056 0.309017 0
    outer loop
      vertex 2.93444 0.623734 1.5
      vertex 2.74064 1.22021 0
      vertex 2.74064 1.22021 1.5
    endloop
  endfacet
  facet normal 0.951056 0.309017 0
    outer loop
      vertex 2.74064 1.22021 0
      vertex 2.93444 0.623734 1.5
      vertex 2.93444 0.623734 0
    endloop
  endfacet
  facet normal 0.207911 0.978148 -0
    outer loop
      vertex 0.927051 2.85317 0
      vertex 0.313585 2.98357 1.5
      vertex 0.927051 2.85317 1.5
    endloop
  endfacet
  facet normal 0.207911 0.978148 0
    outer loop
      vertex 0.313585 2.98357 1.5
      vertex 0.927051 2.85317 0
      vertex 0.313585 2.98357 0
    endloop
  endfacet
  facet normal 0.866026 -0.5 0
    outer loop
      vertex 2.42705 -1.76336 1.5
      vertex 2.74064 -1.22021 0
      vertex 2.74064 -1.22021 1.5
    endloop
  endfacet
  facet normal 0.866026 -0.5 0
    outer loop
      vertex 2.74064 -1.22021 0
      vertex 2.42705 -1.76336 1.5
      vertex 2.42705 -1.76336 0
    endloop
  endfacet
  facet normal 0.207911 -0.978148 0
    outer loop
      vertex 0.313585 -2.98357 0
      vertex 0.927051 -2.85317 1.5
      vertex 0.313585 -2.98357 1.5
    endloop
  endfacet
  facet normal 0.207911 -0.978148 0
    outer loop
      vertex 0.927051 -2.85317 1.5
      vertex 0.313585 -2.98357 0
      vertex 0.927051 -2.85317 0
    endloop
  endfacet
  facet normal 0.406737 -0.913545 0
    outer loop
      vertex 0.927051 -2.85317 0
      vertex 1.5 -2.59808 1.5
      vertex 0.927051 -2.85317 1.5
    endloop
  endfacet
  facet normal 0.406737 -0.913545 0
    outer loop
      vertex 1.5 -2.59808 1.5
      vertex 0.927051 -2.85317 0
      vertex 1.5 -2.59808 0
    endloop
  endfacet
  facet normal 0.951056 -0.309017 0
    outer loop
      vertex 2.74064 -1.22021 1.5
      vertex 2.93444 -0.623734 0
      vertex 2.93444 -0.623734 1.5
    endloop
  endfacet
  facet normal 0.951056 -0.309017 0
    outer loop
      vertex 2.93444 -0.623734 0
      vertex 2.74064 -1.22021 1.5
      vertex 2.74064 -1.22021 0
    endloop
  endfacet
  facet normal -0.866026 -0.5 0
    outer loop
      vertex -2.42705 -1.76336 0
      vertex -2.74064 -1.22021 1.5
      vertex -2.74064 -1.22021 0
    endloop
  endfacet
  facet normal -0.866026 -0.5 0
    outer loop
      vertex -2.74064 -1.22021 1.5
      vertex -2.42705 -1.76336 0
      vertex -2.42705 -1.76336 1.5
    endloop
  endfacet
  facet normal 0 0 -1
    outer loop
      vertex 1.6 0 0
      vertex 3 0 0
      vertex 2.93444 -0.623734 0
    endloop
  endfacet
  facet normal 0 0 -1
    outer loop
      vertex 1.56504 -0.332658 0
      vertex 2.93444 -0.623734 0
      vertex 2.74064 -1.22021 0
    endloop
  endfacet
  facet normal 0 0 -1
    outer loop
      vertex 3 0 0
      vertex 1.6 0 0
      vertex 2.93444 0.623734 0
    endloop
  endfacet
  facet normal 0 0 -1
    outer loop
      vertex 1.46167 -0.650778 0
      vertex 2.74064 -1.22021 0
      vertex 2.42705 -1.76336 0
    endloop
  endfacet
  facet normal 0 0 -1
    outer loop
      vertex 1.56504 0.332658 0
      vertex 2.93444 0.623734 0
      vertex 1.6 0 0
    endloop
  endfacet
  facet normal 0 0 -1
    outer loop
      vertex 1.29443 -0.940456 0
      vertex 2.42705 -1.76336 0
      vertex 2.00739 -2.22943 0
    endloop
  endfacet
  facet normal -0 0 -1
    outer loop
      vertex 2.93444 0.623734 0
      vertex 1.56504 0.332658 0
      vertex 2.74064 1.22021 0
    endloop
  endfacet
  facet normal 0 0 -1
    outer loop
      vertex 1.46167 0.650778 0
      vertex 2.74064 1.22021 0
      vertex 1.56504 0.332658 0
    endloop
  endfacet
  facet normal 0 0 -1
    outer loop
      vertex 2.93444 -0.623734 0
      vertex 1.56504 -0.332658 0
      vertex 1.6 0 0
    endloop
  endfacet
  facet normal 0 0 -1
    outer loop
      vertex 1.07061 -1.18903 0
      vertex 2.00739 -2.22943 0
      vertex 1.5 -2.59808 0
    endloop
  endfacet
  facet normal 0 0 -1
    outer loop
      vertex 2.74064 -1.22021 0
      vertex 1.46167 -0.650778 0
      vertex 1.56504 -0.332658 0
    endloop
  endfacet
  facet normal 0 0 -1
    outer loop
      vertex 2.42705 -1.76336 0
      vertex 1.29443 -0.940456 0
      vertex 1.46167 -0.650778 0
    endloop
  endfacet
  facet normal 0 0 -1
    outer loop
      vertex 2.00739 -2.22943 0
      vertex 1.07061 -1.18903 0
      vertex 1.29443 -0.940456 0
    endloop
  endfacet
  facet normal 0 0 -1
    outer loop
      vertex 0.799999 -1.38564 0
      vertex 1.5 -2.59808 0
      vertex 0.927051 -2.85317 0
    endloop
  endfacet
  facet normal 0 0 -1
    outer loop
      vertex 1.5 -2.59808 0
      vertex 0.799999 -1.38564 0
      vertex 1.07061 -1.18903 0
    endloop
  endfacet
  facet normal 0 0 -1
    outer loop
      vertex 0.927051 -2.85317 0
      vertex 0.494427 -1.52169 0
      vertex 0.799999 -1.38564 0
    endloop
  endfacet
  facet normal 0 0 -1
    outer loop
      vertex 0.313585 -2.98357 0
      vertex 0.494427 -1.52169 0
      vertex 0.927051 -2.85317 0
    endloop
  endfacet
  facet normal 0 0 -1
    outer loop
      vertex 0.313585 -2.98357 0
      vertex 0.167245 -1.59123 0
      vertex 0.494427 -1.52169 0
    endloop
  endfacet
  facet normal 0 0 -1
    outer loop
      vertex 0.313585 -2.98357 0
      vertex -0.167245 -1.59123 0
      vertex 0.167245 -1.59123 0
    endloop
  endfacet
  facet normal 0 0 -1
    outer loop
      vertex -0.313585 -2.98357 0
      vertex -0.167245 -1.59123 0
      vertex 0.313585 -2.98357 0
    endloop
  endfacet
  facet normal 0 0 -1
    outer loop
      vertex -0.313585 -2.98357 0
      vertex -0.494427 -1.52169 0
      vertex -0.167245 -1.59123 0
    endloop
  endfacet
  facet normal 0 0 -1
    outer loop
      vertex -0.927051 -2.85317 0
      vertex -0.494427 -1.52169 0
      vertex -0.313585 -2.98357 0
    endloop
  endfacet
  facet normal -0 0 -1
    outer loop
      vertex -0.494427 -1.52169 0
      vertex -0.927051 -2.85317 0
      vertex -0.799999 -1.38564 0
    endloop
  endfacet
  facet normal 0 0 -1
    outer loop
      vertex -1.5 -2.59808 0
      vertex -0.799999 -1.38564 0
      vertex -0.927051 -2.85317 0
    endloop
  endfacet
  facet normal -0 0 -1
    outer loop
      vertex -0.799999 -1.38564 0
      vertex -1.5 -2.59808 0
      vertex -1.07061 -1.18903 0
    endloop
  endfacet
  facet normal 0 0 -1
    outer loop
      vertex -2.00739 -2.22943 0
      vertex -1.07061 -1.18903 0
      vertex -1.5 -2.59808 0
    endloop
  endfacet
  facet normal -0 0 -1
    outer loop
      vertex -1.07061 -1.18903 0
      vertex -2.00739 -2.22943 0
      vertex -1.29443 -0.940456 0
    endloop
  endfacet
  facet normal 0 0 -1
    outer loop
      vertex -2.42705 -1.76336 0
      vertex -1.29443 -0.940456 0
      vertex -2.00739 -2.22943 0
    endloop
  endfacet
  facet normal -0 0 -1
    outer loop
      vertex -1.29443 -0.940456 0
      vertex -2.42705 -1.76336 0
      vertex -1.46167 -0.650778 0
    endloop
  endfacet
  facet normal 0 0 -1
    outer loop
      vertex -2.74064 -1.22021 0
      vertex -1.46167 -0.650778 0
      vertex -2.42705 -1.76336 0
    endloop
  endfacet
  facet normal -0 0 -1
    outer loop
      vertex 2.74064 1.22021 0
      vertex 1.46167 0.650778 0
      vertex 2.42705 1.76336 0
    endloop
  endfacet
  facet normal 0 0 -1
    outer loop
      vertex 1.29443 0.940456 0
      vertex 2.42705 1.76336 0
      vertex 1.46167 0.650778 0
    endloop
  endfacet
  facet normal -0 0 -1
    outer loop
      vertex 2.42705 1.76336 0
      vertex 1.29443 0.940456 0
      vertex 2.00739 2.22943 0
    endloop
  endfacet
  facet normal 0 0 -1
    outer loop
      vertex 1.07061 1.18903 0
      vertex 2.00739 2.22943 0
      vertex 1.29443 0.940456 0
    endloop
  endfacet
  facet normal -0 0 -1
    outer loop
      vertex 2.00739 2.22943 0
      vertex 1.07061 1.18903 0
      vertex 1.5 2.59808 0
    endloop
  endfacet
  facet normal 0 0 -1
    outer loop
      vertex 0.799999 1.38564 0
      vertex 1.5 2.59808 0
      vertex 1.07061 1.18903 0
    endloop
  endfacet
  facet normal -0 0 -1
    outer loop
      vertex 1.5 2.59808 0
      vertex 0.799999 1.38564 0
      vertex 0.927051 2.85317 0
    endloop
  endfacet
  facet normal 0 0 -1
    outer loop
      vertex 0.494427 1.52169 0
      vertex 0.927051 2.85317 0
      vertex 0.799999 1.38564 0
    endloop
  endfacet
  facet normal 0 0 -1
    outer loop
      vertex 0.494427 1.52169 0
      vertex 0.313585 2.98357 0
      vertex 0.927051 2.85317 0
    endloop
  endfacet
  facet normal 0 0 -1
    outer loop
      vertex 0.167245 1.59123 0
      vertex 0.313585 2.98357 0
      vertex 0.494427 1.52169 0
    endloop
  endfacet
  facet normal 0 0 -1
    outer loop
      vertex -0.167245 1.59123 0
      vertex 0.313585 2.98357 0
      vertex 0.167245 1.59123 0
    endloop
  endfacet
  facet normal 0 0 -1
    outer loop
      vertex -0.167245 1.59123 0
      vertex -0.313585 2.98357 0
      vertex 0.313585 2.98357 0
    endloop
  endfacet
  facet normal 0 0 -1
    outer loop
      vertex -0.494427 1.52169 0
      vertex -0.313585 2.98357 0
      vertex -0.167245 1.59123 0
    endloop
  endfacet
  facet normal 0 0 -1
    outer loop
      vertex -0.927051 2.85317 0
      vertex -0.494427 1.52169 0
      vertex -0.799999 1.38564 0
    endloop
  endfacet
  facet normal 0 0 -1
    outer loop
      vertex -0.494427 1.52169 0
      vertex -0.927051 2.85317 0
      vertex -0.313585 2.98357 0
    endloop
  endfacet
  facet normal 0 0 -1
    outer loop
      vertex -1.5 2.59808 0
      vertex -0.799999 1.38564 0
      vertex -1.07061 1.18903 0
    endloop
  endfacet
  facet normal 0 0 -1
    outer loop
      vertex -2.00739 2.22943 0
      vertex -1.07061 1.18903 0
      vertex -1.29443 0.940456 0
    endloop
  endfacet
  facet normal 0 0 -1
    outer loop
      vertex -2.42705 1.76336 0
      vertex -1.29443 0.940456 0
      vertex -1.46167 0.650778 0
    endloop
  endfacet
  facet normal 0 0 -1
    outer loop
      vertex -0.799999 1.38564 0
      vertex -1.5 2.59808 0
      vertex -0.927051 2.85317 0
    endloop
  endfacet
  facet normal 0 0 -1
    outer loop
      vertex -2.74064 1.22021 0
      vertex -1.46167 0.650778 0
      vertex -1.56504 0.332658 0
    endloop
  endfacet
  facet normal 0 0 -1
    outer loop
      vertex -2.93444 0.623734 0
      vertex -1.56504 0.332658 0
      vertex -1.6 0 0
    endloop
  endfacet
  facet normal -0 0 -1
    outer loop
      vertex -1.46167 -0.650778 0
      vertex -2.74064 -1.22021 0
      vertex -1.56504 -0.332658 0
    endloop
  endfacet
  facet normal 0 0 -1
    outer loop
      vertex -1.07061 1.18903 0
      vertex -2.00739 2.22943 0
      vertex -1.5 2.59808 0
    endloop
  endfacet
  facet normal 0 0 -1
    outer loop
      vertex -2.93444 -0.623734 0
      vertex -1.56504 -0.332658 0
      vertex -2.74064 -1.22021 0
    endloop
  endfacet
  facet normal 0 0 -1
    outer loop
      vertex -1.29443 0.940456 0
      vertex -2.42705 1.76336 0
      vertex -2.00739 2.22943 0
    endloop
  endfacet
  facet normal -0 0 -1
    outer loop
      vertex -1.56504 -0.332658 0
      vertex -2.93444 -0.623734 0
      vertex -1.6 0 0
    endloop
  endfacet
  facet normal 0 0 -1
    outer loop
      vertex -1.46167 0.650778 0
      vertex -2.74064 1.22021 0
      vertex -2.42705 1.76336 0
    endloop
  endfacet
  facet normal 0 0 -1
    outer loop
      vertex -3 0 0
      vertex -1.6 0 0
      vertex -2.93444 -0.623734 0
    endloop
  endfacet
  facet normal 0 0 -1
    outer loop
      vertex -1.56504 0.332658 0
      vertex -2.93444 0.623734 0
      vertex -2.74064 1.22021 0
    endloop
  endfacet
  facet normal 0 0 -1
    outer loop
      vertex -1.6 0 0
      vertex -3 0 0
      vertex -2.93444 0.623734 0
    endloop
  endfacet
  facet normal -0.951056 -0.309017 0
    outer loop
      vertex -2.74064 -1.22021 0
      vertex -2.93444 -0.623734 1.5
      vertex -2.93444 -0.623734 0
    endloop
  endfacet
  facet normal -0.951056 -0.309017 0
    outer loop
      vertex -2.93444 -0.623734 1.5
      vertex -2.74064 -1.22021 0
      vertex -2.74064 -1.22021 1.5
    endloop
  endfacet
  facet normal -0.743144 -0.669131 0
    outer loop
      vertex -2.00739 -2.22943 0
      vertex -2.42705 -1.76336 1.5
      vertex -2.42705 -1.76336 0
    endloop
  endfacet
  facet normal -0.743144 -0.669131 0
    outer loop
      vertex -2.42705 -1.76336 1.5
      vertex -2.00739 -2.22943 0
      vertex -2.00739 -2.22943 1.5
    endloop
  endfacet
  facet normal -0.207911 -0.978148 0
    outer loop
      vertex -0.927051 -2.85317 0
      vertex -0.313585 -2.98357 1.5
      vertex -0.927051 -2.85317 1.5
    endloop
  endfacet
  facet normal -0.207911 -0.978148 -0
    outer loop
      vertex -0.313585 -2.98357 1.5
      vertex -0.927051 -2.85317 0
      vertex -0.313585 -2.98357 0
    endloop
  endfacet
  facet normal 0 -1 0
    outer loop
      vertex -0.313585 -2.98357 0
      vertex 0.313585 -2.98357 1.5
      vertex -0.313585 -2.98357 1.5
    endloop
  endfacet
  facet normal 0 -1 -0
    outer loop
      vertex 0.313585 -2.98357 1.5
      vertex -0.313585 -2.98357 0
      vertex 0.313585 -2.98357 0
    endloop
  endfacet
  facet normal 0.743144 -0.669131 0
    outer loop
      vertex 2.00739 -2.22943 1.5
      vertex 2.42705 -1.76336 0
      vertex 2.42705 -1.76336 1.5
    endloop
  endfacet
  facet normal 0.743144 -0.669131 0
    outer loop
      vertex 2.42705 -1.76336 0
      vertex 2.00739 -2.22943 1.5
      vertex 2.00739 -2.22943 0
    endloop
  endfacet
  facet normal -0.406737 -0.913545 0
    outer loop
      vertex -1.5 -2.59808 0
      vertex -0.927051 -2.85317 1.5
      vertex -1.5 -2.59808 1.5
    endloop
  endfacet
  facet normal -0.406737 -0.913545 -0
    outer loop
      vertex -0.927051 -2.85317 1.5
      vertex -1.5 -2.59808 0
      vertex -0.927051 -2.85317 0
    endloop
  endfacet
  facet normal -0.587786 -0.809016 0
    outer loop
      vertex -2.00739 -2.22943 0
      vertex -1.5 -2.59808 1.5
      vertex -2.00739 -2.22943 1.5
    endloop
  endfacet
  facet normal -0.587786 -0.809016 -0
    outer loop
      vertex -1.5 -2.59808 1.5
      vertex -2.00739 -2.22943 0
      vertex -1.5 -2.59808 0
    endloop
  endfacet
  facet normal -0.994522 -0.104528 0
    outer loop
      vertex 1.6 0 0
      vertex 1.56504 0.332658 1.5
      vertex 1.56504 0.332658 0
    endloop
  endfacet
  facet normal -0.994522 -0.104528 0
    outer loop
      vertex 1.56504 0.332658 1.5
      vertex 1.6 0 0
      vertex 1.6 0 1.5
    endloop
  endfacet
  facet normal 0.994522 -0.104528 0
    outer loop
      vertex -1.6 0 1.5
      vertex -1.56504 0.332658 0
      vertex -1.56504 0.332658 1.5
    endloop
  endfacet
  facet normal 0.994522 -0.104528 0
    outer loop
      vertex -1.56504 0.332658 0
      vertex -1.6 0 1.5
      vertex -1.6 0 0
    endloop
  endfacet
  facet normal 0 -1 0
    outer loop
      vertex -0.167245 1.59123 0
      vertex 0.167245 1.59123 1.5
      vertex -0.167245 1.59123 1.5
    endloop
  endfacet
  facet normal 0 -1 -0
    outer loop
      vertex 0.167245 1.59123 1.5
      vertex -0.167245 1.59123 0
      vertex 0.167245 1.59123 0
    endloop
  endfacet
  facet normal 0 1 -0
    outer loop
      vertex 0.167245 -1.59123 0
      vertex -0.167245 -1.59123 1.5
      vertex 0.167245 -1.59123 1.5
    endloop
  endfacet
  facet normal 0 1 0
    outer loop
      vertex -0.167245 -1.59123 1.5
      vertex 0.167245 -1.59123 0
      vertex -0.167245 -1.59123 0
    endloop
  endfacet
  facet normal -0.743144 -0.669132 0
    outer loop
      vertex 1.29443 0.940456 0
      vertex 1.07061 1.18903 1.5
      vertex 1.07061 1.18903 0
    endloop
  endfacet
  facet normal -0.743144 -0.669132 0
    outer loop
      vertex 1.07061 1.18903 1.5
      vertex 1.29443 0.940456 0
      vertex 1.29443 0.940456 1.5
    endloop
  endfacet
  facet normal 0.743144 -0.669132 0
    outer loop
      vertex -1.29443 0.940456 1.5
      vertex -1.07061 1.18903 0
      vertex -1.07061 1.18903 1.5
    endloop
  endfacet
  facet normal 0.743144 -0.669132 0
    outer loop
      vertex -1.07061 1.18903 0
      vertex -1.29443 0.940456 1.5
      vertex -1.29443 0.940456 0
    endloop
  endfacet
  facet normal 0.406738 -0.913545 0
    outer loop
      vertex -0.799999 1.38564 0
      vertex -0.494427 1.52169 1.5
      vertex -0.799999 1.38564 1.5
    endloop
  endfacet
  facet normal 0.406738 -0.913545 0
    outer loop
      vertex -0.494427 1.52169 1.5
      vertex -0.799999 1.38564 0
      vertex -0.494427 1.52169 0
    endloop
  endfacet
  facet normal -0.951056 0.309018 0
    outer loop
      vertex 1.46167 -0.650778 0
      vertex 1.56504 -0.332658 1.5
      vertex 1.56504 -0.332658 0
    endloop
  endfacet
  facet normal -0.951056 0.309018 0
    outer loop
      vertex 1.56504 -0.332658 1.5
      vertex 1.46167 -0.650778 0
      vertex 1.46167 -0.650778 1.5
    endloop
  endfacet
  facet normal -0.866027 -0.499998 0
    outer loop
      vertex 1.46167 0.650778 0
      vertex 1.29443 0.940456 1.5
      vertex 1.29443 0.940456 0
    endloop
  endfacet
  facet normal -0.866027 -0.499998 0
    outer loop
      vertex 1.29443 0.940456 1.5
      vertex 1.46167 0.650778 0
      vertex 1.46167 0.650778 1.5
    endloop
  endfacet
  facet normal -0.951056 -0.309018 0
    outer loop
      vertex 1.56504 0.332658 0
      vertex 1.46167 0.650778 1.5
      vertex 1.46167 0.650778 0
    endloop
  endfacet
  facet normal -0.951056 -0.309018 0
    outer loop
      vertex 1.46167 0.650778 1.5
      vertex 1.56504 0.332658 0
      vertex 1.56504 0.332658 1.5
    endloop
  endfacet
  facet normal -0.406738 -0.913545 0
    outer loop
      vertex 0.494427 1.52169 0
      vertex 0.799999 1.38564 1.5
      vertex 0.494427 1.52169 1.5
    endloop
  endfacet
  facet normal -0.406738 -0.913545 -0
    outer loop
      vertex 0.799999 1.38564 1.5
      vertex 0.494427 1.52169 0
      vertex 0.799999 1.38564 0
    endloop
  endfacet
  facet normal -0.207909 -0.978148 0
    outer loop
      vertex 0.167245 1.59123 0
      vertex 0.494427 1.52169 1.5
      vertex 0.167245 1.59123 1.5
    endloop
  endfacet
  facet normal -0.207909 -0.978148 -0
    outer loop
      vertex 0.494427 1.52169 1.5
      vertex 0.167245 1.59123 0
      vertex 0.494427 1.52169 0
    endloop
  endfacet
  facet normal -0.587785 -0.809017 0
    outer loop
      vertex 0.799999 1.38564 0
      vertex 1.07061 1.18903 1.5
      vertex 0.799999 1.38564 1.5
    endloop
  endfacet
  facet normal -0.587785 -0.809017 -0
    outer loop
      vertex 1.07061 1.18903 1.5
      vertex 0.799999 1.38564 0
      vertex 1.07061 1.18903 0
    endloop
  endfacet
  facet normal 0.866027 -0.499998 0
    outer loop
      vertex -1.46167 0.650778 1.5
      vertex -1.29443 0.940456 0
      vertex -1.29443 0.940456 1.5
    endloop
  endfacet
  facet normal 0.866027 -0.499998 0
    outer loop
      vertex -1.29443 0.940456 0
      vertex -1.46167 0.650778 1.5
      vertex -1.46167 0.650778 0
    endloop
  endfacet
  facet normal 0.951056 -0.309018 0
    outer loop
      vertex -1.56504 0.332658 1.5
      vertex -1.46167 0.650778 0
      vertex -1.46167 0.650778 1.5
    endloop
  endfacet
  facet normal 0.951056 -0.309018 0
    outer loop
      vertex -1.46167 0.650778 0
      vertex -1.56504 0.332658 1.5
      vertex -1.56504 0.332658 0
    endloop
  endfacet
  facet normal 0.587785 -0.809017 0
    outer loop
      vertex -1.07061 1.18903 0
      vertex -0.799999 1.38564 1.5
      vertex -1.07061 1.18903 1.5
    endloop
  endfacet
  facet normal 0.587785 -0.809017 0
    outer loop
      vertex -0.799999 1.38564 1.5
      vertex -1.07061 1.18903 0
      vertex -0.799999 1.38564 0
    endloop
  endfacet
  facet normal 0.207909 -0.978148 0
    outer loop
      vertex -0.494427 1.52169 0
      vertex -0.167245 1.59123 1.5
      vertex -0.494427 1.52169 1.5
    endloop
  endfacet
  facet normal 0.207909 -0.978148 0
    outer loop
      vertex -0.167245 1.59123 1.5
      vertex -0.494427 1.52169 0
      vertex -0.167245 1.59123 0
    endloop
  endfacet
  facet normal -0.994522 0.104528 0
    outer loop
      vertex 1.56504 -0.332658 0
      vertex 1.6 0 1.5
      vertex 1.6 0 0
    endloop
  endfacet
  facet normal -0.994522 0.104528 0
    outer loop
      vertex 1.6 0 1.5
      vertex 1.56504 -0.332658 0
      vertex 1.56504 -0.332658 1.5
    endloop
  endfacet
  facet normal -0.207909 0.978148 0
    outer loop
      vertex 0.494427 -1.52169 0
      vertex 0.167245 -1.59123 1.5
      vertex 0.494427 -1.52169 1.5
    endloop
  endfacet
  facet normal -0.207909 0.978148 0
    outer loop
      vertex 0.167245 -1.59123 1.5
      vertex 0.494427 -1.52169 0
      vertex 0.167245 -1.59123 0
    endloop
  endfacet
  facet normal -0.866027 0.499998 0
    outer loop
      vertex 1.29443 -0.940456 0
      vertex 1.46167 -0.650778 1.5
      vertex 1.46167 -0.650778 0
    endloop
  endfacet
  facet normal -0.866027 0.499998 0
    outer loop
      vertex 1.46167 -0.650778 1.5
      vertex 1.29443 -0.940456 0
      vertex 1.29443 -0.940456 1.5
    endloop
  endfacet
  facet normal -0.587785 0.809017 0
    outer loop
      vertex 1.07061 -1.18903 0
      vertex 0.799999 -1.38564 1.5
      vertex 1.07061 -1.18903 1.5
    endloop
  endfacet
  facet normal -0.587785 0.809017 0
    outer loop
      vertex 0.799999 -1.38564 1.5
      vertex 1.07061 -1.18903 0
      vertex 0.799999 -1.38564 0
    endloop
  endfacet
  facet normal -0.406738 0.913545 0
    outer loop
      vertex 0.799999 -1.38564 0
      vertex 0.494427 -1.52169 1.5
      vertex 0.799999 -1.38564 1.5
    endloop
  endfacet
  facet normal -0.406738 0.913545 0
    outer loop
      vertex 0.494427 -1.52169 1.5
      vertex 0.799999 -1.38564 0
      vertex 0.494427 -1.52169 0
    endloop
  endfacet
  facet normal 0.743144 0.669132 0
    outer loop
      vertex -1.07061 -1.18903 1.5
      vertex -1.29443 -0.940456 0
      vertex -1.29443 -0.940456 1.5
    endloop
  endfacet
  facet normal 0.743144 0.669132 0
    outer loop
      vertex -1.29443 -0.940456 0
      vertex -1.07061 -1.18903 1.5
      vertex -1.07061 -1.18903 0
    endloop
  endfacet
  facet normal 0.866027 0.499998 0
    outer loop
      vertex -1.29443 -0.940456 1.5
      vertex -1.46167 -0.650778 0
      vertex -1.46167 -0.650778 1.5
    endloop
  endfacet
  facet normal 0.866027 0.499998 0
    outer loop
      vertex -1.46167 -0.650778 0
      vertex -1.29443 -0.940456 1.5
      vertex -1.29443 -0.940456 0
    endloop
  endfacet
  facet normal 0.951056 0.309018 0
    outer loop
      vertex -1.46167 -0.650778 1.5
      vertex -1.56504 -0.332658 0
      vertex -1.56504 -0.332658 1.5
    endloop
  endfacet
  facet normal 0.951056 0.309018 0
    outer loop
      vertex -1.56504 -0.332658 0
      vertex -1.46167 -0.650778 1.5
      vertex -1.46167 -0.650778 0
    endloop
  endfacet
  facet normal 0.994522 0.104528 0
    outer loop
      vertex -1.56504 -0.332658 1.5
      vertex -1.6 0 0
      vertex -1.6 0 1.5
    endloop
  endfacet
  facet normal 0.994522 0.104528 0
    outer loop
      vertex -1.6 0 0
      vertex -1.56504 -0.332658 1.5
      vertex -1.56504 -0.332658 0
    endloop
  endfacet
  facet normal -0.743144 0.669132 0
    outer loop
      vertex 1.07061 -1.18903 0
      vertex 1.29443 -0.940456 1.5
      vertex 1.29443 -0.940456 0
    endloop
  endfacet
  facet normal -0.743144 0.669132 0
    outer loop
      vertex 1.29443 -0.940456 1.5
      vertex 1.07061 -1.18903 0
      vertex 1.07061 -1.18903 1.5
    endloop
  endfacet
  facet normal 0.406738 0.913545 -0
    outer loop
      vertex -0.494427 -1.52169 0
      vertex -0.799999 -1.38564 1.5
      vertex -0.494427 -1.52169 1.5
    endloop
  endfacet
  facet normal 0.406738 0.913545 0
    outer loop
      vertex -0.799999 -1.38564 1.5
      vertex -0.494427 -1.52169 0
      vertex -0.799999 -1.38564 0
    endloop
  endfacet
  facet normal 0.587785 0.809017 -0
    outer loop
      vertex -0.799999 -1.38564 0
      vertex -1.07061 -1.18903 1.5
      vertex -0.799999 -1.38564 1.5
    endloop
  endfacet
  facet normal 0.587785 0.809017 0
    outer loop
      vertex -1.07061 -1.18903 1.5
      vertex -0.799999 -1.38564 0
      vertex -1.07061 -1.18903 0
    endloop
  endfacet
  facet normal 0.207909 0.978148 -0
    outer loop
      vertex -0.167245 -1.59123 0
      vertex -0.494427 -1.52169 1.5
      vertex -0.167245 -1.59123 1.5
    endloop
  endfacet
  facet normal 0.207909 0.978148 0
    outer loop
      vertex -0.494427 -1.52169 1.5
      vertex -0.167245 -1.59123 0
      vertex -0.494427 -1.52169 0
    endloop
  endfacet
endsolid OpenSCAD_Model
