M48
INCH
T52C0.035
T51C0.028
T50C0.043
T49C0.038
%
T51
X002783Y003642
X003039Y006189
X003693Y005260
X005248Y002988
X005661Y006201
X005744Y010232
X007343Y010228
X007402Y008996
X007425Y009610
X007929Y006213
X008898Y013346
X009488Y003465
X010362Y013205
X011602Y003335
X012744Y010043
X012941Y009374
X013264Y012768
X013366Y010677
X013429Y003406
T52
X004169Y008185
X004240Y010909
X008657Y005366
X011835Y002154
T49
X005291Y013059
X006291Y013059
X006961Y008008
X007961Y008008
X008776Y014535
X008961Y008008
X009776Y014535
X009961Y008008
X010776Y014535
X010961Y008008
X011776Y014535
X011961Y008008
X014571Y009972
X014571Y008972
X014571Y007972
X014571Y006972
T50
X007965Y002173
X009972Y002173
M30
