G04 start of page 3 for group 1 idx 3 *
G04 Title: SAP, bottom power *
G04 Creator: pcb 4.0.2 *
G04 CreationDate: Sat Jan 19 10:52:36 2019 UTC *
G04 For: phil *
G04 Format: Gerber/RS-274X *
G04 PCB-Dimensions (mil): 1811.02 1574.80 *
G04 PCB-Coordinate-Origin: lower left *
%MOIN*%
%FSLAX25Y25*%
%LNGBL*%
%ADD36C,0.0433*%
%ADD35C,0.0433*%
%ADD34C,0.1181*%
%ADD33C,0.0380*%
%ADD32C,0.0350*%
%ADD31C,0.0276*%
%ADD30C,0.0512*%
%ADD29C,0.0591*%
%ADD28C,0.0600*%
%ADD27C,0.0250*%
%ADD26C,0.0001*%
%ADD25C,0.0100*%
G54D25*X127441Y100433D02*X124016Y97008D01*
Y92087D01*
X134803Y81299D01*
Y75315D01*
X141378Y68740D01*
X128071Y95630D02*X127913D01*
X109843Y144606D02*Y145039D01*
X119843Y142953D02*Y145039D01*
X141378Y68740D02*X144961D01*
Y78740D02*X128071Y95630D01*
X107756Y145354D02*X107717Y145315D01*
X56614Y62008D02*X56732Y62126D01*
X79291D01*
X57441Y102323D02*X57480Y102283D01*
X73425D01*
G54D26*G36*
X136586Y32922D02*X136562Y32866D01*
Y35237D01*
X136584Y35187D01*
X136680Y34973D01*
X136754Y34750D01*
X136807Y34522D01*
X136840Y34289D01*
X136850Y34055D01*
X136840Y33821D01*
X136807Y33588D01*
X136754Y33360D01*
X136680Y33137D01*
X136586Y32922D01*
G37*
G36*
X149459Y124170D02*X153498Y120131D01*
Y93885D01*
X150603Y90990D01*
X150033D01*
X150002Y91119D01*
X149731Y91774D01*
X149459Y92217D01*
Y97472D01*
X149576Y97481D01*
X149691Y97509D01*
X149800Y97554D01*
X149901Y97616D01*
X149991Y97692D01*
X150067Y97782D01*
X150129Y97883D01*
X150174Y97992D01*
X150202Y98107D01*
X150209Y98224D01*
Y101224D01*
X150202Y101342D01*
X150174Y101457D01*
X150129Y101566D01*
X150067Y101667D01*
X149991Y101756D01*
X149901Y101833D01*
X149800Y101895D01*
X149691Y101940D01*
X149576Y101967D01*
X149459Y101977D01*
Y124170D01*
G37*
G36*
X145709Y127920D02*X149459Y124170D01*
Y101977D01*
X149341Y101967D01*
X149226Y101940D01*
X149117Y101895D01*
X149016Y101833D01*
X148927Y101756D01*
X148850Y101667D01*
X148788Y101566D01*
X148743Y101457D01*
X148716Y101342D01*
X148709Y101224D01*
Y98224D01*
X148716Y98107D01*
X148743Y97992D01*
X148788Y97883D01*
X148850Y97782D01*
X148927Y97692D01*
X149016Y97616D01*
X149117Y97554D01*
X149226Y97509D01*
X149341Y97481D01*
X149459Y97472D01*
Y92217D01*
X149360Y92378D01*
X148900Y92916D01*
X148362Y93376D01*
X147758Y93746D01*
X147104Y94017D01*
X146415Y94183D01*
X145709Y94238D01*
Y95224D01*
X147209D01*
X147326Y95231D01*
X147441Y95259D01*
X147550Y95304D01*
X147651Y95366D01*
X147741Y95442D01*
X147817Y95532D01*
X147879Y95633D01*
X147924Y95742D01*
X147952Y95857D01*
X147961Y95974D01*
X147952Y96092D01*
X147924Y96207D01*
X147879Y96316D01*
X147817Y96417D01*
X147741Y96506D01*
X147651Y96583D01*
X147550Y96645D01*
X147441Y96690D01*
X147326Y96717D01*
X147209Y96724D01*
X145709D01*
Y102724D01*
X147209D01*
X147326Y102731D01*
X147441Y102759D01*
X147550Y102804D01*
X147651Y102866D01*
X147741Y102942D01*
X147817Y103032D01*
X147879Y103133D01*
X147924Y103242D01*
X147952Y103357D01*
X147961Y103474D01*
X147952Y103592D01*
X147924Y103707D01*
X147879Y103816D01*
X147817Y103917D01*
X147741Y104006D01*
X147651Y104083D01*
X147550Y104145D01*
X147441Y104190D01*
X147326Y104217D01*
X147209Y104224D01*
X145709D01*
Y127920D01*
G37*
G36*
Y157480D02*X166772D01*
Y5748D01*
X145709D01*
Y16718D01*
X145893Y16795D01*
X146818Y17362D01*
X147643Y18066D01*
X148347Y18891D01*
X148914Y19815D01*
X149329Y20817D01*
X149582Y21872D01*
X149646Y22953D01*
X149582Y24034D01*
X149329Y25088D01*
X148914Y26090D01*
X148347Y27015D01*
X147643Y27840D01*
X146818Y28544D01*
X145893Y29111D01*
X145709Y29187D01*
Y65211D01*
X146415Y65266D01*
X147104Y65431D01*
X147758Y65703D01*
X148362Y66073D01*
X148900Y66533D01*
X149360Y67071D01*
X149731Y67675D01*
X150002Y68330D01*
X150167Y69018D01*
X150209Y69724D01*
X150167Y70431D01*
X150002Y71119D01*
X149731Y71774D01*
X149360Y72378D01*
X148900Y72916D01*
X148362Y73376D01*
X147758Y73746D01*
X147104Y74017D01*
X146415Y74183D01*
X145709Y74238D01*
Y75211D01*
X146415Y75266D01*
X147104Y75431D01*
X147758Y75703D01*
X148362Y76073D01*
X148900Y76533D01*
X149360Y77071D01*
X149731Y77675D01*
X150002Y78330D01*
X150167Y79018D01*
X150209Y79724D01*
X150167Y80431D01*
X150002Y81119D01*
X149731Y81774D01*
X149360Y82378D01*
X148900Y82916D01*
X148362Y83376D01*
X147758Y83746D01*
X147104Y84017D01*
X146415Y84183D01*
X145709Y84238D01*
Y85211D01*
X146415Y85266D01*
X147104Y85431D01*
X147758Y85703D01*
X148362Y86073D01*
X148851Y86490D01*
X151447D01*
X151535Y86483D01*
X151888Y86511D01*
X151888Y86511D01*
X152233Y86594D01*
X152560Y86729D01*
X152862Y86914D01*
X153131Y87144D01*
X153189Y87212D01*
X157277Y91299D01*
X157344Y91357D01*
X157574Y91626D01*
X157574Y91626D01*
X157759Y91928D01*
X157895Y92255D01*
X157977Y92600D01*
X158005Y92953D01*
X157998Y93041D01*
Y120787D01*
X157992Y120894D01*
X158005Y121063D01*
X157977Y121416D01*
X157895Y121760D01*
X157759Y122088D01*
X157574Y122390D01*
X157339Y122654D01*
X145709Y134284D01*
Y140734D01*
X145893Y140811D01*
X146818Y141377D01*
X147643Y142082D01*
X148347Y142906D01*
X148914Y143831D01*
X149329Y144833D01*
X149582Y145887D01*
X149646Y146969D01*
X149582Y148050D01*
X149329Y149104D01*
X148914Y150106D01*
X148347Y151031D01*
X147643Y151855D01*
X146818Y152560D01*
X145893Y153126D01*
X145709Y153203D01*
Y157480D01*
G37*
G36*
Y134284D02*X144291Y135702D01*
X144234Y135769D01*
X143964Y135999D01*
X143964Y135999D01*
X143850Y136069D01*
X143662Y136184D01*
X143431Y136280D01*
X143335Y136320D01*
X142991Y136402D01*
X142638Y136430D01*
X142550Y136423D01*
X137664D01*
X136562Y137525D01*
Y143918D01*
X136598Y143831D01*
X137165Y142906D01*
X137869Y142082D01*
X138694Y141377D01*
X139618Y140811D01*
X140620Y140396D01*
X141675Y140143D01*
X142756Y140057D01*
X143837Y140143D01*
X144892Y140396D01*
X145709Y140734D01*
Y134284D01*
G37*
G36*
X141959Y131670D02*X145709Y127920D01*
Y104224D01*
X144209D01*
X144091Y104217D01*
X143976Y104190D01*
X143867Y104145D01*
X143766Y104083D01*
X143677Y104006D01*
X143600Y103917D01*
X143538Y103816D01*
X143493Y103707D01*
X143466Y103592D01*
X143456Y103474D01*
X143466Y103357D01*
X143493Y103242D01*
X143538Y103133D01*
X143600Y103032D01*
X143677Y102942D01*
X143766Y102866D01*
X143867Y102804D01*
X143976Y102759D01*
X144091Y102731D01*
X144209Y102724D01*
X145709D01*
Y96724D01*
X144209D01*
X144091Y96717D01*
X143976Y96690D01*
X143867Y96645D01*
X143766Y96583D01*
X143677Y96506D01*
X143600Y96417D01*
X143538Y96316D01*
X143493Y96207D01*
X143466Y96092D01*
X143456Y95974D01*
X143466Y95857D01*
X143493Y95742D01*
X143538Y95633D01*
X143600Y95532D01*
X143677Y95442D01*
X143766Y95366D01*
X143867Y95304D01*
X143976Y95259D01*
X144091Y95231D01*
X144209Y95224D01*
X145709D01*
Y94238D01*
X145003Y94183D01*
X144314Y94017D01*
X143659Y93746D01*
X143055Y93376D01*
X142517Y92916D01*
X142057Y92378D01*
X141959Y92217D01*
Y97472D01*
X142076Y97481D01*
X142191Y97509D01*
X142300Y97554D01*
X142401Y97616D01*
X142491Y97692D01*
X142567Y97782D01*
X142629Y97883D01*
X142674Y97992D01*
X142702Y98107D01*
X142709Y98224D01*
Y101224D01*
X142702Y101342D01*
X142674Y101457D01*
X142629Y101566D01*
X142567Y101667D01*
X142491Y101756D01*
X142401Y101833D01*
X142300Y101895D01*
X142191Y101940D01*
X142076Y101967D01*
X141959Y101977D01*
Y131670D01*
G37*
G36*
X145709Y84238D02*X145003Y84183D01*
X144314Y84017D01*
X143659Y83746D01*
X143055Y83376D01*
X142727Y83095D01*
X141959Y83863D01*
Y87231D01*
X142057Y87071D01*
X142517Y86533D01*
X143055Y86073D01*
X143659Y85703D01*
X144314Y85431D01*
X145003Y85266D01*
X145709Y85211D01*
Y84238D01*
G37*
G36*
X141959Y83863D02*X136562Y89260D01*
Y104942D01*
X136566Y104943D01*
X136638Y104974D01*
X136704Y105016D01*
X136764Y105068D01*
X136814Y105128D01*
X136853Y105196D01*
X136987Y105494D01*
X137090Y105804D01*
X137164Y106122D01*
X137209Y106445D01*
X137224Y106772D01*
X137209Y107098D01*
X137164Y107421D01*
X137090Y107739D01*
X136987Y108049D01*
X136856Y108349D01*
X136816Y108417D01*
X136766Y108478D01*
X136706Y108530D01*
X136639Y108572D01*
X136566Y108603D01*
X136562Y108604D01*
Y131930D01*
X136732Y131916D01*
X136820Y131923D01*
X141706D01*
X141959Y131670D01*
Y101977D01*
X141841Y101967D01*
X141726Y101940D01*
X141617Y101895D01*
X141516Y101833D01*
X141427Y101756D01*
X141350Y101667D01*
X141288Y101566D01*
X141243Y101457D01*
X141216Y101342D01*
X141209Y101224D01*
Y98224D01*
X141216Y98107D01*
X141243Y97992D01*
X141288Y97883D01*
X141350Y97782D01*
X141427Y97692D01*
X141516Y97616D01*
X141617Y97554D01*
X141726Y97509D01*
X141841Y97481D01*
X141959Y97472D01*
Y92217D01*
X141687Y91774D01*
X141416Y91119D01*
X141250Y90431D01*
X141195Y89724D01*
X141250Y89018D01*
X141416Y88330D01*
X141687Y87675D01*
X141959Y87231D01*
Y83863D01*
G37*
G36*
X145709Y74238D02*X145003Y74183D01*
X144314Y74017D01*
X143659Y73746D01*
X143055Y73376D01*
X142517Y72916D01*
X142057Y72378D01*
X141687Y71774D01*
X141416Y71119D01*
X141358Y70881D01*
X136562Y75677D01*
Y85017D01*
X141243Y80337D01*
X141195Y79724D01*
X141250Y79018D01*
X141416Y78330D01*
X141687Y77675D01*
X142057Y77071D01*
X142517Y76533D01*
X143055Y76073D01*
X143659Y75703D01*
X144314Y75431D01*
X145003Y75266D01*
X145709Y75211D01*
Y74238D01*
G37*
G36*
Y29187D02*X144892Y29526D01*
X143837Y29779D01*
X142756Y29864D01*
X141675Y29779D01*
X140620Y29526D01*
X139618Y29111D01*
X138694Y28544D01*
X137869Y27840D01*
X137165Y27015D01*
X136598Y26090D01*
X136562Y26004D01*
Y32534D01*
X136591Y32468D01*
X136632Y32401D01*
X136684Y32342D01*
X136745Y32292D01*
X136812Y32251D01*
X136886Y32222D01*
X136962Y32205D01*
X137041Y32200D01*
X137119Y32207D01*
X137195Y32226D01*
X137268Y32257D01*
X137334Y32299D01*
X137394Y32351D01*
X137444Y32412D01*
X137483Y32480D01*
X137617Y32777D01*
X137720Y33087D01*
X137794Y33405D01*
X137839Y33729D01*
X137854Y34055D01*
X137839Y34381D01*
X137794Y34705D01*
X137720Y35023D01*
X137617Y35333D01*
X137486Y35632D01*
X137446Y35700D01*
X137396Y35761D01*
X137336Y35813D01*
X137269Y35855D01*
X137196Y35887D01*
X137120Y35906D01*
X137041Y35913D01*
X136962Y35908D01*
X136885Y35891D01*
X136811Y35861D01*
X136743Y35821D01*
X136682Y35770D01*
X136630Y35711D01*
X136588Y35644D01*
X136562Y35583D01*
Y39082D01*
X139685Y42205D01*
X136562Y45327D01*
Y71435D01*
X140276Y67721D01*
X140314Y67676D01*
X140494Y67523D01*
X140695Y67400D01*
X140913Y67309D01*
X141143Y67254D01*
X141378Y67236D01*
X141437Y67240D01*
X141953D01*
X142057Y67071D01*
X142517Y66533D01*
X143055Y66073D01*
X143659Y65703D01*
X144314Y65431D01*
X145003Y65266D01*
X145709Y65211D01*
Y29187D01*
G37*
G36*
Y5748D02*X136562D01*
Y19902D01*
X136598Y19815D01*
X137165Y18891D01*
X137869Y18066D01*
X138694Y17362D01*
X139618Y16795D01*
X140620Y16380D01*
X141675Y16127D01*
X142756Y16042D01*
X143837Y16127D01*
X144892Y16380D01*
X145709Y16718D01*
Y5748D01*
G37*
G36*
X136562Y157480D02*X145709D01*
Y153203D01*
X144892Y153541D01*
X143837Y153794D01*
X142756Y153880D01*
X141675Y153794D01*
X140620Y153541D01*
X139618Y153126D01*
X138694Y152560D01*
X137869Y151855D01*
X137165Y151031D01*
X136598Y150106D01*
X136562Y150019D01*
Y157480D01*
G37*
G36*
Y89260D02*X135539Y90283D01*
Y125847D01*
X135542Y125848D01*
X135614Y125879D01*
X135681Y125921D01*
X135740Y125973D01*
X135790Y126034D01*
X135829Y126102D01*
X135964Y126399D01*
X136067Y126709D01*
X136141Y127027D01*
X136186Y127351D01*
X136201Y127677D01*
X136186Y128003D01*
X136141Y128327D01*
X136067Y128645D01*
X135964Y128955D01*
X135833Y129254D01*
X135793Y129322D01*
X135742Y129383D01*
X135682Y129435D01*
X135616Y129477D01*
X135543Y129509D01*
X135539Y129510D01*
Y132266D01*
X135593Y132233D01*
X135708Y132162D01*
X136035Y132027D01*
X136379Y131944D01*
X136379D01*
X136562Y131930D01*
Y108604D01*
X136490Y108623D01*
X136411Y108630D01*
X136332Y108625D01*
X136255Y108607D01*
X136181Y108578D01*
X136113Y108537D01*
X136053Y108487D01*
X136000Y108427D01*
X135958Y108360D01*
X135927Y108288D01*
X135908Y108211D01*
X135900Y108132D01*
X135906Y108053D01*
X135923Y107976D01*
X135954Y107903D01*
X136050Y107689D01*
X136124Y107467D01*
X136178Y107238D01*
X136210Y107006D01*
X136220Y106772D01*
X136210Y106537D01*
X136178Y106305D01*
X136124Y106077D01*
X136050Y105854D01*
X135956Y105639D01*
X135926Y105567D01*
X135908Y105490D01*
X135903Y105411D01*
X135910Y105333D01*
X135930Y105257D01*
X135961Y105184D01*
X136003Y105118D01*
X136054Y105059D01*
X136115Y105008D01*
X136183Y104968D01*
X136256Y104939D01*
X136332Y104921D01*
X136411Y104916D01*
X136489Y104923D01*
X136562Y104942D01*
Y89260D01*
G37*
G36*
Y75677D02*X136303Y75936D01*
Y81240D01*
X136308Y81299D01*
X136289Y81535D01*
X136234Y81764D01*
X136144Y81982D01*
X136020Y82184D01*
X135867Y82363D01*
X135822Y82401D01*
X135539Y82685D01*
Y86041D01*
X136562Y85017D01*
Y75677D01*
G37*
G36*
Y45327D02*X135539Y46351D01*
Y72458D01*
X136562Y71435D01*
Y45327D01*
G37*
G36*
Y5748D02*X135539D01*
Y30719D01*
X135569Y30729D01*
X135868Y30860D01*
X135936Y30900D01*
X135997Y30951D01*
X136049Y31010D01*
X136092Y31077D01*
X136123Y31150D01*
X136142Y31227D01*
X136149Y31306D01*
X136144Y31385D01*
X136127Y31462D01*
X136097Y31535D01*
X136057Y31603D01*
X136006Y31664D01*
X135947Y31716D01*
X135880Y31758D01*
X135807Y31790D01*
X135731Y31809D01*
X135652Y31816D01*
X135573Y31811D01*
X135539Y31803D01*
Y36310D01*
X135573Y36302D01*
X135652Y36297D01*
X135730Y36304D01*
X135806Y36323D01*
X135879Y36354D01*
X135945Y36396D01*
X136004Y36448D01*
X136055Y36509D01*
X136095Y36576D01*
X136124Y36649D01*
X136142Y36726D01*
X136147Y36805D01*
X136140Y36883D01*
X136120Y36959D01*
X136089Y37032D01*
X136047Y37098D01*
X135995Y37157D01*
X135935Y37208D01*
X135867Y37247D01*
X135569Y37381D01*
X135539Y37391D01*
Y38058D01*
X136562Y39082D01*
Y35583D01*
X136557Y35571D01*
X136537Y35494D01*
X136530Y35415D01*
X136535Y35337D01*
X136553Y35259D01*
X136562Y35237D01*
Y32866D01*
X136556Y32850D01*
X136538Y32773D01*
X136533Y32695D01*
X136540Y32616D01*
X136559Y32540D01*
X136562Y32534D01*
Y26004D01*
X136183Y25088D01*
X135930Y24034D01*
X135845Y22953D01*
X135930Y21872D01*
X136183Y20817D01*
X136562Y19902D01*
Y5748D01*
G37*
G36*
X135539Y157480D02*X136562D01*
Y150019D01*
X136183Y149104D01*
X135930Y148050D01*
X135845Y146969D01*
X135930Y145887D01*
X136183Y144833D01*
X136562Y143918D01*
Y137525D01*
X135539Y138549D01*
Y157480D01*
G37*
G36*
Y90283D02*X132878Y92944D01*
X132936Y93182D01*
X132969Y93740D01*
X132936Y94299D01*
X132805Y94843D01*
X132639Y95243D01*
Y103361D01*
X132694Y103343D01*
X133012Y103269D01*
X133335Y103224D01*
X133661Y103209D01*
X133988Y103224D01*
X134311Y103269D01*
X134629Y103343D01*
X134939Y103446D01*
X135238Y103577D01*
X135307Y103617D01*
X135367Y103667D01*
X135419Y103727D01*
X135462Y103794D01*
X135493Y103867D01*
X135512Y103943D01*
X135520Y104022D01*
X135514Y104101D01*
X135497Y104178D01*
X135468Y104252D01*
X135427Y104320D01*
X135376Y104381D01*
X135317Y104433D01*
X135250Y104475D01*
X135177Y104506D01*
X135101Y104526D01*
X135022Y104533D01*
X134943Y104528D01*
X134866Y104510D01*
X134793Y104479D01*
X134579Y104383D01*
X134357Y104309D01*
X134128Y104256D01*
X133896Y104223D01*
X133661Y104213D01*
X133427Y104223D01*
X133195Y104256D01*
X132966Y104309D01*
X132744Y104383D01*
X132639Y104429D01*
Y109113D01*
X132744Y109160D01*
X132966Y109234D01*
X133195Y109288D01*
X133427Y109320D01*
X133661Y109331D01*
X133896Y109320D01*
X134128Y109288D01*
X134357Y109234D01*
X134579Y109160D01*
X134794Y109066D01*
X134866Y109036D01*
X134943Y109018D01*
X135022Y109013D01*
X135100Y109020D01*
X135176Y109040D01*
X135249Y109071D01*
X135315Y109113D01*
X135374Y109165D01*
X135425Y109225D01*
X135465Y109293D01*
X135494Y109366D01*
X135512Y109443D01*
X135517Y109521D01*
X135510Y109600D01*
X135490Y109676D01*
X135459Y109748D01*
X135417Y109815D01*
X135365Y109874D01*
X135305Y109924D01*
X135237Y109963D01*
X134939Y110097D01*
X134629Y110200D01*
X134311Y110275D01*
X133988Y110319D01*
X133661Y110334D01*
X133335Y110319D01*
X133012Y110275D01*
X132694Y110200D01*
X132639Y110182D01*
Y124114D01*
X132964Y124129D01*
X133288Y124174D01*
X133606Y124248D01*
X133916Y124351D01*
X134215Y124482D01*
X134283Y124522D01*
X134344Y124573D01*
X134396Y124632D01*
X134438Y124699D01*
X134469Y124772D01*
X134489Y124849D01*
X134496Y124928D01*
X134491Y125007D01*
X134473Y125084D01*
X134444Y125157D01*
X134403Y125225D01*
X134353Y125286D01*
X134293Y125338D01*
X134226Y125380D01*
X134154Y125412D01*
X134077Y125431D01*
X133998Y125438D01*
X133919Y125433D01*
X133842Y125416D01*
X133769Y125385D01*
X133556Y125288D01*
X133333Y125214D01*
X133104Y125161D01*
X132872Y125129D01*
X132639Y125118D01*
Y130236D01*
X132872Y130225D01*
X133104Y130193D01*
X133333Y130140D01*
X133556Y130066D01*
X133770Y129972D01*
X133843Y129941D01*
X133920Y129924D01*
X133998Y129919D01*
X134076Y129926D01*
X134153Y129945D01*
X134225Y129976D01*
X134292Y130018D01*
X134351Y130070D01*
X134401Y130131D01*
X134441Y130198D01*
X134471Y130271D01*
X134488Y130348D01*
X134493Y130427D01*
X134486Y130505D01*
X134467Y130581D01*
X134436Y130654D01*
X134394Y130720D01*
X134342Y130779D01*
X134281Y130830D01*
X134213Y130869D01*
X133916Y131003D01*
X133606Y131106D01*
X133288Y131180D01*
X132964Y131225D01*
X132639Y131240D01*
Y135084D01*
X135079Y132645D01*
X135136Y132577D01*
X135406Y132347D01*
X135406Y132347D01*
X135539Y132266D01*
Y129510D01*
X135466Y129528D01*
X135387Y129535D01*
X135308Y129530D01*
X135231Y129513D01*
X135158Y129483D01*
X135090Y129443D01*
X135029Y129392D01*
X134977Y129333D01*
X134935Y129266D01*
X134903Y129193D01*
X134884Y129116D01*
X134877Y129038D01*
X134882Y128959D01*
X134899Y128881D01*
X134930Y128809D01*
X135027Y128595D01*
X135101Y128372D01*
X135154Y128144D01*
X135186Y127912D01*
X135197Y127677D01*
X135186Y127443D01*
X135154Y127210D01*
X135101Y126982D01*
X135027Y126759D01*
X134933Y126545D01*
X134902Y126472D01*
X134885Y126395D01*
X134879Y126317D01*
X134887Y126238D01*
X134906Y126162D01*
X134937Y126090D01*
X134979Y126023D01*
X135031Y125964D01*
X135091Y125914D01*
X135159Y125873D01*
X135232Y125844D01*
X135309Y125827D01*
X135387Y125822D01*
X135466Y125829D01*
X135539Y125847D01*
Y90283D01*
G37*
G36*
Y82685D02*X132639Y85585D01*
Y88940D01*
X135539Y86041D01*
Y82685D01*
G37*
G36*
Y46351D02*X132639Y49251D01*
Y81342D01*
X133303Y80678D01*
Y75374D01*
X133299Y75315D01*
X133317Y75080D01*
X133372Y74850D01*
X133463Y74632D01*
X133586Y74431D01*
X133739Y74251D01*
X133784Y74213D01*
X135539Y72458D01*
Y46351D01*
G37*
G36*
Y37391D02*X135259Y37484D01*
X135020Y37540D01*
X135539Y38058D01*
Y37391D01*
G37*
G36*
Y31803D02*X135496Y31794D01*
X135423Y31763D01*
X135209Y31666D01*
X134986Y31592D01*
X134758Y31539D01*
X134526Y31507D01*
X134291Y31496D01*
X134057Y31507D01*
X133825Y31539D01*
X133596Y31592D01*
X133374Y31666D01*
X133159Y31760D01*
X133086Y31791D01*
X133010Y31808D01*
X132931Y31814D01*
X132853Y31806D01*
X132776Y31787D01*
X132704Y31756D01*
X132639Y31715D01*
Y35159D01*
X134085Y36605D01*
X134291Y36614D01*
X134526Y36603D01*
X134758Y36571D01*
X134986Y36518D01*
X135209Y36444D01*
X135424Y36350D01*
X135496Y36319D01*
X135539Y36310D01*
Y31803D01*
G37*
G36*
Y5748D02*X132639D01*
Y30910D01*
X132648Y30903D01*
X132716Y30864D01*
X133014Y30729D01*
X133324Y30626D01*
X133642Y30552D01*
X133965Y30507D01*
X134291Y30492D01*
X134618Y30507D01*
X134941Y30552D01*
X135259Y30626D01*
X135539Y30719D01*
Y5748D01*
G37*
G36*
X132639Y157480D02*X135539D01*
Y138549D01*
X132639Y141448D01*
Y157480D01*
G37*
G36*
Y95243D02*X132590Y95361D01*
X132298Y95839D01*
X131934Y96265D01*
X131508Y96628D01*
X131030Y96921D01*
X130761Y97033D01*
Y99147D01*
X130836Y99330D01*
X130967Y99875D01*
X131000Y100433D01*
X130967Y100992D01*
X130836Y101536D01*
X130761Y101719D01*
Y104939D01*
X130833Y104921D01*
X130912Y104914D01*
X130991Y104919D01*
X131068Y104936D01*
X131141Y104966D01*
X131209Y105006D01*
X131270Y105057D01*
X131322Y105116D01*
X131365Y105183D01*
X131396Y105256D01*
X131415Y105332D01*
X131423Y105411D01*
X131417Y105490D01*
X131400Y105567D01*
X131369Y105640D01*
X131273Y105854D01*
X131199Y106077D01*
X131145Y106305D01*
X131113Y106537D01*
X131102Y106772D01*
X131113Y107006D01*
X131145Y107238D01*
X131199Y107467D01*
X131273Y107689D01*
X131367Y107904D01*
X131397Y107977D01*
X131415Y108053D01*
X131420Y108132D01*
X131413Y108210D01*
X131393Y108287D01*
X131362Y108359D01*
X131320Y108426D01*
X131268Y108485D01*
X131208Y108535D01*
X131140Y108575D01*
X131067Y108605D01*
X130990Y108622D01*
X130912Y108627D01*
X130834Y108620D01*
X130761Y108601D01*
Y136963D01*
X132639Y135084D01*
Y131240D01*
X132638Y131240D01*
X132312Y131225D01*
X131988Y131180D01*
X131670Y131106D01*
X131360Y131003D01*
X131061Y130872D01*
X130993Y130832D01*
X130932Y130781D01*
X130880Y130722D01*
X130838Y130655D01*
X130806Y130582D01*
X130787Y130505D01*
X130780Y130427D01*
X130785Y130348D01*
X130802Y130271D01*
X130832Y130197D01*
X130872Y130129D01*
X130923Y130068D01*
X130982Y130016D01*
X131049Y129974D01*
X131122Y129943D01*
X131199Y129923D01*
X131277Y129916D01*
X131356Y129921D01*
X131434Y129939D01*
X131506Y129970D01*
X131720Y130066D01*
X131943Y130140D01*
X132171Y130193D01*
X132403Y130225D01*
X132638Y130236D01*
X132639Y130236D01*
Y125118D01*
X132638Y125118D01*
X132403Y125129D01*
X132171Y125161D01*
X131943Y125214D01*
X131720Y125288D01*
X131505Y125382D01*
X131433Y125413D01*
X131356Y125430D01*
X131277Y125436D01*
X131199Y125428D01*
X131123Y125409D01*
X131050Y125378D01*
X130984Y125336D01*
X130925Y125284D01*
X130874Y125224D01*
X130834Y125156D01*
X130805Y125083D01*
X130788Y125006D01*
X130782Y124928D01*
X130790Y124849D01*
X130809Y124773D01*
X130840Y124701D01*
X130882Y124634D01*
X130934Y124575D01*
X130994Y124525D01*
X131063Y124486D01*
X131360Y124351D01*
X131670Y124248D01*
X131988Y124174D01*
X132312Y124129D01*
X132638Y124114D01*
X132639Y124114D01*
Y110182D01*
X132384Y110097D01*
X132085Y109966D01*
X132016Y109926D01*
X131955Y109876D01*
X131903Y109816D01*
X131861Y109749D01*
X131830Y109677D01*
X131810Y109600D01*
X131803Y109521D01*
X131808Y109442D01*
X131826Y109365D01*
X131855Y109292D01*
X131896Y109224D01*
X131946Y109163D01*
X132006Y109111D01*
X132073Y109068D01*
X132146Y109037D01*
X132222Y109018D01*
X132301Y109011D01*
X132380Y109016D01*
X132457Y109033D01*
X132530Y109064D01*
X132639Y109113D01*
Y104429D01*
X132529Y104477D01*
X132456Y104507D01*
X132380Y104525D01*
X132301Y104530D01*
X132223Y104523D01*
X132146Y104504D01*
X132074Y104472D01*
X132008Y104431D01*
X131948Y104379D01*
X131898Y104318D01*
X131858Y104251D01*
X131829Y104177D01*
X131811Y104101D01*
X131806Y104022D01*
X131813Y103944D01*
X131832Y103868D01*
X131864Y103795D01*
X131906Y103729D01*
X131957Y103669D01*
X132018Y103619D01*
X132086Y103580D01*
X132384Y103446D01*
X132639Y103361D01*
Y95243D01*
G37*
G36*
X130761Y101719D02*X130622Y102054D01*
X130329Y102531D01*
X129965Y102957D01*
X129737Y103153D01*
Y125845D01*
X129809Y125826D01*
X129888Y125819D01*
X129967Y125824D01*
X130044Y125842D01*
X130118Y125871D01*
X130186Y125912D01*
X130247Y125962D01*
X130299Y126022D01*
X130341Y126089D01*
X130372Y126161D01*
X130392Y126238D01*
X130399Y126317D01*
X130394Y126396D01*
X130376Y126473D01*
X130345Y126546D01*
X130249Y126759D01*
X130175Y126982D01*
X130122Y127210D01*
X130089Y127443D01*
X130079Y127677D01*
X130089Y127912D01*
X130122Y128144D01*
X130175Y128372D01*
X130249Y128595D01*
X130343Y128810D01*
X130374Y128882D01*
X130391Y128959D01*
X130396Y129038D01*
X130389Y129116D01*
X130370Y129192D01*
X130339Y129264D01*
X130297Y129331D01*
X130245Y129390D01*
X130184Y129441D01*
X130117Y129481D01*
X130044Y129510D01*
X129967Y129527D01*
X129888Y129533D01*
X129810Y129525D01*
X129737Y129507D01*
Y137987D01*
X130761Y136963D01*
Y108601D01*
X130757Y108601D01*
X130685Y108570D01*
X130618Y108528D01*
X130559Y108476D01*
X130509Y108415D01*
X130470Y108347D01*
X130336Y108049D01*
X130233Y107739D01*
X130158Y107421D01*
X130114Y107098D01*
X130099Y106772D01*
X130114Y106445D01*
X130158Y106122D01*
X130233Y105804D01*
X130336Y105494D01*
X130467Y105195D01*
X130507Y105127D01*
X130557Y105066D01*
X130617Y105014D01*
X130684Y104971D01*
X130756Y104940D01*
X130761Y104939D01*
Y101719D01*
G37*
G36*
Y97033D02*X130513Y97135D01*
X129968Y97266D01*
X129737Y97284D01*
Y97714D01*
X129965Y97909D01*
X130329Y98335D01*
X130622Y98812D01*
X130761Y99147D01*
Y97033D01*
G37*
G36*
X129737Y103153D02*X129539Y103321D01*
X129062Y103614D01*
X128544Y103828D01*
X127999Y103959D01*
X127441Y104003D01*
X126882Y103959D01*
X126338Y103828D01*
X126240Y103788D01*
Y141483D01*
X129737Y137987D01*
Y129507D01*
X129734Y129506D01*
X129661Y129475D01*
X129595Y129433D01*
X129536Y129381D01*
X129485Y129321D01*
X129446Y129252D01*
X129312Y128955D01*
X129209Y128645D01*
X129135Y128327D01*
X129090Y128003D01*
X129075Y127677D01*
X129090Y127351D01*
X129135Y127027D01*
X129209Y126709D01*
X129312Y126399D01*
X129443Y126100D01*
X129483Y126032D01*
X129534Y125971D01*
X129593Y125919D01*
X129660Y125877D01*
X129733Y125846D01*
X129737Y125845D01*
Y103153D01*
G37*
G36*
Y97284D02*X129409Y97310D01*
X129119Y97287D01*
X129539Y97545D01*
X129737Y97714D01*
Y97284D01*
G37*
G36*
X132639Y85585D02*X127468Y90756D01*
X127789Y90559D01*
X128306Y90345D01*
X128851Y90214D01*
X129409Y90170D01*
X129968Y90214D01*
X130513Y90345D01*
X131023Y90556D01*
X132639Y88940D01*
Y85585D01*
G37*
G36*
Y49251D02*X126240Y55650D01*
Y87741D01*
X132639Y81342D01*
Y49251D01*
G37*
G36*
Y5748D02*X126240D01*
Y28760D01*
X130807Y33326D01*
X130863Y33087D01*
X130966Y32777D01*
X131097Y32478D01*
X131137Y32410D01*
X131187Y32349D01*
X131247Y32297D01*
X131314Y32255D01*
X131386Y32224D01*
X131463Y32204D01*
X131542Y32197D01*
X131621Y32202D01*
X131698Y32220D01*
X131771Y32249D01*
X131839Y32289D01*
X131900Y32340D01*
X131952Y32400D01*
X131995Y32467D01*
X132026Y32539D01*
X132045Y32616D01*
X132052Y32695D01*
X132047Y32774D01*
X132030Y32851D01*
X131999Y32924D01*
X131903Y33137D01*
X131829Y33360D01*
X131775Y33588D01*
X131743Y33821D01*
X131732Y34055D01*
X131742Y34261D01*
X132639Y35159D01*
Y31715D01*
X132637Y31714D01*
X132578Y31662D01*
X132528Y31602D01*
X132488Y31534D01*
X132458Y31461D01*
X132441Y31384D01*
X132436Y31306D01*
X132443Y31227D01*
X132462Y31151D01*
X132493Y31079D01*
X132535Y31012D01*
X132587Y30953D01*
X132639Y30910D01*
Y5748D01*
G37*
G36*
X126240Y157480D02*X132639D01*
Y141448D01*
X127008Y147080D01*
X126950Y147147D01*
X126681Y147377D01*
X126681Y147377D01*
X126566Y147447D01*
X126379Y147562D01*
X126240Y147620D01*
Y157480D01*
G37*
G36*
X116025Y140857D02*X120991Y140868D01*
X121221Y140923D01*
X121439Y141014D01*
X121640Y141137D01*
X121820Y141290D01*
X121973Y141470D01*
X122097Y141671D01*
X122187Y141889D01*
X122242Y142119D01*
X122256Y142354D01*
X122254Y143301D01*
X124422D01*
X126240Y141483D01*
Y103788D01*
X125820Y103614D01*
X125343Y103321D01*
X124917Y102957D01*
X124553Y102531D01*
X124260Y102054D01*
X124046Y101536D01*
X123915Y100992D01*
X123871Y100433D01*
X123915Y99875D01*
X124046Y99330D01*
X124096Y99209D01*
X122997Y98110D01*
X122952Y98072D01*
X122798Y97892D01*
X122675Y97691D01*
X122585Y97473D01*
X122530Y97243D01*
X122530Y97243D01*
X122511Y97008D01*
X122516Y96949D01*
Y92145D01*
X122511Y92087D01*
X122530Y91851D01*
X122585Y91622D01*
X122675Y91404D01*
X122798Y91202D01*
X122952Y91023D01*
X122997Y90984D01*
X126240Y87741D01*
Y55650D01*
X125984Y55906D01*
Y55000D01*
X116025Y45041D01*
Y75696D01*
X116141Y75648D01*
X116371Y75593D01*
X116606Y75579D01*
X122842Y75593D01*
X123071Y75648D01*
X123289Y75738D01*
X123491Y75861D01*
X123670Y76015D01*
X123824Y76194D01*
X123947Y76396D01*
X124037Y76614D01*
X124092Y76843D01*
X124106Y77079D01*
X124092Y83314D01*
X124037Y83544D01*
X123947Y83762D01*
X123824Y83963D01*
X123670Y84143D01*
X123491Y84296D01*
X123289Y84419D01*
X123071Y84510D01*
X122842Y84565D01*
X122606Y84579D01*
X116371Y84565D01*
X116141Y84510D01*
X116025Y84462D01*
Y140857D01*
G37*
G36*
X118924Y17569D02*X118974Y17572D01*
X119586Y17719D01*
X120168Y17960D01*
X120705Y18289D01*
X121184Y18698D01*
X121593Y19177D01*
X121921Y19714D01*
X122162Y20296D01*
X122309Y20908D01*
X122346Y21535D01*
X122309Y22163D01*
X122162Y22775D01*
X121921Y23357D01*
X121593Y23894D01*
X121184Y24373D01*
X120705Y24781D01*
X120168Y25110D01*
X119586Y25351D01*
X118974Y25498D01*
X118924Y25502D01*
Y31517D01*
X118928Y31518D01*
X119000Y31549D01*
X119067Y31591D01*
X119126Y31642D01*
X119176Y31703D01*
X119215Y31771D01*
X119349Y32069D01*
X119452Y32379D01*
X119527Y32697D01*
X119571Y33020D01*
X119586Y33346D01*
X119571Y33673D01*
X119527Y33996D01*
X119452Y34314D01*
X119349Y34624D01*
X119218Y34923D01*
X119178Y34992D01*
X119128Y35052D01*
X119068Y35105D01*
X119001Y35147D01*
X118929Y35178D01*
X118924Y35179D01*
Y35721D01*
X126063Y28583D01*
X126240Y28760D01*
Y5748D01*
X118924D01*
Y17569D01*
G37*
G36*
Y25502D02*X118346Y25548D01*
X117719Y25498D01*
X117595Y25469D01*
X116025Y27039D01*
Y29784D01*
X116350Y29799D01*
X116673Y29843D01*
X116991Y29918D01*
X117301Y30021D01*
X117601Y30152D01*
X117669Y30192D01*
X117730Y30242D01*
X117782Y30302D01*
X117824Y30369D01*
X117855Y30441D01*
X117875Y30518D01*
X117882Y30597D01*
X117877Y30676D01*
X117859Y30753D01*
X117830Y30827D01*
X117789Y30895D01*
X117739Y30955D01*
X117679Y31007D01*
X117612Y31050D01*
X117539Y31081D01*
X117463Y31100D01*
X117384Y31108D01*
X117305Y31102D01*
X117228Y31085D01*
X117155Y31054D01*
X116941Y30958D01*
X116719Y30884D01*
X116490Y30830D01*
X116258Y30798D01*
X116025Y30787D01*
Y35905D01*
X116258Y35895D01*
X116490Y35863D01*
X116719Y35809D01*
X116941Y35735D01*
X117156Y35641D01*
X117229Y35611D01*
X117305Y35593D01*
X117384Y35588D01*
X117462Y35595D01*
X117539Y35615D01*
X117611Y35646D01*
X117678Y35688D01*
X117737Y35739D01*
X117787Y35800D01*
X117827Y35868D01*
X117856Y35941D01*
X117874Y36017D01*
X117879Y36096D01*
X117872Y36174D01*
X117853Y36251D01*
X117822Y36323D01*
X117780Y36390D01*
X117728Y36449D01*
X117667Y36499D01*
X117599Y36538D01*
X117301Y36672D01*
X116991Y36775D01*
X116673Y36850D01*
X116350Y36894D01*
X116025Y36909D01*
Y38621D01*
X118924Y35721D01*
Y35179D01*
X118852Y35197D01*
X118773Y35205D01*
X118694Y35199D01*
X118617Y35182D01*
X118544Y35153D01*
X118476Y35112D01*
X118415Y35061D01*
X118363Y35002D01*
X118320Y34935D01*
X118289Y34862D01*
X118270Y34786D01*
X118263Y34707D01*
X118268Y34628D01*
X118285Y34551D01*
X118316Y34478D01*
X118412Y34264D01*
X118486Y34042D01*
X118540Y33813D01*
X118572Y33581D01*
X118583Y33346D01*
X118572Y33112D01*
X118540Y32880D01*
X118486Y32651D01*
X118412Y32429D01*
X118318Y32214D01*
X118288Y32141D01*
X118270Y32065D01*
X118265Y31986D01*
X118272Y31908D01*
X118292Y31831D01*
X118323Y31759D01*
X118365Y31693D01*
X118417Y31633D01*
X118477Y31583D01*
X118545Y31543D01*
X118618Y31514D01*
X118695Y31496D01*
X118773Y31491D01*
X118851Y31498D01*
X118924Y31517D01*
Y25502D01*
G37*
G36*
X116025Y18267D02*X116525Y17960D01*
X117107Y17719D01*
X117719Y17572D01*
X118346Y17523D01*
X118924Y17569D01*
Y5748D01*
X116025D01*
Y18267D01*
G37*
G36*
X113123Y77267D02*X113258Y77426D01*
X113628Y78029D01*
X113899Y78684D01*
X114065Y79373D01*
X114106Y80079D01*
X114065Y80785D01*
X113899Y81474D01*
X113628Y82128D01*
X113258Y82732D01*
X113123Y82890D01*
Y148656D01*
X113265Y148513D01*
X113256Y148354D01*
X113270Y142119D01*
X113325Y141889D01*
X113415Y141671D01*
X113539Y141470D01*
X113692Y141290D01*
X113872Y141137D01*
X114073Y141014D01*
X114291Y140923D01*
X114521Y140868D01*
X114756Y140854D01*
X116025Y140857D01*
Y84462D01*
X115923Y84419D01*
X115722Y84296D01*
X115542Y84143D01*
X115389Y83963D01*
X115266Y83762D01*
X115175Y83544D01*
X115120Y83314D01*
X115106Y83079D01*
X115120Y76843D01*
X115175Y76614D01*
X115266Y76396D01*
X115389Y76194D01*
X115542Y76015D01*
X115722Y75861D01*
X115923Y75738D01*
X116025Y75696D01*
Y45041D01*
X113123Y42139D01*
Y77267D01*
G37*
G36*
X116025Y27039D02*X113123Y29941D01*
Y31514D01*
X113195Y31496D01*
X113274Y31488D01*
X113353Y31494D01*
X113430Y31511D01*
X113504Y31540D01*
X113572Y31581D01*
X113632Y31631D01*
X113685Y31691D01*
X113727Y31758D01*
X113758Y31831D01*
X113778Y31907D01*
X113785Y31986D01*
X113780Y32065D01*
X113762Y32142D01*
X113731Y32215D01*
X113635Y32429D01*
X113561Y32651D01*
X113507Y32880D01*
X113475Y33112D01*
X113465Y33346D01*
X113475Y33581D01*
X113507Y33813D01*
X113561Y34042D01*
X113635Y34264D01*
X113729Y34479D01*
X113759Y34552D01*
X113777Y34628D01*
X113782Y34707D01*
X113775Y34785D01*
X113755Y34861D01*
X113724Y34934D01*
X113682Y35000D01*
X113631Y35060D01*
X113570Y35110D01*
X113502Y35150D01*
X113429Y35179D01*
X113353Y35197D01*
X113274Y35202D01*
X113196Y35195D01*
X113123Y35176D01*
Y41523D01*
X116025Y38621D01*
Y36909D01*
X116024Y36909D01*
X115697Y36894D01*
X115374Y36850D01*
X115056Y36775D01*
X114746Y36672D01*
X114447Y36541D01*
X114379Y36501D01*
X114318Y36451D01*
X114266Y36391D01*
X114223Y36324D01*
X114192Y36251D01*
X114173Y36175D01*
X114165Y36096D01*
X114171Y36017D01*
X114188Y35940D01*
X114218Y35866D01*
X114258Y35798D01*
X114309Y35738D01*
X114368Y35685D01*
X114435Y35643D01*
X114508Y35612D01*
X114584Y35593D01*
X114663Y35585D01*
X114742Y35591D01*
X114819Y35608D01*
X114892Y35639D01*
X115106Y35735D01*
X115328Y35809D01*
X115557Y35863D01*
X115789Y35895D01*
X116024Y35906D01*
X116025Y35905D01*
Y30787D01*
X116024Y30787D01*
X115789Y30798D01*
X115557Y30830D01*
X115328Y30884D01*
X115106Y30958D01*
X114891Y31052D01*
X114819Y31082D01*
X114742Y31100D01*
X114663Y31105D01*
X114585Y31098D01*
X114509Y31078D01*
X114436Y31047D01*
X114370Y31005D01*
X114311Y30953D01*
X114260Y30893D01*
X114220Y30825D01*
X114191Y30752D01*
X114173Y30675D01*
X114168Y30597D01*
X114175Y30519D01*
X114195Y30442D01*
X114226Y30370D01*
X114268Y30303D01*
X114320Y30244D01*
X114380Y30194D01*
X114448Y30155D01*
X114746Y30021D01*
X115056Y29918D01*
X115374Y29843D01*
X115697Y29799D01*
X116024Y29784D01*
X116025Y29784D01*
Y27039D01*
G37*
G36*
X113123Y82890D02*X112798Y83271D01*
X112259Y83731D01*
X111656Y84101D01*
X111106Y84328D01*
Y84548D01*
X111111Y84606D01*
X111092Y84842D01*
X111037Y85071D01*
X110947Y85289D01*
X110824Y85491D01*
X110670Y85670D01*
X110625Y85709D01*
X107749Y88585D01*
Y140841D01*
X107756Y140840D01*
X108462Y140896D01*
X109151Y141061D01*
X109805Y141332D01*
X110409Y141703D01*
X110948Y142163D01*
X111408Y142701D01*
X111778Y143305D01*
X112049Y143959D01*
X112214Y144648D01*
X112256Y145354D01*
X112214Y146060D01*
X112049Y146749D01*
X111778Y147404D01*
X111408Y148008D01*
X110948Y148546D01*
X110409Y149006D01*
X109805Y149376D01*
X109151Y149647D01*
X108462Y149813D01*
X107756Y149868D01*
X107749Y149868D01*
Y152593D01*
X109186D01*
X113123Y148656D01*
Y82890D01*
G37*
G36*
X107749Y88585D02*X107498Y88836D01*
X107466Y88864D01*
X107439Y88895D01*
X97783Y98551D01*
Y131965D01*
X100059D01*
X100096Y131489D01*
X100227Y130944D01*
X100441Y130426D01*
X100734Y129949D01*
X101098Y129523D01*
X101524Y129159D01*
X102001Y128866D01*
X102519Y128652D01*
X103064Y128521D01*
X103622Y128477D01*
X104181Y128521D01*
X104725Y128652D01*
X105243Y128866D01*
X105720Y129159D01*
X106146Y129523D01*
X106510Y129949D01*
X106803Y130426D01*
X107017Y130944D01*
X107148Y131489D01*
X107181Y132047D01*
X107148Y132606D01*
X107017Y133150D01*
X106803Y133668D01*
X106510Y134146D01*
X106146Y134572D01*
X105720Y134935D01*
X105243Y135228D01*
X104725Y135443D01*
X104181Y135573D01*
X103622Y135617D01*
X103064Y135573D01*
X102519Y135443D01*
X102001Y135228D01*
X101571Y134965D01*
X97783D01*
Y140843D01*
X98462Y140896D01*
X99151Y141061D01*
X99805Y141332D01*
X100409Y141703D01*
X100948Y142163D01*
X101408Y142701D01*
X101778Y143305D01*
X102049Y143959D01*
X102214Y144648D01*
X102256Y145354D01*
X102214Y146060D01*
X102049Y146749D01*
X101778Y147404D01*
X101408Y148008D01*
X100948Y148546D01*
X100409Y149006D01*
X99805Y149376D01*
X99151Y149647D01*
X98462Y149813D01*
X97783Y149866D01*
Y152593D01*
X107749D01*
Y149868D01*
X107050Y149813D01*
X106361Y149647D01*
X105707Y149376D01*
X105103Y149006D01*
X104564Y148546D01*
X104104Y148008D01*
X103734Y147404D01*
X103463Y146749D01*
X103298Y146060D01*
X103242Y145354D01*
X103298Y144648D01*
X103463Y143959D01*
X103734Y143305D01*
X104104Y142701D01*
X104564Y142163D01*
X105103Y141703D01*
X105707Y141332D01*
X106361Y141061D01*
X107050Y140896D01*
X107749Y140841D01*
Y88585D01*
G37*
G36*
X113123Y29941D02*X112874Y30190D01*
X112816Y30257D01*
X112547Y30487D01*
X112547Y30487D01*
X112432Y30558D01*
X112245Y30672D01*
X112014Y30768D01*
X111918Y30808D01*
X111574Y30891D01*
X111220Y30918D01*
X111132Y30911D01*
X103219D01*
Y77932D01*
X103262Y77939D01*
X103374Y77976D01*
X103479Y78030D01*
X103574Y78101D01*
X103657Y78185D01*
X103726Y78281D01*
X103776Y78387D01*
X103925Y78795D01*
X104028Y79216D01*
X104091Y79645D01*
X104112Y80079D01*
X104091Y80512D01*
X104028Y80942D01*
X103925Y81363D01*
X103781Y81772D01*
X103729Y81879D01*
X103660Y81975D01*
X103576Y82060D01*
X103481Y82130D01*
X103376Y82185D01*
X103263Y82222D01*
X103219Y82229D01*
Y88872D01*
X105317Y86774D01*
X105349Y86746D01*
X105376Y86715D01*
X107864Y84228D01*
X107557Y84101D01*
X106953Y83731D01*
X106415Y83271D01*
X105954Y82732D01*
X105584Y82128D01*
X105313Y81474D01*
X105148Y80785D01*
X105092Y80079D01*
X105148Y79373D01*
X105313Y78684D01*
X105584Y78029D01*
X105954Y77426D01*
X106415Y76887D01*
X106953Y76427D01*
X107557Y76057D01*
X108211Y75786D01*
X108900Y75620D01*
X109606Y75565D01*
X110312Y75620D01*
X111001Y75786D01*
X111656Y76057D01*
X112259Y76427D01*
X112798Y76887D01*
X113123Y77267D01*
Y42139D01*
X112953Y41969D01*
X112913D01*
X112795Y41850D01*
X113123Y41523D01*
Y35176D01*
X113119Y35175D01*
X113047Y35144D01*
X112981Y35102D01*
X112921Y35051D01*
X112871Y34990D01*
X112832Y34922D01*
X112698Y34624D01*
X112595Y34314D01*
X112521Y33996D01*
X112476Y33673D01*
X112461Y33346D01*
X112476Y33020D01*
X112521Y32697D01*
X112595Y32379D01*
X112698Y32069D01*
X112829Y31770D01*
X112869Y31701D01*
X112919Y31641D01*
X112979Y31588D01*
X113046Y31546D01*
X113119Y31515D01*
X113123Y31514D01*
Y29941D01*
G37*
G36*
X103219Y30911D02*X97783D01*
Y32816D01*
X97786Y32817D01*
X97858Y32848D01*
X97925Y32890D01*
X97984Y32942D01*
X98034Y33002D01*
X98073Y33070D01*
X98208Y33368D01*
X98311Y33678D01*
X98385Y33996D01*
X98430Y34319D01*
X98445Y34646D01*
X98430Y34972D01*
X98385Y35295D01*
X98311Y35613D01*
X98208Y35923D01*
X98077Y36223D01*
X98037Y36291D01*
X97986Y36352D01*
X97927Y36404D01*
X97860Y36446D01*
X97787Y36477D01*
X97783Y36478D01*
Y75978D01*
X97808Y75960D01*
X97915Y75909D01*
X98322Y75760D01*
X98744Y75657D01*
X99173Y75594D01*
X99606Y75574D01*
X100040Y75594D01*
X100469Y75657D01*
X100890Y75760D01*
X101300Y75904D01*
X101406Y75957D01*
X101503Y76026D01*
X101587Y76109D01*
X101658Y76204D01*
X101712Y76309D01*
X101750Y76422D01*
X101769Y76539D01*
X101770Y76658D01*
X101752Y76775D01*
X101716Y76888D01*
X101663Y76994D01*
X101594Y77090D01*
X101511Y77175D01*
X101416Y77245D01*
X101310Y77300D01*
X101198Y77337D01*
X101081Y77357D01*
X100962Y77358D01*
X100845Y77340D01*
X100733Y77302D01*
X100461Y77203D01*
X100181Y77134D01*
X99895Y77093D01*
X99606Y77079D01*
X99318Y77093D01*
X99032Y77134D01*
X98751Y77203D01*
X98479Y77299D01*
X98367Y77337D01*
X98250Y77354D01*
X98132Y77353D01*
X98016Y77334D01*
X97904Y77297D01*
X97799Y77242D01*
X97783Y77231D01*
Y82923D01*
X97797Y82912D01*
X97902Y82858D01*
X98015Y82820D01*
X98132Y82801D01*
X98250Y82800D01*
X98368Y82817D01*
X98480Y82855D01*
X98751Y82954D01*
X99032Y83023D01*
X99318Y83065D01*
X99606Y83079D01*
X99895Y83065D01*
X100181Y83023D01*
X100461Y82954D01*
X100734Y82859D01*
X100846Y82821D01*
X100962Y82803D01*
X101081Y82804D01*
X101197Y82823D01*
X101309Y82861D01*
X101414Y82915D01*
X101509Y82985D01*
X101592Y83069D01*
X101660Y83165D01*
X101713Y83271D01*
X101749Y83383D01*
X101766Y83500D01*
X101766Y83618D01*
X101746Y83735D01*
X101709Y83847D01*
X101655Y83951D01*
X101585Y84046D01*
X101500Y84129D01*
X101404Y84198D01*
X101298Y84249D01*
X100890Y84397D01*
X100469Y84501D01*
X100040Y84563D01*
X99606Y84584D01*
X99173Y84563D01*
X98744Y84501D01*
X98322Y84397D01*
X97913Y84254D01*
X97806Y84201D01*
X97783Y84184D01*
Y94309D01*
X103219Y88872D01*
Y82229D01*
X103146Y82241D01*
X103027Y82242D01*
X102910Y82225D01*
X102797Y82189D01*
X102691Y82136D01*
X102595Y82067D01*
X102510Y81984D01*
X102440Y81888D01*
X102385Y81783D01*
X102348Y81670D01*
X102328Y81553D01*
X102327Y81435D01*
X102345Y81317D01*
X102383Y81205D01*
X102482Y80934D01*
X102551Y80653D01*
X102592Y80367D01*
X102606Y80079D01*
X102592Y79790D01*
X102551Y79504D01*
X102482Y79224D01*
X102386Y78951D01*
X102348Y78839D01*
X102331Y78723D01*
X102332Y78605D01*
X102351Y78488D01*
X102388Y78376D01*
X102443Y78271D01*
X102513Y78176D01*
X102597Y78093D01*
X102693Y78025D01*
X102798Y77972D01*
X102911Y77936D01*
X103028Y77919D01*
X103146Y77919D01*
X103219Y77932D01*
Y30911D01*
G37*
G36*
X97783Y26411D02*X110288D01*
X114413Y22287D01*
X114384Y22163D01*
X114334Y21535D01*
X114384Y20908D01*
X114530Y20296D01*
X114771Y19714D01*
X115100Y19177D01*
X115509Y18698D01*
X115988Y18289D01*
X116025Y18267D01*
Y5748D01*
X97783D01*
Y10428D01*
X98085Y10242D01*
X98546Y10051D01*
X99030Y9935D01*
X99527Y9896D01*
X100023Y9935D01*
X100508Y10051D01*
X100968Y10242D01*
X101393Y10502D01*
X101772Y10826D01*
X102095Y11205D01*
X102355Y11630D01*
X102546Y12090D01*
X102662Y12574D01*
X102692Y13071D01*
X102662Y13568D01*
X102546Y14052D01*
X102355Y14512D01*
X102095Y14937D01*
X101772Y15316D01*
X101393Y15639D01*
X100968Y15900D01*
X100508Y16090D01*
X100023Y16207D01*
X99527Y16246D01*
X99030Y16207D01*
X98546Y16090D01*
X98085Y15900D01*
X97783Y15714D01*
Y18285D01*
X97924Y18199D01*
X98498Y17961D01*
X99103Y17816D01*
X99724Y17767D01*
X100344Y17816D01*
X100949Y17961D01*
X101524Y18199D01*
X102054Y18524D01*
X102527Y18928D01*
X102931Y19401D01*
X103256Y19932D01*
X103495Y20507D01*
X103640Y21112D01*
X103676Y21732D01*
X103640Y22352D01*
X103495Y22957D01*
X103256Y23532D01*
X102931Y24062D01*
X102527Y24535D01*
X102054Y24940D01*
X101524Y25265D01*
X100949Y25503D01*
X100344Y25648D01*
X99724Y25697D01*
X99103Y25648D01*
X98498Y25503D01*
X97924Y25265D01*
X97783Y25178D01*
Y26411D01*
G37*
G36*
Y149866D02*X97756Y149868D01*
X97050Y149813D01*
X96361Y149647D01*
X95707Y149376D01*
X95103Y149006D01*
X94883Y148819D01*
Y152593D01*
X97783D01*
Y149866D01*
G37*
G36*
Y134965D02*X94883D01*
Y141890D01*
X95103Y141703D01*
X95707Y141332D01*
X96361Y141061D01*
X97050Y140896D01*
X97756Y140840D01*
X97783Y140843D01*
Y134965D01*
G37*
G36*
Y98551D02*X94883Y101451D01*
Y131965D01*
X97783D01*
Y98551D01*
G37*
G36*
Y30911D02*X95993D01*
Y31265D01*
X96160Y31320D01*
X96459Y31451D01*
X96527Y31491D01*
X96588Y31541D01*
X96640Y31601D01*
X96682Y31668D01*
X96713Y31741D01*
X96733Y31817D01*
X96740Y31896D01*
X96735Y31975D01*
X96717Y32052D01*
X96688Y32126D01*
X96648Y32194D01*
X96597Y32255D01*
X96537Y32307D01*
X96470Y32349D01*
X96398Y32380D01*
X96321Y32400D01*
X96242Y32407D01*
X96163Y32402D01*
X96086Y32384D01*
X96013Y32353D01*
X95993Y32344D01*
Y36950D01*
X96015Y36940D01*
X96087Y36910D01*
X96164Y36892D01*
X96242Y36887D01*
X96321Y36894D01*
X96397Y36914D01*
X96469Y36945D01*
X96536Y36987D01*
X96595Y37039D01*
X96645Y37099D01*
X96686Y37167D01*
X96715Y37240D01*
X96732Y37317D01*
X96737Y37395D01*
X96730Y37474D01*
X96711Y37550D01*
X96680Y37622D01*
X96638Y37689D01*
X96586Y37748D01*
X96525Y37798D01*
X96457Y37837D01*
X96160Y37971D01*
X95993Y38027D01*
Y77928D01*
X96067Y77916D01*
X96185Y77915D01*
X96302Y77933D01*
X96415Y77969D01*
X96522Y78022D01*
X96618Y78091D01*
X96702Y78174D01*
X96773Y78269D01*
X96828Y78375D01*
X96865Y78487D01*
X96884Y78604D01*
X96885Y78723D01*
X96868Y78840D01*
X96830Y78952D01*
X96731Y79224D01*
X96662Y79504D01*
X96620Y79790D01*
X96606Y80079D01*
X96620Y80367D01*
X96662Y80653D01*
X96731Y80934D01*
X96826Y81207D01*
X96864Y81318D01*
X96882Y81435D01*
X96881Y81553D01*
X96862Y81669D01*
X96824Y81781D01*
X96770Y81886D01*
X96700Y81981D01*
X96616Y82064D01*
X96520Y82133D01*
X96414Y82186D01*
X96302Y82221D01*
X96185Y82239D01*
X96067Y82238D01*
X95993Y82226D01*
Y96098D01*
X97783Y94309D01*
Y84184D01*
X97710Y84132D01*
X97625Y84049D01*
X97555Y83953D01*
X97500Y83848D01*
X97463Y83735D01*
X97444Y83618D01*
X97443Y83500D01*
X97460Y83383D01*
X97496Y83270D01*
X97549Y83163D01*
X97618Y83067D01*
X97702Y82983D01*
X97783Y82923D01*
Y77231D01*
X97704Y77172D01*
X97621Y77088D01*
X97552Y76992D01*
X97499Y76887D01*
X97464Y76774D01*
X97446Y76657D01*
X97447Y76539D01*
X97466Y76423D01*
X97504Y76311D01*
X97558Y76206D01*
X97628Y76111D01*
X97712Y76028D01*
X97783Y75978D01*
Y36478D01*
X97710Y36497D01*
X97631Y36504D01*
X97552Y36499D01*
X97475Y36481D01*
X97402Y36452D01*
X97334Y36411D01*
X97273Y36361D01*
X97221Y36301D01*
X97179Y36234D01*
X97147Y36162D01*
X97128Y36085D01*
X97121Y36006D01*
X97126Y35927D01*
X97143Y35850D01*
X97174Y35777D01*
X97271Y35563D01*
X97345Y35341D01*
X97398Y35112D01*
X97430Y34880D01*
X97441Y34646D01*
X97430Y34411D01*
X97398Y34179D01*
X97345Y33951D01*
X97271Y33728D01*
X97177Y33513D01*
X97146Y33441D01*
X97129Y33364D01*
X97123Y33285D01*
X97131Y33207D01*
X97150Y33131D01*
X97181Y33058D01*
X97223Y32992D01*
X97275Y32933D01*
X97335Y32882D01*
X97403Y32842D01*
X97476Y32813D01*
X97553Y32795D01*
X97631Y32790D01*
X97710Y32797D01*
X97783Y32816D01*
Y30911D01*
G37*
G36*
X95993Y38027D02*X95850Y38074D01*
X95532Y38149D01*
X95208Y38194D01*
X94883Y38208D01*
Y97208D01*
X95993Y96098D01*
Y82226D01*
X95950Y82219D01*
X95838Y82181D01*
X95734Y82127D01*
X95639Y82057D01*
X95556Y81973D01*
X95487Y81877D01*
X95436Y81770D01*
X95288Y81363D01*
X95184Y80942D01*
X95122Y80512D01*
X95101Y80079D01*
X95122Y79645D01*
X95184Y79216D01*
X95288Y78795D01*
X95432Y78385D01*
X95484Y78279D01*
X95553Y78182D01*
X95636Y78098D01*
X95732Y78027D01*
X95837Y77973D01*
X95950Y77935D01*
X95993Y77928D01*
Y38027D01*
G37*
G36*
Y32344D02*X95800Y32257D01*
X95577Y32183D01*
X95349Y32130D01*
X95116Y32097D01*
X94883Y32087D01*
Y37205D01*
X95116Y37194D01*
X95349Y37162D01*
X95577Y37108D01*
X95800Y37034D01*
X95993Y36950D01*
Y32344D01*
G37*
G36*
Y30911D02*X94883D01*
Y31083D01*
X95208Y31098D01*
X95532Y31143D01*
X95850Y31217D01*
X95993Y31265D01*
Y30911D01*
G37*
G36*
X94883Y26411D02*X97783D01*
Y25178D01*
X97393Y24940D01*
X96920Y24535D01*
X96516Y24062D01*
X96191Y23532D01*
X95953Y22957D01*
X95808Y22352D01*
X95759Y21732D01*
X95808Y21112D01*
X95953Y20507D01*
X96191Y19932D01*
X96516Y19401D01*
X96920Y18928D01*
X97393Y18524D01*
X97783Y18285D01*
Y15714D01*
X97661Y15639D01*
X97282Y15316D01*
X96958Y14937D01*
X96698Y14512D01*
X96507Y14052D01*
X96391Y13568D01*
X96352Y13071D01*
X96391Y12574D01*
X96507Y12090D01*
X96698Y11630D01*
X96958Y11205D01*
X97282Y10826D01*
X97661Y10502D01*
X97783Y10428D01*
Y5748D01*
X94883D01*
Y26411D01*
G37*
G36*
Y134965D02*X92207D01*
X92157Y135085D01*
X91865Y135563D01*
X91501Y135989D01*
X91369Y136101D01*
Y143207D01*
X91412Y143214D01*
X91524Y143252D01*
X91629Y143306D01*
X91724Y143376D01*
X91806Y143460D01*
X91875Y143556D01*
X91926Y143663D01*
X92074Y144070D01*
X92178Y144492D01*
X92240Y144921D01*
X92261Y145354D01*
X92240Y145788D01*
X92178Y146217D01*
X92074Y146639D01*
X91931Y147048D01*
X91878Y147154D01*
X91809Y147251D01*
X91726Y147335D01*
X91630Y147406D01*
X91525Y147460D01*
X91413Y147498D01*
X91369Y147505D01*
Y152593D01*
X94883D01*
Y148819D01*
X94564Y148546D01*
X94104Y148008D01*
X93734Y147404D01*
X93463Y146749D01*
X93298Y146060D01*
X93242Y145354D01*
X93298Y144648D01*
X93463Y143959D01*
X93734Y143305D01*
X94104Y142701D01*
X94564Y142163D01*
X94883Y141890D01*
Y134965D01*
G37*
G36*
X91369Y136101D02*X91075Y136353D01*
X90597Y136645D01*
X90080Y136860D01*
X89535Y136991D01*
X88976Y137035D01*
X88418Y136991D01*
X87873Y136860D01*
X87758Y136812D01*
Y140849D01*
X88189Y140870D01*
X88619Y140932D01*
X89040Y141036D01*
X89450Y141180D01*
X89556Y141232D01*
X89652Y141301D01*
X89737Y141384D01*
X89807Y141480D01*
X89862Y141585D01*
X89899Y141698D01*
X89919Y141815D01*
X89920Y141933D01*
X89902Y142050D01*
X89866Y142164D01*
X89813Y142270D01*
X89744Y142366D01*
X89661Y142451D01*
X89565Y142521D01*
X89460Y142576D01*
X89347Y142613D01*
X89230Y142632D01*
X89112Y142633D01*
X88995Y142616D01*
X88882Y142578D01*
X88611Y142479D01*
X88330Y142410D01*
X88045Y142368D01*
X87758Y142354D01*
Y148354D01*
X88045Y148340D01*
X88330Y148299D01*
X88611Y148230D01*
X88884Y148134D01*
X88995Y148096D01*
X89112Y148079D01*
X89230Y148080D01*
X89347Y148099D01*
X89459Y148136D01*
X89563Y148191D01*
X89658Y148261D01*
X89741Y148345D01*
X89810Y148441D01*
X89863Y148546D01*
X89898Y148659D01*
X89916Y148776D01*
X89915Y148894D01*
X89896Y149010D01*
X89859Y149122D01*
X89804Y149227D01*
X89734Y149322D01*
X89650Y149405D01*
X89554Y149474D01*
X89448Y149524D01*
X89040Y149673D01*
X88619Y149776D01*
X88189Y149839D01*
X87758Y149859D01*
Y152593D01*
X91369D01*
Y147505D01*
X91296Y147517D01*
X91177Y147518D01*
X91060Y147500D01*
X90947Y147464D01*
X90841Y147411D01*
X90744Y147342D01*
X90660Y147259D01*
X90589Y147164D01*
X90535Y147058D01*
X90497Y146946D01*
X90478Y146829D01*
X90477Y146710D01*
X90495Y146593D01*
X90533Y146481D01*
X90631Y146209D01*
X90700Y145929D01*
X90742Y145643D01*
X90756Y145354D01*
X90742Y145066D01*
X90700Y144780D01*
X90631Y144499D01*
X90536Y144227D01*
X90498Y144115D01*
X90480Y143998D01*
X90481Y143880D01*
X90501Y143764D01*
X90538Y143652D01*
X90592Y143547D01*
X90662Y143452D01*
X90746Y143369D01*
X90842Y143300D01*
X90948Y143247D01*
X91061Y143212D01*
X91177Y143194D01*
X91295Y143195D01*
X91369Y143207D01*
Y136101D01*
G37*
G36*
X87758Y136812D02*X87356Y136645D01*
X86878Y136353D01*
X86452Y135989D01*
X86088Y135563D01*
X85795Y135085D01*
X85581Y134568D01*
X85450Y134023D01*
X85406Y133465D01*
X85450Y132906D01*
X85581Y132361D01*
X85795Y131844D01*
X86088Y131366D01*
X86452Y130940D01*
X86726Y130706D01*
Y104475D01*
X83989Y101738D01*
Y143248D01*
X84099Y143211D01*
X84216Y143192D01*
X84335Y143191D01*
X84452Y143208D01*
X84565Y143244D01*
X84671Y143297D01*
X84768Y143366D01*
X84852Y143450D01*
X84922Y143545D01*
X84977Y143650D01*
X85015Y143763D01*
X85034Y143880D01*
X85035Y143998D01*
X85017Y144116D01*
X84979Y144228D01*
X84880Y144499D01*
X84811Y144780D01*
X84770Y145066D01*
X84756Y145354D01*
X84770Y145643D01*
X84811Y145929D01*
X84880Y146209D01*
X84976Y146482D01*
X85014Y146594D01*
X85031Y146711D01*
X85031Y146829D01*
X85011Y146945D01*
X84974Y147057D01*
X84920Y147162D01*
X84849Y147257D01*
X84765Y147340D01*
X84669Y147408D01*
X84564Y147461D01*
X84451Y147497D01*
X84335Y147514D01*
X84216Y147514D01*
X84100Y147494D01*
X83989Y147457D01*
Y152593D01*
X87758D01*
Y149859D01*
X87756Y149860D01*
X87322Y149839D01*
X86893Y149776D01*
X86472Y149673D01*
X86062Y149529D01*
X85956Y149477D01*
X85860Y149408D01*
X85775Y149324D01*
X85705Y149229D01*
X85650Y149124D01*
X85613Y149011D01*
X85593Y148894D01*
X85592Y148775D01*
X85610Y148658D01*
X85646Y148545D01*
X85699Y148439D01*
X85768Y148343D01*
X85851Y148258D01*
X85947Y148188D01*
X86052Y148133D01*
X86164Y148096D01*
X86281Y148076D01*
X86400Y148075D01*
X86517Y148093D01*
X86629Y148131D01*
X86901Y148230D01*
X87181Y148299D01*
X87467Y148340D01*
X87756Y148354D01*
X87758Y148354D01*
Y142354D01*
X87756Y142354D01*
X87467Y142368D01*
X87181Y142410D01*
X86901Y142479D01*
X86628Y142574D01*
X86516Y142612D01*
X86400Y142630D01*
X86282Y142629D01*
X86165Y142610D01*
X86053Y142572D01*
X85948Y142518D01*
X85853Y142448D01*
X85771Y142364D01*
X85702Y142268D01*
X85649Y142162D01*
X85613Y142050D01*
X85596Y141933D01*
X85597Y141815D01*
X85616Y141698D01*
X85653Y141586D01*
X85708Y141482D01*
X85778Y141387D01*
X85862Y141304D01*
X85958Y141235D01*
X86064Y141184D01*
X86472Y141036D01*
X86893Y140932D01*
X87322Y140870D01*
X87756Y140849D01*
X87758Y140849D01*
Y136812D01*
G37*
G36*
X94883Y101451D02*X91535Y104799D01*
X91497Y104843D01*
X91317Y104997D01*
X91226Y105053D01*
Y130706D01*
X91501Y130940D01*
X91865Y131366D01*
X92157Y131844D01*
X92207Y131965D01*
X94883D01*
Y101451D01*
G37*
G36*
Y30911D02*X91981D01*
Y32813D01*
X92054Y32795D01*
X92132Y32788D01*
X92211Y32793D01*
X92288Y32810D01*
X92362Y32840D01*
X92430Y32880D01*
X92491Y32931D01*
X92543Y32990D01*
X92585Y33057D01*
X92616Y33130D01*
X92636Y33207D01*
X92643Y33285D01*
X92638Y33364D01*
X92620Y33441D01*
X92590Y33514D01*
X92493Y33728D01*
X92419Y33951D01*
X92366Y34179D01*
X92334Y34411D01*
X92323Y34646D01*
X92334Y34880D01*
X92366Y35112D01*
X92419Y35341D01*
X92493Y35563D01*
X92587Y35778D01*
X92618Y35851D01*
X92635Y35927D01*
X92640Y36006D01*
X92633Y36084D01*
X92614Y36161D01*
X92583Y36233D01*
X92541Y36300D01*
X92489Y36359D01*
X92428Y36409D01*
X92361Y36449D01*
X92288Y36479D01*
X92211Y36496D01*
X92132Y36501D01*
X92054Y36494D01*
X91981Y36475D01*
Y76256D01*
X92259Y76427D01*
X92798Y76887D01*
X93258Y77426D01*
X93628Y78029D01*
X93899Y78684D01*
X94065Y79373D01*
X94106Y80079D01*
X94065Y80785D01*
X93899Y81474D01*
X93628Y82128D01*
X93258Y82732D01*
X92798Y83271D01*
X92259Y83731D01*
X91981Y83901D01*
Y100110D01*
X94883Y97208D01*
Y38208D01*
X94882Y38208D01*
X94556Y38194D01*
X94232Y38149D01*
X93914Y38074D01*
X93604Y37971D01*
X93305Y37840D01*
X93237Y37800D01*
X93176Y37750D01*
X93124Y37690D01*
X93082Y37623D01*
X93050Y37551D01*
X93031Y37474D01*
X93024Y37395D01*
X93029Y37316D01*
X93046Y37239D01*
X93076Y37166D01*
X93116Y37098D01*
X93167Y37037D01*
X93226Y36985D01*
X93293Y36942D01*
X93366Y36911D01*
X93443Y36892D01*
X93522Y36885D01*
X93600Y36890D01*
X93678Y36907D01*
X93750Y36938D01*
X93964Y37034D01*
X94187Y37108D01*
X94415Y37162D01*
X94648Y37194D01*
X94882Y37205D01*
X94883Y37205D01*
Y32087D01*
X94882Y32087D01*
X94648Y32097D01*
X94415Y32130D01*
X94187Y32183D01*
X93964Y32257D01*
X93749Y32351D01*
X93677Y32381D01*
X93600Y32399D01*
X93522Y32404D01*
X93443Y32397D01*
X93367Y32378D01*
X93295Y32347D01*
X93228Y32305D01*
X93169Y32253D01*
X93118Y32192D01*
X93078Y32125D01*
X93049Y32051D01*
X93032Y31975D01*
X93026Y31896D01*
X93034Y31818D01*
X93053Y31742D01*
X93084Y31669D01*
X93126Y31603D01*
X93178Y31543D01*
X93238Y31493D01*
X93307Y31454D01*
X93604Y31320D01*
X93914Y31217D01*
X94232Y31143D01*
X94556Y31098D01*
X94882Y31083D01*
X94883Y31083D01*
Y30911D01*
G37*
G36*
X86576Y97961D02*X90353Y101738D01*
X91981Y100110D01*
Y83901D01*
X91656Y84101D01*
X91001Y84372D01*
X90312Y84537D01*
X89606Y84593D01*
X88900Y84537D01*
X88211Y84372D01*
X87557Y84101D01*
X86953Y83731D01*
X86576Y83409D01*
Y97961D01*
G37*
G36*
X91981Y30911D02*X89859D01*
Y51530D01*
X89862Y51531D01*
X89930Y51570D01*
X89991Y51620D01*
X90044Y51678D01*
X90086Y51745D01*
X90249Y52070D01*
X90378Y52410D01*
X90476Y52760D01*
X90542Y53117D01*
X90575Y53480D01*
Y53843D01*
X90542Y54205D01*
X90476Y54563D01*
X90378Y54913D01*
X90249Y55253D01*
X90089Y55580D01*
X90047Y55647D01*
X89993Y55705D01*
X89932Y55755D01*
X89863Y55794D01*
X89859Y55796D01*
Y75585D01*
X90312Y75620D01*
X91001Y75786D01*
X91656Y76057D01*
X91981Y76256D01*
Y36475D01*
X91978Y36475D01*
X91905Y36444D01*
X91839Y36402D01*
X91780Y36350D01*
X91729Y36289D01*
X91690Y36221D01*
X91556Y35923D01*
X91453Y35613D01*
X91379Y35295D01*
X91334Y34972D01*
X91319Y34646D01*
X91334Y34319D01*
X91379Y33996D01*
X91453Y33678D01*
X91556Y33368D01*
X91687Y33069D01*
X91727Y33001D01*
X91778Y32940D01*
X91837Y32888D01*
X91904Y32845D01*
X91977Y32814D01*
X91981Y32813D01*
Y30911D01*
G37*
G36*
X89859D02*X86576D01*
Y49661D01*
X86757D01*
X87119Y49694D01*
X87476Y49760D01*
X87827Y49858D01*
X88167Y49987D01*
X88493Y50147D01*
X88560Y50190D01*
X88619Y50243D01*
X88668Y50304D01*
X88708Y50373D01*
X88736Y50447D01*
X88752Y50525D01*
X88756Y50604D01*
X88748Y50682D01*
X88727Y50759D01*
X88695Y50831D01*
X88651Y50897D01*
X88598Y50956D01*
X88537Y51006D01*
X88468Y51045D01*
X88394Y51074D01*
X88317Y51090D01*
X88237Y51094D01*
X88159Y51085D01*
X88082Y51065D01*
X88011Y51031D01*
X87767Y50909D01*
X87513Y50812D01*
X87250Y50738D01*
X86982Y50689D01*
X86711Y50665D01*
X86576D01*
Y56658D01*
X86711D01*
X86982Y56634D01*
X87250Y56584D01*
X87513Y56511D01*
X87767Y56414D01*
X88012Y56295D01*
X88083Y56261D01*
X88159Y56241D01*
X88238Y56232D01*
X88316Y56236D01*
X88393Y56252D01*
X88467Y56280D01*
X88535Y56320D01*
X88596Y56369D01*
X88649Y56427D01*
X88692Y56493D01*
X88724Y56565D01*
X88745Y56641D01*
X88753Y56719D01*
X88749Y56798D01*
X88733Y56875D01*
X88705Y56948D01*
X88666Y57017D01*
X88616Y57078D01*
X88558Y57131D01*
X88491Y57172D01*
X88167Y57336D01*
X87827Y57465D01*
X87476Y57563D01*
X87119Y57628D01*
X86757Y57661D01*
X86576D01*
Y76749D01*
X86953Y76427D01*
X87557Y76057D01*
X88211Y75786D01*
X88900Y75620D01*
X89606Y75565D01*
X89859Y75585D01*
Y55796D01*
X89789Y55823D01*
X89712Y55839D01*
X89633Y55843D01*
X89554Y55834D01*
X89477Y55814D01*
X89405Y55781D01*
X89339Y55738D01*
X89280Y55685D01*
X89230Y55623D01*
X89191Y55555D01*
X89163Y55481D01*
X89146Y55403D01*
X89142Y55324D01*
X89151Y55245D01*
X89172Y55169D01*
X89205Y55097D01*
X89328Y54854D01*
X89424Y54599D01*
X89498Y54337D01*
X89547Y54069D01*
X89572Y53798D01*
Y53525D01*
X89547Y53254D01*
X89498Y52986D01*
X89424Y52723D01*
X89328Y52469D01*
X89208Y52224D01*
X89174Y52153D01*
X89154Y52077D01*
X89146Y51999D01*
X89149Y51920D01*
X89166Y51843D01*
X89194Y51770D01*
X89233Y51701D01*
X89282Y51640D01*
X89341Y51587D01*
X89407Y51544D01*
X89478Y51512D01*
X89554Y51491D01*
X89633Y51483D01*
X89711Y51487D01*
X89788Y51503D01*
X89859Y51530D01*
Y30911D01*
G37*
G36*
X86576D02*X83989D01*
Y51850D01*
X84003Y51920D01*
X84007Y51999D01*
X83999Y52077D01*
X83989Y52115D01*
Y55220D01*
X83996Y55246D01*
X84004Y55324D01*
X84000Y55403D01*
X83989Y55458D01*
Y79056D01*
X84065Y79373D01*
X84106Y80079D01*
X84065Y80785D01*
X83989Y81101D01*
Y95374D01*
X86576Y97961D01*
Y83409D01*
X86415Y83271D01*
X85954Y82732D01*
X85584Y82128D01*
X85313Y81474D01*
X85148Y80785D01*
X85092Y80079D01*
X85148Y79373D01*
X85313Y78684D01*
X85584Y78029D01*
X85954Y77426D01*
X86415Y76887D01*
X86576Y76749D01*
Y57661D01*
X86393D01*
X86031Y57628D01*
X85673Y57563D01*
X85323Y57465D01*
X84983Y57336D01*
X84656Y57176D01*
X84590Y57133D01*
X84531Y57080D01*
X84481Y57018D01*
X84442Y56950D01*
X84414Y56876D01*
X84397Y56798D01*
X84393Y56719D01*
X84402Y56640D01*
X84422Y56564D01*
X84455Y56492D01*
X84498Y56425D01*
X84551Y56367D01*
X84613Y56317D01*
X84682Y56278D01*
X84756Y56249D01*
X84833Y56233D01*
X84912Y56229D01*
X84991Y56238D01*
X85067Y56258D01*
X85139Y56292D01*
X85382Y56414D01*
X85637Y56511D01*
X85899Y56584D01*
X86167Y56634D01*
X86439Y56658D01*
X86576D01*
Y50665D01*
X86439D01*
X86167Y50689D01*
X85899Y50738D01*
X85637Y50812D01*
X85382Y50909D01*
X85137Y51028D01*
X85066Y51062D01*
X84990Y51082D01*
X84912Y51091D01*
X84833Y51087D01*
X84756Y51071D01*
X84683Y51043D01*
X84615Y51003D01*
X84553Y50954D01*
X84501Y50896D01*
X84458Y50830D01*
X84425Y50758D01*
X84405Y50682D01*
X84396Y50604D01*
X84400Y50525D01*
X84417Y50448D01*
X84445Y50374D01*
X84484Y50306D01*
X84533Y50245D01*
X84592Y50192D01*
X84658Y50150D01*
X84983Y49987D01*
X85323Y49858D01*
X85673Y49760D01*
X86031Y49694D01*
X86393Y49661D01*
X86576D01*
Y30911D01*
G37*
G36*
X83989Y26411D02*X94883D01*
Y5748D01*
X83989D01*
Y26411D01*
G37*
G36*
X83942Y55099D02*X83975Y55170D01*
X83989Y55220D01*
Y52115D01*
X83978Y52154D01*
X83944Y52225D01*
X83822Y52469D01*
X83725Y52723D01*
X83652Y52986D01*
X83603Y53254D01*
X83578Y53525D01*
Y53798D01*
X83603Y54069D01*
X83652Y54337D01*
X83725Y54599D01*
X83822Y54854D01*
X83942Y55099D01*
G37*
G36*
X67947Y152593D02*X83110D01*
X83189Y152597D01*
X83268Y152593D01*
X83989D01*
Y147457D01*
X83988Y147457D01*
X83883Y147403D01*
X83788Y147333D01*
X83705Y147248D01*
X83637Y147152D01*
X83586Y147046D01*
X83438Y146639D01*
X83334Y146217D01*
X83272Y145788D01*
X83251Y145354D01*
X83272Y144921D01*
X83334Y144492D01*
X83438Y144070D01*
X83581Y143661D01*
X83634Y143554D01*
X83703Y143458D01*
X83786Y143373D01*
X83881Y143303D01*
X83987Y143248D01*
X83989Y143248D01*
Y101738D01*
X80958Y98707D01*
X76683D01*
X76350Y98991D01*
X75873Y99283D01*
X75549Y99417D01*
X75950Y99759D01*
X76313Y100185D01*
X76606Y100663D01*
X76820Y101180D01*
X76951Y101725D01*
X76984Y102283D01*
X76951Y102842D01*
X76820Y103387D01*
X76606Y103904D01*
X76313Y104382D01*
X75950Y104808D01*
X75524Y105172D01*
X75046Y105464D01*
X74528Y105679D01*
X73984Y105810D01*
X73425Y105853D01*
X72867Y105810D01*
X72322Y105679D01*
X71804Y105464D01*
X71327Y105172D01*
X70901Y104808D01*
X70537Y104382D01*
X70244Y103904D01*
X70194Y103783D01*
X67947D01*
Y152593D01*
G37*
G36*
X76917Y93742D02*X77140Y94004D01*
X77264Y94207D01*
X81802D01*
X81890Y94200D01*
X82243Y94228D01*
X82243Y94228D01*
X82587Y94310D01*
X82914Y94446D01*
X83216Y94631D01*
X83486Y94861D01*
X83543Y94928D01*
X83989Y95374D01*
Y81101D01*
X83899Y81474D01*
X83628Y82128D01*
X83258Y82732D01*
X82798Y83271D01*
X82259Y83731D01*
X81656Y84101D01*
X81001Y84372D01*
X80312Y84537D01*
X79606Y84593D01*
X78900Y84537D01*
X78211Y84372D01*
X77557Y84101D01*
X76953Y83731D01*
X76917Y83699D01*
Y88131D01*
X76920Y88132D01*
X76992Y88163D01*
X77059Y88205D01*
X77118Y88257D01*
X77168Y88317D01*
X77207Y88385D01*
X77342Y88683D01*
X77445Y88993D01*
X77519Y89311D01*
X77564Y89634D01*
X77579Y89961D01*
X77564Y90287D01*
X77519Y90610D01*
X77445Y90928D01*
X77342Y91238D01*
X77211Y91538D01*
X77171Y91606D01*
X77120Y91667D01*
X77060Y91719D01*
X76993Y91761D01*
X76921Y91792D01*
X76917Y91793D01*
Y93742D01*
G37*
G36*
X83989Y30911D02*X76917D01*
Y59474D01*
X77193Y59238D01*
X77671Y58945D01*
X78188Y58731D01*
X78733Y58600D01*
X79291Y58556D01*
X79850Y58600D01*
X80395Y58731D01*
X80912Y58945D01*
X81390Y59238D01*
X81816Y59602D01*
X82180Y60028D01*
X82472Y60505D01*
X82687Y61023D01*
X82817Y61568D01*
X82850Y62126D01*
X82817Y62684D01*
X82687Y63229D01*
X82472Y63747D01*
X82180Y64224D01*
X81816Y64650D01*
X81390Y65014D01*
X80912Y65307D01*
X80395Y65521D01*
X79850Y65652D01*
X79291Y65696D01*
X78733Y65652D01*
X78188Y65521D01*
X77671Y65307D01*
X77193Y65014D01*
X76917Y64778D01*
Y76458D01*
X76953Y76427D01*
X77557Y76057D01*
X78211Y75786D01*
X78900Y75620D01*
X79606Y75565D01*
X80312Y75620D01*
X81001Y75786D01*
X81656Y76057D01*
X82259Y76427D01*
X82798Y76887D01*
X83258Y77426D01*
X83628Y78029D01*
X83899Y78684D01*
X83989Y79056D01*
Y55458D01*
X83984Y55480D01*
X83956Y55553D01*
X83917Y55622D01*
X83867Y55683D01*
X83809Y55736D01*
X83743Y55779D01*
X83671Y55811D01*
X83595Y55831D01*
X83517Y55840D01*
X83438Y55836D01*
X83361Y55820D01*
X83288Y55792D01*
X83220Y55752D01*
X83158Y55703D01*
X83106Y55645D01*
X83064Y55578D01*
X82901Y55253D01*
X82771Y54913D01*
X82674Y54563D01*
X82608Y54205D01*
X82575Y53843D01*
Y53480D01*
X82608Y53117D01*
X82674Y52760D01*
X82771Y52410D01*
X82901Y52070D01*
X83060Y51743D01*
X83103Y51676D01*
X83156Y51618D01*
X83218Y51568D01*
X83287Y51528D01*
X83360Y51500D01*
X83438Y51484D01*
X83517Y51480D01*
X83596Y51488D01*
X83672Y51509D01*
X83745Y51541D01*
X83811Y51585D01*
X83870Y51638D01*
X83919Y51700D01*
X83959Y51768D01*
X83987Y51842D01*
X83989Y51850D01*
Y30911D01*
G37*
G36*
X76917Y64778D02*X76767Y64650D01*
X76403Y64224D01*
X76110Y63747D01*
X76060Y63626D01*
X74017D01*
Y79175D01*
X74065Y79373D01*
X74106Y80079D01*
X74065Y80785D01*
X74017Y80983D01*
Y86398D01*
X74342Y86413D01*
X74666Y86458D01*
X74984Y86532D01*
X75293Y86635D01*
X75593Y86766D01*
X75661Y86806D01*
X75722Y86856D01*
X75774Y86916D01*
X75816Y86983D01*
X75847Y87056D01*
X75867Y87132D01*
X75874Y87211D01*
X75869Y87290D01*
X75851Y87367D01*
X75822Y87441D01*
X75781Y87509D01*
X75731Y87570D01*
X75671Y87622D01*
X75604Y87664D01*
X75532Y87695D01*
X75455Y87715D01*
X75376Y87722D01*
X75297Y87717D01*
X75220Y87699D01*
X75147Y87668D01*
X74934Y87572D01*
X74711Y87498D01*
X74482Y87444D01*
X74250Y87412D01*
X74017Y87402D01*
Y92520D01*
X74250Y92509D01*
X74482Y92477D01*
X74711Y92423D01*
X74934Y92349D01*
X75148Y92255D01*
X75221Y92225D01*
X75298Y92207D01*
X75376Y92202D01*
X75454Y92209D01*
X75531Y92229D01*
X75603Y92260D01*
X75670Y92302D01*
X75729Y92354D01*
X75779Y92414D01*
X75819Y92482D01*
X75849Y92555D01*
X75866Y92632D01*
X75871Y92710D01*
X75864Y92788D01*
X75845Y92865D01*
X75828Y92903D01*
X75873Y92921D01*
X76350Y93214D01*
X76776Y93578D01*
X76917Y93742D01*
Y91793D01*
X76844Y91812D01*
X76765Y91819D01*
X76686Y91814D01*
X76609Y91796D01*
X76536Y91767D01*
X76468Y91726D01*
X76407Y91676D01*
X76355Y91616D01*
X76313Y91549D01*
X76281Y91476D01*
X76262Y91400D01*
X76255Y91321D01*
X76260Y91242D01*
X76277Y91165D01*
X76308Y91092D01*
X76405Y90878D01*
X76479Y90656D01*
X76532Y90427D01*
X76564Y90195D01*
X76575Y89961D01*
X76564Y89726D01*
X76532Y89494D01*
X76479Y89265D01*
X76405Y89043D01*
X76310Y88828D01*
X76280Y88756D01*
X76263Y88679D01*
X76257Y88600D01*
X76265Y88522D01*
X76284Y88446D01*
X76315Y88373D01*
X76357Y88307D01*
X76409Y88248D01*
X76469Y88197D01*
X76537Y88157D01*
X76610Y88128D01*
X76687Y88110D01*
X76765Y88105D01*
X76844Y88112D01*
X76917Y88131D01*
Y83699D01*
X76415Y83271D01*
X75954Y82732D01*
X75584Y82128D01*
X75313Y81474D01*
X75148Y80785D01*
X75092Y80079D01*
X75148Y79373D01*
X75313Y78684D01*
X75584Y78029D01*
X75954Y77426D01*
X76415Y76887D01*
X76917Y76458D01*
Y64778D01*
G37*
G36*
Y30911D02*X75600D01*
X75512Y30918D01*
X75159Y30891D01*
X74814Y30808D01*
X74487Y30672D01*
X74185Y30487D01*
X74185Y30487D01*
X74017Y30344D01*
Y60626D01*
X76060D01*
X76110Y60505D01*
X76403Y60028D01*
X76767Y59602D01*
X76917Y59474D01*
Y30911D01*
G37*
G36*
X71115Y99576D02*X71327Y99395D01*
X71804Y99103D01*
X72128Y98969D01*
X71728Y98627D01*
X71364Y98201D01*
X71115Y97795D01*
Y99576D01*
G37*
G36*
X74017Y80983D02*X73899Y81474D01*
X73628Y82128D01*
X73258Y82732D01*
X72798Y83271D01*
X72259Y83731D01*
X71656Y84101D01*
X71115Y84325D01*
Y88128D01*
X71187Y88110D01*
X71266Y88102D01*
X71345Y88108D01*
X71422Y88125D01*
X71496Y88155D01*
X71564Y88195D01*
X71625Y88246D01*
X71677Y88305D01*
X71719Y88372D01*
X71750Y88445D01*
X71770Y88521D01*
X71777Y88600D01*
X71772Y88679D01*
X71754Y88756D01*
X71723Y88829D01*
X71627Y89043D01*
X71553Y89265D01*
X71500Y89494D01*
X71467Y89726D01*
X71457Y89961D01*
X71467Y90195D01*
X71500Y90427D01*
X71553Y90656D01*
X71627Y90878D01*
X71721Y91093D01*
X71752Y91166D01*
X71769Y91242D01*
X71774Y91321D01*
X71767Y91399D01*
X71748Y91476D01*
X71717Y91548D01*
X71675Y91615D01*
X71623Y91674D01*
X71562Y91724D01*
X71495Y91764D01*
X71422Y91794D01*
X71345Y91811D01*
X71266Y91816D01*
X71188Y91809D01*
X71115Y91790D01*
Y94410D01*
X71364Y94004D01*
X71728Y93578D01*
X72154Y93214D01*
X72347Y93096D01*
X72310Y93065D01*
X72258Y93005D01*
X72215Y92938D01*
X72184Y92866D01*
X72165Y92789D01*
X72158Y92710D01*
X72163Y92631D01*
X72180Y92554D01*
X72210Y92481D01*
X72250Y92413D01*
X72301Y92352D01*
X72360Y92300D01*
X72427Y92257D01*
X72500Y92226D01*
X72577Y92207D01*
X72655Y92200D01*
X72734Y92205D01*
X72811Y92222D01*
X72884Y92253D01*
X73098Y92349D01*
X73321Y92423D01*
X73549Y92477D01*
X73781Y92509D01*
X74016Y92520D01*
X74017Y92520D01*
Y87402D01*
X74016Y87402D01*
X73781Y87412D01*
X73549Y87444D01*
X73321Y87498D01*
X73098Y87572D01*
X72883Y87666D01*
X72811Y87696D01*
X72734Y87714D01*
X72655Y87719D01*
X72577Y87712D01*
X72501Y87693D01*
X72428Y87661D01*
X72362Y87619D01*
X72303Y87568D01*
X72252Y87507D01*
X72212Y87440D01*
X72183Y87366D01*
X72165Y87290D01*
X72160Y87211D01*
X72167Y87133D01*
X72187Y87056D01*
X72218Y86984D01*
X72260Y86918D01*
X72312Y86858D01*
X72372Y86808D01*
X72440Y86769D01*
X72738Y86635D01*
X73048Y86532D01*
X73366Y86458D01*
X73689Y86413D01*
X74016Y86398D01*
X74017Y86398D01*
Y80983D01*
G37*
G36*
X71115Y84325D02*X71001Y84372D01*
X70312Y84537D01*
X69606Y84593D01*
X68900Y84537D01*
X68211Y84372D01*
X67947Y84262D01*
Y100783D01*
X70194D01*
X70244Y100663D01*
X70537Y100185D01*
X70901Y99759D01*
X71115Y99576D01*
Y97795D01*
X71071Y97723D01*
X70857Y97206D01*
X70726Y96661D01*
X70682Y96102D01*
X70726Y95544D01*
X70857Y94999D01*
X71071Y94482D01*
X71115Y94410D01*
Y91790D01*
X71112Y91790D01*
X71039Y91759D01*
X70973Y91717D01*
X70914Y91665D01*
X70863Y91604D01*
X70824Y91536D01*
X70690Y91238D01*
X70587Y90928D01*
X70513Y90610D01*
X70468Y90287D01*
X70453Y89961D01*
X70468Y89634D01*
X70513Y89311D01*
X70587Y88993D01*
X70690Y88683D01*
X70821Y88384D01*
X70861Y88316D01*
X70912Y88255D01*
X70971Y88203D01*
X71038Y88160D01*
X71111Y88129D01*
X71115Y88128D01*
Y84325D01*
G37*
G36*
X74017Y63626D02*X67947D01*
Y75895D01*
X68211Y75786D01*
X68900Y75620D01*
X69606Y75565D01*
X70312Y75620D01*
X71001Y75786D01*
X71656Y76057D01*
X72259Y76427D01*
X72798Y76887D01*
X73258Y77426D01*
X73628Y78029D01*
X73899Y78684D01*
X74017Y79175D01*
Y63626D01*
G37*
G36*
Y30344D02*X73916Y30257D01*
X73858Y30190D01*
X67947Y24279D01*
Y60626D01*
X74017D01*
Y30344D01*
G37*
G36*
X45035Y107657D02*X45001Y107586D01*
X44981Y107510D01*
X44977Y107473D01*
Y110687D01*
X44978Y110678D01*
X44998Y110602D01*
X45032Y110530D01*
X45154Y110287D01*
X45251Y110032D01*
X45325Y109770D01*
X45374Y109502D01*
X45398Y109231D01*
Y108958D01*
X45374Y108687D01*
X45325Y108419D01*
X45251Y108157D01*
X45154Y107902D01*
X45035Y107657D01*
G37*
G36*
X55764Y131514D02*X55789Y131446D01*
X55858Y131165D01*
X55899Y130879D01*
X55913Y130591D01*
X55899Y130302D01*
X55858Y130016D01*
X55789Y129735D01*
X55764Y129665D01*
Y131514D01*
G37*
G36*
Y99176D02*X55820Y99142D01*
X56338Y98928D01*
X56882Y98797D01*
X57441Y98753D01*
X57999Y98797D01*
X58544Y98928D01*
X59062Y99142D01*
X59539Y99435D01*
X59965Y99798D01*
X60329Y100224D01*
X60622Y100702D01*
X60656Y100783D01*
X67947D01*
Y84262D01*
X67557Y84101D01*
X66953Y83731D01*
X66415Y83271D01*
X65954Y82732D01*
X65584Y82128D01*
X65313Y81474D01*
X65148Y80785D01*
X65092Y80079D01*
X65148Y79373D01*
X65313Y78684D01*
X65584Y78029D01*
X65954Y77426D01*
X66415Y76887D01*
X66953Y76427D01*
X67557Y76057D01*
X67947Y75895D01*
Y63626D01*
X59796D01*
X59795Y63629D01*
X59502Y64106D01*
X59139Y64532D01*
X58713Y64896D01*
X58235Y65189D01*
X57717Y65403D01*
X57173Y65534D01*
X56614Y65578D01*
X56056Y65534D01*
X55764Y65464D01*
Y99176D01*
G37*
G36*
X62913Y152593D02*X67947D01*
Y103783D01*
X62913D01*
Y126097D01*
X66149Y126104D01*
X66378Y126160D01*
X66596Y126250D01*
X66798Y126373D01*
X66977Y126527D01*
X67131Y126706D01*
X67254Y126907D01*
X67344Y127126D01*
X67399Y127355D01*
X67413Y127591D01*
X67399Y133826D01*
X67344Y134056D01*
X67254Y134274D01*
X67131Y134475D01*
X66977Y134654D01*
X66798Y134808D01*
X66596Y134931D01*
X66378Y135022D01*
X66149Y135077D01*
X65913Y135091D01*
X62913Y135084D01*
Y152593D01*
G37*
G36*
X55764D02*X62913D01*
Y135084D01*
X59678Y135077D01*
X59448Y135022D01*
X59230Y134931D01*
X59029Y134808D01*
X58849Y134654D01*
X58696Y134475D01*
X58573Y134274D01*
X58482Y134056D01*
X58427Y133826D01*
X58413Y133591D01*
X58427Y127355D01*
X58482Y127126D01*
X58573Y126907D01*
X58696Y126706D01*
X58849Y126527D01*
X59029Y126373D01*
X59230Y126250D01*
X59448Y126160D01*
X59678Y126104D01*
X59913Y126091D01*
X62913Y126097D01*
Y103783D01*
X60688D01*
X60622Y103944D01*
X60329Y104421D01*
X59965Y104847D01*
X59539Y105211D01*
X59062Y105504D01*
X58544Y105718D01*
X57999Y105849D01*
X57441Y105893D01*
X56882Y105849D01*
X56338Y105718D01*
X55820Y105504D01*
X55764Y105469D01*
Y128764D01*
X55820Y128688D01*
X55904Y128605D01*
X56000Y128537D01*
X56106Y128484D01*
X56218Y128448D01*
X56335Y128430D01*
X56453Y128431D01*
X56569Y128451D01*
X56681Y128488D01*
X56786Y128542D01*
X56881Y128612D01*
X56964Y128696D01*
X57033Y128792D01*
X57083Y128899D01*
X57232Y129306D01*
X57335Y129728D01*
X57398Y130157D01*
X57419Y130591D01*
X57398Y131024D01*
X57335Y131453D01*
X57232Y131875D01*
X57088Y132284D01*
X57036Y132390D01*
X56967Y132487D01*
X56883Y132571D01*
X56788Y132642D01*
X56683Y132696D01*
X56570Y132734D01*
X56453Y132753D01*
X56335Y132754D01*
X56217Y132736D01*
X56104Y132701D01*
X55998Y132648D01*
X55902Y132579D01*
X55817Y132495D01*
X55764Y132423D01*
Y152593D01*
G37*
G36*
X67947Y24279D02*X67296Y23628D01*
X55764D01*
Y27751D01*
X55767Y27752D01*
X55836Y27791D01*
X55897Y27840D01*
X55950Y27899D01*
X55991Y27965D01*
X56154Y28290D01*
X56284Y28630D01*
X56382Y28980D01*
X56447Y29338D01*
X56480Y29700D01*
Y30064D01*
X56447Y30426D01*
X56382Y30784D01*
X56284Y31134D01*
X56154Y31474D01*
X55995Y31800D01*
X55952Y31867D01*
X55899Y31926D01*
X55837Y31975D01*
X55769Y32015D01*
X55764Y32017D01*
Y58552D01*
X56056Y58482D01*
X56614Y58438D01*
X57173Y58482D01*
X57717Y58613D01*
X58235Y58827D01*
X58713Y59120D01*
X59139Y59483D01*
X59502Y59909D01*
X59795Y60387D01*
X59894Y60626D01*
X67947D01*
Y24279D01*
G37*
G36*
X55764Y23628D02*X52482D01*
Y25882D01*
X52662D01*
X53024Y25915D01*
X53382Y25981D01*
X53732Y26078D01*
X54072Y26208D01*
X54399Y26367D01*
X54465Y26410D01*
X54524Y26463D01*
X54574Y26525D01*
X54613Y26594D01*
X54642Y26668D01*
X54658Y26745D01*
X54662Y26824D01*
X54653Y26903D01*
X54633Y26979D01*
X54600Y27052D01*
X54557Y27118D01*
X54504Y27177D01*
X54442Y27226D01*
X54374Y27266D01*
X54300Y27294D01*
X54222Y27310D01*
X54143Y27314D01*
X54064Y27306D01*
X53988Y27285D01*
X53916Y27251D01*
X53673Y27129D01*
X53418Y27032D01*
X53156Y26959D01*
X52888Y26910D01*
X52617Y26885D01*
X52482D01*
Y32879D01*
X52617D01*
X52888Y32854D01*
X53156Y32805D01*
X53418Y32731D01*
X53673Y32635D01*
X53918Y32515D01*
X53989Y32482D01*
X54065Y32461D01*
X54143Y32453D01*
X54222Y32457D01*
X54299Y32473D01*
X54372Y32501D01*
X54440Y32540D01*
X54502Y32589D01*
X54555Y32648D01*
X54598Y32714D01*
X54630Y32785D01*
X54650Y32861D01*
X54659Y32940D01*
X54655Y33018D01*
X54639Y33095D01*
X54610Y33169D01*
X54571Y33237D01*
X54522Y33298D01*
X54464Y33351D01*
X54397Y33393D01*
X54072Y33556D01*
X53732Y33685D01*
X53382Y33783D01*
X53024Y33849D01*
X52662Y33882D01*
X52482D01*
Y126106D01*
X52913Y126085D01*
X53347Y126106D01*
X53776Y126169D01*
X54198Y126272D01*
X54607Y126416D01*
X54713Y126468D01*
X54810Y126537D01*
X54894Y126621D01*
X54965Y126716D01*
X55019Y126821D01*
X55057Y126934D01*
X55076Y127051D01*
X55077Y127169D01*
X55059Y127287D01*
X55023Y127400D01*
X54970Y127506D01*
X54901Y127602D01*
X54818Y127687D01*
X54723Y127757D01*
X54617Y127812D01*
X54505Y127849D01*
X54388Y127869D01*
X54269Y127870D01*
X54152Y127852D01*
X54040Y127814D01*
X53769Y127715D01*
X53488Y127646D01*
X53202Y127604D01*
X52913Y127591D01*
X52625Y127604D01*
X52482Y127625D01*
Y133556D01*
X52625Y133577D01*
X52913Y133591D01*
X53202Y133577D01*
X53488Y133535D01*
X53769Y133466D01*
X54041Y133370D01*
X54153Y133333D01*
X54270Y133315D01*
X54388Y133316D01*
X54504Y133335D01*
X54616Y133373D01*
X54721Y133427D01*
X54816Y133497D01*
X54899Y133581D01*
X54967Y133677D01*
X55020Y133783D01*
X55056Y133895D01*
X55074Y134012D01*
X55073Y134130D01*
X55053Y134246D01*
X55016Y134358D01*
X54962Y134463D01*
X54892Y134558D01*
X54808Y134641D01*
X54712Y134710D01*
X54605Y134760D01*
X54198Y134909D01*
X53776Y135012D01*
X53347Y135075D01*
X52913Y135096D01*
X52482Y135075D01*
Y149615D01*
X55460Y152593D01*
X55764D01*
Y132423D01*
X55747Y132400D01*
X55692Y132295D01*
X55655Y132182D01*
X55635Y132065D01*
X55634Y131946D01*
X55652Y131829D01*
X55690Y131717D01*
X55764Y131514D01*
Y129665D01*
X55693Y129463D01*
X55656Y129351D01*
X55638Y129234D01*
X55639Y129116D01*
X55658Y129000D01*
X55695Y128888D01*
X55750Y128783D01*
X55764Y128764D01*
Y105469D01*
X55343Y105211D01*
X54917Y104847D01*
X54553Y104421D01*
X54260Y103944D01*
X54046Y103426D01*
X53915Y102881D01*
X53871Y102323D01*
X53915Y101764D01*
X54046Y101220D01*
X54260Y100702D01*
X54553Y100224D01*
X54917Y99798D01*
X55343Y99435D01*
X55764Y99176D01*
Y65464D01*
X55511Y65403D01*
X54993Y65189D01*
X54516Y64896D01*
X54090Y64532D01*
X53726Y64106D01*
X53433Y63629D01*
X53219Y63111D01*
X53088Y62566D01*
X53044Y62008D01*
X53088Y61449D01*
X53219Y60905D01*
X53433Y60387D01*
X53726Y59909D01*
X54090Y59483D01*
X54516Y59120D01*
X54993Y58827D01*
X55511Y58613D01*
X55764Y58552D01*
Y32017D01*
X55695Y32043D01*
X55617Y32059D01*
X55538Y32063D01*
X55459Y32055D01*
X55383Y32034D01*
X55311Y32002D01*
X55244Y31959D01*
X55186Y31905D01*
X55136Y31844D01*
X55096Y31775D01*
X55068Y31701D01*
X55052Y31624D01*
X55048Y31545D01*
X55056Y31466D01*
X55077Y31389D01*
X55111Y31318D01*
X55233Y31075D01*
X55330Y30820D01*
X55403Y30557D01*
X55452Y30289D01*
X55477Y30018D01*
Y29746D01*
X55452Y29474D01*
X55403Y29206D01*
X55330Y28944D01*
X55233Y28689D01*
X55114Y28444D01*
X55080Y28373D01*
X55059Y28297D01*
X55051Y28219D01*
X55055Y28141D01*
X55071Y28064D01*
X55099Y27990D01*
X55138Y27922D01*
X55188Y27860D01*
X55246Y27808D01*
X55312Y27765D01*
X55384Y27732D01*
X55460Y27712D01*
X55538Y27704D01*
X55617Y27707D01*
X55694Y27724D01*
X55764Y27751D01*
Y23628D01*
G37*
G36*
X52482D02*X49196D01*
Y27747D01*
X49266Y27721D01*
X49344Y27704D01*
X49423Y27700D01*
X49501Y27709D01*
X49578Y27730D01*
X49650Y27762D01*
X49716Y27805D01*
X49775Y27858D01*
X49825Y27920D01*
X49864Y27989D01*
X49892Y28063D01*
X49909Y28140D01*
X49913Y28219D01*
X49904Y28298D01*
X49884Y28374D01*
X49850Y28446D01*
X49728Y28689D01*
X49631Y28944D01*
X49557Y29206D01*
X49508Y29474D01*
X49483Y29746D01*
Y30018D01*
X49508Y30289D01*
X49557Y30557D01*
X49631Y30820D01*
X49728Y31075D01*
X49847Y31319D01*
X49881Y31390D01*
X49901Y31466D01*
X49910Y31545D01*
X49906Y31623D01*
X49889Y31700D01*
X49861Y31774D01*
X49822Y31842D01*
X49773Y31903D01*
X49714Y31956D01*
X49649Y31999D01*
X49577Y32031D01*
X49501Y32052D01*
X49423Y32060D01*
X49344Y32056D01*
X49267Y32040D01*
X49196Y32013D01*
Y128467D01*
X49257Y128447D01*
X49374Y128428D01*
X49492Y128427D01*
X49610Y128445D01*
X49723Y128480D01*
X49829Y128534D01*
X49925Y128603D01*
X50010Y128686D01*
X50080Y128781D01*
X50135Y128886D01*
X50172Y128999D01*
X50191Y129116D01*
X50192Y129235D01*
X50175Y129352D01*
X50137Y129464D01*
X50038Y129735D01*
X49969Y130016D01*
X49927Y130302D01*
X49913Y130591D01*
X49927Y130879D01*
X49969Y131165D01*
X50038Y131446D01*
X50133Y131718D01*
X50171Y131830D01*
X50189Y131947D01*
X50188Y132065D01*
X50169Y132181D01*
X50131Y132293D01*
X50077Y132398D01*
X50007Y132493D01*
X49923Y132576D01*
X49827Y132645D01*
X49721Y132697D01*
X49609Y132733D01*
X49492Y132751D01*
X49374Y132750D01*
X49257Y132731D01*
X49196Y132710D01*
Y146329D01*
X52482Y149615D01*
Y135075D01*
X52480Y135075D01*
X52051Y135012D01*
X51629Y134909D01*
X51220Y134765D01*
X51113Y134713D01*
X51017Y134644D01*
X50933Y134561D01*
X50862Y134465D01*
X50808Y134360D01*
X50770Y134247D01*
X50751Y134130D01*
X50750Y134012D01*
X50767Y133894D01*
X50803Y133781D01*
X50856Y133675D01*
X50925Y133579D01*
X51009Y133494D01*
X51104Y133424D01*
X51209Y133369D01*
X51322Y133332D01*
X51439Y133312D01*
X51557Y133312D01*
X51675Y133329D01*
X51787Y133367D01*
X52058Y133466D01*
X52339Y133535D01*
X52482Y133556D01*
Y127625D01*
X52339Y127646D01*
X52058Y127715D01*
X51786Y127811D01*
X51674Y127848D01*
X51557Y127866D01*
X51439Y127865D01*
X51323Y127846D01*
X51211Y127809D01*
X51106Y127754D01*
X51011Y127684D01*
X50928Y127600D01*
X50859Y127504D01*
X50807Y127398D01*
X50771Y127286D01*
X50753Y127169D01*
X50754Y127051D01*
X50773Y126935D01*
X50811Y126823D01*
X50865Y126718D01*
X50935Y126623D01*
X51019Y126540D01*
X51115Y126471D01*
X51222Y126421D01*
X51629Y126272D01*
X52051Y126169D01*
X52480Y126106D01*
X52482Y126106D01*
Y33882D01*
X52298D01*
X51936Y33849D01*
X51579Y33783D01*
X51228Y33685D01*
X50889Y33556D01*
X50562Y33396D01*
X50495Y33354D01*
X50436Y33301D01*
X50387Y33239D01*
X50347Y33170D01*
X50319Y33096D01*
X50303Y33019D01*
X50299Y32940D01*
X50307Y32861D01*
X50328Y32784D01*
X50360Y32712D01*
X50404Y32646D01*
X50457Y32587D01*
X50518Y32537D01*
X50587Y32498D01*
X50661Y32470D01*
X50739Y32453D01*
X50818Y32450D01*
X50896Y32458D01*
X50973Y32479D01*
X51044Y32512D01*
X51288Y32635D01*
X51542Y32731D01*
X51805Y32805D01*
X52073Y32854D01*
X52344Y32879D01*
X52482D01*
Y26885D01*
X52344D01*
X52073Y26910D01*
X51805Y26959D01*
X51542Y27032D01*
X51288Y27129D01*
X51043Y27249D01*
X50972Y27282D01*
X50896Y27303D01*
X50818Y27311D01*
X50739Y27307D01*
X50662Y27291D01*
X50588Y27263D01*
X50520Y27224D01*
X50459Y27174D01*
X50406Y27116D01*
X50363Y27050D01*
X50331Y26978D01*
X50310Y26902D01*
X50302Y26824D01*
X50306Y26745D01*
X50322Y26668D01*
X50350Y26595D01*
X50389Y26527D01*
X50439Y26465D01*
X50497Y26413D01*
X50564Y26371D01*
X50889Y26208D01*
X51228Y26078D01*
X51579Y25981D01*
X51936Y25915D01*
X52298Y25882D01*
X52482D01*
Y23628D01*
G37*
G36*
X49196D02*X44977D01*
Y79719D01*
X44980Y79720D01*
X45048Y79759D01*
X45109Y79809D01*
X45162Y79867D01*
X45204Y79934D01*
X45367Y80259D01*
X45496Y80599D01*
X45594Y80949D01*
X45660Y81306D01*
X45693Y81669D01*
Y82032D01*
X45660Y82394D01*
X45594Y82752D01*
X45496Y83102D01*
X45367Y83442D01*
X45207Y83769D01*
X45165Y83836D01*
X45112Y83894D01*
X45050Y83944D01*
X44981Y83983D01*
X44977Y83985D01*
Y107351D01*
X44992Y107276D01*
X45020Y107203D01*
X45060Y107134D01*
X45109Y107073D01*
X45167Y107020D01*
X45233Y106977D01*
X45305Y106945D01*
X45381Y106925D01*
X45459Y106916D01*
X45538Y106920D01*
X45615Y106936D01*
X45689Y106964D01*
X45757Y107004D01*
X45818Y107053D01*
X45871Y107111D01*
X45913Y107178D01*
X46076Y107503D01*
X46205Y107843D01*
X46303Y108193D01*
X46369Y108551D01*
X46402Y108913D01*
Y109276D01*
X46369Y109638D01*
X46303Y109996D01*
X46205Y110346D01*
X46076Y110686D01*
X45916Y111013D01*
X45873Y111080D01*
X45820Y111138D01*
X45759Y111188D01*
X45690Y111227D01*
X45616Y111256D01*
X45538Y111272D01*
X45459Y111276D01*
X45381Y111267D01*
X45304Y111247D01*
X45232Y111214D01*
X45166Y111171D01*
X45107Y111118D01*
X45057Y111056D01*
X45018Y110988D01*
X44989Y110914D01*
X44977Y110853D01*
Y142110D01*
X49196Y146329D01*
Y132710D01*
X49145Y132693D01*
X49041Y132639D01*
X48946Y132569D01*
X48863Y132485D01*
X48794Y132389D01*
X48743Y132282D01*
X48595Y131875D01*
X48492Y131453D01*
X48429Y131024D01*
X48408Y130591D01*
X48429Y130157D01*
X48492Y129728D01*
X48595Y129306D01*
X48739Y128897D01*
X48791Y128791D01*
X48860Y128694D01*
X48943Y128610D01*
X49039Y128539D01*
X49144Y128485D01*
X49196Y128467D01*
Y32013D01*
X49193Y32012D01*
X49125Y31973D01*
X49064Y31923D01*
X49011Y31865D01*
X48969Y31798D01*
X48806Y31474D01*
X48677Y31134D01*
X48579Y30784D01*
X48513Y30426D01*
X48480Y30064D01*
Y29700D01*
X48513Y29338D01*
X48579Y28980D01*
X48677Y28630D01*
X48806Y28290D01*
X48966Y27963D01*
X49009Y27897D01*
X49062Y27838D01*
X49123Y27788D01*
X49192Y27749D01*
X49196Y27747D01*
Y23628D01*
G37*
G36*
X44977D02*X43806D01*
X41694Y25739D01*
Y77850D01*
X41875D01*
X42237Y77883D01*
X42595Y77949D01*
X42945Y78047D01*
X43285Y78176D01*
X43611Y78336D01*
X43678Y78379D01*
X43737Y78432D01*
X43786Y78493D01*
X43826Y78562D01*
X43854Y78636D01*
X43870Y78714D01*
X43874Y78793D01*
X43866Y78871D01*
X43845Y78948D01*
X43813Y79020D01*
X43770Y79086D01*
X43716Y79145D01*
X43655Y79195D01*
X43586Y79234D01*
X43512Y79263D01*
X43435Y79279D01*
X43356Y79283D01*
X43277Y79274D01*
X43200Y79254D01*
X43129Y79220D01*
X42886Y79098D01*
X42631Y79001D01*
X42368Y78927D01*
X42100Y78878D01*
X41829Y78853D01*
X41694D01*
Y84847D01*
X41829D01*
X42100Y84823D01*
X42368Y84773D01*
X42631Y84700D01*
X42886Y84603D01*
X43130Y84484D01*
X43201Y84450D01*
X43277Y84430D01*
X43356Y84421D01*
X43434Y84425D01*
X43511Y84441D01*
X43585Y84469D01*
X43653Y84508D01*
X43714Y84558D01*
X43767Y84616D01*
X43810Y84682D01*
X43842Y84754D01*
X43863Y84830D01*
X43871Y84908D01*
X43867Y84987D01*
X43851Y85064D01*
X43823Y85137D01*
X43784Y85206D01*
X43735Y85267D01*
X43676Y85320D01*
X43610Y85361D01*
X43285Y85525D01*
X42945Y85654D01*
X42595Y85752D01*
X42237Y85817D01*
X41875Y85850D01*
X41694D01*
Y105157D01*
X41858Y105127D01*
X42220Y105094D01*
X42583D01*
X42946Y105127D01*
X43303Y105193D01*
X43653Y105291D01*
X43993Y105420D01*
X44320Y105580D01*
X44387Y105623D01*
X44445Y105676D01*
X44495Y105738D01*
X44535Y105806D01*
X44563Y105880D01*
X44579Y105958D01*
X44583Y106037D01*
X44575Y106116D01*
X44554Y106192D01*
X44522Y106264D01*
X44478Y106331D01*
X44425Y106389D01*
X44363Y106439D01*
X44295Y106478D01*
X44221Y106507D01*
X44143Y106523D01*
X44064Y106527D01*
X43986Y106518D01*
X43909Y106498D01*
X43838Y106464D01*
X43594Y106342D01*
X43340Y106245D01*
X43077Y106172D01*
X42809Y106122D01*
X42538Y106098D01*
X42265D01*
X41994Y106122D01*
X41726Y106172D01*
X41694Y106180D01*
Y112009D01*
X41726Y112017D01*
X41994Y112067D01*
X42265Y112091D01*
X42538D01*
X42809Y112067D01*
X43077Y112017D01*
X43340Y111944D01*
X43594Y111847D01*
X43839Y111728D01*
X43910Y111694D01*
X43986Y111674D01*
X44064Y111665D01*
X44143Y111669D01*
X44220Y111685D01*
X44293Y111713D01*
X44362Y111753D01*
X44423Y111802D01*
X44476Y111860D01*
X44519Y111926D01*
X44551Y111998D01*
X44572Y112074D01*
X44580Y112152D01*
X44576Y112231D01*
X44560Y112308D01*
X44532Y112381D01*
X44493Y112450D01*
X44443Y112511D01*
X44385Y112564D01*
X44318Y112605D01*
X43993Y112769D01*
X43653Y112898D01*
X43303Y112996D01*
X42946Y113061D01*
X42583Y113094D01*
X42220D01*
X41858Y113061D01*
X41694Y113032D01*
Y138827D01*
X44977Y142110D01*
Y110853D01*
X44973Y110836D01*
X44969Y110757D01*
X44977Y110687D01*
Y107473D01*
X44972Y107432D01*
X44976Y107353D01*
X44977Y107351D01*
Y83985D01*
X44907Y84012D01*
X44830Y84028D01*
X44751Y84032D01*
X44672Y84023D01*
X44595Y84003D01*
X44523Y83970D01*
X44457Y83927D01*
X44398Y83874D01*
X44348Y83812D01*
X44309Y83744D01*
X44281Y83670D01*
X44265Y83592D01*
X44261Y83513D01*
X44269Y83434D01*
X44290Y83358D01*
X44323Y83286D01*
X44446Y83043D01*
X44543Y82788D01*
X44616Y82526D01*
X44665Y82258D01*
X44690Y81987D01*
Y81714D01*
X44665Y81443D01*
X44616Y81175D01*
X44543Y80912D01*
X44446Y80658D01*
X44326Y80413D01*
X44293Y80342D01*
X44272Y80266D01*
X44264Y80188D01*
X44268Y80109D01*
X44284Y80032D01*
X44312Y79958D01*
X44351Y79890D01*
X44400Y79829D01*
X44459Y79776D01*
X44525Y79733D01*
X44596Y79701D01*
X44672Y79680D01*
X44751Y79672D01*
X44829Y79676D01*
X44906Y79692D01*
X44977Y79719D01*
Y23628D01*
G37*
G36*
X41694Y25739D02*X38409Y29025D01*
Y48882D01*
X38751Y49023D01*
X39288Y49352D01*
X39766Y49761D01*
X40175Y50240D01*
X40504Y50777D01*
X40745Y51359D01*
X40892Y51971D01*
X40929Y52598D01*
X40892Y53226D01*
X40745Y53838D01*
X40504Y54420D01*
X40175Y54957D01*
X39766Y55436D01*
X39288Y55844D01*
X38751Y56173D01*
X38409Y56315D01*
Y79716D01*
X38479Y79689D01*
X38556Y79673D01*
X38635Y79669D01*
X38714Y79677D01*
X38790Y79698D01*
X38863Y79730D01*
X38929Y79774D01*
X38988Y79827D01*
X39037Y79888D01*
X39077Y79957D01*
X39105Y80031D01*
X39121Y80109D01*
X39125Y80188D01*
X39117Y80266D01*
X39096Y80343D01*
X39062Y80414D01*
X38940Y80658D01*
X38843Y80912D01*
X38770Y81175D01*
X38721Y81443D01*
X38696Y81714D01*
Y81987D01*
X38721Y82258D01*
X38770Y82526D01*
X38843Y82788D01*
X38940Y83043D01*
X39060Y83288D01*
X39093Y83359D01*
X39114Y83435D01*
X39122Y83513D01*
X39118Y83592D01*
X39102Y83669D01*
X39074Y83742D01*
X39035Y83811D01*
X38985Y83872D01*
X38927Y83925D01*
X38861Y83968D01*
X38789Y84000D01*
X38713Y84020D01*
X38635Y84029D01*
X38557Y84025D01*
X38479Y84009D01*
X38409Y83982D01*
Y108830D01*
X38435Y108551D01*
X38500Y108193D01*
X38598Y107843D01*
X38727Y107503D01*
X38887Y107176D01*
X38930Y107109D01*
X38983Y107051D01*
X39045Y107001D01*
X39113Y106961D01*
X39187Y106933D01*
X39265Y106917D01*
X39344Y106913D01*
X39423Y106921D01*
X39499Y106942D01*
X39571Y106975D01*
X39638Y107018D01*
X39696Y107071D01*
X39746Y107133D01*
X39785Y107201D01*
X39814Y107275D01*
X39830Y107353D01*
X39834Y107432D01*
X39825Y107511D01*
X39805Y107587D01*
X39771Y107659D01*
X39649Y107902D01*
X39552Y108157D01*
X39479Y108419D01*
X39429Y108687D01*
X39405Y108958D01*
Y109231D01*
X39429Y109502D01*
X39479Y109770D01*
X39552Y110032D01*
X39649Y110287D01*
X39768Y110532D01*
X39802Y110603D01*
X39822Y110679D01*
X39831Y110757D01*
X39827Y110836D01*
X39811Y110913D01*
X39783Y110986D01*
X39743Y111055D01*
X39694Y111116D01*
X39636Y111169D01*
X39570Y111212D01*
X39498Y111244D01*
X39422Y111264D01*
X39344Y111273D01*
X39265Y111269D01*
X39188Y111253D01*
X39115Y111225D01*
X39046Y111185D01*
X38985Y111136D01*
X38932Y111078D01*
X38891Y111011D01*
X38727Y110686D01*
X38598Y110346D01*
X38500Y109996D01*
X38435Y109638D01*
X38409Y109359D01*
Y135542D01*
X41694Y138827D01*
Y113032D01*
X41500Y112996D01*
X41150Y112898D01*
X40810Y112769D01*
X40483Y112609D01*
X40416Y112566D01*
X40358Y112513D01*
X40308Y112451D01*
X40269Y112383D01*
X40240Y112309D01*
X40224Y112231D01*
X40220Y112152D01*
X40229Y112073D01*
X40249Y111997D01*
X40282Y111925D01*
X40325Y111858D01*
X40378Y111800D01*
X40440Y111750D01*
X40508Y111711D01*
X40582Y111682D01*
X40660Y111666D01*
X40739Y111662D01*
X40818Y111671D01*
X40894Y111691D01*
X40966Y111725D01*
X41209Y111847D01*
X41464Y111944D01*
X41694Y112009D01*
Y106180D01*
X41464Y106245D01*
X41209Y106342D01*
X40964Y106461D01*
X40893Y106495D01*
X40817Y106515D01*
X40739Y106524D01*
X40660Y106520D01*
X40583Y106504D01*
X40510Y106476D01*
X40441Y106436D01*
X40380Y106387D01*
X40327Y106329D01*
X40284Y106263D01*
X40252Y106191D01*
X40232Y106115D01*
X40223Y106037D01*
X40227Y105958D01*
X40243Y105881D01*
X40271Y105808D01*
X40311Y105739D01*
X40360Y105678D01*
X40418Y105625D01*
X40485Y105584D01*
X40810Y105420D01*
X41150Y105291D01*
X41500Y105193D01*
X41694Y105157D01*
Y85850D01*
X41511D01*
X41149Y85817D01*
X40791Y85752D01*
X40441Y85654D01*
X40101Y85525D01*
X39774Y85365D01*
X39708Y85322D01*
X39649Y85269D01*
X39599Y85207D01*
X39560Y85139D01*
X39532Y85065D01*
X39515Y84987D01*
X39511Y84908D01*
X39520Y84829D01*
X39541Y84753D01*
X39573Y84681D01*
X39616Y84614D01*
X39669Y84556D01*
X39731Y84506D01*
X39800Y84466D01*
X39874Y84438D01*
X39951Y84422D01*
X40030Y84418D01*
X40109Y84426D01*
X40185Y84447D01*
X40257Y84481D01*
X40500Y84603D01*
X40755Y84700D01*
X41017Y84773D01*
X41285Y84823D01*
X41557Y84847D01*
X41694D01*
Y78853D01*
X41557D01*
X41285Y78878D01*
X41017Y78927D01*
X40755Y79001D01*
X40500Y79098D01*
X40255Y79217D01*
X40184Y79251D01*
X40108Y79271D01*
X40030Y79280D01*
X39952Y79276D01*
X39875Y79260D01*
X39801Y79231D01*
X39733Y79192D01*
X39671Y79143D01*
X39619Y79085D01*
X39576Y79019D01*
X39544Y78947D01*
X39523Y78871D01*
X39515Y78793D01*
X39518Y78714D01*
X39535Y78637D01*
X39563Y78563D01*
X39602Y78495D01*
X39651Y78434D01*
X39710Y78381D01*
X39776Y78339D01*
X40101Y78176D01*
X40441Y78047D01*
X40791Y77949D01*
X41149Y77883D01*
X41511Y77850D01*
X41694D01*
Y25739D01*
G37*
G36*
X38409Y56315D02*X38169Y56414D01*
X37557Y56561D01*
X36929Y56611D01*
X36301Y56561D01*
X36273Y56555D01*
X33655Y59172D01*
Y59557D01*
X33969Y60068D01*
X34210Y60650D01*
X34357Y61262D01*
X34394Y61890D01*
X34357Y62517D01*
X34210Y63130D01*
X33969Y63711D01*
X33655Y64223D01*
Y130788D01*
X38409Y135542D01*
Y109359D01*
X38402Y109276D01*
Y108913D01*
X38409Y108830D01*
Y83982D01*
X38406Y83981D01*
X38338Y83941D01*
X38276Y83892D01*
X38224Y83834D01*
X38182Y83767D01*
X38019Y83442D01*
X37890Y83102D01*
X37792Y82752D01*
X37726Y82394D01*
X37693Y82032D01*
Y81669D01*
X37726Y81306D01*
X37792Y80949D01*
X37890Y80599D01*
X38019Y80259D01*
X38178Y79932D01*
X38221Y79865D01*
X38274Y79807D01*
X38336Y79757D01*
X38405Y79717D01*
X38409Y79716D01*
Y56315D01*
G37*
G36*
Y29025D02*X33655Y33779D01*
Y50285D01*
X33683Y50240D01*
X34092Y49761D01*
X34571Y49352D01*
X35108Y49023D01*
X35689Y48782D01*
X36301Y48635D01*
X36929Y48586D01*
X37557Y48635D01*
X38169Y48782D01*
X38409Y48882D01*
Y29025D01*
G37*
G36*
X79640Y26411D02*X83989D01*
Y5748D01*
X79640D01*
Y9912D01*
X79843Y9896D01*
X80339Y9935D01*
X80824Y10051D01*
X81284Y10242D01*
X81709Y10502D01*
X82088Y10826D01*
X82411Y11205D01*
X82671Y11630D01*
X82862Y12090D01*
X82978Y12574D01*
X83008Y13071D01*
X82978Y13568D01*
X82862Y14052D01*
X82671Y14512D01*
X82411Y14937D01*
X82088Y15316D01*
X81709Y15639D01*
X81284Y15900D01*
X80824Y16090D01*
X80339Y16207D01*
X79843Y16246D01*
X79640Y16230D01*
Y17767D01*
X79646Y17767D01*
X80266Y17816D01*
X80871Y17961D01*
X81446Y18199D01*
X81976Y18524D01*
X82449Y18928D01*
X82853Y19401D01*
X83178Y19932D01*
X83417Y20507D01*
X83562Y21112D01*
X83598Y21732D01*
X83562Y22352D01*
X83417Y22957D01*
X83178Y23532D01*
X82853Y24062D01*
X82449Y24535D01*
X81976Y24940D01*
X81446Y25265D01*
X80871Y25503D01*
X80266Y25648D01*
X79646Y25697D01*
X79640Y25696D01*
Y26411D01*
G37*
G36*
X33655Y16781D02*X33689Y16795D01*
X34613Y17362D01*
X35438Y18066D01*
X36142Y18891D01*
X36709Y19815D01*
X37124Y20817D01*
X37377Y21872D01*
X37441Y22953D01*
X37399Y23671D01*
X40811Y20259D01*
X40821Y20250D01*
X40830Y20240D01*
X41126Y19944D01*
X41146Y19926D01*
X41165Y19905D01*
X41221Y19849D01*
X41278Y19782D01*
X41547Y19552D01*
X41547Y19552D01*
X41735Y19437D01*
X41849Y19367D01*
X42177Y19231D01*
X42521Y19149D01*
X42521D01*
X42874Y19121D01*
X42962Y19128D01*
X68140D01*
X68228Y19121D01*
X68581Y19149D01*
X68581Y19149D01*
X68926Y19231D01*
X69253Y19367D01*
X69555Y19552D01*
X69824Y19782D01*
X69882Y19849D01*
X76444Y26411D01*
X79640D01*
Y25696D01*
X79025Y25648D01*
X78420Y25503D01*
X77846Y25265D01*
X77315Y24940D01*
X76842Y24535D01*
X76438Y24062D01*
X76113Y23532D01*
X75875Y22957D01*
X75730Y22352D01*
X75681Y21732D01*
X75730Y21112D01*
X75875Y20507D01*
X76113Y19932D01*
X76438Y19401D01*
X76842Y18928D01*
X77315Y18524D01*
X77846Y18199D01*
X78420Y17961D01*
X79025Y17816D01*
X79640Y17767D01*
Y16230D01*
X79346Y16207D01*
X78862Y16090D01*
X78401Y15900D01*
X77977Y15639D01*
X77598Y15316D01*
X77274Y14937D01*
X77014Y14512D01*
X76823Y14052D01*
X76707Y13568D01*
X76668Y13071D01*
X76707Y12574D01*
X76823Y12090D01*
X77014Y11630D01*
X77274Y11205D01*
X77598Y10826D01*
X77977Y10502D01*
X78401Y10242D01*
X78862Y10051D01*
X79346Y9935D01*
X79640Y9912D01*
Y5748D01*
X33655D01*
Y16781D01*
G37*
G36*
Y157480D02*X126240D01*
Y147620D01*
X126148Y147658D01*
X126052Y147698D01*
X125707Y147780D01*
X125354Y147808D01*
X125266Y147801D01*
X122244D01*
X122242Y148590D01*
X122187Y148819D01*
X122097Y149037D01*
X121973Y149239D01*
X121820Y149418D01*
X121640Y149572D01*
X121439Y149695D01*
X121221Y149785D01*
X120991Y149840D01*
X120756Y149854D01*
X118294Y149849D01*
X111771Y156371D01*
X111714Y156438D01*
X111445Y156668D01*
X111445Y156668D01*
X111330Y156739D01*
X111143Y156853D01*
X110911Y156949D01*
X110816Y156989D01*
X110471Y157072D01*
X110118Y157099D01*
X110030Y157093D01*
X83268D01*
X83189Y157088D01*
X83110Y157093D01*
X54616D01*
X54528Y157099D01*
X54174Y157072D01*
X53830Y156989D01*
X53503Y156853D01*
X53201Y156668D01*
X53201Y156668D01*
X52932Y156438D01*
X52874Y156371D01*
X33655Y137152D01*
Y140797D01*
X33689Y140811D01*
X34613Y141377D01*
X35438Y142082D01*
X36142Y142906D01*
X36709Y143831D01*
X37124Y144833D01*
X37377Y145887D01*
X37441Y146969D01*
X37377Y148050D01*
X37124Y149104D01*
X36709Y150106D01*
X36142Y151031D01*
X35438Y151855D01*
X34613Y152560D01*
X33689Y153126D01*
X33655Y153140D01*
Y157480D01*
G37*
G36*
Y59172D02*X33482Y59346D01*
X33640Y59531D01*
X33655Y59557D01*
Y59172D01*
G37*
G36*
Y33779D02*X31768Y35666D01*
X31798Y35790D01*
X31835Y36417D01*
X31798Y37045D01*
X31651Y37657D01*
X31410Y38239D01*
X31081Y38776D01*
X30672Y39254D01*
X30193Y39663D01*
X29656Y39992D01*
X29075Y40233D01*
X28462Y40380D01*
X27835Y40430D01*
X27207Y40380D01*
X27083Y40351D01*
X23037Y44397D01*
Y120170D01*
X33655Y130788D01*
Y64223D01*
X33640Y64248D01*
X33231Y64727D01*
X32752Y65136D01*
X32215Y65465D01*
X31634Y65706D01*
X31021Y65853D01*
X30394Y65902D01*
X29766Y65853D01*
X29154Y65706D01*
X28572Y65465D01*
X28035Y65136D01*
X27557Y64727D01*
X27148Y64248D01*
X26819Y63711D01*
X26578Y63130D01*
X26431Y62517D01*
X26381Y61890D01*
X26431Y61262D01*
X26578Y60650D01*
X26819Y60068D01*
X27148Y59531D01*
X27557Y59053D01*
X28035Y58644D01*
X28270Y58500D01*
X28383Y58227D01*
X28453Y58113D01*
X28568Y57925D01*
X28568Y57925D01*
X28798Y57656D01*
X28865Y57599D01*
X33019Y53445D01*
X32966Y53226D01*
X32917Y52598D01*
X32966Y51971D01*
X33113Y51359D01*
X33354Y50777D01*
X33655Y50285D01*
Y33779D01*
G37*
G36*
X0Y157480D02*X33655D01*
Y153140D01*
X32687Y153541D01*
X31632Y153794D01*
X30551Y153880D01*
X29470Y153794D01*
X28416Y153541D01*
X27414Y153126D01*
X26489Y152560D01*
X25664Y151855D01*
X24960Y151031D01*
X24393Y150106D01*
X23978Y149104D01*
X23725Y148050D01*
X23640Y146969D01*
X23725Y145887D01*
X23978Y144833D01*
X24393Y143831D01*
X24960Y142906D01*
X25664Y142082D01*
X26489Y141377D01*
X27414Y140811D01*
X28416Y140396D01*
X29470Y140143D01*
X30551Y140057D01*
X31632Y140143D01*
X32687Y140396D01*
X33655Y140797D01*
Y137152D01*
X19259Y122756D01*
X19192Y122698D01*
X18962Y122429D01*
X18776Y122127D01*
X18641Y121800D01*
X18558Y121455D01*
X18558Y121455D01*
X18530Y121102D01*
X18537Y121014D01*
Y43553D01*
X18530Y43465D01*
X18558Y43112D01*
Y43112D01*
X18641Y42767D01*
X18776Y42440D01*
X18847Y42325D01*
X18961Y42138D01*
X18962Y42138D01*
X19192Y41869D01*
X19259Y41811D01*
X23901Y37169D01*
X23872Y37045D01*
X23822Y36417D01*
X23872Y35790D01*
X24019Y35177D01*
X24260Y34596D01*
X24589Y34059D01*
X24997Y33580D01*
X25476Y33171D01*
X26013Y32842D01*
X26595Y32601D01*
X27207Y32454D01*
X27835Y32405D01*
X28462Y32454D01*
X28586Y32484D01*
X31262Y29808D01*
X30551Y29864D01*
X29470Y29779D01*
X28416Y29526D01*
X27414Y29111D01*
X26489Y28544D01*
X25664Y27840D01*
X24960Y27015D01*
X24393Y26090D01*
X23978Y25088D01*
X23725Y24034D01*
X23640Y22953D01*
X23725Y21872D01*
X23978Y20817D01*
X24393Y19815D01*
X24960Y18891D01*
X25664Y18066D01*
X26489Y17362D01*
X27414Y16795D01*
X28416Y16380D01*
X29470Y16127D01*
X30551Y16042D01*
X31632Y16127D01*
X32687Y16380D01*
X33655Y16781D01*
Y5748D01*
X0D01*
Y157480D01*
G37*
G54D27*X118346Y21535D02*X118031Y21850D01*
X83268Y154843D02*X110118D01*
X117756Y147205D01*
Y145354D01*
X118504Y146102D01*
X117756Y145354D02*X118031Y145630D01*
X125354Y145551D02*X117756D01*
G54D25*X119606Y80354D02*Y80079D01*
G54D27*X155748Y120787D02*Y92953D01*
X151535Y88740D01*
X144961D01*
G54D25*X103622Y132047D02*X102205Y133465D01*
X106437Y87776D02*X109606Y84606D01*
Y80079D01*
X102205Y133465D02*X88976D01*
G54D27*X155748Y121063D02*X142638Y134173D01*
X136732D01*
X125354Y145551D01*
X81890Y96457D02*X88976Y103543D01*
Y133465D01*
G54D25*X106378Y87835D02*X90433Y103780D01*
X89213D01*
G54D27*X74252Y96102D02*X74606Y96457D01*
X81890D01*
X20787Y121102D02*X37638Y137953D01*
X83110Y154843D02*X54528D01*
X35531Y135846D01*
X36181Y53465D02*X30394Y59252D01*
Y61890D01*
X20787Y43465D02*X42402Y21850D01*
X20787Y43465D02*Y121102D01*
X42717Y21535D02*X42421Y21831D01*
X42756Y21496D02*X42874Y21378D01*
X68228D01*
X75512Y28661D01*
X111220D01*
X118346Y21535D01*
G54D26*G36*
X59913Y133591D02*Y127591D01*
X65913D01*
Y133591D01*
X59913D01*
G37*
G54D28*X52913Y130591D03*
G54D26*G36*
X114756Y148354D02*Y142354D01*
X120756D01*
Y148354D01*
X114756D01*
G37*
G54D28*X107756Y145354D03*
X97756D03*
X87756D03*
G54D26*G36*
X116606Y83079D02*Y77079D01*
X122606D01*
Y83079D01*
X116606D01*
G37*
G54D28*X109606Y80079D03*
X99606D03*
X89606D03*
X79606D03*
X69606D03*
G54D26*G36*
X142709Y102724D02*Y96724D01*
X148709D01*
Y102724D01*
X142709D01*
G37*
G54D28*X145709Y89724D03*
Y79724D03*
Y69724D03*
G54D29*X79646Y21732D03*
X99724D03*
G54D30*X74252Y96102D03*
X74016Y89961D03*
X73425Y102283D03*
X132638Y127677D03*
X88976Y133465D03*
X127441Y100433D03*
X129409Y93740D03*
X103622Y132047D03*
X133661Y106772D03*
X94882Y34646D03*
G54D28*X27835Y36417D03*
X36929Y52598D03*
X30394Y61890D03*
G54D30*X56614Y62008D03*
G54D28*X41693Y81850D03*
G54D30*X57441Y102323D03*
G54D28*X42402Y109094D03*
X52480Y29882D03*
X86575Y53661D03*
G54D30*X79291Y62126D03*
X134291Y34055D03*
X116024Y33346D03*
G54D28*X118346Y21535D03*
G54D31*G54D32*G54D31*G54D32*G54D31*G54D32*G54D31*G54D32*G54D33*G54D34*G54D33*G54D34*G54D33*G54D34*G54D35*G54D36*G54D35*M02*
