G04 start of page 2 for group 0 idx 0 *
G04 Title: SAP, top power *
G04 Creator: pcb 4.0.2 *
G04 CreationDate: Tue Jun 12 19:10:11 2018 UTC *
G04 For: phil *
G04 Format: Gerber/RS-274X *
G04 PCB-Dimensions (mil): 1811.02 1574.80 *
G04 PCB-Coordinate-Origin: lower left *
%MOIN*%
%FSLAX25Y25*%
%LNTOP*%
%ADD23C,0.0380*%
%ADD22C,0.0350*%
%ADD21C,0.0200*%
%ADD20C,0.1181*%
%ADD19C,0.0360*%
%ADD18C,0.0160*%
%ADD17C,0.0400*%
%ADD16C,0.0600*%
%ADD15C,0.0001*%
%ADD14C,0.0250*%
%ADD13C,0.0060*%
%ADD12C,0.0071*%
%ADD11C,0.0100*%
G54D11*X116653Y122280D02*X127792D01*
X130315Y124803D01*
Y133858D01*
X129134Y135039D01*
X119843D01*
X109843Y145039D01*
X126299Y138583D02*X119843Y145039D01*
X116653Y119680D02*X128735D01*
X134252Y125197D01*
Y133858D01*
X129528Y138583D01*
X126299D01*
X109843Y119685D02*X83465Y146063D01*
X86453Y127480D02*X86531Y127559D01*
X93701D01*
X103150Y118110D01*
X87553Y112080D02*X82946D01*
X81889Y111022D01*
X79054D01*
X79133Y115039D02*Y111102D01*
X79054Y111022D01*
X63464Y115039D02*X62991Y114567D01*
X75985Y115039D02*X63464D01*
X87553Y117180D02*X90300D01*
X91339Y116142D01*
X90945Y119685D02*X88189D01*
X87553Y127480D02*X79842D01*
X79527Y127165D01*
X76379D02*Y130316D01*
X77953Y131890D01*
X80787D01*
X82362Y133465D01*
Y138507D01*
X82287Y138583D01*
X87795Y127480D02*X89055D01*
X83465Y146063D02*X71654D01*
X91339Y116142D02*Y91732D01*
X94094Y88976D02*Y116535D01*
X90945Y119685D01*
X103150Y113386D02*Y96535D01*
Y118110D02*Y112992D01*
X91339Y91732D02*X88976Y89370D01*
X88898D01*
X79606Y80079D01*
X89606D02*Y84488D01*
X94094Y88976D01*
X112943Y104380D02*X109843Y107480D01*
Y119685D01*
X103150Y96535D02*X119606Y80079D01*
X127559Y81102D02*X119685Y88976D01*
X115354D01*
X111811Y92520D01*
X80709Y72441D02*X124803D01*
X127559Y75197D01*
Y81102D01*
X123228Y62992D02*X137402Y77165D01*
X125197Y95669D02*X133071D01*
X116653Y104380D02*X112943D01*
X111811Y92520D02*Y95276D01*
X113216Y96680D01*
X116653D01*
X115553Y101780D02*X115758Y101575D01*
X137402Y77165D02*Y106299D01*
X133465Y110236D01*
X125984D01*
X125228Y109480D01*
X116653D01*
X115553Y111980D02*X121260D01*
X122272Y112992D01*
X135039D01*
X145669Y102362D01*
Y62205D01*
X134646Y51181D01*
X105512D01*
X115758Y101575D02*X127165D01*
X115553Y99180D02*X121686D01*
X125197Y95669D01*
X66733Y44829D02*Y37166D01*
X66024Y36457D01*
X14169Y40339D02*Y37013D01*
X16142Y35039D01*
X26378D01*
X62992Y71654D01*
X79921D01*
X80709Y72441D01*
X87205Y31185D02*X87008Y31382D01*
Y36614D01*
X105512Y51181D02*X89764Y35433D01*
Y28936D01*
X126772Y41732D02*X128740Y43701D01*
G54D12*X128976Y26929D02*Y21102D01*
X128741Y20866D01*
X126831Y41791D02*X125828Y40788D01*
Y38543D01*
G54D11*X128740Y43701D02*X150787D01*
X145276Y47244D02*X128346D01*
X124409Y43307D01*
X150787Y43701D02*X164173Y57087D01*
Y75197D01*
X160157Y79213D01*
X159449D01*
Y69213D02*Y61417D01*
X145276Y47244D01*
X87008Y36614D02*X113386Y62992D01*
X123228D01*
G54D12*X124291Y43189D02*X124252Y43150D01*
Y38543D01*
G54D13*X124409Y43307D02*X124252Y43150D01*
G54D14*X23228Y91339D02*X32283D01*
G54D11*X20276Y87205D02*X20079Y87403D01*
X13228Y87796D02*X16930D01*
X20276Y87205D02*X19882D01*
X20079Y87403D02*Y90945D01*
X16930Y87796D02*X20079Y90945D01*
X19882Y87205D02*X17717Y85039D01*
Y80552D01*
X17717Y80551D01*
G54D14*X7480Y47244D02*Y27165D01*
X11890Y22756D01*
X14489D01*
X18069Y39539D02*Y42126D01*
X14919Y45276D01*
Y48425D01*
X14961Y55079D02*X14919Y55037D01*
Y48858D01*
G54D11*X64765Y44829D02*X64514D01*
X61024Y41339D01*
Y36614D01*
X64765Y44829D02*Y47442D01*
X67717Y50394D01*
X68700Y44829D02*Y50196D01*
X68898Y50394D01*
G54D14*X14567Y48425D02*X8661D01*
X7480Y47244D01*
X65717Y50394D02*X65874Y50237D01*
X78819D01*
X78740Y50315D01*
Y55512D01*
G54D11*X116653Y124780D02*X124780D01*
X124803Y124803D01*
X126613Y106693D02*X131496D01*
X124803Y124803D02*X125984D01*
X126772Y125591D01*
Y126378D01*
X126771Y127165D02*Y131495D01*
X126772Y131496D01*
X86614Y109449D02*X83465D01*
X79921Y105906D01*
Y102361D01*
X75906Y111022D02*Y107953D01*
X77165Y106693D01*
X81102D01*
X85435Y138583D02*Y140943D01*
X85039Y141339D01*
X65591D01*
X60787Y146142D01*
X94882Y28936D02*Y34252D01*
D03*
G54D14*X121654Y21653D02*X121261Y21260D01*
X118504D01*
X135434Y21259D02*X139764Y16929D01*
Y14173D01*
G54D11*X137795Y36378D02*X140394D01*
G54D12*X130551Y39134D02*Y36969D01*
X131142Y36378D01*
X138701D01*
G54D11*X140394D02*X144488Y32283D01*
Y27165D01*
X142520Y25198D01*
X140157D01*
G54D14*X131889Y21259D02*X137008D01*
X139765Y24016D01*
X140157D01*
G54D12*X130551Y26929D02*Y24843D01*
X131890Y23504D01*
Y21259D01*
G54D11*X70669Y44829D02*Y43898D01*
X72047Y42520D01*
G54D14*X78111D01*
X78190Y42441D01*
G54D11*X84646Y28936D02*Y32283D01*
X83465Y33465D01*
G54D14*X77559Y39370D01*
Y42520D01*
G54D11*X84646Y31185D03*
Y38189D01*
X70669Y56799D02*X71260Y57390D01*
Y59843D01*
X70866Y60236D01*
X65748D02*X64765Y59253D01*
Y55958D01*
X123408Y127380D02*X123623Y127165D01*
X123408Y127380D02*X113601D01*
X112598Y126378D01*
Y116142D01*
X114173Y114567D01*
X116535D01*
X116653Y106880D02*X123277D01*
X123465Y106693D01*
X115354Y127380D02*Y131102D01*
G54D14*X129843Y145039D02*X159449Y115433D01*
Y99213D01*
X124802Y20867D02*X124803Y20866D01*
Y17717D01*
G54D12*X125828Y22285D02*X124802Y21260D01*
G54D11*X70866Y60236D02*X65748D01*
X115354Y68898D02*X124803D01*
X129921Y74016D01*
Y83858D02*X119699Y94080D01*
X116653D01*
X129921Y83858D02*Y74016D01*
X84646Y28936D03*
X115354Y68898D02*X84646Y38189D01*
G54D12*X127402Y39134D02*Y35983D01*
X127559Y35827D01*
G54D11*X125827Y34094D01*
Y28740D01*
X125866Y28701D01*
X131850D01*
G54D12*X133701Y28504D02*X131969D01*
X131772Y28701D01*
X133701Y28504D02*X133860Y28346D01*
X140157D01*
X125828Y26929D02*X125827Y26930D01*
Y28819D01*
X125828Y26929D02*Y22285D01*
G54D11*X24212Y95472D02*Y97441D01*
G54D14*X22244Y99606D02*Y121260D01*
X25158Y124173D01*
X13228Y94881D02*X13386Y95039D01*
Y102362D01*
X17717Y106693D01*
X22244D01*
X25158Y124173D02*X33988D01*
G54D11*X59843Y114567D02*X51182Y123228D01*
X34933D01*
X33988Y124173D01*
G54D14*X37795Y80709D02*X53543Y96457D01*
G54D11*X22244Y87205D02*Y85236D01*
X22835Y84646D01*
Y82519D01*
G54D14*X21969Y31339D02*X21574Y30944D01*
X21969Y39539D02*Y55591D01*
X21574Y30944D02*Y22756D01*
Y23149D02*X21654Y23228D01*
X28740D01*
G54D11*X24212Y97441D02*X25197Y98425D01*
G54D14*X21260Y95669D02*Y98819D01*
X22244Y99804D01*
G54D11*X87553Y96780D02*X82354D01*
X79921Y99213D01*
G54D14*X53543Y96457D02*X81890D01*
G54D11*X115354Y131102D02*X114961Y131496D01*
X88976Y133465D02*X85510D01*
X22835Y82519D02*X24803Y80551D01*
G54D14*X21969Y55591D02*X4331Y73228D01*
Y90551D01*
X13386Y99606D01*
G54D11*X25197Y98425D02*X34252D01*
X38189Y94488D01*
Y83465D01*
X35276Y80551D01*
X24803D01*
G54D14*Y80944D02*X25038Y80709D01*
X37795D01*
G54D15*G36*
X116606Y83079D02*Y77079D01*
X122606D01*
Y83079D01*
X116606D01*
G37*
G54D16*X109606Y80079D03*
X99606D03*
X89606D03*
X79606D03*
X69606D03*
G54D17*X77064Y15420D03*
Y17420D03*
Y19420D03*
X102464Y15420D03*
Y17420D03*
Y19420D03*
G54D16*X159449Y79213D03*
Y69213D03*
G54D15*G36*
X67787Y149142D02*Y143142D01*
X73787D01*
Y149142D01*
X67787D01*
G37*
G54D16*X60787Y146142D03*
G54D15*G36*
X126843Y148039D02*Y142039D01*
X132843D01*
Y148039D01*
X126843D01*
G37*
G54D16*X119843Y145039D03*
X109843D03*
X99843D03*
G54D15*G36*
X156449Y102213D02*Y96213D01*
X162449D01*
Y102213D01*
X156449D01*
G37*
G54D16*X159449Y89213D03*
G54D15*G36*
X26901Y126142D02*Y122205D01*
X41075D01*
Y126142D01*
X26901D01*
G37*
G36*
Y118268D02*Y114331D01*
X41075D01*
Y118268D01*
X26901D01*
G37*
G36*
X1177Y137558D02*Y129684D01*
X10626D01*
Y137558D01*
X1177D01*
G37*
G36*
Y110788D02*Y102914D01*
X10626D01*
Y110788D01*
X1177D01*
G37*
G36*
X10276Y90355D02*Y85237D01*
X16180D01*
Y90355D01*
X10276D01*
G37*
G36*
Y97441D02*Y92323D01*
X16180D01*
Y97441D01*
X10276D01*
G37*
G36*
X20276Y83503D02*X15158D01*
Y77599D01*
X20276D01*
Y83503D01*
G37*
G36*
X26771Y88583D02*X25590D01*
Y85827D01*
X26771D01*
Y88583D01*
G37*
G36*
X27362Y83503D02*X22244D01*
Y77599D01*
X27362D01*
Y83503D01*
G37*
G36*
X26771Y96850D02*X25590D01*
Y94094D01*
X26771D01*
Y96850D01*
G37*
G36*
X20867Y88583D02*X19686D01*
Y85827D01*
X20867D01*
Y88583D01*
G37*
G36*
X22835D02*X21654D01*
Y85827D01*
X22835D01*
Y88583D01*
G37*
G36*
X24803D02*X23622D01*
Y85827D01*
X24803D01*
Y88583D01*
G37*
G36*
Y96850D02*X23622D01*
Y94094D01*
X24803D01*
Y96850D01*
G37*
G36*
X22835D02*X21654D01*
Y94094D01*
X22835D01*
Y96850D01*
G37*
G36*
X20867D02*X19686D01*
Y94094D01*
X20867D01*
Y96850D01*
G37*
G36*
X19705Y93189D02*Y89489D01*
X26751D01*
Y93189D01*
X19705D01*
G37*
G54D18*X86453Y127480D02*X88653D01*
G54D15*G36*
X77363Y128542D02*X75395D01*
Y125788D01*
X77363D01*
Y128542D01*
G37*
G36*
X80511D02*X78543D01*
Y125788D01*
X80511D01*
Y128542D01*
G37*
G36*
X85653Y125680D02*Y124080D01*
X89453D01*
Y125680D01*
X85653D01*
G37*
G36*
Y123180D02*Y121580D01*
X89453D01*
Y123180D01*
X85653D01*
G37*
G36*
Y120580D02*Y118980D01*
X89453D01*
Y120580D01*
X85653D01*
G37*
G36*
X86419Y139960D02*X84451D01*
Y137206D01*
X86419D01*
Y139960D01*
G37*
G36*
X86494Y134842D02*X84526D01*
Y132088D01*
X86494D01*
Y134842D01*
G37*
G36*
X83271Y139960D02*X81303D01*
Y137206D01*
X83271D01*
Y139960D01*
G37*
G36*
X83346Y134842D02*X81378D01*
Y132088D01*
X83346D01*
Y134842D01*
G37*
G36*
X85653Y117980D02*Y116380D01*
X89453D01*
Y117980D01*
X85653D01*
G37*
G36*
Y115480D02*Y113880D01*
X89453D01*
Y115480D01*
X85653D01*
G37*
G36*
Y112880D02*Y111280D01*
X89453D01*
Y112880D01*
X85653D01*
G37*
G36*
Y110380D02*Y108780D01*
X89453D01*
Y110380D01*
X85653D01*
G37*
G36*
Y107780D02*Y106180D01*
X89453D01*
Y107780D01*
X85653D01*
G37*
G36*
Y105180D02*Y103580D01*
X89453D01*
Y105180D01*
X85653D01*
G37*
G36*
Y102680D02*Y101080D01*
X89453D01*
Y102680D01*
X85653D01*
G37*
G36*
Y100080D02*Y98480D01*
X89453D01*
Y100080D01*
X85653D01*
G37*
G36*
Y97580D02*Y95980D01*
X89453D01*
Y97580D01*
X85653D01*
G37*
G36*
Y94980D02*Y93380D01*
X89453D01*
Y94980D01*
X85653D01*
G37*
G36*
X78544Y100197D02*Y98229D01*
X81298D01*
Y100197D01*
X78544D01*
G37*
G36*
Y103345D02*Y101377D01*
X81298D01*
Y103345D01*
X78544D01*
G37*
G36*
X60827Y115944D02*X58859D01*
Y113190D01*
X60827D01*
Y115944D01*
G37*
G36*
X63975D02*X62007D01*
Y113190D01*
X63975D01*
Y115944D01*
G37*
G36*
X76969Y116416D02*X75001D01*
Y113662D01*
X76969D01*
Y116416D01*
G37*
G36*
X80117D02*X78149D01*
Y113662D01*
X80117D01*
Y116416D01*
G37*
G36*
X80038Y112399D02*X78070D01*
Y109645D01*
X80038D01*
Y112399D01*
G37*
G36*
X76890D02*X74922D01*
Y109645D01*
X76890D01*
Y112399D01*
G37*
G36*
X62967Y53144D02*Y47644D01*
X72467D01*
Y53144D01*
X62967D01*
G37*
G36*
X75867Y52796D02*Y47678D01*
X81771D01*
Y52796D01*
X75867D01*
G37*
G36*
X65355Y46260D02*X64174D01*
Y43398D01*
X65355D01*
Y46260D01*
G37*
G36*
X62382Y38425D02*X59430D01*
Y34489D01*
X62382D01*
Y38425D01*
G37*
G36*
X67500D02*X64548D01*
Y34489D01*
X67500D01*
Y38425D01*
G37*
G36*
X67323Y46260D02*X66142D01*
Y43398D01*
X67323D01*
Y46260D01*
G37*
G36*
X69291D02*X68110D01*
Y43398D01*
X69291D01*
Y46260D01*
G37*
G36*
X75867Y45710D02*Y40592D01*
X81771D01*
Y45710D01*
X75867D01*
G37*
G36*
X71259Y46260D02*X70078D01*
Y43398D01*
X71259D01*
Y46260D01*
G37*
G36*
Y57389D02*X70078D01*
Y54527D01*
X71259D01*
Y57389D01*
G37*
G36*
X69291D02*X68110D01*
Y54527D01*
X69291D01*
Y57389D01*
G37*
G36*
X67323D02*X66142D01*
Y54527D01*
X67323D01*
Y57389D01*
G37*
G36*
X65355D02*X64174D01*
Y54527D01*
X65355D01*
Y57389D01*
G37*
G36*
X17047Y25708D02*X11929D01*
Y19804D01*
X17047D01*
Y25708D01*
G37*
G36*
X24133D02*X19015D01*
Y19804D01*
X24133D01*
Y25708D01*
G37*
G36*
X24211Y51377D02*X19093D01*
Y45473D01*
X24211D01*
Y51377D01*
G37*
G36*
X23169Y41539D02*X20769D01*
Y37539D01*
X23169D01*
Y41539D01*
G37*
G36*
X19269D02*X16869D01*
Y37539D01*
X19269D01*
Y41539D01*
G37*
G36*
X17125Y51377D02*X12007D01*
Y45473D01*
X17125D01*
Y51377D01*
G37*
G36*
X15369Y41539D02*X12969D01*
Y37539D01*
X15369D01*
Y41539D01*
G37*
G36*
Y33339D02*X12969D01*
Y29339D01*
X15369D01*
Y33339D01*
G37*
G36*
X23169D02*X20769D01*
Y29339D01*
X23169D01*
Y33339D01*
G37*
G36*
X90514Y31935D02*X89014D01*
Y25936D01*
X90514D01*
Y31935D01*
G37*
G36*
X87955D02*X86455D01*
Y25936D01*
X87955D01*
Y31935D01*
G37*
G36*
X93073D02*X91573D01*
Y25936D01*
X93073D01*
Y31935D01*
G37*
G36*
X95632D02*X94132D01*
Y25936D01*
X95632D01*
Y31935D01*
G37*
G36*
X90748Y19094D02*Y13189D01*
X96653D01*
Y19094D01*
X90748D01*
G37*
G36*
X85396Y31935D02*X83896D01*
Y25936D01*
X85396D01*
Y31935D01*
G37*
G36*
X82874Y19094D02*Y13189D01*
X88779D01*
Y19094D01*
X82874D01*
G37*
G36*
X73229Y30989D02*Y25489D01*
X79528D01*
Y30989D01*
X73229D01*
G37*
G36*
X100000D02*Y25489D01*
X106299D01*
Y30989D01*
X100000D01*
G37*
G36*
X126221Y27322D02*X125434D01*
Y25354D01*
X126221D01*
Y27322D01*
G37*
G36*
X127796D02*X127009D01*
Y25354D01*
X127796D01*
Y27322D01*
G37*
G36*
X129370D02*X128583D01*
Y25354D01*
X129370D01*
Y27322D01*
G37*
G36*
X130945D02*X130158D01*
Y25354D01*
X130945D01*
Y27322D01*
G37*
G36*
X132520D02*X131733D01*
Y25354D01*
X132520D01*
Y27322D01*
G37*
G36*
X132873Y22243D02*X130905D01*
Y19489D01*
X132873D01*
Y22243D01*
G37*
G36*
X129725D02*X127757D01*
Y19489D01*
X129725D01*
Y22243D01*
G37*
G36*
X133308Y28897D02*Y28110D01*
X135276D01*
Y28897D01*
X133308D01*
G37*
G36*
X138780Y26182D02*Y24214D01*
X141534D01*
Y26182D01*
X138780D01*
G37*
G36*
Y29330D02*Y27362D01*
X141534D01*
Y29330D01*
X138780D01*
G37*
G36*
X133308Y30472D02*Y29685D01*
X135276D01*
Y30472D01*
X133308D01*
G37*
G36*
Y32047D02*Y31260D01*
X135276D01*
Y32047D01*
X133308D01*
G37*
G36*
Y33621D02*Y32834D01*
X135276D01*
Y33621D01*
X133308D01*
G37*
G36*
Y35196D02*Y34409D01*
X135276D01*
Y35196D01*
X133308D01*
G37*
G36*
Y36771D02*Y35984D01*
X135276D01*
Y36771D01*
X133308D01*
G37*
G36*
X132520Y39527D02*X131733D01*
Y37559D01*
X132520D01*
Y39527D01*
G37*
G36*
X130945D02*X130158D01*
Y37559D01*
X130945D01*
Y39527D01*
G37*
G36*
X129370D02*X128583D01*
Y37559D01*
X129370D01*
Y39527D01*
G37*
G36*
X124646D02*X123859D01*
Y37559D01*
X124646D01*
Y39527D01*
G37*
G36*
Y27322D02*X123859D01*
Y25354D01*
X124646D01*
Y27322D01*
G37*
G36*
X127796Y39527D02*X127009D01*
Y37559D01*
X127796D01*
Y39527D01*
G37*
G36*
X126221D02*X125434D01*
Y37559D01*
X126221D01*
Y39527D01*
G37*
G36*
X121103Y36771D02*Y35984D01*
X123071D01*
Y36771D01*
X121103D01*
G37*
G36*
Y35196D02*Y34409D01*
X123071D01*
Y35196D01*
X121103D01*
G37*
G36*
Y33621D02*Y32834D01*
X123071D01*
Y33621D01*
X121103D01*
G37*
G36*
Y32047D02*Y31260D01*
X123071D01*
Y32047D01*
X121103D01*
G37*
G36*
Y30472D02*Y29685D01*
X123071D01*
Y30472D01*
X121103D01*
G37*
G36*
Y28897D02*Y28110D01*
X123071D01*
Y28897D01*
X121103D01*
G37*
G36*
X122638Y22637D02*X120670D01*
Y19883D01*
X122638D01*
Y22637D01*
G37*
G36*
X125786D02*X123818D01*
Y19883D01*
X125786D01*
Y22637D01*
G37*
G36*
X114753Y94880D02*Y93280D01*
X118553D01*
Y94880D01*
X114753D01*
G37*
G36*
Y97480D02*Y95880D01*
X118553D01*
Y97480D01*
X114753D01*
G37*
G36*
Y99980D02*Y98380D01*
X118553D01*
Y99980D01*
X114753D01*
G37*
G36*
Y102580D02*Y100980D01*
X118553D01*
Y102580D01*
X114753D01*
G37*
G36*
Y105180D02*Y103580D01*
X118553D01*
Y105180D01*
X114753D01*
G37*
G36*
Y107680D02*Y106080D01*
X118553D01*
Y107680D01*
X114753D01*
G37*
G36*
Y110280D02*Y108680D01*
X118553D01*
Y110280D01*
X114753D01*
G37*
G36*
Y112780D02*Y111180D01*
X118553D01*
Y112780D01*
X114753D01*
G37*
G36*
Y115380D02*Y113780D01*
X118553D01*
Y115380D01*
X114753D01*
G37*
G36*
X124449Y108070D02*X122481D01*
Y105316D01*
X124449D01*
Y108070D01*
G37*
G36*
X127597D02*X125629D01*
Y105316D01*
X127597D01*
Y108070D01*
G37*
G36*
X114753Y117980D02*Y116380D01*
X118553D01*
Y117980D01*
X114753D01*
G37*
G36*
Y120480D02*Y118880D01*
X118553D01*
Y120480D01*
X114753D01*
G37*
G36*
Y123080D02*Y121480D01*
X118553D01*
Y123080D01*
X114753D01*
G37*
G36*
Y125580D02*Y123980D01*
X118553D01*
Y125580D01*
X114753D01*
G37*
G36*
Y128180D02*Y126580D01*
X118553D01*
Y128180D01*
X114753D01*
G37*
G36*
X127755Y128936D02*X125787D01*
Y126182D01*
X127755D01*
Y128936D01*
G37*
G36*
X124607D02*X122639D01*
Y126182D01*
X124607D01*
Y128936D01*
G37*
G54D19*X126772Y131890D03*
X131496Y106693D03*
X114961Y131496D03*
X127165Y101575D03*
X133071Y95669D03*
X81890Y96457D03*
X81496Y106693D03*
X88976Y133465D03*
X94882Y34646D03*
G54D16*X124803Y16142D03*
X116929Y21260D03*
X139764Y14173D03*
X41732Y116535D03*
X32283Y91339D03*
X71260Y61417D03*
X78740Y56693D03*
X7480Y40945D03*
X14173Y63386D03*
X28740Y23228D03*
G54D19*X14409Y55827D03*
G54D20*G54D21*G54D22*G54D20*G54D22*G54D21*G54D23*G54D14*G54D21*G54D20*G54D14*G54D21*G54D20*G54D23*G54D20*G54D23*G54D20*G54D23*M02*
