G04 start of page 7 for group -4063 idx -4063 *
G04 Title: SAP, componentmask *
G04 Creator: pcb 4.0.2 *
G04 CreationDate: Tue Jun 12 19:10:11 2018 UTC *
G04 For: phil *
G04 Format: Gerber/RS-274X *
G04 PCB-Dimensions (mil): 1811.02 1574.80 *
G04 PCB-Coordinate-Origin: lower left *
%MOIN*%
%FSLAX25Y25*%
%LNTOPMASK*%
%ADD46C,0.0220*%
%ADD45C,0.1241*%
%ADD44C,0.1378*%
%ADD43C,0.0480*%
%ADD42C,0.0880*%
%ADD41C,0.0660*%
%ADD40C,0.0001*%
G54D40*G36*
X116306Y83379D02*Y76779D01*
X122906D01*
Y83379D01*
X116306D01*
G37*
G54D41*X109606Y80079D03*
X99606D03*
X89606D03*
X79606D03*
X69606D03*
G54D42*X81890Y27361D03*
G54D43*X77064Y15420D03*
Y17420D03*
Y19420D03*
G54D44*X39764Y22441D03*
G54D42*X97638Y27361D03*
G54D43*X102464Y15420D03*
Y17420D03*
Y19420D03*
G54D44*X156693Y22441D03*
G54D41*X159449Y79213D03*
Y69213D03*
G54D40*G36*
X67487Y149442D02*Y142842D01*
X74087D01*
Y149442D01*
X67487D01*
G37*
G54D41*X60787Y146142D03*
G54D44*X40551Y146457D03*
G54D40*G36*
X126543Y148339D02*Y141739D01*
X133143D01*
Y148339D01*
X126543D01*
G37*
G54D41*X119843Y145039D03*
X109843D03*
X99843D03*
G54D44*X156693Y146457D03*
G54D40*G36*
X156149Y102513D02*Y95913D01*
X162749D01*
Y102513D01*
X156149D01*
G37*
G54D41*X159449Y89213D03*
G54D45*X137008Y66142D03*
X30315D03*
G54D40*G36*
X26501Y126542D02*Y121805D01*
X41475D01*
Y126542D01*
X26501D01*
G37*
G36*
Y118668D02*Y113931D01*
X41475D01*
Y118668D01*
X26501D01*
G37*
G36*
X777Y137958D02*Y129284D01*
X11026D01*
Y137958D01*
X777D01*
G37*
G36*
Y111188D02*Y102514D01*
X11026D01*
Y111188D01*
X777D01*
G37*
G36*
X9976Y90655D02*Y84937D01*
X16480D01*
Y90655D01*
X9976D01*
G37*
G36*
Y97741D02*Y92023D01*
X16480D01*
Y97741D01*
X9976D01*
G37*
G36*
X20576Y83803D02*X14858D01*
Y77299D01*
X20576D01*
Y83803D01*
G37*
G36*
X27171Y88983D02*X25190D01*
Y85427D01*
X27171D01*
Y88983D01*
G37*
G36*
X27662Y83803D02*X21944D01*
Y77299D01*
X27662D01*
Y83803D01*
G37*
G36*
X27171Y97250D02*X25190D01*
Y93694D01*
X27171D01*
Y97250D01*
G37*
G36*
X21267Y88983D02*X19286D01*
Y85427D01*
X21267D01*
Y88983D01*
G37*
G36*
X23235D02*X21254D01*
Y85427D01*
X23235D01*
Y88983D01*
G37*
G36*
X25203D02*X23222D01*
Y85427D01*
X25203D01*
Y88983D01*
G37*
G36*
Y97250D02*X23222D01*
Y93694D01*
X25203D01*
Y97250D01*
G37*
G36*
X23235D02*X21254D01*
Y93694D01*
X23235D01*
Y97250D01*
G37*
G36*
X21267D02*X19286D01*
Y93694D01*
X21267D01*
Y97250D01*
G37*
G36*
X19305Y93589D02*Y89089D01*
X27151D01*
Y93589D01*
X19305D01*
G37*
G54D46*X86453Y127480D02*X88653D01*
G54D40*G36*
X77663Y128842D02*X75095D01*
Y125488D01*
X77663D01*
Y128842D01*
G37*
G36*
X80811D02*X78243D01*
Y125488D01*
X80811D01*
Y128842D01*
G37*
G36*
X85353Y125980D02*Y123780D01*
X89753D01*
Y125980D01*
X85353D01*
G37*
G36*
Y123480D02*Y121280D01*
X89753D01*
Y123480D01*
X85353D01*
G37*
G36*
Y120880D02*Y118680D01*
X89753D01*
Y120880D01*
X85353D01*
G37*
G36*
X86719Y140260D02*X84151D01*
Y136906D01*
X86719D01*
Y140260D01*
G37*
G36*
X86794Y135142D02*X84226D01*
Y131788D01*
X86794D01*
Y135142D01*
G37*
G36*
X83571Y140260D02*X81003D01*
Y136906D01*
X83571D01*
Y140260D01*
G37*
G36*
X83646Y135142D02*X81078D01*
Y131788D01*
X83646D01*
Y135142D01*
G37*
G36*
X85353Y118280D02*Y116080D01*
X89753D01*
Y118280D01*
X85353D01*
G37*
G36*
Y115780D02*Y113580D01*
X89753D01*
Y115780D01*
X85353D01*
G37*
G36*
Y113180D02*Y110980D01*
X89753D01*
Y113180D01*
X85353D01*
G37*
G36*
Y110680D02*Y108480D01*
X89753D01*
Y110680D01*
X85353D01*
G37*
G36*
Y108080D02*Y105880D01*
X89753D01*
Y108080D01*
X85353D01*
G37*
G36*
Y105480D02*Y103280D01*
X89753D01*
Y105480D01*
X85353D01*
G37*
G36*
Y102980D02*Y100780D01*
X89753D01*
Y102980D01*
X85353D01*
G37*
G36*
Y100380D02*Y98180D01*
X89753D01*
Y100380D01*
X85353D01*
G37*
G36*
Y97880D02*Y95680D01*
X89753D01*
Y97880D01*
X85353D01*
G37*
G36*
Y95280D02*Y93080D01*
X89753D01*
Y95280D01*
X85353D01*
G37*
G36*
X78244Y100497D02*Y97929D01*
X81598D01*
Y100497D01*
X78244D01*
G37*
G36*
Y103645D02*Y101077D01*
X81598D01*
Y103645D01*
X78244D01*
G37*
G36*
X61127Y116244D02*X58559D01*
Y112890D01*
X61127D01*
Y116244D01*
G37*
G36*
X64275D02*X61707D01*
Y112890D01*
X64275D01*
Y116244D01*
G37*
G36*
X77269Y116716D02*X74701D01*
Y113362D01*
X77269D01*
Y116716D01*
G37*
G36*
X80417D02*X77849D01*
Y113362D01*
X80417D01*
Y116716D01*
G37*
G36*
X80338Y112699D02*X77770D01*
Y109345D01*
X80338D01*
Y112699D01*
G37*
G36*
X77190D02*X74622D01*
Y109345D01*
X77190D01*
Y112699D01*
G37*
G36*
X62567Y53544D02*Y47244D01*
X72867D01*
Y53544D01*
X62567D01*
G37*
G36*
X75567Y53096D02*Y47378D01*
X82071D01*
Y53096D01*
X75567D01*
G37*
G36*
X65755Y46660D02*X63774D01*
Y42998D01*
X65755D01*
Y46660D01*
G37*
G36*
X62682Y38725D02*X59130D01*
Y34189D01*
X62682D01*
Y38725D01*
G37*
G36*
X67800D02*X64248D01*
Y34189D01*
X67800D01*
Y38725D01*
G37*
G36*
X67723Y46660D02*X65742D01*
Y42998D01*
X67723D01*
Y46660D01*
G37*
G36*
X69691D02*X67710D01*
Y42998D01*
X69691D01*
Y46660D01*
G37*
G36*
X75567Y46010D02*Y40292D01*
X82071D01*
Y46010D01*
X75567D01*
G37*
G36*
X71659Y46660D02*X69678D01*
Y42998D01*
X71659D01*
Y46660D01*
G37*
G36*
Y57789D02*X69678D01*
Y54127D01*
X71659D01*
Y57789D01*
G37*
G36*
X69691D02*X67710D01*
Y54127D01*
X69691D01*
Y57789D01*
G37*
G36*
X67723D02*X65742D01*
Y54127D01*
X67723D01*
Y57789D01*
G37*
G36*
X65755D02*X63774D01*
Y54127D01*
X65755D01*
Y57789D01*
G37*
G36*
X17347Y26008D02*X11629D01*
Y19504D01*
X17347D01*
Y26008D01*
G37*
G36*
X24433D02*X18715D01*
Y19504D01*
X24433D01*
Y26008D01*
G37*
G36*
X24511Y51677D02*X18793D01*
Y45173D01*
X24511D01*
Y51677D01*
G37*
G36*
X23469Y41839D02*X20469D01*
Y37239D01*
X23469D01*
Y41839D01*
G37*
G36*
X19569D02*X16569D01*
Y37239D01*
X19569D01*
Y41839D01*
G37*
G36*
X17425Y51677D02*X11707D01*
Y45173D01*
X17425D01*
Y51677D01*
G37*
G36*
X15669Y41839D02*X12669D01*
Y37239D01*
X15669D01*
Y41839D01*
G37*
G36*
Y33639D02*X12669D01*
Y29039D01*
X15669D01*
Y33639D01*
G37*
G36*
X23469D02*X20469D01*
Y29039D01*
X23469D01*
Y33639D01*
G37*
G36*
X90914Y32335D02*X88614D01*
Y25536D01*
X90914D01*
Y32335D01*
G37*
G36*
X88355D02*X86055D01*
Y25536D01*
X88355D01*
Y32335D01*
G37*
G36*
X93473D02*X91173D01*
Y25536D01*
X93473D01*
Y32335D01*
G37*
G36*
X96032D02*X93732D01*
Y25536D01*
X96032D01*
Y32335D01*
G37*
G36*
X90348Y19494D02*Y12789D01*
X97053D01*
Y19494D01*
X90348D01*
G37*
G36*
X85796Y32335D02*X83496D01*
Y25536D01*
X85796D01*
Y32335D01*
G37*
G36*
X82474Y19494D02*Y12789D01*
X89179D01*
Y19494D01*
X82474D01*
G37*
G36*
X72829Y31389D02*Y25089D01*
X79928D01*
Y31389D01*
X72829D01*
G37*
G36*
X99600D02*Y25089D01*
X106699D01*
Y31389D01*
X99600D01*
G37*
G36*
X126521Y27622D02*X125134D01*
Y25054D01*
X126521D01*
Y27622D01*
G37*
G36*
X128096D02*X126709D01*
Y25054D01*
X128096D01*
Y27622D01*
G37*
G36*
X129670D02*X128283D01*
Y25054D01*
X129670D01*
Y27622D01*
G37*
G36*
X131245D02*X129858D01*
Y25054D01*
X131245D01*
Y27622D01*
G37*
G36*
X132820D02*X131433D01*
Y25054D01*
X132820D01*
Y27622D01*
G37*
G36*
X133173Y22543D02*X130605D01*
Y19189D01*
X133173D01*
Y22543D01*
G37*
G36*
X130025D02*X127457D01*
Y19189D01*
X130025D01*
Y22543D01*
G37*
G36*
X133008Y29197D02*Y27810D01*
X135576D01*
Y29197D01*
X133008D01*
G37*
G36*
X138480Y26482D02*Y23914D01*
X141834D01*
Y26482D01*
X138480D01*
G37*
G36*
Y29630D02*Y27062D01*
X141834D01*
Y29630D01*
X138480D01*
G37*
G36*
X133008Y30772D02*Y29385D01*
X135576D01*
Y30772D01*
X133008D01*
G37*
G36*
Y32347D02*Y30960D01*
X135576D01*
Y32347D01*
X133008D01*
G37*
G36*
Y33921D02*Y32534D01*
X135576D01*
Y33921D01*
X133008D01*
G37*
G36*
Y35496D02*Y34109D01*
X135576D01*
Y35496D01*
X133008D01*
G37*
G36*
Y37071D02*Y35684D01*
X135576D01*
Y37071D01*
X133008D01*
G37*
G36*
X132820Y39827D02*X131433D01*
Y37259D01*
X132820D01*
Y39827D01*
G37*
G36*
X131245D02*X129858D01*
Y37259D01*
X131245D01*
Y39827D01*
G37*
G36*
X129670D02*X128283D01*
Y37259D01*
X129670D01*
Y39827D01*
G37*
G36*
X124946D02*X123559D01*
Y37259D01*
X124946D01*
Y39827D01*
G37*
G36*
Y27622D02*X123559D01*
Y25054D01*
X124946D01*
Y27622D01*
G37*
G36*
X128096Y39827D02*X126709D01*
Y37259D01*
X128096D01*
Y39827D01*
G37*
G36*
X126521D02*X125134D01*
Y37259D01*
X126521D01*
Y39827D01*
G37*
G36*
X120803Y37071D02*Y35684D01*
X123371D01*
Y37071D01*
X120803D01*
G37*
G36*
Y35496D02*Y34109D01*
X123371D01*
Y35496D01*
X120803D01*
G37*
G36*
Y33921D02*Y32534D01*
X123371D01*
Y33921D01*
X120803D01*
G37*
G36*
Y32347D02*Y30960D01*
X123371D01*
Y32347D01*
X120803D01*
G37*
G36*
Y30772D02*Y29385D01*
X123371D01*
Y30772D01*
X120803D01*
G37*
G36*
Y29197D02*Y27810D01*
X123371D01*
Y29197D01*
X120803D01*
G37*
G36*
X122938Y22937D02*X120370D01*
Y19583D01*
X122938D01*
Y22937D01*
G37*
G36*
X126086D02*X123518D01*
Y19583D01*
X126086D01*
Y22937D01*
G37*
G36*
X114453Y95180D02*Y92980D01*
X118853D01*
Y95180D01*
X114453D01*
G37*
G36*
Y97780D02*Y95580D01*
X118853D01*
Y97780D01*
X114453D01*
G37*
G36*
Y100280D02*Y98080D01*
X118853D01*
Y100280D01*
X114453D01*
G37*
G36*
Y102880D02*Y100680D01*
X118853D01*
Y102880D01*
X114453D01*
G37*
G36*
Y105480D02*Y103280D01*
X118853D01*
Y105480D01*
X114453D01*
G37*
G36*
Y107980D02*Y105780D01*
X118853D01*
Y107980D01*
X114453D01*
G37*
G36*
Y110580D02*Y108380D01*
X118853D01*
Y110580D01*
X114453D01*
G37*
G36*
Y113080D02*Y110880D01*
X118853D01*
Y113080D01*
X114453D01*
G37*
G36*
Y115680D02*Y113480D01*
X118853D01*
Y115680D01*
X114453D01*
G37*
G36*
X124749Y108370D02*X122181D01*
Y105016D01*
X124749D01*
Y108370D01*
G37*
G36*
X127897D02*X125329D01*
Y105016D01*
X127897D01*
Y108370D01*
G37*
G36*
X114453Y118280D02*Y116080D01*
X118853D01*
Y118280D01*
X114453D01*
G37*
G36*
Y120780D02*Y118580D01*
X118853D01*
Y120780D01*
X114453D01*
G37*
G36*
Y123380D02*Y121180D01*
X118853D01*
Y123380D01*
X114453D01*
G37*
G36*
Y125880D02*Y123680D01*
X118853D01*
Y125880D01*
X114453D01*
G37*
G36*
Y128480D02*Y126280D01*
X118853D01*
Y128480D01*
X114453D01*
G37*
G36*
X128055Y129236D02*X125487D01*
Y125882D01*
X128055D01*
Y129236D01*
G37*
G36*
X124907D02*X122339D01*
Y125882D01*
X124907D01*
Y129236D01*
G37*
M02*
