G04 start of page 10 for group -4079 idx -4079 *
G04 Title: SAP, topsilk *
G04 Creator: pcb 4.0.2 *
G04 CreationDate: Sat Jan 19 10:52:36 2019 UTC *
G04 For: phil *
G04 Format: Gerber/RS-274X *
G04 PCB-Dimensions (mil): 1811.02 1574.80 *
G04 PCB-Coordinate-Origin: lower left *
%MOIN*%
%FSLAX25Y25*%
%LNGTO*%
%ADD71C,0.0071*%
%ADD70C,0.0079*%
%ADD69C,0.0050*%
%ADD68C,0.0080*%
%ADD67C,0.0150*%
%ADD66C,0.0100*%
G54D66*X78071Y30512D02*Y28701D01*
X79134Y29685D02*X77008D01*
G54D67*X15605Y131989D02*X32435D01*
X15605Y100489D02*X32435D01*
Y102069D02*Y100489D01*
X26525Y101279D02*X32435D01*
X26525Y102069D02*X32435D01*
X26525Y131199D02*X32435D01*
X26525Y130409D02*X32435D01*
Y131989D02*Y130409D01*
X2905Y118209D02*X6845D01*
Y114269D01*
X2905D02*X6845D01*
X15605Y124109D02*X26525D01*
X15605Y126869D02*Y124109D01*
Y126869D02*X26525D01*
X15605Y108369D02*X26525D01*
X15605D02*Y105609D01*
X26525D01*
X2905Y125369D02*Y107109D01*
X26525Y108369D02*Y100489D01*
Y131989D02*Y124109D01*
X2905Y122539D02*Y121359D01*
G54D66*X11893Y56591D02*Y42691D01*
X23693D01*
Y56591D02*Y42691D01*
X11893Y56591D02*X23693D01*
G54D68*X17441Y59922D02*X18227D01*
X17441Y65432D02*X18227D01*
X17363Y39763D02*X18149D01*
X17363Y34253D02*X18149D01*
G54D66*X64606Y85079D02*X124606D01*
X64606D02*Y75079D01*
X124606D01*
Y85079D02*Y75079D01*
X114606Y85079D02*Y75079D01*
X124606D01*
G54D68*X50238Y42642D02*Y41856D01*
X55748Y42642D02*Y41856D01*
X81064Y50352D02*Y49566D01*
X75554Y50352D02*Y49566D01*
G54D66*X58157Y55838D02*X72057D01*
X58157D02*Y44038D01*
X72057D01*
Y55838D02*Y44038D01*
G54D69*X120158Y48031D02*X129858D01*
X131968Y45921D01*
Y36221D01*
X120158D02*X131968D01*
X120158Y48031D02*Y36221D01*
G54D66*X133063Y50126D02*G75*G03X133063Y50126I0J-1000D01*G01*
X82756Y150354D02*X122756D01*
X82756D02*Y140354D01*
X122756D01*
Y150354D02*Y140354D01*
X112756Y150354D02*Y140354D01*
X122756D01*
G54D68*X26182Y88582D02*Y87796D01*
X31692Y88582D02*Y87796D01*
X52618Y92471D02*Y91685D01*
X58128Y92471D02*Y91685D01*
G54D66*X35352Y97677D02*X49252D01*
X35352D02*Y85877D01*
X49252D01*
Y97677D02*Y85877D01*
X47913Y135591D02*X67913D01*
X47913D02*Y125591D01*
X67913D01*
Y135591D02*Y125591D01*
X57913Y135591D02*Y125591D01*
X67913D01*
X84653Y129680D02*X99553D01*
X104553D02*X119553D01*
Y91880D01*
X84653D01*
Y129680D01*
X99553D02*G75*G03X104553Y129680I2500J0D01*G01*
X152795Y154843D02*Y15079D01*
X20118D02*X152795D01*
X20118Y154843D02*Y15079D01*
Y154843D02*X152795D01*
X142677Y104724D02*Y64724D01*
X152677D01*
Y104724D02*Y64724D01*
X142677Y104724D02*X152677D01*
X142677Y94724D02*X152677D01*
Y104724D02*Y94724D01*
X133979Y154872D02*G75*G03X152772Y140710I8777J-7903D01*G01*
X152985Y28858D02*G75*G03X133708Y15361I-10229J-5906D01*G01*
X20535Y140710D02*G75*G03X39328Y154872I10016J6259D01*G01*
X39599Y15361D02*G75*G03X20323Y28858I-9048J7592D01*G01*
G54D69*X70000Y18976D02*Y5197D01*
Y18976D02*X82599D01*
X96771D02*X109370D01*
Y5197D01*
G54D70*X84567Y26456D02*G75*G03X84567Y26456I0J394D01*G01*
G75*G03X84567Y26456I0J394D01*G01*
G54D71*X125503Y146520D02*X126303D01*
Y143020D01*
X125803Y142520D02*X126303Y143020D01*
X125303Y142520D02*X125803D01*
X124803Y143020D02*X125303Y142520D01*
X124803Y143520D02*Y143020D01*
X127503Y146020D02*X128003Y146520D01*
X129003D01*
X129503Y146020D01*
X129003Y142520D02*X129503Y143020D01*
X128003Y142520D02*X129003D01*
X127503Y143020D02*X128003Y142520D01*
Y144720D02*X129003D01*
X129503Y146020D02*Y145220D01*
Y144220D02*Y143020D01*
Y144220D02*X129003Y144720D01*
X129503Y145220D02*X129003Y144720D01*
X144885Y134433D02*X146885D01*
X147385Y133933D01*
Y132933D01*
X146885Y132433D02*X147385Y132933D01*
X145385Y132433D02*X146885D01*
X145385Y134433D02*Y130433D01*
X146185Y132433D02*X147385Y130433D01*
X148585Y133633D02*X149385Y134433D01*
Y130433D01*
X148585D02*X150085D01*
X151285Y133633D02*X152085Y134433D01*
Y130433D01*
X151285D02*X152785D01*
X144607Y128056D02*X146607D01*
X147107Y127556D01*
Y126556D01*
X146607Y126056D02*X147107Y126556D01*
X145107Y126056D02*X146607D01*
X145107Y128056D02*Y124056D01*
X145907Y126056D02*X147107Y124056D01*
X148307Y127256D02*X149107Y128056D01*
Y124056D01*
X148307D02*X149807D01*
X151007Y124556D02*X151507Y124056D01*
X151007Y127556D02*Y124556D01*
Y127556D02*X151507Y128056D01*
X152507D01*
X153007Y127556D01*
Y124556D01*
X152507Y124056D02*X153007Y124556D01*
X151507Y124056D02*X152507D01*
X151007Y125056D02*X153007Y127056D01*
X123811Y121024D02*X125111D01*
X123111Y121724D02*X123811Y121024D01*
X123111Y124324D02*Y121724D01*
Y124324D02*X123811Y125024D01*
X125111D01*
X126311Y124224D02*X127111Y125024D01*
Y121024D01*
X126311D02*X127811D01*
X127747Y83843D02*X128547D01*
Y80343D01*
X128047Y79843D02*X128547Y80343D01*
X127547Y79843D02*X128047D01*
X127047Y80343D02*X127547Y79843D01*
X127047Y80843D02*Y80343D01*
X129747Y83043D02*X130547Y83843D01*
Y79843D01*
X129747D02*X131247D01*
X101635Y119692D02*Y116192D01*
X102135Y115692D01*
X103135D01*
X103635Y116192D01*
Y119692D02*Y116192D01*
X104835Y118892D02*X105635Y119692D01*
Y115692D01*
X104835D02*X106335D01*
X77472Y98244D02*X78772D01*
X76772Y98944D02*X77472Y98244D01*
X76772Y101544D02*Y98944D01*
Y101544D02*X77472Y102244D01*
X78772D01*
X79972Y101744D02*X80472Y102244D01*
X81972D01*
X82472Y101744D01*
Y100744D01*
X79972Y98244D02*X82472Y100744D01*
X79972Y98244D02*X82472D01*
X74920Y119945D02*X76920D01*
X77420Y119445D01*
Y118445D01*
X76920Y117945D02*X77420Y118445D01*
X75420Y117945D02*X76920D01*
X75420Y119945D02*Y115945D01*
X76220Y117945D02*X77420Y115945D01*
X78620Y119445D02*X79120Y119945D01*
X80620D01*
X81120Y119445D01*
Y118445D01*
X78620Y115945D02*X81120Y118445D01*
X78620Y115945D02*X81120D01*
X124597Y109685D02*X125897D01*
X123897Y110385D02*X124597Y109685D01*
X123897Y112985D02*Y110385D01*
Y112985D02*X124597Y113685D01*
X125897D01*
X127097Y113185D02*X127597Y113685D01*
X128597D01*
X129097Y113185D01*
X128597Y109685D02*X129097Y110185D01*
X127597Y109685D02*X128597D01*
X127097Y110185D02*X127597Y109685D01*
Y111885D02*X128597D01*
X129097Y113185D02*Y112385D01*
Y111385D02*Y110185D01*
Y111385D02*X128597Y111885D01*
X129097Y112385D02*X128597Y111885D01*
X25983Y76597D02*X27283D01*
X25283Y77297D02*X25983Y76597D01*
X25283Y79897D02*Y77297D01*
Y79897D02*X25983Y80597D01*
X27283D01*
X28483Y79797D02*X29283Y80597D01*
Y76597D01*
X28483D02*X29983D01*
X31183Y79797D02*X31983Y80597D01*
Y76597D01*
X31183D02*X32683D01*
X51865Y80739D02*X53165D01*
X51165Y81439D02*X51865Y80739D01*
X51165Y84039D02*Y81439D01*
Y84039D02*X51865Y84739D01*
X53165D01*
X54365Y83939D02*X55165Y84739D01*
Y80739D01*
X54365D02*X55865D01*
X57065Y84239D02*X57565Y84739D01*
X59065D01*
X59565Y84239D01*
Y83239D01*
X57065Y80739D02*X59565Y83239D01*
X57065Y80739D02*X59565D01*
X41842Y40472D02*X43142D01*
X41142Y41172D02*X41842Y40472D01*
X41142Y43772D02*Y41172D01*
Y43772D02*X41842Y44472D01*
X43142D01*
X44342Y43972D02*X44842Y44472D01*
X46342D01*
X46842Y43972D01*
Y42972D01*
X44342Y40472D02*X46842Y42972D01*
X44342Y40472D02*X46842D01*
X48042Y40972D02*X48542Y40472D01*
X48042Y43972D02*Y40972D01*
Y43972D02*X48542Y44472D01*
X49542D01*
X50042Y43972D01*
Y40972D01*
X49542Y40472D02*X50042Y40972D01*
X48542Y40472D02*X49542D01*
X48042Y41472D02*X50042Y43472D01*
X83771Y44488D02*X85071D01*
X83071Y45188D02*X83771Y44488D01*
X83071Y47788D02*Y45188D01*
Y47788D02*X83771Y48488D01*
X85071D01*
X86271Y47688D02*X87071Y48488D01*
Y44488D01*
X86271D02*X87771D01*
X89471D02*X90971Y46488D01*
Y47988D02*Y46488D01*
X90471Y48488D02*X90971Y47988D01*
X89471Y48488D02*X90471D01*
X88971Y47988D02*X89471Y48488D01*
X88971Y47988D02*Y46988D01*
X89471Y46488D01*
X90971D01*
X67598Y36559D02*Y32559D01*
X69598D01*
X70798Y34759D02*X72298D01*
X70798Y32559D02*X72798D01*
X70798Y36559D02*Y32559D01*
Y36559D02*X72798D01*
X74498D02*Y32559D01*
X75798Y36559D02*X76498Y35859D01*
Y33259D01*
X75798Y32559D02*X76498Y33259D01*
X73998Y32559D02*X75798D01*
X73998Y36559D02*X75798D01*
X77698Y35759D02*X78498Y36559D01*
Y32559D01*
X77698D02*X79198D01*
X58070Y37504D02*X60070D01*
X60570Y37004D01*
Y36004D01*
X60070Y35504D02*X60570Y36004D01*
X58570Y35504D02*X60070D01*
X58570Y37504D02*Y33504D01*
X59370Y35504D02*X60570Y33504D01*
X63270Y37504D02*X63770Y37004D01*
X62270Y37504D02*X63270D01*
X61770Y37004D02*X62270Y37504D01*
X61770Y37004D02*Y34004D01*
X62270Y33504D01*
X63270Y35704D02*X63770Y35204D01*
X61770Y35704D02*X63270D01*
X62270Y33504D02*X63270D01*
X63770Y34004D01*
Y35204D02*Y34004D01*
X65023Y15013D02*X65823D01*
Y11513D01*
X65323Y11013D02*X65823Y11513D01*
X64823Y11013D02*X65323D01*
X64323Y11513D02*X64823Y11013D01*
X64323Y12013D02*Y11513D01*
X67023Y12513D02*X69023Y15013D01*
X67023Y12513D02*X69523D01*
X69023Y15013D02*Y11013D01*
X17948Y111546D02*Y109546D01*
Y111546D02*X17448Y112046D01*
X16248D02*X17448D01*
X15748Y111546D02*X16248Y112046D01*
X15748Y111546D02*Y110046D01*
X13948D02*X17948D01*
X13948Y111546D02*Y109546D01*
Y111546D02*X14448Y112046D01*
X15248D01*
X15748Y111546D02*X15248Y112046D01*
X14748Y113246D02*X13948Y114046D01*
X17948D01*
Y114746D02*Y113246D01*
X25063Y51247D02*Y47747D01*
X25563Y47247D01*
X26563D01*
X27063Y47747D01*
Y51247D02*Y47747D01*
X29763Y51247D02*X30263Y50747D01*
X28763Y51247D02*X29763D01*
X28263Y50747D02*X28763Y51247D01*
X28263Y50747D02*Y47747D01*
X28763Y47247D01*
X29763Y49447D02*X30263Y48947D01*
X28263Y49447D02*X29763D01*
X28763Y47247D02*X29763D01*
X30263Y47747D01*
Y48947D02*Y47747D01*
X15188Y67717D02*X16488D01*
X14488Y68417D02*X15188Y67717D01*
X14488Y71017D02*Y68417D01*
Y71017D02*X15188Y71717D01*
X16488D01*
X17688Y70917D02*X18488Y71717D01*
Y67717D01*
X17688D02*X19188D01*
X20388Y69217D02*X22388Y71717D01*
X20388Y69217D02*X22888D01*
X22388Y71717D02*Y67717D01*
X13967Y27599D02*X15267D01*
X13267Y28299D02*X13967Y27599D01*
X13267Y30899D02*Y28299D01*
Y30899D02*X13967Y31599D01*
X15267D01*
X16467Y30799D02*X17267Y31599D01*
Y27599D01*
X16467D02*X17967D01*
X19167Y31599D02*X21167D01*
X19167D02*Y29599D01*
X19667Y30099D01*
X20667D01*
X21167Y29599D01*
Y28099D01*
X20667Y27599D02*X21167Y28099D01*
X19667Y27599D02*X20667D01*
X19167Y28099D02*X19667Y27599D01*
X39606Y103449D02*Y99949D01*
X40106Y99449D01*
X41106D01*
X41606Y99949D01*
Y103449D02*Y99949D01*
X42806D02*X43306Y99449D01*
X42806Y100749D02*Y99949D01*
Y100749D02*X43506Y101449D01*
X44106D01*
X44806Y100749D01*
Y99949D01*
X44306Y99449D02*X44806Y99949D01*
X43306Y99449D02*X44306D01*
X42806Y102149D02*X43506Y101449D01*
X42806Y102949D02*Y102149D01*
Y102949D02*X43306Y103449D01*
X44306D01*
X44806Y102949D01*
Y102149D01*
X44106Y101449D02*X44806Y102149D01*
X107756Y41189D02*Y39889D01*
X108456Y41889D02*X107756Y41189D01*
X108456Y41889D02*X111056D01*
X111756Y41189D01*
Y39889D01*
X110956Y38689D02*X111756Y37889D01*
X107756D02*X111756D01*
X107756Y38689D02*Y37189D01*
X108256Y35989D02*X107756Y35489D01*
X108256Y35989D02*X109056D01*
X109756Y35289D01*
Y34689D01*
X109056Y33989D01*
X108256D02*X109056D01*
X107756Y34489D02*X108256Y33989D01*
X107756Y35489D02*Y34489D01*
X110456Y35989D02*X109756Y35289D01*
X110456Y35989D02*X111256D01*
X111756Y35489D01*
Y34489D01*
X111256Y33989D01*
X110456D02*X111256D01*
X109756Y34689D02*X110456Y33989D01*
X107126Y51071D02*Y49771D01*
X107826Y51771D02*X107126Y51071D01*
X107826Y51771D02*X110426D01*
X111126Y51071D01*
Y49771D01*
X110326Y48571D02*X111126Y47771D01*
X107126D02*X111126D01*
X107126Y48571D02*Y47071D01*
Y45371D02*X111126Y43371D01*
Y45871D02*Y43371D01*
X117173Y32756D02*X118473D01*
X119173Y32056D02*X118473Y32756D01*
X119173Y32056D02*Y29456D01*
X118473Y28756D01*
X117173D02*X118473D01*
X115973Y29556D02*X115173Y28756D01*
Y32756D02*Y28756D01*
X114473Y32756D02*X115973D01*
X111773Y28756D02*X111273Y29256D01*
X111773Y28756D02*X112773D01*
X113273Y29256D02*X112773Y28756D01*
X113273Y32256D02*Y29256D01*
Y32256D02*X112773Y32756D01*
X111773Y30556D02*X111273Y31056D01*
X111773Y30556D02*X113273D01*
X111773Y32756D02*X112773D01*
X111773D02*X111273Y32256D01*
Y31056D01*
X62155Y61666D02*Y58166D01*
X62655Y57666D01*
X63655D01*
X64155Y58166D01*
Y61666D02*Y58166D01*
X65855Y57666D02*X67355Y59666D01*
Y61166D02*Y59666D01*
X66855Y61666D02*X67355Y61166D01*
X65855Y61666D02*X66855D01*
X65355Y61166D02*X65855Y61666D01*
X65355Y61166D02*Y60166D01*
X65855Y59666D01*
X67355D01*
X131772Y60969D02*X133772D01*
X134272Y60469D01*
Y59469D01*
X133772Y58969D02*X134272Y59469D01*
X132272Y58969D02*X133772D01*
X132272Y60969D02*Y56969D01*
X133072Y58969D02*X134272Y56969D01*
X135972D02*X137472Y58969D01*
Y60469D02*Y58969D01*
X136972Y60969D02*X137472Y60469D01*
X135972Y60969D02*X136972D01*
X135472Y60469D02*X135972Y60969D01*
X135472Y60469D02*Y59469D01*
X135972Y58969D01*
X137472D01*
X160080Y59512D02*X162080D01*
X162580Y59012D01*
Y58012D01*
X162080Y57512D02*X162580Y58012D01*
X160580Y57512D02*X162080D01*
X160580Y59512D02*Y55512D01*
X161380Y57512D02*X162580Y55512D01*
X163780Y56012D02*X164280Y55512D01*
X163780Y56812D02*Y56012D01*
Y56812D02*X164480Y57512D01*
X165080D01*
X165780Y56812D01*
Y56012D01*
X165280Y55512D02*X165780Y56012D01*
X164280Y55512D02*X165280D01*
X163780Y58212D02*X164480Y57512D01*
X163780Y59012D02*Y58212D01*
Y59012D02*X164280Y59512D01*
X165280D01*
X165780Y59012D01*
Y58212D01*
X165080Y57512D02*X165780Y58212D01*
X55306Y143685D02*X56106D01*
Y140185D01*
X55606Y139685D02*X56106Y140185D01*
X55106Y139685D02*X55606D01*
X54606Y140185D02*X55106Y139685D01*
X54606Y140685D02*Y140185D01*
X57306Y143185D02*X57806Y143685D01*
X59306D01*
X59806Y143185D01*
Y142185D01*
X57306Y139685D02*X59806Y142185D01*
X57306Y139685D02*X59806D01*
X61244Y124882D02*Y122882D01*
X60744Y122382D01*
X59744D02*X60744D01*
X59244Y122882D02*X59744Y122382D01*
X59244Y124382D02*Y122882D01*
X57244Y124382D02*X61244D01*
X59244Y123582D02*X57244Y122382D01*
X58744Y121182D02*X61244Y119182D01*
X58744Y121182D02*Y118682D01*
X57244Y119182D02*X61244D01*
X71756Y124607D02*Y122607D01*
X71256Y122107D01*
X70256D02*X71256D01*
X69756Y122607D02*X70256Y122107D01*
X69756Y124107D02*Y122607D01*
X67756Y124107D02*X71756D01*
X69756Y123307D02*X67756Y122107D01*
X71256Y120907D02*X71756Y120407D01*
Y119407D01*
X71256Y118907D01*
X67756Y119407D02*X68256Y118907D01*
X67756Y120407D02*Y119407D01*
X68256Y120907D02*X67756Y120407D01*
X69956D02*Y119407D01*
X70456Y118907D02*X71256D01*
X68256D02*X69456D01*
X69956Y119407D01*
X70456Y118907D02*X69956Y119407D01*
X73616Y135158D02*X74916D01*
X72916Y135858D02*X73616Y135158D01*
X72916Y138458D02*Y135858D01*
Y138458D02*X73616Y139158D01*
X74916D01*
X76116Y136658D02*X78116Y139158D01*
X76116Y136658D02*X78616D01*
X78116Y139158D02*Y135158D01*
X68859Y130181D02*X70859D01*
X71359Y129681D01*
Y128681D01*
X70859Y128181D02*X71359Y128681D01*
X69359Y128181D02*X70859D01*
X69359Y130181D02*Y126181D01*
X70159Y128181D02*X71359Y126181D01*
X72559Y129381D02*X73359Y130181D01*
Y126181D01*
X72559D02*X74059D01*
X71653Y65260D02*X73653D01*
X74153Y64760D01*
Y63760D01*
X73653Y63260D02*X74153Y63760D01*
X72153Y63260D02*X73653D01*
X72153Y65260D02*Y61260D01*
X72953Y63260D02*X74153Y61260D01*
X75853D02*X77853Y65260D01*
X75353D02*X77853D01*
X56048Y124883D02*Y122883D01*
X55548Y122383D01*
X54548D02*X55548D01*
X54048Y122883D02*X54548Y122383D01*
X54048Y124383D02*Y122883D01*
X52048Y124383D02*X56048D01*
X54048Y123583D02*X52048Y122383D01*
X56048Y121183D02*Y119183D01*
X54048Y121183D02*X56048D01*
X54048D02*X54548Y120683D01*
Y119683D01*
X54048Y119183D01*
X52548D02*X54048D01*
X52048Y119683D02*X52548Y119183D01*
X52048Y120683D02*Y119683D01*
X52548Y121183D02*X52048Y120683D01*
X61449Y108268D02*X62749D01*
X60749Y108968D02*X61449Y108268D01*
X60749Y111568D02*Y108968D01*
Y111568D02*X61449Y112268D01*
X62749D01*
X63949Y111768D02*X64449Y112268D01*
X65949D01*
X66449Y111768D01*
Y110768D01*
X63949Y108268D02*X66449Y110768D01*
X63949Y108268D02*X66449D01*
X67649Y111468D02*X68449Y112268D01*
Y108268D01*
X67649D02*X69149D01*
X60630Y99039D02*Y95539D01*
X61130Y95039D01*
X62130D01*
X62630Y95539D01*
Y99039D02*Y95539D01*
X63830Y98239D02*X64630Y99039D01*
Y95039D01*
X63830D02*X65330D01*
X66530Y95539D02*X67030Y95039D01*
X66530Y98539D02*Y95539D01*
Y98539D02*X67030Y99039D01*
X68030D01*
X68530Y98539D01*
Y95539D01*
X68030Y95039D02*X68530Y95539D01*
X67030Y95039D02*X68030D01*
X66530Y96039D02*X68530Y98039D01*
X136417Y96783D02*X140417D01*
Y95483D02*X139717Y94783D01*
X137117D02*X139717D01*
X136417Y95483D02*X137117Y94783D01*
X136417Y97283D02*Y95483D01*
X140417Y97283D02*Y95483D01*
Y93583D02*Y92583D01*
X136417Y93083D02*X140417D01*
X136417Y93583D02*Y92583D01*
X140417Y89383D02*X139917Y88883D01*
X140417Y90883D02*Y89383D01*
X139917Y91383D02*X140417Y90883D01*
X138917Y91383D02*X139917D01*
X138917D02*X138417Y90883D01*
Y89383D01*
X137917Y88883D01*
X136917D02*X137917D01*
X136417Y89383D02*X136917Y88883D01*
X136417Y90883D02*Y89383D01*
X136917Y91383D02*X136417Y90883D01*
Y87183D02*X140417D01*
Y87683D02*Y85683D01*
X139917Y85183D01*
X138917D02*X139917D01*
X138417Y85683D02*X138917Y85183D01*
X138417Y87183D02*Y85683D01*
X136417Y83983D02*X140417D01*
X136417D02*Y81983D01*
Y80783D02*X139417D01*
X140417Y80083D01*
Y78983D01*
X139417Y78283D01*
X136417D02*X139417D01*
X138417Y80783D02*Y78283D01*
X140417Y77083D02*X138417Y76083D01*
X140417Y75083D01*
X136417Y76083D02*X138417D01*
X139617Y73883D02*X140417Y73083D01*
X136417D02*X140417D01*
X136417Y73883D02*Y72383D01*
X138689Y45433D02*X142189D01*
X138689D02*X138189Y44933D01*
Y43933D01*
X138689Y43433D01*
X142189D01*
X138189Y41733D02*X142189Y39733D01*
Y42233D02*Y39733D01*
M02*
