G04 start of page 12 for group -4015 idx -4015 *
G04 Title: SAP, toppaste *
G04 Creator: pcb 4.0.2 *
G04 CreationDate: Sat Jan 19 10:52:36 2019 UTC *
G04 For: phil *
G04 Format: Gerber/RS-274X *
G04 PCB-Dimensions (mil): 1811.02 1574.80 *
G04 PCB-Coordinate-Origin: lower left *
%MOIN*%
%FSLAX25Y25*%
%LNGTP*%
%ADD73C,0.0001*%
%ADD72C,0.0160*%
G54D72*X86453Y127480D02*X88653D01*
G54D73*G36*
X85653Y125680D02*Y124080D01*
X89453D01*
Y125680D01*
X85653D01*
G37*
G36*
Y123180D02*Y121580D01*
X89453D01*
Y123180D01*
X85653D01*
G37*
G36*
Y120580D02*Y118980D01*
X89453D01*
Y120580D01*
X85653D01*
G37*
G36*
Y117980D02*Y116380D01*
X89453D01*
Y117980D01*
X85653D01*
G37*
G36*
Y115480D02*Y113880D01*
X89453D01*
Y115480D01*
X85653D01*
G37*
G36*
Y112880D02*Y111280D01*
X89453D01*
Y112880D01*
X85653D01*
G37*
G36*
Y110380D02*Y108780D01*
X89453D01*
Y110380D01*
X85653D01*
G37*
G36*
Y107780D02*Y106180D01*
X89453D01*
Y107780D01*
X85653D01*
G37*
G36*
Y105180D02*Y103580D01*
X89453D01*
Y105180D01*
X85653D01*
G37*
G36*
Y102680D02*Y101080D01*
X89453D01*
Y102680D01*
X85653D01*
G37*
G36*
Y100080D02*Y98480D01*
X89453D01*
Y100080D01*
X85653D01*
G37*
G36*
Y97580D02*Y95980D01*
X89453D01*
Y97580D01*
X85653D01*
G37*
G36*
Y94980D02*Y93380D01*
X89453D01*
Y94980D01*
X85653D01*
G37*
G36*
X114753Y94880D02*Y93280D01*
X118553D01*
Y94880D01*
X114753D01*
G37*
G36*
Y97480D02*Y95880D01*
X118553D01*
Y97480D01*
X114753D01*
G37*
G36*
Y99980D02*Y98380D01*
X118553D01*
Y99980D01*
X114753D01*
G37*
G36*
Y102580D02*Y100980D01*
X118553D01*
Y102580D01*
X114753D01*
G37*
G36*
Y105180D02*Y103580D01*
X118553D01*
Y105180D01*
X114753D01*
G37*
G36*
Y107680D02*Y106080D01*
X118553D01*
Y107680D01*
X114753D01*
G37*
G36*
Y110280D02*Y108680D01*
X118553D01*
Y110280D01*
X114753D01*
G37*
G36*
Y112780D02*Y111180D01*
X118553D01*
Y112780D01*
X114753D01*
G37*
G36*
Y115380D02*Y113780D01*
X118553D01*
Y115380D01*
X114753D01*
G37*
G36*
Y117980D02*Y116380D01*
X118553D01*
Y117980D01*
X114753D01*
G37*
G36*
Y120480D02*Y118880D01*
X118553D01*
Y120480D01*
X114753D01*
G37*
G36*
Y123080D02*Y121480D01*
X118553D01*
Y123080D01*
X114753D01*
G37*
G36*
Y125580D02*Y123980D01*
X118553D01*
Y125580D01*
X114753D01*
G37*
G36*
Y128180D02*Y126580D01*
X118553D01*
Y128180D01*
X114753D01*
G37*
G36*
X25985Y87205D02*Y82087D01*
X31889D01*
Y87205D01*
X25985D01*
G37*
G36*
Y94291D02*Y89173D01*
X31889D01*
Y94291D01*
X25985D01*
G37*
G36*
X52421Y91094D02*Y85976D01*
X58325D01*
Y91094D01*
X52421D01*
G37*
G36*
Y98180D02*Y93062D01*
X58325D01*
Y98180D01*
X52421D01*
G37*
G36*
X50041Y41265D02*Y36147D01*
X55945D01*
Y41265D01*
X50041D01*
G37*
G36*
Y48351D02*Y43233D01*
X55945D01*
Y48351D01*
X50041D01*
G37*
G36*
X75357Y56061D02*Y50943D01*
X81261D01*
Y56061D01*
X75357D01*
G37*
G36*
Y48975D02*Y43857D01*
X81261D01*
Y48975D01*
X75357D01*
G37*
G36*
X59057Y55038D02*Y52638D01*
X63057D01*
Y55038D01*
X59057D01*
G37*
G36*
Y47238D02*Y44838D01*
X63057D01*
Y47238D01*
X59057D01*
G37*
G36*
X67257D02*Y44838D01*
X71257D01*
Y47238D01*
X67257D01*
G37*
G36*
Y51138D02*Y48738D01*
X71257D01*
Y51138D01*
X67257D01*
G37*
G36*
Y55038D02*Y52638D01*
X71257D01*
Y55038D01*
X67257D01*
G37*
G36*
X23580Y122139D02*Y118219D01*
X37350D01*
Y122139D01*
X23580D01*
G37*
G36*
Y114264D02*Y110334D01*
X37350D01*
Y114264D01*
X23580D01*
G37*
G36*
X1145Y132359D02*Y126459D01*
X14525D01*
Y132359D01*
X1145D01*
G37*
G36*
X1150Y106009D02*Y100109D01*
X14520D01*
Y106009D01*
X1150D01*
G37*
G36*
X15093Y47591D02*X12693D01*
Y43591D01*
X15093D01*
Y47591D01*
G37*
G36*
X22893D02*X20493D01*
Y43591D01*
X22893D01*
Y47591D01*
G37*
G36*
Y55791D02*X20493D01*
Y51791D01*
X22893D01*
Y55791D01*
G37*
G36*
X18993D02*X16593D01*
Y51791D01*
X18993D01*
Y55791D01*
G37*
G36*
X15093D02*X12693D01*
Y51791D01*
X15093D01*
Y55791D01*
G37*
G36*
X23936Y65629D02*X18818D01*
Y59725D01*
X23936D01*
Y65629D01*
G37*
G36*
X16850D02*X11732D01*
Y59725D01*
X16850D01*
Y65629D01*
G37*
G36*
X16772Y39960D02*X11654D01*
Y34056D01*
X16772D01*
Y39960D01*
G37*
G36*
X23858D02*X18740D01*
Y34056D01*
X23858D01*
Y39960D01*
G37*
G36*
X142910Y133188D02*X140942D01*
Y130434D01*
X142910D01*
Y133188D01*
G37*
G36*
X139762D02*X137794D01*
Y130434D01*
X139762D01*
Y133188D01*
G37*
G36*
X139765Y128346D02*X137797D01*
Y125592D01*
X139765D01*
Y128346D01*
G37*
G36*
X142913D02*X140945D01*
Y125592D01*
X142913D01*
Y128346D01*
G37*
G36*
X143896Y59842D02*X141928D01*
Y57088D01*
X143896D01*
Y59842D01*
G37*
G36*
X140748D02*X138780D01*
Y57088D01*
X140748D01*
Y59842D01*
G37*
G36*
X154135Y59999D02*X152167D01*
Y57245D01*
X154135D01*
Y59999D01*
G37*
G36*
X157283D02*X155315D01*
Y57245D01*
X157283D01*
Y59999D01*
G37*
G36*
X76004Y31496D02*X73052D01*
Y27560D01*
X76004D01*
Y31496D01*
G37*
G36*
X70886D02*X67934D01*
Y27560D01*
X70886D01*
Y31496D01*
G37*
G36*
X77442Y93582D02*Y91614D01*
X80196D01*
Y93582D01*
X77442D01*
G37*
G36*
Y96730D02*Y94762D01*
X80196D01*
Y96730D01*
X77442D01*
G37*
G36*
X74134Y69133D02*X72166D01*
Y66379D01*
X74134D01*
Y69133D01*
G37*
G36*
X77282D02*X75314D01*
Y66379D01*
X77282D01*
Y69133D01*
G37*
G36*
X62284Y114844D02*Y112876D01*
X65038D01*
Y114844D01*
X62284D01*
G37*
G36*
Y117992D02*Y116024D01*
X65038D01*
Y117992D01*
X62284D01*
G37*
G36*
X54135Y117952D02*Y115984D01*
X56889D01*
Y117952D01*
X54135D01*
G37*
G36*
Y114804D02*Y112836D01*
X56889D01*
Y114804D01*
X54135D01*
G37*
G36*
X58308Y114764D02*Y112796D01*
X61062D01*
Y114764D01*
X58308D01*
G37*
G36*
Y117912D02*Y115944D01*
X61062D01*
Y117912D01*
X58308D01*
G37*
G36*
X67245Y117913D02*Y115945D01*
X69999D01*
Y117913D01*
X67245D01*
G37*
G36*
Y114765D02*Y112797D01*
X69999D01*
Y114765D01*
X67245D01*
G37*
G36*
X76655Y134172D02*X74687D01*
Y131418D01*
X76655D01*
Y134172D01*
G37*
G36*
X79803D02*X77835D01*
Y131418D01*
X79803D01*
Y134172D01*
G37*
G36*
X76929Y124251D02*X74961D01*
Y121497D01*
X76929D01*
Y124251D01*
G37*
G36*
X80077D02*X78109D01*
Y121497D01*
X80077D01*
Y124251D01*
G37*
G36*
X79880Y129172D02*X77912D01*
Y126418D01*
X79880D01*
Y129172D01*
G37*
G36*
X76732D02*X74764D01*
Y126418D01*
X76732D01*
Y129172D01*
G37*
G36*
X127518Y129330D02*X125550D01*
Y126576D01*
X127518D01*
Y129330D01*
G37*
G36*
X124370D02*X122402D01*
Y126576D01*
X124370D01*
Y129330D01*
G37*
G36*
X36252Y96877D02*Y94477D01*
X40252D01*
Y96877D01*
X36252D01*
G37*
G36*
Y89077D02*Y86677D01*
X40252D01*
Y89077D01*
X36252D01*
G37*
G36*
X44452D02*Y86677D01*
X48452D01*
Y89077D01*
X44452D01*
G37*
G36*
Y92977D02*Y90577D01*
X48452D01*
Y92977D01*
X44452D01*
G37*
G36*
Y96877D02*Y94477D01*
X48452D01*
Y96877D01*
X44452D01*
G37*
G36*
X68346Y104606D02*X67952D01*
Y100276D01*
X68346D01*
Y104606D01*
G37*
G36*
X65590Y105000D02*X65196D01*
Y103425D01*
X65590D01*
Y105000D01*
G37*
G36*
X62047Y104606D02*X61653D01*
Y100276D01*
X62047D01*
Y104606D01*
G37*
G36*
X64803Y101457D02*X64409D01*
Y99882D01*
X64803D01*
Y101457D01*
G37*
G36*
X125649Y108740D02*X122697D01*
Y104804D01*
X125649D01*
Y108740D01*
G37*
G36*
X130767D02*X127815D01*
Y104804D01*
X130767D01*
Y108740D01*
G37*
G36*
X113702Y38938D02*Y36970D01*
X116456D01*
Y38938D01*
X113702D01*
G37*
G36*
Y42086D02*Y40118D01*
X116456D01*
Y42086D01*
X113702D01*
G37*
G36*
X113269Y46733D02*Y44765D01*
X116023D01*
Y46733D01*
X113269D01*
G37*
G36*
Y49881D02*Y47913D01*
X116023D01*
Y49881D01*
X113269D01*
G37*
G36*
X126455Y31928D02*X124487D01*
Y29174D01*
X126455D01*
Y31928D01*
G37*
G36*
X123307D02*X121339D01*
Y29174D01*
X123307D01*
Y31928D01*
G37*
G36*
X130393Y49211D02*X129606D01*
Y47539D01*
X130393D01*
Y49211D01*
G37*
G36*
X128818D02*X128031D01*
Y46850D01*
X128818D01*
Y49211D01*
G37*
G36*
X127243D02*X126456D01*
Y46850D01*
X127243D01*
Y49211D01*
G37*
G36*
X125669D02*X124882D01*
Y46850D01*
X125669D01*
Y49211D01*
G37*
G36*
X124094D02*X123307D01*
Y46850D01*
X124094D01*
Y49211D01*
G37*
G36*
X122519D02*X121732D01*
Y47539D01*
X122519D01*
Y49211D01*
G37*
G36*
X118977Y46456D02*Y45669D01*
X120649D01*
Y46456D01*
X118977D01*
G37*
G36*
Y44881D02*Y44094D01*
X121338D01*
Y44881D01*
X118977D01*
G37*
G36*
Y43306D02*Y42519D01*
X121338D01*
Y43306D01*
X118977D01*
G37*
G36*
Y41732D02*Y40945D01*
X121338D01*
Y41732D01*
X118977D01*
G37*
G36*
Y40157D02*Y39370D01*
X121338D01*
Y40157D01*
X118977D01*
G37*
G36*
Y38582D02*Y37795D01*
X120649D01*
Y38582D01*
X118977D01*
G37*
G36*
X122519Y36712D02*X121732D01*
Y35040D01*
X122519D01*
Y36712D01*
G37*
G36*
X124094Y37401D02*X123307D01*
Y35040D01*
X124094D01*
Y37401D01*
G37*
G36*
X125669D02*X124882D01*
Y35040D01*
X125669D01*
Y37401D01*
G37*
G36*
X127243D02*X126456D01*
Y35040D01*
X127243D01*
Y37401D01*
G37*
G36*
X128818D02*X128031D01*
Y35040D01*
X128818D01*
Y37401D01*
G37*
G36*
X130393Y36712D02*X129606D01*
Y35040D01*
X130393D01*
Y36712D01*
G37*
G36*
X131476Y38582D02*Y37795D01*
X133148D01*
Y38582D01*
X131476D01*
G37*
G36*
X130787Y40157D02*Y39370D01*
X133148D01*
Y40157D01*
X130787D01*
G37*
G36*
Y41732D02*Y40945D01*
X133148D01*
Y41732D01*
X130787D01*
G37*
G36*
Y43306D02*Y42519D01*
X133148D01*
Y43306D01*
X130787D01*
G37*
G36*
Y44881D02*Y44094D01*
X133148D01*
Y44881D01*
X130787D01*
G37*
G36*
X131476Y46456D02*Y45669D01*
X133148D01*
Y46456D01*
X131476D01*
G37*
G36*
X60827Y31141D02*X58859D01*
Y28387D01*
X60827D01*
Y31141D01*
G37*
G36*
X63975D02*X62007D01*
Y28387D01*
X63975D01*
Y31141D01*
G37*
G36*
X85354Y24487D02*X83780D01*
Y19370D01*
X85354D01*
Y24487D01*
G37*
G36*
X87913D02*X86339D01*
Y19370D01*
X87913D01*
Y24487D01*
G37*
G36*
X90472D02*X88898D01*
Y19370D01*
X90472D01*
Y24487D01*
G37*
G36*
X93031D02*X91457D01*
Y19370D01*
X93031D01*
Y24487D01*
G37*
G36*
X95590D02*X94016D01*
Y19370D01*
X95590D01*
Y24487D01*
G37*
M02*
