G04 start of page 8 for group -4063 idx -4063 *
G04 Title: SAP, componentmask *
G04 Creator: pcb 4.0.2 *
G04 CreationDate: Sat Jan 19 10:52:36 2019 UTC *
G04 For: phil *
G04 Format: Gerber/RS-274X *
G04 PCB-Dimensions (mil): 1811.02 1574.80 *
G04 PCB-Coordinate-Origin: lower left *
%MOIN*%
%FSLAX25Y25*%
%LNGTS*%
%ADD60C,0.0220*%
%ADD59C,0.0513*%
%ADD58C,0.0434*%
%ADD57C,0.1378*%
%ADD56C,0.0660*%
%ADD55C,0.0001*%
G54D55*G36*
X59613Y133891D02*Y127291D01*
X66213D01*
Y133891D01*
X59613D01*
G37*
G54D56*X52913Y130591D03*
G54D55*G36*
X114456Y148654D02*Y142054D01*
X121056D01*
Y148654D01*
X114456D01*
G37*
G54D56*X107756Y145354D03*
X97756D03*
X87756D03*
G54D57*X30551Y146969D03*
G54D55*G36*
X116306Y83379D02*Y76779D01*
X122906D01*
Y83379D01*
X116306D01*
G37*
G54D56*X109606Y80079D03*
X99606D03*
X89606D03*
X79606D03*
X69606D03*
G54D57*X142756Y146969D03*
G54D55*G36*
X142409Y103024D02*Y96424D01*
X149009D01*
Y103024D01*
X142409D01*
G37*
G54D56*X145709Y89724D03*
Y79724D03*
Y69724D03*
G54D57*X142756Y22953D03*
X30551D03*
G54D58*X79646Y21732D03*
G54D59*X79843Y13071D03*
X99527D03*
G54D58*X99724Y21732D03*
G54D55*G36*
X49741Y41565D02*Y35847D01*
X56245D01*
Y41565D01*
X49741D01*
G37*
G36*
Y48651D02*Y42933D01*
X56245D01*
Y48651D01*
X49741D01*
G37*
G36*
X15393Y47891D02*X12393D01*
Y43291D01*
X15393D01*
Y47891D01*
G37*
G36*
X17072Y40260D02*X11354D01*
Y33756D01*
X17072D01*
Y40260D01*
G37*
G36*
X23193Y47891D02*X20193D01*
Y43291D01*
X23193D01*
Y47891D01*
G37*
G36*
X24158Y40260D02*X18440D01*
Y33756D01*
X24158D01*
Y40260D01*
G37*
G36*
X23193Y56091D02*X20193D01*
Y51491D01*
X23193D01*
Y56091D01*
G37*
G36*
X19293D02*X16293D01*
Y51491D01*
X19293D01*
Y56091D01*
G37*
G36*
X15393D02*X12393D01*
Y51491D01*
X15393D01*
Y56091D01*
G37*
G36*
X24236Y65929D02*X18518D01*
Y59425D01*
X24236D01*
Y65929D01*
G37*
G36*
X17150D02*X11432D01*
Y59425D01*
X17150D01*
Y65929D01*
G37*
G36*
X25685Y87505D02*Y81787D01*
X32189D01*
Y87505D01*
X25685D01*
G37*
G36*
Y94591D02*Y88873D01*
X32189D01*
Y94591D01*
X25685D01*
G37*
G36*
X23180Y122539D02*Y117819D01*
X37750D01*
Y122539D01*
X23180D01*
G37*
G36*
Y114664D02*Y109934D01*
X37750D01*
Y114664D01*
X23180D01*
G37*
G36*
X745Y132759D02*Y126059D01*
X14925D01*
Y132759D01*
X745D01*
G37*
G36*
X750Y106409D02*Y99709D01*
X14920D01*
Y106409D01*
X750D01*
G37*
G36*
X35952Y97177D02*Y94177D01*
X40552D01*
Y97177D01*
X35952D01*
G37*
G36*
Y89377D02*Y86377D01*
X40552D01*
Y89377D01*
X35952D01*
G37*
G36*
X44152D02*Y86377D01*
X48752D01*
Y89377D01*
X44152D01*
G37*
G36*
Y93277D02*Y90277D01*
X48752D01*
Y93277D01*
X44152D01*
G37*
G36*
Y97177D02*Y94177D01*
X48752D01*
Y97177D01*
X44152D01*
G37*
G36*
X85353Y105480D02*Y103280D01*
X89753D01*
Y105480D01*
X85353D01*
G37*
G36*
X52121Y91394D02*Y85676D01*
X58625D01*
Y91394D01*
X52121D01*
G37*
G36*
Y98480D02*Y92762D01*
X58625D01*
Y98480D01*
X52121D01*
G37*
G36*
X77142Y93882D02*Y91314D01*
X80496D01*
Y93882D01*
X77142D01*
G37*
G36*
Y97030D02*Y94462D01*
X80496D01*
Y97030D01*
X77142D01*
G37*
G36*
X61984Y115144D02*Y112576D01*
X65338D01*
Y115144D01*
X61984D01*
G37*
G36*
Y118292D02*Y115724D01*
X65338D01*
Y118292D01*
X61984D01*
G37*
G36*
X53835Y118252D02*Y115684D01*
X57189D01*
Y118252D01*
X53835D01*
G37*
G36*
Y115104D02*Y112536D01*
X57189D01*
Y115104D01*
X53835D01*
G37*
G36*
X58008Y115064D02*Y112496D01*
X61362D01*
Y115064D01*
X58008D01*
G37*
G36*
Y118212D02*Y115644D01*
X61362D01*
Y118212D01*
X58008D01*
G37*
G36*
X66945Y118213D02*Y115645D01*
X70299D01*
Y118213D01*
X66945D01*
G37*
G36*
Y115065D02*Y112497D01*
X70299D01*
Y115065D01*
X66945D01*
G37*
G36*
X68346Y104606D02*X67952D01*
Y100276D01*
X68346D01*
Y104606D01*
G37*
G36*
X65590Y105000D02*X65196D01*
Y103425D01*
X65590D01*
Y105000D01*
G37*
G36*
X62047Y104606D02*X61653D01*
Y100276D01*
X62047D01*
Y104606D01*
G37*
G36*
X64803Y101457D02*X64409D01*
Y99882D01*
X64803D01*
Y101457D01*
G37*
G36*
X85353Y120880D02*Y118680D01*
X89753D01*
Y120880D01*
X85353D01*
G37*
G36*
Y118280D02*Y116080D01*
X89753D01*
Y118280D01*
X85353D01*
G37*
G36*
Y115780D02*Y113580D01*
X89753D01*
Y115780D01*
X85353D01*
G37*
G36*
Y113180D02*Y110980D01*
X89753D01*
Y113180D01*
X85353D01*
G37*
G54D60*X86453Y127480D02*X88653D01*
G54D55*G36*
X85353Y125980D02*Y123780D01*
X89753D01*
Y125980D01*
X85353D01*
G37*
G36*
Y123480D02*Y121280D01*
X89753D01*
Y123480D01*
X85353D01*
G37*
G36*
Y110680D02*Y108480D01*
X89753D01*
Y110680D01*
X85353D01*
G37*
G36*
Y108080D02*Y105880D01*
X89753D01*
Y108080D01*
X85353D01*
G37*
G36*
X76955Y134472D02*X74387D01*
Y131118D01*
X76955D01*
Y134472D01*
G37*
G36*
X77229Y124551D02*X74661D01*
Y121197D01*
X77229D01*
Y124551D01*
G37*
G36*
X77032Y129472D02*X74464D01*
Y126118D01*
X77032D01*
Y129472D01*
G37*
G36*
X80103Y134472D02*X77535D01*
Y131118D01*
X80103D01*
Y134472D01*
G37*
G36*
X80377Y124551D02*X77809D01*
Y121197D01*
X80377D01*
Y124551D01*
G37*
G36*
X80180Y129472D02*X77612D01*
Y126118D01*
X80180D01*
Y129472D01*
G37*
G36*
X85353Y102980D02*Y100780D01*
X89753D01*
Y102980D01*
X85353D01*
G37*
G36*
Y100380D02*Y98180D01*
X89753D01*
Y100380D01*
X85353D01*
G37*
G36*
Y97880D02*Y95680D01*
X89753D01*
Y97880D01*
X85353D01*
G37*
G36*
Y95280D02*Y93080D01*
X89753D01*
Y95280D01*
X85353D01*
G37*
G36*
X75057Y56361D02*Y50643D01*
X81561D01*
Y56361D01*
X75057D01*
G37*
G36*
Y49275D02*Y43557D01*
X81561D01*
Y49275D01*
X75057D01*
G37*
G36*
X74434Y69433D02*X71866D01*
Y66079D01*
X74434D01*
Y69433D01*
G37*
G36*
X77582D02*X75014D01*
Y66079D01*
X77582D01*
Y69433D01*
G37*
G36*
X58757Y55338D02*Y52338D01*
X63357D01*
Y55338D01*
X58757D01*
G37*
G36*
Y47538D02*Y44538D01*
X63357D01*
Y47538D01*
X58757D01*
G37*
G36*
X66957D02*Y44538D01*
X71557D01*
Y47538D01*
X66957D01*
G37*
G36*
Y51438D02*Y48438D01*
X71557D01*
Y51438D01*
X66957D01*
G37*
G36*
Y55338D02*Y52338D01*
X71557D01*
Y55338D01*
X66957D01*
G37*
G36*
X76304Y31796D02*X72752D01*
Y27260D01*
X76304D01*
Y31796D01*
G37*
G36*
X71186D02*X67634D01*
Y27260D01*
X71186D01*
Y31796D01*
G37*
G36*
X61127Y31441D02*X58559D01*
Y28087D01*
X61127D01*
Y31441D01*
G37*
G36*
X64275D02*X61707D01*
Y28087D01*
X64275D01*
Y31441D01*
G37*
G36*
X85754Y24887D02*X83380D01*
Y18970D01*
X85754D01*
Y24887D01*
G37*
G36*
X88313D02*X85939D01*
Y18970D01*
X88313D01*
Y24887D01*
G37*
G36*
X90872D02*X88498D01*
Y18970D01*
X90872D01*
Y24887D01*
G37*
G36*
X93431D02*X91057D01*
Y18970D01*
X93431D01*
Y24887D01*
G37*
G36*
X95990D02*X93616D01*
Y18970D01*
X95990D01*
Y24887D01*
G37*
G36*
X114453Y95180D02*Y92980D01*
X118853D01*
Y95180D01*
X114453D01*
G37*
G36*
Y97780D02*Y95580D01*
X118853D01*
Y97780D01*
X114453D01*
G37*
G36*
Y100280D02*Y98080D01*
X118853D01*
Y100280D01*
X114453D01*
G37*
G36*
Y102880D02*Y100680D01*
X118853D01*
Y102880D01*
X114453D01*
G37*
G36*
Y105480D02*Y103280D01*
X118853D01*
Y105480D01*
X114453D01*
G37*
G36*
Y107980D02*Y105780D01*
X118853D01*
Y107980D01*
X114453D01*
G37*
G36*
Y110580D02*Y108380D01*
X118853D01*
Y110580D01*
X114453D01*
G37*
G36*
Y113080D02*Y110880D01*
X118853D01*
Y113080D01*
X114453D01*
G37*
G36*
X125949Y109040D02*X122397D01*
Y104504D01*
X125949D01*
Y109040D01*
G37*
G36*
X131067D02*X127515D01*
Y104504D01*
X131067D01*
Y109040D01*
G37*
G36*
X144196Y60142D02*X141628D01*
Y56788D01*
X144196D01*
Y60142D01*
G37*
G36*
X141048D02*X138480D01*
Y56788D01*
X141048D01*
Y60142D01*
G37*
G36*
X154435Y60299D02*X151867D01*
Y56945D01*
X154435D01*
Y60299D01*
G37*
G36*
X157583D02*X155015D01*
Y56945D01*
X157583D01*
Y60299D01*
G37*
G36*
X114453Y115680D02*Y113480D01*
X118853D01*
Y115680D01*
X114453D01*
G37*
G36*
Y118280D02*Y116080D01*
X118853D01*
Y118280D01*
X114453D01*
G37*
G36*
Y120780D02*Y118580D01*
X118853D01*
Y120780D01*
X114453D01*
G37*
G36*
Y123380D02*Y121180D01*
X118853D01*
Y123380D01*
X114453D01*
G37*
G36*
Y125880D02*Y123680D01*
X118853D01*
Y125880D01*
X114453D01*
G37*
G36*
Y128480D02*Y126280D01*
X118853D01*
Y128480D01*
X114453D01*
G37*
G36*
X127818Y129630D02*X125250D01*
Y126276D01*
X127818D01*
Y129630D01*
G37*
G36*
X124670D02*X122102D01*
Y126276D01*
X124670D01*
Y129630D01*
G37*
G36*
X143210Y133488D02*X140642D01*
Y130134D01*
X143210D01*
Y133488D01*
G37*
G36*
X140062D02*X137494D01*
Y130134D01*
X140062D01*
Y133488D01*
G37*
G36*
X140065Y128646D02*X137497D01*
Y125292D01*
X140065D01*
Y128646D01*
G37*
G36*
X143213D02*X140645D01*
Y125292D01*
X143213D01*
Y128646D01*
G37*
G36*
X113402Y39238D02*Y36670D01*
X116756D01*
Y39238D01*
X113402D01*
G37*
G36*
Y42386D02*Y39818D01*
X116756D01*
Y42386D01*
X113402D01*
G37*
G36*
X112969Y47033D02*Y44465D01*
X116323D01*
Y47033D01*
X112969D01*
G37*
G36*
X118676Y46758D02*Y45368D01*
X120951D01*
Y46758D01*
X118676D01*
G37*
G36*
X112969Y50181D02*Y47613D01*
X116323D01*
Y50181D01*
X112969D01*
G37*
G36*
X130695Y49513D02*X129305D01*
Y47238D01*
X130695D01*
Y49513D01*
G37*
G36*
X129218Y49611D02*X127631D01*
Y46450D01*
X129218D01*
Y49611D01*
G37*
G36*
X127643D02*X126056D01*
Y46450D01*
X127643D01*
Y49611D01*
G37*
G36*
X126069D02*X124482D01*
Y46450D01*
X126069D01*
Y49611D01*
G37*
G36*
X124494D02*X122907D01*
Y46450D01*
X124494D01*
Y49611D01*
G37*
G36*
X122821Y49513D02*X121431D01*
Y47238D01*
X122821D01*
Y49513D01*
G37*
G36*
X118577Y45281D02*Y43694D01*
X121738D01*
Y45281D01*
X118577D01*
G37*
G36*
Y43706D02*Y42119D01*
X121738D01*
Y43706D01*
X118577D01*
G37*
G36*
Y42132D02*Y40545D01*
X121738D01*
Y42132D01*
X118577D01*
G37*
G36*
Y40557D02*Y38970D01*
X121738D01*
Y40557D01*
X118577D01*
G37*
G36*
X118676Y38884D02*Y37494D01*
X120951D01*
Y38884D01*
X118676D01*
G37*
G36*
X126755Y32228D02*X124187D01*
Y28874D01*
X126755D01*
Y32228D01*
G37*
G36*
X123607D02*X121039D01*
Y28874D01*
X123607D01*
Y32228D01*
G37*
G36*
X122821Y37014D02*X121431D01*
Y34739D01*
X122821D01*
Y37014D01*
G37*
G36*
X124494Y37801D02*X122907D01*
Y34640D01*
X124494D01*
Y37801D01*
G37*
G36*
X126069D02*X124482D01*
Y34640D01*
X126069D01*
Y37801D01*
G37*
G36*
X127643D02*X126056D01*
Y34640D01*
X127643D01*
Y37801D01*
G37*
G36*
X129218D02*X127631D01*
Y34640D01*
X129218D01*
Y37801D01*
G37*
G36*
X130695Y37014D02*X129305D01*
Y34739D01*
X130695D01*
Y37014D01*
G37*
G36*
X131175Y38884D02*Y37494D01*
X133450D01*
Y38884D01*
X131175D01*
G37*
G36*
X130387Y40557D02*Y38970D01*
X133548D01*
Y40557D01*
X130387D01*
G37*
G36*
Y42132D02*Y40545D01*
X133548D01*
Y42132D01*
X130387D01*
G37*
G36*
Y43706D02*Y42119D01*
X133548D01*
Y43706D01*
X130387D01*
G37*
G36*
Y45281D02*Y43694D01*
X133548D01*
Y45281D01*
X130387D01*
G37*
G36*
X131175Y46758D02*Y45368D01*
X133450D01*
Y46758D01*
X131175D01*
G37*
M02*
