G04 start of page 10 for group -4015 idx -4015 *
G04 Title: SAP, toppaste *
G04 Creator: pcb 4.0.2 *
G04 CreationDate: Tue Jun 12 19:10:11 2018 UTC *
G04 For: phil *
G04 Format: Gerber/RS-274X *
G04 PCB-Dimensions (mil): 1811.02 1574.80 *
G04 PCB-Coordinate-Origin: lower left *
%MOIN*%
%FSLAX25Y25*%
%LNTOPPASTE*%
%ADD58C,0.0160*%
%ADD57C,0.0001*%
G54D57*G36*
X26901Y126142D02*Y122205D01*
X41075D01*
Y126142D01*
X26901D01*
G37*
G36*
Y118268D02*Y114331D01*
X41075D01*
Y118268D01*
X26901D01*
G37*
G36*
X1177Y137558D02*Y129684D01*
X10626D01*
Y137558D01*
X1177D01*
G37*
G36*
Y110788D02*Y102914D01*
X10626D01*
Y110788D01*
X1177D01*
G37*
G36*
X90514Y31935D02*X89014D01*
Y25936D01*
X90514D01*
Y31935D01*
G37*
G36*
X87955D02*X86455D01*
Y25936D01*
X87955D01*
Y31935D01*
G37*
G36*
X93073D02*X91573D01*
Y25936D01*
X93073D01*
Y31935D01*
G37*
G36*
X95632D02*X94132D01*
Y25936D01*
X95632D01*
Y31935D01*
G37*
G36*
X85396D02*X83896D01*
Y25936D01*
X85396D01*
Y31935D01*
G37*
G36*
X73229Y30989D02*Y25489D01*
X79528D01*
Y30989D01*
X73229D01*
G37*
G36*
X100000D02*Y25489D01*
X106299D01*
Y30989D01*
X100000D01*
G37*
G36*
X82874Y19094D02*Y13189D01*
X88779D01*
Y19094D01*
X82874D01*
G37*
G36*
X90748D02*Y13189D01*
X96653D01*
Y19094D01*
X90748D01*
G37*
G36*
X132520Y39527D02*X131733D01*
Y37559D01*
X132520D01*
Y39527D01*
G37*
G36*
X130945D02*X130158D01*
Y37559D01*
X130945D01*
Y39527D01*
G37*
G36*
X129370D02*X128583D01*
Y37559D01*
X129370D01*
Y39527D01*
G37*
G36*
X127796D02*X127009D01*
Y37559D01*
X127796D01*
Y39527D01*
G37*
G36*
X126221D02*X125434D01*
Y37559D01*
X126221D01*
Y39527D01*
G37*
G36*
X124646D02*X123859D01*
Y37559D01*
X124646D01*
Y39527D01*
G37*
G36*
Y27322D02*X123859D01*
Y25354D01*
X124646D01*
Y27322D01*
G37*
G36*
X126221D02*X125434D01*
Y25354D01*
X126221D01*
Y27322D01*
G37*
G36*
X127796D02*X127009D01*
Y25354D01*
X127796D01*
Y27322D01*
G37*
G36*
X129370D02*X128583D01*
Y25354D01*
X129370D01*
Y27322D01*
G37*
G36*
X130945D02*X130158D01*
Y25354D01*
X130945D01*
Y27322D01*
G37*
G36*
X132520D02*X131733D01*
Y25354D01*
X132520D01*
Y27322D01*
G37*
G36*
X121103Y36771D02*Y35984D01*
X123071D01*
Y36771D01*
X121103D01*
G37*
G36*
Y35196D02*Y34409D01*
X123071D01*
Y35196D01*
X121103D01*
G37*
G36*
Y33621D02*Y32834D01*
X123071D01*
Y33621D01*
X121103D01*
G37*
G36*
Y32047D02*Y31260D01*
X123071D01*
Y32047D01*
X121103D01*
G37*
G36*
Y30472D02*Y29685D01*
X123071D01*
Y30472D01*
X121103D01*
G37*
G36*
Y28897D02*Y28110D01*
X123071D01*
Y28897D01*
X121103D01*
G37*
G36*
X133308D02*Y28110D01*
X135276D01*
Y28897D01*
X133308D01*
G37*
G36*
Y30472D02*Y29685D01*
X135276D01*
Y30472D01*
X133308D01*
G37*
G36*
Y32047D02*Y31260D01*
X135276D01*
Y32047D01*
X133308D01*
G37*
G36*
Y33621D02*Y32834D01*
X135276D01*
Y33621D01*
X133308D01*
G37*
G36*
Y35196D02*Y34409D01*
X135276D01*
Y35196D01*
X133308D01*
G37*
G36*
Y36771D02*Y35984D01*
X135276D01*
Y36771D01*
X133308D01*
G37*
G36*
X132873Y22243D02*X130905D01*
Y19489D01*
X132873D01*
Y22243D01*
G37*
G36*
X129725D02*X127757D01*
Y19489D01*
X129725D01*
Y22243D01*
G37*
G36*
X122638Y22637D02*X120670D01*
Y19883D01*
X122638D01*
Y22637D01*
G37*
G36*
X125786D02*X123818D01*
Y19883D01*
X125786D01*
Y22637D01*
G37*
G36*
X138780Y26182D02*Y24214D01*
X141534D01*
Y26182D01*
X138780D01*
G37*
G36*
Y29330D02*Y27362D01*
X141534D01*
Y29330D01*
X138780D01*
G37*
G54D58*X86453Y127480D02*X88653D01*
G54D57*G36*
X85653Y125680D02*Y124080D01*
X89453D01*
Y125680D01*
X85653D01*
G37*
G36*
Y123180D02*Y121580D01*
X89453D01*
Y123180D01*
X85653D01*
G37*
G36*
Y120580D02*Y118980D01*
X89453D01*
Y120580D01*
X85653D01*
G37*
G36*
Y117980D02*Y116380D01*
X89453D01*
Y117980D01*
X85653D01*
G37*
G36*
Y115480D02*Y113880D01*
X89453D01*
Y115480D01*
X85653D01*
G37*
G36*
Y112880D02*Y111280D01*
X89453D01*
Y112880D01*
X85653D01*
G37*
G36*
Y110380D02*Y108780D01*
X89453D01*
Y110380D01*
X85653D01*
G37*
G36*
Y107780D02*Y106180D01*
X89453D01*
Y107780D01*
X85653D01*
G37*
G36*
Y105180D02*Y103580D01*
X89453D01*
Y105180D01*
X85653D01*
G37*
G36*
Y102680D02*Y101080D01*
X89453D01*
Y102680D01*
X85653D01*
G37*
G36*
Y100080D02*Y98480D01*
X89453D01*
Y100080D01*
X85653D01*
G37*
G36*
Y97580D02*Y95980D01*
X89453D01*
Y97580D01*
X85653D01*
G37*
G36*
Y94980D02*Y93380D01*
X89453D01*
Y94980D01*
X85653D01*
G37*
G36*
X114753Y94880D02*Y93280D01*
X118553D01*
Y94880D01*
X114753D01*
G37*
G36*
Y97480D02*Y95880D01*
X118553D01*
Y97480D01*
X114753D01*
G37*
G36*
Y99980D02*Y98380D01*
X118553D01*
Y99980D01*
X114753D01*
G37*
G36*
Y102580D02*Y100980D01*
X118553D01*
Y102580D01*
X114753D01*
G37*
G36*
Y105180D02*Y103580D01*
X118553D01*
Y105180D01*
X114753D01*
G37*
G36*
Y107680D02*Y106080D01*
X118553D01*
Y107680D01*
X114753D01*
G37*
G36*
Y110280D02*Y108680D01*
X118553D01*
Y110280D01*
X114753D01*
G37*
G36*
Y112780D02*Y111180D01*
X118553D01*
Y112780D01*
X114753D01*
G37*
G36*
Y115380D02*Y113780D01*
X118553D01*
Y115380D01*
X114753D01*
G37*
G36*
Y117980D02*Y116380D01*
X118553D01*
Y117980D01*
X114753D01*
G37*
G36*
Y120480D02*Y118880D01*
X118553D01*
Y120480D01*
X114753D01*
G37*
G36*
Y123080D02*Y121480D01*
X118553D01*
Y123080D01*
X114753D01*
G37*
G36*
Y125580D02*Y123980D01*
X118553D01*
Y125580D01*
X114753D01*
G37*
G36*
Y128180D02*Y126580D01*
X118553D01*
Y128180D01*
X114753D01*
G37*
G36*
X86419Y139960D02*X84451D01*
Y137206D01*
X86419D01*
Y139960D01*
G37*
G36*
X83271D02*X81303D01*
Y137206D01*
X83271D01*
Y139960D01*
G37*
G36*
X77363Y128542D02*X75395D01*
Y125788D01*
X77363D01*
Y128542D01*
G37*
G36*
X80511D02*X78543D01*
Y125788D01*
X80511D01*
Y128542D01*
G37*
G36*
X86494Y134842D02*X84526D01*
Y132088D01*
X86494D01*
Y134842D01*
G37*
G36*
X83346D02*X81378D01*
Y132088D01*
X83346D01*
Y134842D01*
G37*
G36*
X60827Y115944D02*X58859D01*
Y113190D01*
X60827D01*
Y115944D01*
G37*
G36*
X63975D02*X62007D01*
Y113190D01*
X63975D01*
Y115944D01*
G37*
G36*
X76969Y116416D02*X75001D01*
Y113662D01*
X76969D01*
Y116416D01*
G37*
G36*
X80117D02*X78149D01*
Y113662D01*
X80117D01*
Y116416D01*
G37*
G36*
X80038Y112399D02*X78070D01*
Y109645D01*
X80038D01*
Y112399D01*
G37*
G36*
X76890D02*X74922D01*
Y109645D01*
X76890D01*
Y112399D01*
G37*
G36*
X124449Y108070D02*X122481D01*
Y105316D01*
X124449D01*
Y108070D01*
G37*
G36*
X127597D02*X125629D01*
Y105316D01*
X127597D01*
Y108070D01*
G37*
G36*
X78544Y100197D02*Y98229D01*
X81298D01*
Y100197D01*
X78544D01*
G37*
G36*
Y103345D02*Y101377D01*
X81298D01*
Y103345D01*
X78544D01*
G37*
G36*
X127755Y128936D02*X125787D01*
Y126182D01*
X127755D01*
Y128936D01*
G37*
G36*
X124607D02*X122639D01*
Y126182D01*
X124607D01*
Y128936D01*
G37*
G36*
X17047Y25708D02*X11929D01*
Y19804D01*
X17047D01*
Y25708D01*
G37*
G36*
X24133D02*X19015D01*
Y19804D01*
X24133D01*
Y25708D01*
G37*
G36*
X24211Y51377D02*X19093D01*
Y45473D01*
X24211D01*
Y51377D01*
G37*
G36*
X17125D02*X12007D01*
Y45473D01*
X17125D01*
Y51377D01*
G37*
G36*
X15369Y33339D02*X12969D01*
Y29339D01*
X15369D01*
Y33339D01*
G37*
G36*
X23169D02*X20769D01*
Y29339D01*
X23169D01*
Y33339D01*
G37*
G36*
Y41539D02*X20769D01*
Y37539D01*
X23169D01*
Y41539D01*
G37*
G36*
X19269D02*X16869D01*
Y37539D01*
X19269D01*
Y41539D01*
G37*
G36*
X15369D02*X12969D01*
Y37539D01*
X15369D01*
Y41539D01*
G37*
G36*
X10276Y90355D02*Y85237D01*
X16180D01*
Y90355D01*
X10276D01*
G37*
G36*
Y97441D02*Y92323D01*
X16180D01*
Y97441D01*
X10276D01*
G37*
G36*
X20867Y88583D02*X19686D01*
Y85827D01*
X20867D01*
Y88583D01*
G37*
G36*
X22835D02*X21654D01*
Y85827D01*
X22835D01*
Y88583D01*
G37*
G36*
X24803D02*X23622D01*
Y85827D01*
X24803D01*
Y88583D01*
G37*
G36*
X26771D02*X25590D01*
Y85827D01*
X26771D01*
Y88583D01*
G37*
G36*
Y96850D02*X25590D01*
Y94094D01*
X26771D01*
Y96850D01*
G37*
G36*
X24803D02*X23622D01*
Y94094D01*
X24803D01*
Y96850D01*
G37*
G36*
X22835D02*X21654D01*
Y94094D01*
X22835D01*
Y96850D01*
G37*
G36*
X20867D02*X19686D01*
Y94094D01*
X20867D01*
Y96850D01*
G37*
G36*
X19705Y93189D02*Y89489D01*
X26751D01*
Y93189D01*
X19705D01*
G37*
G36*
X20276Y83503D02*X15158D01*
Y77599D01*
X20276D01*
Y83503D01*
G37*
G36*
X27362D02*X22244D01*
Y77599D01*
X27362D01*
Y83503D01*
G37*
G36*
X62967Y53144D02*Y47644D01*
X72467D01*
Y53144D01*
X62967D01*
G37*
G36*
X65355Y46260D02*X64174D01*
Y43398D01*
X65355D01*
Y46260D01*
G37*
G36*
X67323D02*X66142D01*
Y43398D01*
X67323D01*
Y46260D01*
G37*
G36*
X69291D02*X68110D01*
Y43398D01*
X69291D01*
Y46260D01*
G37*
G36*
X71259D02*X70078D01*
Y43398D01*
X71259D01*
Y46260D01*
G37*
G36*
Y57389D02*X70078D01*
Y54527D01*
X71259D01*
Y57389D01*
G37*
G36*
X69291D02*X68110D01*
Y54527D01*
X69291D01*
Y57389D01*
G37*
G36*
X67323D02*X66142D01*
Y54527D01*
X67323D01*
Y57389D01*
G37*
G36*
X65355D02*X64174D01*
Y54527D01*
X65355D01*
Y57389D01*
G37*
G36*
X75867Y52796D02*Y47678D01*
X81771D01*
Y52796D01*
X75867D01*
G37*
G36*
Y45710D02*Y40592D01*
X81771D01*
Y45710D01*
X75867D01*
G37*
G36*
X62382Y38425D02*X59430D01*
Y34489D01*
X62382D01*
Y38425D01*
G37*
G36*
X67500D02*X64548D01*
Y34489D01*
X67500D01*
Y38425D01*
G37*
M02*
