G04 start of page 2 for group 0 idx 0 *
G04 Title: SAP, top power *
G04 Creator: pcb 4.0.2 *
G04 CreationDate: Sat Jan 19 10:52:36 2019 UTC *
G04 For: phil *
G04 Format: Gerber/RS-274X *
G04 PCB-Dimensions (mil): 1811.02 1574.80 *
G04 PCB-Coordinate-Origin: lower left *
%MOIN*%
%FSLAX25Y25*%
%LNGTL*%
%ADD24C,0.0433*%
%ADD23C,0.0433*%
%ADD22C,0.1181*%
%ADD21C,0.0380*%
%ADD20C,0.0350*%
%ADD19C,0.0276*%
%ADD18C,0.0512*%
%ADD17C,0.0160*%
%ADD16C,0.0591*%
%ADD15C,0.0600*%
%ADD14C,0.0001*%
%ADD13C,0.0250*%
%ADD12C,0.0071*%
%ADD11C,0.0100*%
G54D11*X105512Y51181D02*X89764Y35433D01*
X87008Y36614D02*X113386Y62992D01*
X114173Y59843D02*X105394Y51063D01*
X87205Y31185D02*X87008Y31382D01*
Y36614D01*
X89764Y35433D02*Y28936D01*
X64508Y29528D02*X69409D01*
X64567D02*X63110D01*
X87126Y23543D02*X87008Y23661D01*
Y32087D01*
X89685Y23543D02*X89764Y23622D01*
Y30512D01*
X94803Y23543D02*X94882Y23622D01*
X68457Y53838D02*X68622Y54003D01*
Y60000D01*
X61929Y66693D01*
X91339Y116142D02*Y91732D01*
X94094Y88976D02*Y116535D01*
X81463Y112080D02*X87553D01*
X80838Y99280D02*X87553D01*
Y91923D02*Y94180D01*
X15866Y49291D02*X26102D01*
X13893Y51265D02*X15866Y49291D01*
X13893Y54591D02*Y51265D01*
X26102Y49291D02*X38780Y61969D01*
X47559D01*
X47520D02*X47559Y62008D01*
X56614D01*
X55119Y113663D02*X55236Y113780D01*
X59685D01*
X59292Y116928D02*X59293Y116929D01*
X68622D01*
X68661Y116890D01*
X76654D01*
X61850Y104409D02*Y102441D01*
X61732Y102323D01*
X57441D01*
X91339Y91732D02*X88976Y89370D01*
X88898D01*
X89606Y80079D02*Y84488D01*
X94094Y88976D01*
X79606Y80079D02*Y70906D01*
X76457Y67756D01*
X76654Y116890D02*X81463Y112080D01*
X73425Y102283D02*X77835D01*
X80838Y99280D01*
X73150Y68149D02*X69606Y71693D01*
Y80079D01*
X61929Y66693D02*Y79409D01*
X67953Y85433D01*
X79291Y62126D02*X89626Y72461D01*
X88898Y89370D02*X79606Y80079D01*
X67953Y85433D02*X81063D01*
X87553Y91923D01*
X103150Y96535D02*X119606Y80079D01*
X119685Y88976D02*X115354D01*
X111811Y92520D01*
Y95276D01*
X124803Y72441D02*X127559Y75197D01*
Y81102D01*
X119685Y88976D01*
X113386Y62992D02*X123228D01*
X125827Y59843D02*X114173D01*
X89626Y72461D02*X124823D01*
X123150Y62992D02*X133386Y73228D01*
X137677Y71693D02*X125827Y59843D01*
X103150Y113386D02*Y96535D01*
X116653Y104380D02*X112943D01*
X109843Y107480D01*
X113216Y96680D02*X116653D01*
X115553Y101780D02*X115758Y101575D01*
X115553Y111980D02*X115565Y111969D01*
X111811Y95276D02*X113216Y96680D01*
X115758Y101575D02*X127165D01*
X115553Y99180D02*X121686D01*
X125197Y95669D01*
X109843Y107480D02*Y119685D01*
X103150Y118110D02*Y112992D01*
X122874Y111654D02*X120701Y109480D01*
X119252Y111969D02*X121969Y114685D01*
X120701Y109480D02*X116653D01*
X115565Y111969D02*X119252D01*
X125197Y95669D02*X127953Y95433D01*
G54D12*X115276Y41300D02*X120984D01*
X115276D02*X115079Y41102D01*
G54D11*X134409Y111654D02*X122874D01*
X133386Y73228D02*Y101457D01*
X137677Y101693D02*Y71693D01*
X133386Y101457D02*X135236Y103307D01*
Y103349D01*
X136065D01*
X137953Y105236D01*
Y108110D01*
X141142Y105118D02*X137677Y101654D01*
X137953Y108110D02*X134409Y111654D01*
X135827Y114685D02*X141142Y109370D01*
Y105118D01*
X121969Y114685D02*X135827D01*
G54D12*X135472Y46142D02*X135354Y46024D01*
X132008D02*X135354D01*
G54D11*X135472Y46142D02*X142912Y53581D01*
X145709Y61261D02*Y69724D01*
X153151Y72282D02*X145709Y79724D01*
G54D12*X131220Y44448D02*Y44449D01*
X136417D01*
G54D11*X138701D01*
X142912Y53581D02*Y58465D01*
X145709Y61261D01*
X138701Y44449D02*X152874Y58622D01*
X153151D01*
Y58229D02*Y72282D01*
X87553Y117180D02*X90300D01*
X91339Y116142D01*
X90945Y119685D02*X88189D01*
X87795Y127480D02*X89055D01*
X86531Y127559D02*X93701D01*
X86531D02*X86256Y127283D01*
X83701D01*
X81732Y125315D01*
X78819Y131873D02*X75748Y128802D01*
X62913Y130591D02*X69961Y137638D01*
X78425D01*
X75748Y128802D02*Y127795D01*
X75945Y127598D01*
Y122874D01*
X81732Y125315D02*Y124843D01*
X79764Y122874D01*
X79093D01*
X108583Y134528D02*X120669D01*
X107756Y145354D02*X115945Y137165D01*
X120669Y134528D02*X123386Y131811D01*
X138778D01*
X115945Y137165D02*X143228D01*
X147874Y132520D01*
X141926Y132204D02*X141929Y132201D01*
Y126969D01*
Y132201D02*Y127283D01*
Y124882D02*X139328Y122280D01*
X116653D01*
X141929Y126576D03*
Y124882D01*
X147874Y132520D02*Y125079D01*
X142476Y119680D01*
X116653D01*
X94094Y116535D02*X90945Y119685D01*
X93701Y127559D02*X103150Y118110D01*
X109843Y119606D02*X91811Y137638D01*
X97756Y145354D02*X108583Y134528D01*
X91811Y137638D02*X78346D01*
X78819Y133188D02*Y131873D01*
X116653Y124780D02*X124780D01*
X124803Y124803D01*
X125984D01*
X126772Y125591D01*
Y126378D01*
X132638Y127677D02*X132323Y127992D01*
X127323D01*
X126534Y128346D02*X126654Y128226D01*
Y125472D01*
X138781Y127361D02*X138465Y127677D01*
X132638D01*
X75671Y133188D02*X69018Y126535D01*
X69076Y126593D02*X66853Y124370D01*
X54882D01*
X52913Y126339D01*
Y130591D01*
G54D13*X47244Y109291D02*X76102D01*
G54D11*X63269Y113860D02*X63622Y113506D01*
Y109528D01*
X68229Y113781D02*X68780Y113231D01*
Y109528D01*
X77598D02*X77651Y109580D01*
X87553D01*
X78819D02*X78530Y109291D01*
X76181D01*
X65393Y104803D02*X65472Y104882D01*
X78426Y92598D02*X75788Y89961D01*
X74016D01*
X65472Y104882D02*Y109528D01*
X129291Y107264D02*X129783Y106772D01*
X133661D01*
G54D12*X120984Y39725D02*Y39724D01*
Y39725D02*X120945Y39764D01*
X118543D02*X120945D01*
X118543D02*X117480Y38701D01*
X117441D02*X117480D01*
G54D11*X117441D02*X116024Y37283D01*
Y33346D01*
X115039Y45750D02*X114998Y45709D01*
X113031D02*X114998D01*
X113031D02*X111220Y43898D01*
Y37992D01*
X115866Y33346D01*
G54D12*X117953Y42873D02*X120984D01*
X117953D02*X117441Y43386D01*
X111220D02*X117441D01*
X132008Y39725D02*X132794D01*
X132008D02*X132716D01*
X135276Y37165D02*X135197Y37087D01*
G54D11*X135394Y38307D02*Y35157D01*
G54D12*X135197Y37087D02*Y34213D01*
X133740Y32756D01*
X130039Y36181D02*Y34055D01*
G54D11*X135394Y35157D02*X134291Y34055D01*
G54D12*X131339Y32756D02*X133740D01*
X131339D02*X130039Y34055D01*
G54D11*X125471Y30944D02*X133306D01*
X135157Y32795D01*
G54D12*X132755Y39764D02*Y39764D01*
X134646D01*
X135394Y39016D01*
Y38307D01*
G54D11*X94882Y28936D02*Y34252D01*
D03*
X94803Y23543D02*X94882Y23622D01*
Y34528D01*
G54D13*X68457Y49938D02*X72497D01*
X76061Y53502D01*
X77916D02*X77874Y53544D01*
G54D11*X78426Y92598D02*X77914Y92087D01*
G54D13*X78702Y53502D02*X78743Y53543D01*
X86693D01*
X76061Y53502D02*X78309D01*
X14643Y59528D02*Y62677D01*
X17793Y56378D02*X14643Y59528D01*
X17793Y53790D02*Y56378D01*
X17795Y29882D02*X52480D01*
G54D11*X58602D02*X52480D01*
G54D13*X52600Y38706D02*X52362Y38469D01*
Y29882D01*
G54D11*X58150D02*X59370D01*
G54D13*X11614Y37008D02*X14213D01*
X7205Y41417D02*X11614Y37008D01*
X14213Y37400D02*X14055Y37243D01*
Y33622D01*
X7205Y61496D02*Y41417D01*
X8386Y62677D02*X7205Y61496D01*
X14291Y62677D02*X8386D01*
X14055Y33622D02*X17795Y29882D01*
X28544Y84646D02*X31615Y81575D01*
X42441D01*
X46452Y85586D01*
Y87877D01*
X47110Y88535D01*
X55373D01*
X25544Y112300D02*X25600Y112244D01*
X38858D01*
X41811Y109291D01*
X47205D01*
G54D11*X116653Y106880D02*X123277D01*
X123465Y106693D01*
X112598Y116142D02*X114173Y114567D01*
X116535D01*
X124803Y68898D02*X129921Y74016D01*
Y83858D02*Y74016D01*
Y83858D02*X119699Y94080D01*
X116653D01*
X113642Y127421D02*X113683Y127380D01*
X117265Y127992D02*X122205D01*
X115553Y127380D02*X110728Y132205D01*
X103898D01*
X113601Y127380D02*X112598Y126378D01*
Y116142D01*
X113683Y127380D02*X116653D01*
X117265Y127992D01*
X123386Y128346D02*X123032Y127992D01*
X121693D01*
X115354Y68898D02*X124803D01*
G54D12*X120984Y44448D02*X120945Y44488D01*
X118346D02*X120945D01*
X118346D02*X117677Y45157D01*
Y48071D02*Y45157D01*
G54D11*Y48071D02*X112953Y52795D01*
G54D12*X122165Y36280D02*X122205Y36240D01*
Y33622D01*
G54D11*Y26142D01*
G54D13*X118346Y21535D02*X118780Y21969D01*
Y26102D01*
X112559Y26142D02*X106969Y31732D01*
G54D11*X115354Y68898D02*X84646Y38189D01*
G54D13*X106969Y31732D02*Y46339D01*
X113091Y52461D01*
X113287D01*
X113130Y52500D02*X113583Y52953D01*
G54D11*X87553Y96780D02*X82354D01*
G54D13*X74252Y96102D02*X74646Y96496D01*
X81063D01*
G54D11*X86453Y96780D02*X86169Y96496D01*
X81260D01*
X88976Y133465D02*X88543Y133031D01*
X88976Y133465D02*X88110Y132598D01*
X84055D01*
X79252Y127795D01*
X78896D01*
X156299Y59015D02*Y83583D01*
X151063Y88819D01*
X145709Y89724D02*X139764Y83780D01*
Y58465D01*
X145709Y89724D02*X146791Y88642D01*
X151240D01*
G54D12*X132794Y42873D02*X133513D01*
X133465D02*X133465Y42874D01*
X135118D01*
G54D13*X135197Y26102D02*Y27126D01*
X140551Y32480D01*
Y37244D01*
X135197Y26024D02*X112677D01*
G54D12*X135118Y42874D02*X136614Y41378D01*
X136654D01*
G54D11*X140551Y37323D02*X136299Y41575D01*
Y41693D01*
G54D12*X130039Y50079D02*Y47992D01*
G54D11*Y50079D02*Y50748D01*
X127638Y53150D01*
X127598D01*
G54D13*X127579Y53169D01*
X113799D01*
X83465Y33465D02*X77559Y39370D01*
G54D11*X84646Y31185D02*Y38189D01*
X74528Y30020D02*X80551Y36043D01*
X80886D01*
G54D13*X68457Y46039D02*X68835Y46416D01*
X53169Y46039D02*X61057D01*
X52756Y46452D02*X43194D01*
X36181Y53465D01*
X68835Y46416D02*X78309D01*
G54D11*X79291Y46457D02*X79882Y47047D01*
G54D13*X78309Y46416D02*X77657Y45765D01*
Y39272D01*
G54D11*X84646Y28936D03*
Y32283D01*
X83465Y33465D01*
X84646Y31185D03*
X84685Y29016D02*X84567Y28898D01*
Y21969D01*
G54D13*X21299Y37400D02*X21378Y37480D01*
X21299Y45196D02*Y37008D01*
X21693Y53790D02*Y69843D01*
Y45591D02*X21299Y45196D01*
Y37400D02*X22282Y36417D01*
X27835D01*
X29803Y62480D02*X25894D01*
X26378D02*X25787Y61890D01*
X21693D01*
X30394D02*X29803Y62480D01*
X45607Y91732D02*X28937D01*
X28858Y91811D01*
X22520D01*
X45652Y91777D02*X45607Y91732D01*
X45652Y95677D02*X45979Y96004D01*
X74154D01*
G54D11*X64606Y101260D02*X64764Y101102D01*
Y96004D01*
G54D13*X21693Y88268D02*Y64094D01*
X18780Y117874D02*Y108976D01*
X21693Y106063D01*
Y82323D01*
G54D11*X55119Y116969D02*X51908Y120180D01*
X30465D01*
G54D13*X30403Y120118D01*
X21024D01*
X18780Y117874D01*
G54D14*G36*
X59913Y133591D02*Y127591D01*
X65913D01*
Y133591D01*
X59913D01*
G37*
G54D15*X52913Y130591D03*
G54D14*G36*
X114756Y148354D02*Y142354D01*
X120756D01*
Y148354D01*
X114756D01*
G37*
G54D15*X107756Y145354D03*
X97756D03*
X87756D03*
G54D14*G36*
X116606Y83079D02*Y77079D01*
X122606D01*
Y83079D01*
X116606D01*
G37*
G54D15*X109606Y80079D03*
X99606D03*
X89606D03*
X79606D03*
X69606D03*
G54D14*G36*
X142709Y102724D02*Y96724D01*
X148709D01*
Y102724D01*
X142709D01*
G37*
G54D15*X145709Y89724D03*
Y79724D03*
Y69724D03*
G54D16*X79646Y21732D03*
X99724D03*
G54D14*G36*
X50041Y41265D02*Y36147D01*
X55945D01*
Y41265D01*
X50041D01*
G37*
G36*
Y48351D02*Y43233D01*
X55945D01*
Y48351D01*
X50041D01*
G37*
G36*
X15093Y47591D02*X12693D01*
Y43591D01*
X15093D01*
Y47591D01*
G37*
G36*
X16772Y39960D02*X11654D01*
Y34056D01*
X16772D01*
Y39960D01*
G37*
G36*
X22893Y47591D02*X20493D01*
Y43591D01*
X22893D01*
Y47591D01*
G37*
G36*
X23858Y39960D02*X18740D01*
Y34056D01*
X23858D01*
Y39960D01*
G37*
G36*
X22893Y55791D02*X20493D01*
Y51791D01*
X22893D01*
Y55791D01*
G37*
G36*
X18993D02*X16593D01*
Y51791D01*
X18993D01*
Y55791D01*
G37*
G36*
X15093D02*X12693D01*
Y51791D01*
X15093D01*
Y55791D01*
G37*
G36*
X23936Y65629D02*X18818D01*
Y59725D01*
X23936D01*
Y65629D01*
G37*
G36*
X16850D02*X11732D01*
Y59725D01*
X16850D01*
Y65629D01*
G37*
G36*
X25985Y87205D02*Y82087D01*
X31889D01*
Y87205D01*
X25985D01*
G37*
G36*
Y94291D02*Y89173D01*
X31889D01*
Y94291D01*
X25985D01*
G37*
G36*
X23580Y122139D02*Y118219D01*
X37350D01*
Y122139D01*
X23580D01*
G37*
G36*
Y114264D02*Y110334D01*
X37350D01*
Y114264D01*
X23580D01*
G37*
G36*
X1145Y132359D02*Y126459D01*
X14525D01*
Y132359D01*
X1145D01*
G37*
G36*
X1150Y106009D02*Y100109D01*
X14520D01*
Y106009D01*
X1150D01*
G37*
G36*
X36252Y96877D02*Y94477D01*
X40252D01*
Y96877D01*
X36252D01*
G37*
G36*
Y89077D02*Y86677D01*
X40252D01*
Y89077D01*
X36252D01*
G37*
G36*
X44452D02*Y86677D01*
X48452D01*
Y89077D01*
X44452D01*
G37*
G36*
Y92977D02*Y90577D01*
X48452D01*
Y92977D01*
X44452D01*
G37*
G36*
Y96877D02*Y94477D01*
X48452D01*
Y96877D01*
X44452D01*
G37*
G36*
X85653Y105180D02*Y103580D01*
X89453D01*
Y105180D01*
X85653D01*
G37*
G36*
X52421Y91094D02*Y85976D01*
X58325D01*
Y91094D01*
X52421D01*
G37*
G36*
Y98180D02*Y93062D01*
X58325D01*
Y98180D01*
X52421D01*
G37*
G36*
X77442Y93582D02*Y91614D01*
X80196D01*
Y93582D01*
X77442D01*
G37*
G36*
Y96730D02*Y94762D01*
X80196D01*
Y96730D01*
X77442D01*
G37*
G36*
X62284Y114844D02*Y112876D01*
X65038D01*
Y114844D01*
X62284D01*
G37*
G36*
Y117992D02*Y116024D01*
X65038D01*
Y117992D01*
X62284D01*
G37*
G36*
X54135Y117952D02*Y115984D01*
X56889D01*
Y117952D01*
X54135D01*
G37*
G36*
Y114804D02*Y112836D01*
X56889D01*
Y114804D01*
X54135D01*
G37*
G36*
X58308Y114764D02*Y112796D01*
X61062D01*
Y114764D01*
X58308D01*
G37*
G36*
Y117912D02*Y115944D01*
X61062D01*
Y117912D01*
X58308D01*
G37*
G36*
X67245Y117913D02*Y115945D01*
X69999D01*
Y117913D01*
X67245D01*
G37*
G36*
Y114765D02*Y112797D01*
X69999D01*
Y114765D01*
X67245D01*
G37*
G36*
X68937Y105197D02*X67362D01*
Y99685D01*
X68937D01*
Y105197D01*
G37*
G36*
X65787D02*X65000D01*
Y103228D01*
X65787D01*
Y105197D01*
G37*
G36*
X62637D02*X61063D01*
Y99685D01*
X62637D01*
Y105197D01*
G37*
G36*
X65000Y101654D02*X64212D01*
Y99685D01*
X65000D01*
Y101654D01*
G37*
G36*
X85653Y120580D02*Y118980D01*
X89453D01*
Y120580D01*
X85653D01*
G37*
G36*
Y117980D02*Y116380D01*
X89453D01*
Y117980D01*
X85653D01*
G37*
G36*
Y115480D02*Y113880D01*
X89453D01*
Y115480D01*
X85653D01*
G37*
G36*
Y112880D02*Y111280D01*
X89453D01*
Y112880D01*
X85653D01*
G37*
G54D17*X86453Y127480D02*X88653D01*
G54D14*G36*
X85653Y125680D02*Y124080D01*
X89453D01*
Y125680D01*
X85653D01*
G37*
G36*
Y123180D02*Y121580D01*
X89453D01*
Y123180D01*
X85653D01*
G37*
G36*
Y110380D02*Y108780D01*
X89453D01*
Y110380D01*
X85653D01*
G37*
G36*
Y107780D02*Y106180D01*
X89453D01*
Y107780D01*
X85653D01*
G37*
G36*
X76655Y134172D02*X74687D01*
Y131418D01*
X76655D01*
Y134172D01*
G37*
G36*
X76929Y124251D02*X74961D01*
Y121497D01*
X76929D01*
Y124251D01*
G37*
G36*
X76732Y129172D02*X74764D01*
Y126418D01*
X76732D01*
Y129172D01*
G37*
G36*
X79803Y134172D02*X77835D01*
Y131418D01*
X79803D01*
Y134172D01*
G37*
G36*
X80077Y124251D02*X78109D01*
Y121497D01*
X80077D01*
Y124251D01*
G37*
G36*
X79880Y129172D02*X77912D01*
Y126418D01*
X79880D01*
Y129172D01*
G37*
G36*
X85653Y102680D02*Y101080D01*
X89453D01*
Y102680D01*
X85653D01*
G37*
G36*
Y100080D02*Y98480D01*
X89453D01*
Y100080D01*
X85653D01*
G37*
G36*
Y97580D02*Y95980D01*
X89453D01*
Y97580D01*
X85653D01*
G37*
G36*
Y94980D02*Y93380D01*
X89453D01*
Y94980D01*
X85653D01*
G37*
G36*
X75357Y56061D02*Y50943D01*
X81261D01*
Y56061D01*
X75357D01*
G37*
G36*
Y48975D02*Y43857D01*
X81261D01*
Y48975D01*
X75357D01*
G37*
G36*
X74134Y69133D02*X72166D01*
Y66379D01*
X74134D01*
Y69133D01*
G37*
G36*
X77282D02*X75314D01*
Y66379D01*
X77282D01*
Y69133D01*
G37*
G36*
X59057Y55038D02*Y52638D01*
X63057D01*
Y55038D01*
X59057D01*
G37*
G36*
Y47238D02*Y44838D01*
X63057D01*
Y47238D01*
X59057D01*
G37*
G36*
X67257D02*Y44838D01*
X71257D01*
Y47238D01*
X67257D01*
G37*
G36*
Y51138D02*Y48738D01*
X71257D01*
Y51138D01*
X67257D01*
G37*
G36*
Y55038D02*Y52638D01*
X71257D01*
Y55038D01*
X67257D01*
G37*
G36*
X76004Y31496D02*X73052D01*
Y27560D01*
X76004D01*
Y31496D01*
G37*
G36*
X70886D02*X67934D01*
Y27560D01*
X70886D01*
Y31496D01*
G37*
G36*
X60827Y31141D02*X58859D01*
Y28387D01*
X60827D01*
Y31141D01*
G37*
G36*
X63975D02*X62007D01*
Y28387D01*
X63975D01*
Y31141D01*
G37*
G36*
X85354Y24487D02*X83780D01*
Y19370D01*
X85354D01*
Y24487D01*
G37*
G36*
X87913D02*X86339D01*
Y19370D01*
X87913D01*
Y24487D01*
G37*
G36*
X90472D02*X88898D01*
Y19370D01*
X90472D01*
Y24487D01*
G37*
G36*
X93031D02*X91457D01*
Y19370D01*
X93031D01*
Y24487D01*
G37*
G36*
X95590D02*X94016D01*
Y19370D01*
X95590D01*
Y24487D01*
G37*
G36*
X114753Y94880D02*Y93280D01*
X118553D01*
Y94880D01*
X114753D01*
G37*
G36*
Y97480D02*Y95880D01*
X118553D01*
Y97480D01*
X114753D01*
G37*
G36*
Y99980D02*Y98380D01*
X118553D01*
Y99980D01*
X114753D01*
G37*
G36*
Y102580D02*Y100980D01*
X118553D01*
Y102580D01*
X114753D01*
G37*
G36*
Y105180D02*Y103580D01*
X118553D01*
Y105180D01*
X114753D01*
G37*
G36*
Y107680D02*Y106080D01*
X118553D01*
Y107680D01*
X114753D01*
G37*
G36*
Y110280D02*Y108680D01*
X118553D01*
Y110280D01*
X114753D01*
G37*
G36*
Y112780D02*Y111180D01*
X118553D01*
Y112780D01*
X114753D01*
G37*
G36*
X125649Y108740D02*X122697D01*
Y104804D01*
X125649D01*
Y108740D01*
G37*
G36*
X130767D02*X127815D01*
Y104804D01*
X130767D01*
Y108740D01*
G37*
G36*
X143896Y59842D02*X141928D01*
Y57088D01*
X143896D01*
Y59842D01*
G37*
G36*
X140748D02*X138780D01*
Y57088D01*
X140748D01*
Y59842D01*
G37*
G36*
X154135Y59999D02*X152167D01*
Y57245D01*
X154135D01*
Y59999D01*
G37*
G36*
X157283D02*X155315D01*
Y57245D01*
X157283D01*
Y59999D01*
G37*
G36*
X114753Y115380D02*Y113780D01*
X118553D01*
Y115380D01*
X114753D01*
G37*
G36*
Y117980D02*Y116380D01*
X118553D01*
Y117980D01*
X114753D01*
G37*
G36*
Y120480D02*Y118880D01*
X118553D01*
Y120480D01*
X114753D01*
G37*
G36*
Y123080D02*Y121480D01*
X118553D01*
Y123080D01*
X114753D01*
G37*
G36*
Y125580D02*Y123980D01*
X118553D01*
Y125580D01*
X114753D01*
G37*
G36*
Y128180D02*Y126580D01*
X118553D01*
Y128180D01*
X114753D01*
G37*
G36*
X127518Y129330D02*X125550D01*
Y126576D01*
X127518D01*
Y129330D01*
G37*
G36*
X124370D02*X122402D01*
Y126576D01*
X124370D01*
Y129330D01*
G37*
G36*
X142910Y133188D02*X140942D01*
Y130434D01*
X142910D01*
Y133188D01*
G37*
G36*
X139762D02*X137794D01*
Y130434D01*
X139762D01*
Y133188D01*
G37*
G36*
X139765Y128346D02*X137797D01*
Y125592D01*
X139765D01*
Y128346D01*
G37*
G36*
X142913D02*X140945D01*
Y125592D01*
X142913D01*
Y128346D01*
G37*
G36*
X113702Y38938D02*Y36970D01*
X116456D01*
Y38938D01*
X113702D01*
G37*
G36*
Y42086D02*Y40118D01*
X116456D01*
Y42086D01*
X113702D01*
G37*
G36*
X113269Y46733D02*Y44765D01*
X116023D01*
Y46733D01*
X113269D01*
G37*
G36*
X118977Y46456D02*Y45669D01*
X120649D01*
Y46456D01*
X118977D01*
G37*
G36*
X113269Y49881D02*Y47913D01*
X116023D01*
Y49881D01*
X113269D01*
G37*
G36*
X130393Y49211D02*X129606D01*
Y47539D01*
X130393D01*
Y49211D01*
G37*
G36*
X128818D02*X128031D01*
Y46850D01*
X128818D01*
Y49211D01*
G37*
G36*
X127243D02*X126456D01*
Y46850D01*
X127243D01*
Y49211D01*
G37*
G36*
X125669D02*X124882D01*
Y46850D01*
X125669D01*
Y49211D01*
G37*
G36*
X124094D02*X123307D01*
Y46850D01*
X124094D01*
Y49211D01*
G37*
G36*
X122519D02*X121732D01*
Y47539D01*
X122519D01*
Y49211D01*
G37*
G36*
X118977Y44881D02*Y44094D01*
X121338D01*
Y44881D01*
X118977D01*
G37*
G36*
Y43306D02*Y42519D01*
X121338D01*
Y43306D01*
X118977D01*
G37*
G36*
Y41732D02*Y40945D01*
X121338D01*
Y41732D01*
X118977D01*
G37*
G36*
Y40157D02*Y39370D01*
X121338D01*
Y40157D01*
X118977D01*
G37*
G36*
Y38582D02*Y37795D01*
X120649D01*
Y38582D01*
X118977D01*
G37*
G36*
X126455Y31928D02*X124487D01*
Y29174D01*
X126455D01*
Y31928D01*
G37*
G36*
X123307D02*X121339D01*
Y29174D01*
X123307D01*
Y31928D01*
G37*
G36*
X122519Y36712D02*X121732D01*
Y35040D01*
X122519D01*
Y36712D01*
G37*
G36*
X124094Y37401D02*X123307D01*
Y35040D01*
X124094D01*
Y37401D01*
G37*
G36*
X125669D02*X124882D01*
Y35040D01*
X125669D01*
Y37401D01*
G37*
G36*
X127243D02*X126456D01*
Y35040D01*
X127243D01*
Y37401D01*
G37*
G36*
X128818D02*X128031D01*
Y35040D01*
X128818D01*
Y37401D01*
G37*
G36*
X130393Y36712D02*X129606D01*
Y35040D01*
X130393D01*
Y36712D01*
G37*
G36*
X131476Y38582D02*Y37795D01*
X133148D01*
Y38582D01*
X131476D01*
G37*
G36*
X130787Y40157D02*Y39370D01*
X133148D01*
Y40157D01*
X130787D01*
G37*
G36*
Y41732D02*Y40945D01*
X133148D01*
Y41732D01*
X130787D01*
G37*
G36*
Y43306D02*Y42519D01*
X133148D01*
Y43306D01*
X130787D01*
G37*
G36*
Y44881D02*Y44094D01*
X133148D01*
Y44881D01*
X130787D01*
G37*
G36*
X131476Y46456D02*Y45669D01*
X133148D01*
Y46456D01*
X131476D01*
G37*
G54D18*X74252Y96102D03*
X74016Y89961D03*
X73425Y102283D03*
X132638Y127677D03*
X88976Y133465D03*
X127441Y100433D03*
X129409Y93740D03*
X103622Y132047D03*
X133661Y106772D03*
X94882Y34646D03*
G54D15*X27835Y36417D03*
X36929Y52598D03*
X30394Y61890D03*
G54D18*X56614Y62008D03*
G54D15*X41693Y81850D03*
G54D18*X57441Y102323D03*
G54D15*X42402Y109094D03*
X52480Y29882D03*
X86575Y53661D03*
G54D18*X79291Y62126D03*
X134291Y34055D03*
X116024Y33346D03*
G54D15*X118346Y21535D03*
G54D19*G54D20*G54D19*G54D20*G54D19*G54D20*G54D19*G54D20*G54D21*G54D22*G54D21*G54D22*G54D21*G54D22*G54D23*G54D24*G54D23*M02*
