G04 start of page 3 for group 1 idx 3 *
G04 Title: SAP, bottom power *
G04 Creator: pcb 4.0.2 *
G04 CreationDate: Tue Jun 12 19:10:11 2018 UTC *
G04 For: phil *
G04 Format: Gerber/RS-274X *
G04 PCB-Dimensions (mil): 1811.02 1574.80 *
G04 PCB-Coordinate-Origin: lower left *
%MOIN*%
%FSLAX25Y25*%
%LNBOTTOM*%
%ADD33C,0.0380*%
%ADD32C,0.0350*%
%ADD31C,0.0200*%
%ADD30C,0.1181*%
%ADD29C,0.0360*%
%ADD28C,0.0400*%
%ADD27C,0.0600*%
%ADD26C,0.0250*%
%ADD25C,0.0001*%
%ADD24C,0.0100*%
G54D24*X133071Y95669D02*X149528Y79213D01*
X159449D01*
Y69213D02*X155039Y73622D01*
X144882D01*
X127165Y91339D01*
Y101575D01*
G54D25*G36*
X163062Y157480D02*X167323D01*
Y10236D01*
X163062D01*
Y19813D01*
X163266Y20305D01*
X163519Y21360D01*
X163583Y22441D01*
X163519Y23522D01*
X163266Y24577D01*
X163062Y25068D01*
Y66514D01*
X163101Y66559D01*
X163471Y67163D01*
X163742Y67818D01*
X163907Y68506D01*
X163949Y69213D01*
X163907Y69919D01*
X163742Y70607D01*
X163471Y71262D01*
X163101Y71866D01*
X163062Y71911D01*
Y76514D01*
X163101Y76559D01*
X163471Y77163D01*
X163742Y77818D01*
X163907Y78506D01*
X163949Y79213D01*
X163907Y79919D01*
X163742Y80607D01*
X163471Y81262D01*
X163101Y81866D01*
X163062Y81911D01*
Y87066D01*
X163105Y87073D01*
X163217Y87110D01*
X163322Y87164D01*
X163416Y87234D01*
X163499Y87318D01*
X163568Y87414D01*
X163619Y87521D01*
X163767Y87928D01*
X163871Y88350D01*
X163933Y88779D01*
X163954Y89213D01*
X163933Y89646D01*
X163871Y90075D01*
X163767Y90497D01*
X163624Y90906D01*
X163571Y91013D01*
X163502Y91109D01*
X163419Y91193D01*
X163323Y91264D01*
X163218Y91318D01*
X163106Y91356D01*
X163062Y91363D01*
Y94843D01*
X163132Y94872D01*
X163333Y94995D01*
X163513Y95149D01*
X163666Y95328D01*
X163789Y95530D01*
X163880Y95748D01*
X163935Y95977D01*
X163949Y96213D01*
X163935Y102448D01*
X163880Y102678D01*
X163789Y102896D01*
X163666Y103097D01*
X163513Y103277D01*
X163333Y103430D01*
X163132Y103553D01*
X163062Y103582D01*
Y143829D01*
X163266Y144321D01*
X163519Y145376D01*
X163583Y146457D01*
X163519Y147538D01*
X163266Y148592D01*
X163062Y149084D01*
Y157480D01*
G37*
G36*
Y103582D02*X162914Y103644D01*
X162684Y103699D01*
X162449Y103713D01*
X159451Y103706D01*
Y140142D01*
X159830Y140299D01*
X160755Y140866D01*
X161580Y141570D01*
X162284Y142394D01*
X162851Y143319D01*
X163062Y143829D01*
Y103582D01*
G37*
G36*
Y81911D02*X162641Y82404D01*
X162102Y82864D01*
X161498Y83234D01*
X160844Y83506D01*
X160155Y83671D01*
X159451Y83726D01*
Y84707D01*
X159882Y84728D01*
X160312Y84791D01*
X160733Y84894D01*
X161142Y85038D01*
X161249Y85090D01*
X161345Y85159D01*
X161430Y85243D01*
X161500Y85338D01*
X161555Y85443D01*
X161592Y85556D01*
X161612Y85673D01*
X161612Y85791D01*
X161595Y85909D01*
X161559Y86022D01*
X161506Y86128D01*
X161437Y86224D01*
X161354Y86309D01*
X161258Y86379D01*
X161153Y86434D01*
X161040Y86471D01*
X160923Y86491D01*
X160805Y86492D01*
X160687Y86474D01*
X160575Y86436D01*
X160304Y86337D01*
X160023Y86268D01*
X159737Y86227D01*
X159451Y86213D01*
Y92213D01*
X159737Y92199D01*
X160023Y92157D01*
X160304Y92088D01*
X160577Y91993D01*
X160688Y91955D01*
X160805Y91937D01*
X160923Y91938D01*
X161040Y91957D01*
X161152Y91995D01*
X161256Y92049D01*
X161351Y92119D01*
X161434Y92203D01*
X161503Y92299D01*
X161556Y92405D01*
X161591Y92517D01*
X161609Y92634D01*
X161608Y92752D01*
X161589Y92868D01*
X161551Y92980D01*
X161497Y93085D01*
X161427Y93180D01*
X161343Y93263D01*
X161247Y93332D01*
X161140Y93383D01*
X160733Y93531D01*
X160312Y93634D01*
X159882Y93697D01*
X159451Y93718D01*
Y94719D01*
X162684Y94726D01*
X162914Y94782D01*
X163062Y94843D01*
Y91363D01*
X162989Y91375D01*
X162870Y91376D01*
X162753Y91359D01*
X162640Y91323D01*
X162534Y91270D01*
X162437Y91201D01*
X162353Y91117D01*
X162282Y91022D01*
X162228Y90917D01*
X162190Y90804D01*
X162171Y90687D01*
X162170Y90569D01*
X162188Y90451D01*
X162226Y90339D01*
X162324Y90068D01*
X162393Y89787D01*
X162435Y89501D01*
X162449Y89213D01*
X162435Y88924D01*
X162393Y88638D01*
X162324Y88357D01*
X162229Y88085D01*
X162191Y87973D01*
X162173Y87856D01*
X162174Y87738D01*
X162194Y87622D01*
X162231Y87510D01*
X162285Y87405D01*
X162355Y87310D01*
X162439Y87227D01*
X162535Y87159D01*
X162641Y87106D01*
X162753Y87070D01*
X162870Y87052D01*
X162988Y87053D01*
X163062Y87066D01*
Y81911D01*
G37*
G36*
Y71911D02*X162641Y72404D01*
X162102Y72864D01*
X161498Y73234D01*
X160844Y73506D01*
X160155Y73671D01*
X159451Y73726D01*
Y74699D01*
X160155Y74754D01*
X160844Y74920D01*
X161498Y75191D01*
X162102Y75561D01*
X162641Y76021D01*
X163062Y76514D01*
Y71911D01*
G37*
G36*
Y25068D02*X162851Y25578D01*
X162284Y26503D01*
X161580Y27328D01*
X160755Y28032D01*
X159830Y28599D01*
X159451Y28756D01*
Y64699D01*
X160155Y64754D01*
X160844Y64920D01*
X161498Y65191D01*
X162102Y65561D01*
X162641Y66021D01*
X163062Y66514D01*
Y25068D01*
G37*
G36*
Y10236D02*X159451D01*
Y16126D01*
X159830Y16283D01*
X160755Y16850D01*
X161580Y17554D01*
X162284Y18379D01*
X162851Y19303D01*
X163062Y19813D01*
Y10236D01*
G37*
G36*
X159451Y157480D02*X163062D01*
Y149084D01*
X162851Y149594D01*
X162284Y150519D01*
X161580Y151344D01*
X160755Y152048D01*
X159830Y152614D01*
X159451Y152772D01*
Y157480D01*
G37*
G36*
Y103706D02*X156682Y103700D01*
Y139547D01*
X156693Y139546D01*
X157774Y139631D01*
X158829Y139884D01*
X159451Y140142D01*
Y103706D01*
G37*
G36*
Y83726D02*X159449Y83726D01*
X158743Y83671D01*
X158054Y83506D01*
X157400Y83234D01*
X156796Y82864D01*
X156682Y82768D01*
Y87545D01*
X156707Y87621D01*
X156727Y87738D01*
X156728Y87857D01*
X156710Y87974D01*
X156682Y88056D01*
Y90380D01*
X156707Y90452D01*
X156724Y90569D01*
X156723Y90687D01*
X156704Y90803D01*
X156682Y90869D01*
Y94713D01*
X159451Y94719D01*
Y93718D01*
X159449Y93718D01*
X159015Y93697D01*
X158586Y93634D01*
X158165Y93531D01*
X157755Y93387D01*
X157649Y93335D01*
X157552Y93266D01*
X157468Y93183D01*
X157398Y93087D01*
X157343Y92982D01*
X157305Y92869D01*
X157286Y92752D01*
X157285Y92634D01*
X157303Y92516D01*
X157339Y92403D01*
X157392Y92297D01*
X157461Y92201D01*
X157544Y92116D01*
X157639Y92046D01*
X157745Y91991D01*
X157857Y91954D01*
X157974Y91935D01*
X158093Y91934D01*
X158210Y91951D01*
X158322Y91989D01*
X158594Y92088D01*
X158874Y92157D01*
X159160Y92199D01*
X159449Y92213D01*
X159451Y92213D01*
Y86213D01*
X159449Y86213D01*
X159160Y86227D01*
X158874Y86268D01*
X158594Y86337D01*
X158321Y86433D01*
X158209Y86470D01*
X158093Y86488D01*
X157975Y86487D01*
X157858Y86468D01*
X157746Y86431D01*
X157641Y86376D01*
X157546Y86306D01*
X157463Y86222D01*
X157395Y86126D01*
X157342Y86020D01*
X157306Y85908D01*
X157289Y85791D01*
X157290Y85673D01*
X157309Y85557D01*
X157346Y85445D01*
X157401Y85340D01*
X157471Y85245D01*
X157555Y85162D01*
X157651Y85093D01*
X157757Y85043D01*
X158165Y84894D01*
X158586Y84791D01*
X159015Y84728D01*
X159449Y84707D01*
X159451Y84707D01*
Y83726D01*
G37*
G36*
Y73726D02*X159449Y73726D01*
X158743Y73671D01*
X158054Y73506D01*
X157505Y73278D01*
X156682Y74100D01*
Y75658D01*
X156796Y75561D01*
X157400Y75191D01*
X158054Y74920D01*
X158743Y74754D01*
X159449Y74699D01*
X159451Y74699D01*
Y73726D01*
G37*
G36*
Y28756D02*X158829Y29014D01*
X157774Y29267D01*
X156693Y29352D01*
X156682Y29351D01*
Y65658D01*
X156796Y65561D01*
X157400Y65191D01*
X158054Y64920D01*
X158743Y64754D01*
X159449Y64699D01*
X159451Y64699D01*
Y28756D01*
G37*
G36*
Y10236D02*X156682D01*
Y15531D01*
X156693Y15530D01*
X157774Y15615D01*
X158829Y15868D01*
X159451Y16126D01*
Y10236D01*
G37*
G36*
X156682Y157480D02*X159451D01*
Y152772D01*
X158829Y153029D01*
X157774Y153283D01*
X156693Y153368D01*
X156682Y153367D01*
Y157480D01*
G37*
G36*
X156669Y90340D02*X156682Y90380D01*
Y88056D01*
X156672Y88086D01*
X156573Y88357D01*
X156504Y88638D01*
X156463Y88924D01*
X156449Y89213D01*
X156463Y89501D01*
X156504Y89787D01*
X156573Y90068D01*
X156669Y90340D01*
G37*
G36*
X156682Y74100D02*X156142Y74641D01*
X156103Y74686D01*
X155924Y74839D01*
X155722Y74963D01*
X155504Y75053D01*
X155275Y75108D01*
X155039Y75127D01*
X154981Y75122D01*
X145503D01*
X144153Y76472D01*
Y82466D01*
X148425Y78194D01*
X148464Y78149D01*
X148643Y77995D01*
X148844Y77872D01*
X149063Y77782D01*
X149292Y77726D01*
X149528Y77708D01*
X149586Y77713D01*
X155199D01*
X155427Y77163D01*
X155797Y76559D01*
X156257Y76021D01*
X156682Y75658D01*
Y74100D01*
G37*
G36*
Y10236D02*X144153D01*
Y72310D01*
X144199Y72281D01*
X144417Y72191D01*
X144647Y72136D01*
X144882Y72117D01*
X144941Y72122D01*
X154418D01*
X155383Y71157D01*
X155156Y70607D01*
X154991Y69919D01*
X154935Y69213D01*
X154991Y68506D01*
X155156Y67818D01*
X155427Y67163D01*
X155797Y66559D01*
X156257Y66021D01*
X156682Y65658D01*
Y29351D01*
X155612Y29267D01*
X154557Y29014D01*
X153555Y28599D01*
X152631Y28032D01*
X151806Y27328D01*
X151102Y26503D01*
X150535Y25578D01*
X150120Y24577D01*
X149867Y23522D01*
X149782Y22441D01*
X149867Y21360D01*
X150120Y20305D01*
X150535Y19303D01*
X151102Y18379D01*
X151806Y17554D01*
X152631Y16850D01*
X153555Y16283D01*
X154557Y15868D01*
X155612Y15615D01*
X156682Y15531D01*
Y10236D01*
G37*
G36*
X144153Y157480D02*X156682D01*
Y153367D01*
X155612Y153283D01*
X154557Y153029D01*
X153555Y152614D01*
X152631Y152048D01*
X151806Y151344D01*
X151102Y150519D01*
X150535Y149594D01*
X150120Y148592D01*
X149867Y147538D01*
X149782Y146457D01*
X149867Y145376D01*
X150120Y144321D01*
X150535Y143319D01*
X151102Y142394D01*
X151806Y141570D01*
X152631Y140866D01*
X153555Y140299D01*
X154557Y139884D01*
X155612Y139631D01*
X156682Y139547D01*
Y103700D01*
X156213Y103699D01*
X155984Y103644D01*
X155766Y103553D01*
X155564Y103430D01*
X155385Y103277D01*
X155232Y103097D01*
X155108Y102896D01*
X155018Y102678D01*
X154963Y102448D01*
X154949Y102213D01*
X154963Y95977D01*
X155018Y95748D01*
X155108Y95530D01*
X155232Y95328D01*
X155385Y95149D01*
X155564Y94995D01*
X155766Y94872D01*
X155984Y94782D01*
X156213Y94726D01*
X156449Y94713D01*
X156682Y94713D01*
Y90869D01*
X156667Y90915D01*
X156612Y91020D01*
X156542Y91115D01*
X156458Y91198D01*
X156362Y91267D01*
X156257Y91319D01*
X156144Y91355D01*
X156027Y91373D01*
X155909Y91372D01*
X155793Y91353D01*
X155681Y91315D01*
X155576Y91261D01*
X155481Y91191D01*
X155398Y91107D01*
X155330Y91011D01*
X155279Y90904D01*
X155130Y90497D01*
X155027Y90075D01*
X154964Y89646D01*
X154944Y89213D01*
X154964Y88779D01*
X155027Y88350D01*
X155130Y87928D01*
X155274Y87519D01*
X155327Y87413D01*
X155396Y87316D01*
X155479Y87232D01*
X155574Y87161D01*
X155680Y87107D01*
X155792Y87069D01*
X155909Y87050D01*
X156028Y87049D01*
X156145Y87067D01*
X156258Y87103D01*
X156364Y87156D01*
X156461Y87225D01*
X156545Y87308D01*
X156615Y87403D01*
X156670Y87509D01*
X156682Y87545D01*
Y82768D01*
X156257Y82404D01*
X155797Y81866D01*
X155427Y81262D01*
X155199Y80713D01*
X150149D01*
X144153Y86709D01*
Y157480D01*
G37*
G36*
X143048Y73335D02*X143780Y72603D01*
X143818Y72558D01*
X143997Y72405D01*
X144153Y72310D01*
Y10236D01*
X143048D01*
Y12042D01*
X143051Y12043D01*
X143119Y12082D01*
X143180Y12132D01*
X143233Y12190D01*
X143275Y12257D01*
X143438Y12581D01*
X143567Y12921D01*
X143665Y13272D01*
X143731Y13629D01*
X143764Y13991D01*
Y14355D01*
X143731Y14717D01*
X143665Y15075D01*
X143567Y15425D01*
X143438Y15765D01*
X143278Y16092D01*
X143236Y16158D01*
X143182Y16217D01*
X143121Y16267D01*
X143052Y16306D01*
X143048Y16308D01*
Y62781D01*
X143180Y62997D01*
X143596Y64001D01*
X143849Y65058D01*
X143913Y66142D01*
X143849Y67225D01*
X143596Y68282D01*
X143180Y69286D01*
X143048Y69502D01*
Y73335D01*
G37*
G36*
Y10236D02*X140471D01*
X140665Y10272D01*
X141016Y10370D01*
X141356Y10499D01*
X141682Y10659D01*
X141749Y10701D01*
X141808Y10755D01*
X141857Y10816D01*
X141897Y10885D01*
X141925Y10959D01*
X141941Y11036D01*
X141945Y11116D01*
X141937Y11194D01*
X141916Y11271D01*
X141884Y11343D01*
X141840Y11409D01*
X141787Y11468D01*
X141726Y11518D01*
X141657Y11557D01*
X141583Y11585D01*
X141506Y11602D01*
X141426Y11606D01*
X141348Y11597D01*
X141271Y11576D01*
X141200Y11543D01*
X140956Y11420D01*
X140702Y11324D01*
X140439Y11250D01*
X140171Y11201D01*
X139900Y11176D01*
X139762D01*
Y17170D01*
X139900D01*
X140171Y17145D01*
X140439Y17096D01*
X140702Y17023D01*
X140956Y16926D01*
X141201Y16806D01*
X141272Y16773D01*
X141348Y16752D01*
X141427Y16744D01*
X141505Y16748D01*
X141582Y16764D01*
X141656Y16792D01*
X141724Y16831D01*
X141785Y16881D01*
X141838Y16939D01*
X141881Y17005D01*
X141913Y17077D01*
X141934Y17153D01*
X141942Y17231D01*
X141938Y17310D01*
X141922Y17387D01*
X141894Y17460D01*
X141855Y17528D01*
X141805Y17590D01*
X141747Y17643D01*
X141680Y17684D01*
X141356Y17847D01*
X141016Y17977D01*
X140665Y18075D01*
X140308Y18140D01*
X139946Y18173D01*
X139762D01*
Y59808D01*
X140153Y59970D01*
X141079Y60538D01*
X141906Y61244D01*
X142612Y62070D01*
X143048Y62781D01*
Y16308D01*
X142978Y16334D01*
X142901Y16351D01*
X142821Y16355D01*
X142743Y16346D01*
X142666Y16326D01*
X142594Y16293D01*
X142528Y16250D01*
X142469Y16197D01*
X142419Y16135D01*
X142380Y16066D01*
X142352Y15992D01*
X142335Y15915D01*
X142331Y15836D01*
X142340Y15757D01*
X142361Y15681D01*
X142394Y15609D01*
X142517Y15366D01*
X142613Y15111D01*
X142687Y14849D01*
X142736Y14581D01*
X142761Y14309D01*
Y14037D01*
X142736Y13766D01*
X142687Y13498D01*
X142613Y13235D01*
X142517Y12981D01*
X142397Y12736D01*
X142363Y12665D01*
X142343Y12589D01*
X142335Y12510D01*
X142338Y12432D01*
X142355Y12355D01*
X142383Y12281D01*
X142422Y12213D01*
X142471Y12152D01*
X142530Y12099D01*
X142596Y12056D01*
X142667Y12024D01*
X142743Y12003D01*
X142822Y11995D01*
X142900Y11999D01*
X142977Y12015D01*
X143048Y12042D01*
Y10236D01*
G37*
G36*
X139762Y11176D02*X139628D01*
X139356Y11201D01*
X139088Y11250D01*
X138826Y11324D01*
X138571Y11420D01*
X138326Y11540D01*
X138255Y11574D01*
X138179Y11594D01*
X138101Y11602D01*
X138022Y11599D01*
X137945Y11582D01*
X137872Y11554D01*
X137804Y11515D01*
X137742Y11466D01*
X137690Y11407D01*
X137647Y11341D01*
X137614Y11270D01*
X137594Y11194D01*
X137585Y11115D01*
X137589Y11037D01*
X137606Y10960D01*
X137634Y10886D01*
X137673Y10818D01*
X137722Y10757D01*
X137781Y10704D01*
X137847Y10662D01*
X138172Y10499D01*
X138512Y10370D01*
X138862Y10272D01*
X139057Y10236D01*
X136997D01*
Y12095D01*
X137000Y12097D01*
X137059Y12150D01*
X137108Y12211D01*
X137148Y12280D01*
X137176Y12354D01*
X137192Y12431D01*
X137196Y12511D01*
X137188Y12589D01*
X137167Y12666D01*
X137133Y12737D01*
X137011Y12981D01*
X136997Y13017D01*
Y15330D01*
X137011Y15366D01*
X137131Y15611D01*
X137164Y15682D01*
X137185Y15758D01*
X137193Y15836D01*
X137189Y15915D01*
X137173Y15992D01*
X137145Y16065D01*
X137106Y16133D01*
X137056Y16195D01*
X136998Y16247D01*
X136997Y16248D01*
Y59216D01*
X137008Y59215D01*
X138091Y59300D01*
X139148Y59554D01*
X139762Y59808D01*
Y18173D01*
X139582D01*
X139220Y18140D01*
X138862Y18075D01*
X138512Y17977D01*
X138172Y17847D01*
X137845Y17688D01*
X137779Y17645D01*
X137720Y17592D01*
X137670Y17530D01*
X137631Y17462D01*
X137603Y17388D01*
X137586Y17310D01*
X137582Y17231D01*
X137591Y17152D01*
X137611Y17076D01*
X137644Y17004D01*
X137687Y16937D01*
X137740Y16878D01*
X137802Y16829D01*
X137871Y16789D01*
X137945Y16761D01*
X138022Y16745D01*
X138101Y16741D01*
X138180Y16749D01*
X138256Y16770D01*
X138328Y16804D01*
X138571Y16926D01*
X138826Y17023D01*
X139088Y17096D01*
X139356Y17145D01*
X139628Y17170D01*
X139762D01*
Y11176D01*
G37*
G36*
X136997Y79385D02*X143048Y73335D01*
Y69502D01*
X142612Y70213D01*
X141906Y71040D01*
X141079Y71746D01*
X140153Y72314D01*
X139148Y72730D01*
X138091Y72983D01*
X137008Y73069D01*
X136997Y73068D01*
Y79385D01*
G37*
G36*
Y89622D02*X144153Y82466D01*
Y76472D01*
X136997Y83628D01*
Y89622D01*
G37*
G36*
Y157480D02*X144153D01*
Y86709D01*
X136997Y93864D01*
Y157480D01*
G37*
G36*
Y13017D02*X136914Y13235D01*
X136841Y13498D01*
X136792Y13766D01*
X136767Y14037D01*
Y14309D01*
X136792Y14581D01*
X136841Y14849D01*
X136914Y15111D01*
X136997Y15330D01*
Y13017D01*
G37*
G36*
X126773Y89610D02*X136997Y79385D01*
Y73068D01*
X135924Y72983D01*
X134867Y72730D01*
X133863Y72314D01*
X132936Y71746D01*
X132110Y71040D01*
X131404Y70213D01*
X130836Y69286D01*
X130420Y68282D01*
X130166Y67225D01*
X130081Y66142D01*
X130166Y65058D01*
X130420Y64001D01*
X130836Y62997D01*
X131404Y62070D01*
X132110Y61244D01*
X132936Y60538D01*
X133863Y59970D01*
X134867Y59554D01*
X135924Y59300D01*
X136997Y59216D01*
Y16248D01*
X136932Y16290D01*
X136860Y16323D01*
X136784Y16343D01*
X136706Y16352D01*
X136627Y16348D01*
X136550Y16331D01*
X136477Y16303D01*
X136409Y16264D01*
X136347Y16215D01*
X136295Y16156D01*
X136253Y16090D01*
X136090Y15765D01*
X135960Y15425D01*
X135862Y15075D01*
X135797Y14717D01*
X135764Y14355D01*
Y13991D01*
X135797Y13629D01*
X135862Y13272D01*
X135960Y12921D01*
X136090Y12581D01*
X136249Y12255D01*
X136292Y12188D01*
X136345Y12129D01*
X136407Y12080D01*
X136475Y12040D01*
X136549Y12012D01*
X136627Y11996D01*
X136706Y11992D01*
X136785Y12000D01*
X136861Y12021D01*
X136934Y12053D01*
X136997Y12095D01*
Y10236D01*
X126773D01*
Y12657D01*
X127162Y12896D01*
X127640Y13305D01*
X128049Y13783D01*
X128378Y14320D01*
X128619Y14902D01*
X128766Y15514D01*
X128803Y16142D01*
X128766Y16769D01*
X128619Y17382D01*
X128378Y17963D01*
X128049Y18500D01*
X127640Y18979D01*
X127162Y19388D01*
X126773Y19626D01*
Y89610D01*
G37*
G36*
X131497Y93350D02*X131796Y93167D01*
X132203Y92998D01*
X132632Y92895D01*
X133071Y92861D01*
X133510Y92895D01*
X133682Y92937D01*
X136997Y89622D01*
Y83628D01*
X131497Y89128D01*
Y93350D01*
G37*
G36*
X133726Y157480D02*X136997D01*
Y93864D01*
X135804Y95058D01*
X135845Y95230D01*
X135871Y95669D01*
X135845Y96109D01*
X135742Y96537D01*
X135573Y96944D01*
X135343Y97320D01*
X135057Y97655D01*
X134722Y97942D01*
X134346Y98172D01*
X133939Y98340D01*
X133726Y98392D01*
Y105407D01*
X133794Y105421D01*
X133867Y105448D01*
X133936Y105487D01*
X133998Y105536D01*
X134051Y105594D01*
X134094Y105659D01*
X134126Y105731D01*
X134202Y105964D01*
X134256Y106204D01*
X134288Y106448D01*
X134299Y106693D01*
X134288Y106938D01*
X134256Y107182D01*
X134202Y107421D01*
X134128Y107656D01*
X134096Y107728D01*
X134052Y107793D01*
X133999Y107852D01*
X133937Y107901D01*
X133868Y107939D01*
X133794Y107967D01*
X133726Y107981D01*
Y140822D01*
X133727Y140822D01*
X133906Y140975D01*
X134060Y141155D01*
X134183Y141356D01*
X134274Y141574D01*
X134329Y141804D01*
X134343Y142039D01*
X134329Y148275D01*
X134274Y148504D01*
X134183Y148722D01*
X134060Y148924D01*
X133906Y149103D01*
X133727Y149257D01*
X133726Y149257D01*
Y157480D01*
G37*
G36*
Y98392D02*X133510Y98443D01*
X133071Y98478D01*
X132632Y98443D01*
X132203Y98340D01*
X131796Y98172D01*
X131497Y97989D01*
Y103890D01*
X131741Y103901D01*
X131985Y103933D01*
X132225Y103987D01*
X132459Y104061D01*
X132531Y104093D01*
X132597Y104137D01*
X132655Y104190D01*
X132704Y104252D01*
X132743Y104321D01*
X132770Y104395D01*
X132786Y104472D01*
X132789Y104551D01*
X132780Y104630D01*
X132759Y104706D01*
X132726Y104778D01*
X132682Y104843D01*
X132629Y104901D01*
X132567Y104951D01*
X132498Y104989D01*
X132424Y105017D01*
X132347Y105032D01*
X132268Y105036D01*
X132189Y105027D01*
X132114Y105004D01*
X131964Y104955D01*
X131810Y104921D01*
X131654Y104900D01*
X131497Y104893D01*
Y108493D01*
X131654Y108486D01*
X131810Y108465D01*
X131964Y108431D01*
X132114Y108383D01*
X132190Y108361D01*
X132268Y108352D01*
X132346Y108355D01*
X132424Y108371D01*
X132497Y108398D01*
X132566Y108437D01*
X132628Y108486D01*
X132681Y108544D01*
X132724Y108609D01*
X132757Y108681D01*
X132778Y108757D01*
X132787Y108835D01*
X132784Y108913D01*
X132768Y108990D01*
X132741Y109064D01*
X132702Y109133D01*
X132653Y109194D01*
X132595Y109248D01*
X132530Y109291D01*
X132458Y109323D01*
X132225Y109399D01*
X131985Y109453D01*
X131741Y109485D01*
X131497Y109496D01*
Y140550D01*
X133078Y140553D01*
X133307Y140608D01*
X133526Y140699D01*
X133726Y140822D01*
Y107981D01*
X133717Y107983D01*
X133638Y107986D01*
X133559Y107977D01*
X133483Y107956D01*
X133411Y107923D01*
X133346Y107879D01*
X133288Y107826D01*
X133238Y107764D01*
X133200Y107695D01*
X133172Y107621D01*
X133157Y107543D01*
X133153Y107465D01*
X133162Y107386D01*
X133185Y107311D01*
X133234Y107161D01*
X133268Y107007D01*
X133289Y106850D01*
X133296Y106693D01*
X133289Y106535D01*
X133268Y106379D01*
X133234Y106225D01*
X133187Y106075D01*
X133164Y105999D01*
X133155Y105921D01*
X133158Y105843D01*
X133174Y105765D01*
X133201Y105692D01*
X133240Y105623D01*
X133289Y105561D01*
X133347Y105508D01*
X133412Y105465D01*
X133484Y105432D01*
X133560Y105411D01*
X133638Y105402D01*
X133716Y105405D01*
X133726Y105407D01*
Y98392D01*
G37*
G36*
X131497Y157480D02*X133726D01*
Y149257D01*
X133526Y149380D01*
X133307Y149470D01*
X133078Y149525D01*
X132843Y149539D01*
X131497Y149536D01*
Y157480D01*
G37*
G36*
Y97989D02*X131420Y97942D01*
X131085Y97655D01*
X130799Y97320D01*
X130568Y96944D01*
X130400Y96537D01*
X130297Y96109D01*
X130262Y95669D01*
X130297Y95230D01*
X130400Y94801D01*
X130568Y94394D01*
X130799Y94018D01*
X131085Y93683D01*
X131420Y93397D01*
X131497Y93350D01*
Y89128D01*
X129002Y91624D01*
Y99461D01*
X129151Y99589D01*
X129438Y99924D01*
X129668Y100300D01*
X129837Y100707D01*
X129939Y101135D01*
X129965Y101575D01*
X129939Y102014D01*
X129837Y102443D01*
X129668Y102850D01*
X129438Y103226D01*
X129151Y103561D01*
X129002Y103689D01*
Y105528D01*
X129055Y105485D01*
X129124Y105446D01*
X129198Y105419D01*
X129275Y105403D01*
X129354Y105400D01*
X129433Y105409D01*
X129509Y105430D01*
X129581Y105463D01*
X129646Y105507D01*
X129705Y105560D01*
X129754Y105622D01*
X129792Y105691D01*
X129820Y105765D01*
X129836Y105842D01*
X129839Y105921D01*
X129830Y106000D01*
X129807Y106075D01*
X129758Y106225D01*
X129724Y106379D01*
X129703Y106535D01*
X129696Y106693D01*
X129703Y106850D01*
X129724Y107007D01*
X129758Y107161D01*
X129806Y107311D01*
X129828Y107386D01*
X129837Y107465D01*
X129834Y107543D01*
X129818Y107620D01*
X129791Y107694D01*
X129752Y107763D01*
X129703Y107824D01*
X129645Y107878D01*
X129580Y107921D01*
X129508Y107954D01*
X129432Y107975D01*
X129354Y107984D01*
X129276Y107981D01*
X129198Y107965D01*
X129125Y107938D01*
X129056Y107899D01*
X129002Y107856D01*
Y130604D01*
X129069Y130617D01*
X129143Y130645D01*
X129212Y130684D01*
X129273Y130732D01*
X129326Y130790D01*
X129370Y130856D01*
X129401Y130928D01*
X129478Y131161D01*
X129531Y131401D01*
X129564Y131644D01*
X129574Y131890D01*
X129564Y132135D01*
X129531Y132379D01*
X129478Y132618D01*
X129404Y132852D01*
X129372Y132924D01*
X129328Y132990D01*
X129274Y133048D01*
X129213Y133097D01*
X129144Y133136D01*
X129070Y133164D01*
X129002Y133178D01*
Y140544D01*
X131497Y140550D01*
Y109496D01*
X131496Y109496D01*
X131251Y109485D01*
X131007Y109453D01*
X130768Y109399D01*
X130533Y109325D01*
X130461Y109293D01*
X130396Y109249D01*
X130337Y109196D01*
X130288Y109134D01*
X130250Y109065D01*
X130222Y108991D01*
X130206Y108914D01*
X130203Y108835D01*
X130212Y108756D01*
X130233Y108680D01*
X130266Y108608D01*
X130310Y108543D01*
X130363Y108484D01*
X130425Y108435D01*
X130494Y108397D01*
X130568Y108369D01*
X130646Y108353D01*
X130724Y108350D01*
X130803Y108359D01*
X130878Y108382D01*
X131028Y108431D01*
X131182Y108465D01*
X131338Y108486D01*
X131496Y108493D01*
X131497Y108493D01*
Y104893D01*
X131496Y104893D01*
X131338Y104900D01*
X131182Y104921D01*
X131028Y104955D01*
X130878Y105002D01*
X130803Y105025D01*
X130724Y105034D01*
X130646Y105031D01*
X130569Y105015D01*
X130495Y104988D01*
X130426Y104949D01*
X130365Y104900D01*
X130311Y104842D01*
X130268Y104777D01*
X130235Y104705D01*
X130214Y104629D01*
X130205Y104551D01*
X130208Y104472D01*
X130224Y104395D01*
X130251Y104322D01*
X130290Y104253D01*
X130339Y104191D01*
X130397Y104138D01*
X130462Y104095D01*
X130534Y104063D01*
X130768Y103987D01*
X131007Y103933D01*
X131251Y103901D01*
X131496Y103890D01*
X131497Y103890D01*
Y97989D01*
G37*
G36*
X129002Y157480D02*X131497D01*
Y149536D01*
X129002Y149531D01*
Y157480D01*
G37*
G36*
Y103689D02*X128816Y103847D01*
X128440Y104077D01*
X128033Y104246D01*
X127605Y104349D01*
X127165Y104383D01*
X126773Y104353D01*
Y129087D01*
X127017Y129098D01*
X127260Y129130D01*
X127500Y129183D01*
X127734Y129258D01*
X127806Y129290D01*
X127872Y129334D01*
X127930Y129387D01*
X127979Y129449D01*
X128018Y129518D01*
X128046Y129592D01*
X128061Y129669D01*
X128065Y129748D01*
X128056Y129826D01*
X128034Y129903D01*
X128001Y129974D01*
X127958Y130040D01*
X127904Y130098D01*
X127842Y130147D01*
X127774Y130186D01*
X127700Y130214D01*
X127622Y130229D01*
X127543Y130233D01*
X127465Y130224D01*
X127389Y130201D01*
X127240Y130152D01*
X127086Y130117D01*
X126929Y130097D01*
X126773Y130090D01*
Y133690D01*
X126929Y133683D01*
X127086Y133662D01*
X127240Y133628D01*
X127390Y133580D01*
X127465Y133558D01*
X127543Y133549D01*
X127622Y133552D01*
X127699Y133568D01*
X127773Y133595D01*
X127841Y133634D01*
X127903Y133683D01*
X127956Y133740D01*
X128000Y133806D01*
X128033Y133878D01*
X128054Y133953D01*
X128063Y134032D01*
X128060Y134110D01*
X128044Y134187D01*
X128017Y134261D01*
X127978Y134330D01*
X127929Y134391D01*
X127871Y134445D01*
X127805Y134488D01*
X127733Y134519D01*
X127500Y134596D01*
X127260Y134649D01*
X127017Y134682D01*
X126773Y134692D01*
Y140544D01*
X126843Y140539D01*
X129002Y140544D01*
Y133178D01*
X128992Y133179D01*
X128913Y133183D01*
X128835Y133174D01*
X128759Y133152D01*
X128687Y133120D01*
X128621Y133076D01*
X128563Y133022D01*
X128514Y132961D01*
X128475Y132892D01*
X128448Y132818D01*
X128432Y132740D01*
X128429Y132661D01*
X128438Y132583D01*
X128461Y132507D01*
X128510Y132358D01*
X128544Y132204D01*
X128565Y132047D01*
X128572Y131890D01*
X128565Y131732D01*
X128544Y131576D01*
X128510Y131422D01*
X128462Y131272D01*
X128440Y131196D01*
X128431Y131118D01*
X128434Y131039D01*
X128449Y130962D01*
X128477Y130889D01*
X128515Y130820D01*
X128564Y130758D01*
X128622Y130705D01*
X128688Y130661D01*
X128759Y130629D01*
X128835Y130608D01*
X128913Y130599D01*
X128992Y130602D01*
X129002Y130604D01*
Y107856D01*
X128995Y107850D01*
X128941Y107792D01*
X128898Y107727D01*
X128866Y107655D01*
X128790Y107421D01*
X128736Y107182D01*
X128704Y106938D01*
X128693Y106693D01*
X128704Y106448D01*
X128736Y106204D01*
X128790Y105964D01*
X128864Y105730D01*
X128896Y105658D01*
X128940Y105592D01*
X128993Y105534D01*
X129002Y105528D01*
Y103689D01*
G37*
G36*
Y91624D02*X128665Y91960D01*
Y99210D01*
X128816Y99303D01*
X129002Y99461D01*
Y91624D01*
G37*
G36*
X126773Y157480D02*X129002D01*
Y149531D01*
X128063Y149529D01*
X126773Y150819D01*
Y157480D01*
G37*
G36*
Y10236D02*X102459D01*
Y12411D01*
X102464Y12411D01*
X102935Y12448D01*
X103394Y12558D01*
X103830Y12739D01*
X104233Y12986D01*
X104592Y13292D01*
X104898Y13652D01*
X105145Y14054D01*
X105326Y14490D01*
X105436Y14950D01*
X105464Y15420D01*
X105436Y15891D01*
X105326Y16350D01*
X105297Y16420D01*
X105326Y16490D01*
X105436Y16950D01*
X105464Y17420D01*
X105436Y17891D01*
X105326Y18350D01*
X105297Y18420D01*
X105326Y18490D01*
X105436Y18950D01*
X105464Y19420D01*
X105436Y19891D01*
X105326Y20350D01*
X105145Y20786D01*
X104898Y21189D01*
X104592Y21548D01*
X104233Y21855D01*
X103830Y22102D01*
X103394Y22282D01*
X102935Y22393D01*
X102464Y22430D01*
X102459Y22429D01*
Y40068D01*
X107041Y35485D01*
Y26269D01*
X107034Y26181D01*
X107062Y25828D01*
Y25828D01*
X107145Y25484D01*
X107199Y25353D01*
Y17765D01*
X107192Y17677D01*
X107220Y17324D01*
Y17324D01*
X107302Y16980D01*
X107438Y16653D01*
X107508Y16538D01*
X107623Y16351D01*
X107623Y16350D01*
X107853Y16081D01*
X107920Y16024D01*
X110906Y13038D01*
X110963Y12971D01*
X111232Y12741D01*
X111232Y12741D01*
X111420Y12626D01*
X111534Y12556D01*
X111862Y12420D01*
X112206Y12338D01*
X112206D01*
X112559Y12310D01*
X112647Y12317D01*
X114881D01*
X115011Y12263D01*
X115356Y12180D01*
X115356D01*
X115709Y12153D01*
X115797Y12159D01*
X122983D01*
X123071Y12153D01*
X123424Y12180D01*
X123424Y12180D01*
X123768Y12263D01*
X123789Y12272D01*
X124175Y12179D01*
X124803Y12129D01*
X125431Y12179D01*
X126043Y12326D01*
X126625Y12567D01*
X126773Y12657D01*
Y10236D01*
G37*
G36*
X102459D02*X98421D01*
Y25250D01*
X98662Y25350D01*
X98964Y25535D01*
X99234Y25765D01*
X99464Y26035D01*
X99649Y26337D01*
X99784Y26664D01*
X99867Y27008D01*
X99888Y27361D01*
X99867Y27714D01*
X99784Y28059D01*
X99649Y28386D01*
X99464Y28688D01*
X99234Y28957D01*
X98964Y29187D01*
X98662Y29372D01*
X98421Y29472D01*
Y40781D01*
X101745D01*
X102459Y40068D01*
Y22429D01*
X101993Y22393D01*
X101534Y22282D01*
X101098Y22102D01*
X100695Y21855D01*
X100336Y21548D01*
X100029Y21189D01*
X99783Y20786D01*
X99602Y20350D01*
X99492Y19891D01*
X99455Y19420D01*
X99492Y18950D01*
X99602Y18490D01*
X99631Y18420D01*
X99602Y18350D01*
X99492Y17891D01*
X99455Y17420D01*
X99492Y16950D01*
X99602Y16490D01*
X99631Y16420D01*
X99602Y16350D01*
X99492Y15891D01*
X99455Y15420D01*
X99492Y14950D01*
X99602Y14490D01*
X99783Y14054D01*
X100029Y13652D01*
X100336Y13292D01*
X100695Y12986D01*
X101098Y12739D01*
X101534Y12558D01*
X101993Y12448D01*
X102459Y12411D01*
Y10236D01*
G37*
G36*
X124542Y100592D02*X124663Y100300D01*
X124893Y99924D01*
X125179Y99589D01*
X125514Y99303D01*
X125665Y99210D01*
Y91397D01*
X125661Y91339D01*
X125679Y91103D01*
X125734Y90874D01*
X125825Y90655D01*
X125948Y90454D01*
X126101Y90275D01*
X126146Y90236D01*
X126773Y89610D01*
Y19626D01*
X126625Y19717D01*
X126043Y19958D01*
X125431Y20105D01*
X124803Y20154D01*
X124542Y20133D01*
Y100592D01*
G37*
G36*
X126773Y104353D02*X126726Y104349D01*
X126297Y104246D01*
X125890Y104077D01*
X125514Y103847D01*
X125179Y103561D01*
X124893Y103226D01*
X124663Y102850D01*
X124542Y102558D01*
Y130602D01*
X124551Y130600D01*
X124630Y130597D01*
X124708Y130606D01*
X124784Y130627D01*
X124856Y130660D01*
X124922Y130704D01*
X124980Y130757D01*
X125029Y130819D01*
X125068Y130888D01*
X125096Y130962D01*
X125111Y131039D01*
X125115Y131118D01*
X125105Y131197D01*
X125083Y131272D01*
X125034Y131422D01*
X124999Y131576D01*
X124979Y131732D01*
X124972Y131890D01*
X124979Y132047D01*
X124999Y132204D01*
X125034Y132358D01*
X125081Y132508D01*
X125104Y132583D01*
X125113Y132661D01*
X125109Y132740D01*
X125094Y132817D01*
X125066Y132891D01*
X125028Y132960D01*
X124979Y133021D01*
X124921Y133074D01*
X124855Y133118D01*
X124784Y133151D01*
X124708Y133172D01*
X124630Y133181D01*
X124551Y133178D01*
X124542Y133176D01*
Y146686D01*
X125347Y145880D01*
X125356Y141804D01*
X125412Y141574D01*
X125502Y141356D01*
X125625Y141155D01*
X125779Y140975D01*
X125958Y140822D01*
X126159Y140699D01*
X126378Y140608D01*
X126607Y140553D01*
X126773Y140544D01*
Y134692D01*
X126772Y134692D01*
X126526Y134682D01*
X126283Y134649D01*
X126043Y134596D01*
X125809Y134522D01*
X125737Y134490D01*
X125671Y134446D01*
X125613Y134393D01*
X125564Y134331D01*
X125525Y134262D01*
X125498Y134188D01*
X125482Y134110D01*
X125479Y134031D01*
X125488Y133953D01*
X125509Y133877D01*
X125542Y133805D01*
X125586Y133739D01*
X125639Y133681D01*
X125701Y133632D01*
X125770Y133593D01*
X125844Y133566D01*
X125921Y133550D01*
X126000Y133547D01*
X126078Y133556D01*
X126154Y133579D01*
X126304Y133628D01*
X126458Y133662D01*
X126614Y133683D01*
X126772Y133690D01*
X126773Y133690D01*
Y130090D01*
X126772Y130090D01*
X126614Y130097D01*
X126458Y130117D01*
X126304Y130152D01*
X126153Y130199D01*
X126078Y130222D01*
X126000Y130231D01*
X125921Y130228D01*
X125844Y130212D01*
X125770Y130185D01*
X125702Y130146D01*
X125640Y130097D01*
X125587Y130039D01*
X125543Y129974D01*
X125511Y129902D01*
X125489Y129826D01*
X125480Y129748D01*
X125484Y129669D01*
X125499Y129592D01*
X125527Y129518D01*
X125565Y129450D01*
X125614Y129388D01*
X125672Y129335D01*
X125738Y129291D01*
X125810Y129260D01*
X126043Y129183D01*
X126283Y129130D01*
X126526Y129098D01*
X126772Y129087D01*
X126773Y129087D01*
Y104353D01*
G37*
G36*
X116931Y152868D02*X118359D01*
X122774Y148454D01*
X122496Y148691D01*
X121892Y149061D01*
X121237Y149332D01*
X120549Y149498D01*
X119843Y149553D01*
X119136Y149498D01*
X118448Y149332D01*
X117793Y149061D01*
X117189Y148691D01*
X116931Y148470D01*
Y152868D01*
G37*
G36*
X124542Y102558D02*X124494Y102443D01*
X124391Y102014D01*
X124357Y101575D01*
X124391Y101135D01*
X124494Y100707D01*
X124542Y100592D01*
Y20133D01*
X124175Y20105D01*
X123563Y19958D01*
X122982Y19717D01*
X122445Y19388D01*
X121966Y18979D01*
X121557Y18500D01*
X121228Y17963D01*
X120987Y17382D01*
X120840Y16769D01*
X120832Y16659D01*
X120213D01*
Y19128D01*
X120216Y19130D01*
X120284Y19169D01*
X120346Y19218D01*
X120398Y19277D01*
X120440Y19343D01*
X120603Y19668D01*
X120733Y20008D01*
X120830Y20358D01*
X120896Y20716D01*
X120929Y21078D01*
Y21442D01*
X120896Y21804D01*
X120830Y22162D01*
X120733Y22512D01*
X120603Y22852D01*
X120444Y23178D01*
X120401Y23245D01*
X120348Y23304D01*
X120286Y23353D01*
X120217Y23393D01*
X120213Y23395D01*
Y75587D01*
X122842Y75593D01*
X123071Y75648D01*
X123289Y75738D01*
X123491Y75861D01*
X123670Y76015D01*
X123824Y76194D01*
X123947Y76396D01*
X124037Y76614D01*
X124092Y76843D01*
X124106Y77079D01*
X124092Y83314D01*
X124037Y83544D01*
X123947Y83762D01*
X123824Y83963D01*
X123670Y84143D01*
X123491Y84296D01*
X123289Y84419D01*
X123071Y84510D01*
X122842Y84565D01*
X122606Y84579D01*
X120213Y84573D01*
Y140555D01*
X120549Y140581D01*
X121237Y140746D01*
X121892Y141017D01*
X122496Y141388D01*
X123034Y141848D01*
X123494Y142386D01*
X123864Y142990D01*
X124135Y143645D01*
X124301Y144333D01*
X124343Y145039D01*
X124301Y145745D01*
X124135Y146434D01*
X123864Y147089D01*
X123494Y147693D01*
X123257Y147971D01*
X124542Y146686D01*
Y133176D01*
X124474Y133162D01*
X124400Y133135D01*
X124332Y133096D01*
X124270Y133047D01*
X124217Y132989D01*
X124173Y132924D01*
X124142Y132851D01*
X124065Y132618D01*
X124012Y132379D01*
X123980Y132135D01*
X123969Y131890D01*
X123980Y131644D01*
X124012Y131401D01*
X124065Y131161D01*
X124139Y130927D01*
X124172Y130855D01*
X124215Y130789D01*
X124269Y130731D01*
X124331Y130682D01*
X124400Y130643D01*
X124474Y130616D01*
X124542Y130602D01*
Y102558D01*
G37*
G36*
X120213Y84573D02*X116931Y84566D01*
Y129496D01*
X116947Y129510D01*
X117233Y129845D01*
X117463Y130221D01*
X117632Y130628D01*
X117735Y131057D01*
X117761Y131496D01*
X117735Y131935D01*
X117632Y132364D01*
X117463Y132771D01*
X117233Y133147D01*
X116947Y133482D01*
X116931Y133496D01*
Y141608D01*
X117189Y141388D01*
X117793Y141017D01*
X118448Y140746D01*
X119136Y140581D01*
X119843Y140525D01*
X120213Y140555D01*
Y84573D01*
G37*
G36*
Y16659D02*X116931D01*
Y17260D01*
X117111D01*
X117473Y17293D01*
X117831Y17359D01*
X118181Y17456D01*
X118521Y17586D01*
X118848Y17745D01*
X118914Y17788D01*
X118973Y17841D01*
X119023Y17903D01*
X119062Y17972D01*
X119090Y18046D01*
X119107Y18123D01*
X119111Y18202D01*
X119102Y18281D01*
X119081Y18357D01*
X119049Y18430D01*
X119006Y18496D01*
X118953Y18555D01*
X118891Y18604D01*
X118822Y18644D01*
X118748Y18672D01*
X118671Y18688D01*
X118592Y18692D01*
X118513Y18684D01*
X118437Y18663D01*
X118365Y18629D01*
X118122Y18507D01*
X117867Y18410D01*
X117605Y18337D01*
X117337Y18288D01*
X117065Y18263D01*
X116931D01*
Y24257D01*
X117065D01*
X117337Y24232D01*
X117605Y24183D01*
X117867Y24109D01*
X118122Y24013D01*
X118367Y23893D01*
X118438Y23860D01*
X118514Y23839D01*
X118592Y23831D01*
X118670Y23835D01*
X118748Y23851D01*
X118821Y23879D01*
X118889Y23918D01*
X118951Y23967D01*
X119003Y24026D01*
X119046Y24092D01*
X119079Y24163D01*
X119099Y24239D01*
X119107Y24318D01*
X119104Y24396D01*
X119087Y24473D01*
X119059Y24547D01*
X119020Y24615D01*
X118971Y24676D01*
X118912Y24729D01*
X118846Y24771D01*
X118521Y24934D01*
X118181Y25063D01*
X117831Y25161D01*
X117473Y25227D01*
X117111Y25260D01*
X116931D01*
Y75579D01*
X120213Y75587D01*
Y23395D01*
X120143Y23421D01*
X120066Y23437D01*
X119987Y23441D01*
X119908Y23433D01*
X119832Y23412D01*
X119759Y23380D01*
X119693Y23337D01*
X119634Y23283D01*
X119585Y23222D01*
X119545Y23153D01*
X119517Y23079D01*
X119501Y23002D01*
X119497Y22923D01*
X119505Y22844D01*
X119526Y22767D01*
X119560Y22696D01*
X119682Y22452D01*
X119779Y22198D01*
X119852Y21935D01*
X119901Y21667D01*
X119926Y21396D01*
Y21124D01*
X119901Y20852D01*
X119852Y20584D01*
X119779Y20322D01*
X119682Y20067D01*
X119562Y19822D01*
X119529Y19751D01*
X119508Y19675D01*
X119500Y19597D01*
X119504Y19518D01*
X119520Y19441D01*
X119548Y19368D01*
X119587Y19300D01*
X119637Y19238D01*
X119695Y19186D01*
X119761Y19143D01*
X119833Y19110D01*
X119909Y19090D01*
X119987Y19081D01*
X120066Y19085D01*
X120143Y19102D01*
X120213Y19128D01*
Y16659D01*
G37*
G36*
X116931Y133496D02*X116612Y133768D01*
X116236Y133999D01*
X115829Y134167D01*
X115400Y134270D01*
X114961Y134305D01*
X114521Y134270D01*
X114093Y134167D01*
X113686Y133999D01*
X113310Y133768D01*
X113284Y133746D01*
X109836D01*
Y140526D01*
X109843Y140525D01*
X110549Y140581D01*
X111237Y140746D01*
X111892Y141017D01*
X112496Y141388D01*
X113034Y141848D01*
X113494Y142386D01*
X113864Y142990D01*
X114135Y143645D01*
X114301Y144333D01*
X114343Y145039D01*
X114301Y145745D01*
X114135Y146434D01*
X113864Y147089D01*
X113494Y147693D01*
X113034Y148231D01*
X112496Y148691D01*
X111892Y149061D01*
X111237Y149332D01*
X110549Y149498D01*
X109843Y149553D01*
X109836Y149553D01*
Y152868D01*
X116931D01*
Y148470D01*
X116651Y148231D01*
X116191Y147693D01*
X115821Y147089D01*
X115550Y146434D01*
X115384Y145745D01*
X115329Y145039D01*
X115384Y144333D01*
X115550Y143645D01*
X115821Y142990D01*
X116191Y142386D01*
X116651Y141848D01*
X116931Y141608D01*
Y133496D01*
G37*
G36*
X109836Y133746D02*X103456D01*
Y142892D01*
X103498Y142899D01*
X103610Y142937D01*
X103715Y142991D01*
X103810Y143061D01*
X103893Y143145D01*
X103962Y143241D01*
X104012Y143348D01*
X104161Y143755D01*
X104264Y144177D01*
X104327Y144606D01*
X104348Y145039D01*
X104327Y145473D01*
X104264Y145902D01*
X104161Y146324D01*
X104017Y146733D01*
X103965Y146839D01*
X103896Y146936D01*
X103812Y147020D01*
X103717Y147091D01*
X103612Y147145D01*
X103499Y147183D01*
X103456Y147190D01*
Y152868D01*
X109836D01*
Y149553D01*
X109136Y149498D01*
X108448Y149332D01*
X107793Y149061D01*
X107189Y148691D01*
X106651Y148231D01*
X106191Y147693D01*
X105821Y147089D01*
X105550Y146434D01*
X105384Y145745D01*
X105329Y145039D01*
X105384Y144333D01*
X105550Y143645D01*
X105821Y142990D01*
X106191Y142386D01*
X106651Y141848D01*
X107189Y141388D01*
X107793Y141017D01*
X108448Y140746D01*
X109136Y140581D01*
X109836Y140526D01*
Y133746D01*
G37*
G36*
X103456D02*X98421D01*
Y140771D01*
X98558Y140721D01*
X98980Y140618D01*
X99409Y140555D01*
X99843Y140534D01*
X100276Y140555D01*
X100705Y140618D01*
X101127Y140721D01*
X101536Y140865D01*
X101642Y140917D01*
X101739Y140986D01*
X101823Y141069D01*
X101894Y141165D01*
X101948Y141270D01*
X101986Y141383D01*
X102005Y141500D01*
X102006Y141618D01*
X101988Y141736D01*
X101953Y141849D01*
X101900Y141955D01*
X101831Y142051D01*
X101747Y142136D01*
X101652Y142206D01*
X101547Y142261D01*
X101434Y142298D01*
X101317Y142317D01*
X101198Y142318D01*
X101081Y142301D01*
X100969Y142263D01*
X100698Y142164D01*
X100417Y142095D01*
X100131Y142053D01*
X99843Y142039D01*
X99554Y142053D01*
X99268Y142095D01*
X98987Y142164D01*
X98715Y142259D01*
X98603Y142297D01*
X98486Y142315D01*
X98421Y142314D01*
Y147761D01*
X98487Y147760D01*
X98604Y147778D01*
X98716Y147816D01*
X98987Y147915D01*
X99268Y147984D01*
X99554Y148025D01*
X99843Y148039D01*
X100131Y148025D01*
X100417Y147984D01*
X100698Y147915D01*
X100970Y147819D01*
X101082Y147782D01*
X101199Y147764D01*
X101317Y147765D01*
X101433Y147784D01*
X101545Y147821D01*
X101650Y147876D01*
X101745Y147946D01*
X101828Y148030D01*
X101897Y148126D01*
X101949Y148231D01*
X101985Y148344D01*
X102003Y148461D01*
X102002Y148579D01*
X101982Y148695D01*
X101945Y148807D01*
X101891Y148912D01*
X101821Y149007D01*
X101737Y149090D01*
X101641Y149159D01*
X101534Y149209D01*
X101127Y149358D01*
X100705Y149461D01*
X100276Y149524D01*
X99843Y149545D01*
X99409Y149524D01*
X98980Y149461D01*
X98558Y149358D01*
X98421Y149309D01*
Y152868D01*
X103456D01*
Y147190D01*
X103382Y147202D01*
X103264Y147203D01*
X103146Y147185D01*
X103033Y147149D01*
X102927Y147096D01*
X102831Y147027D01*
X102746Y146944D01*
X102676Y146849D01*
X102621Y146743D01*
X102584Y146631D01*
X102564Y146514D01*
X102564Y146395D01*
X102581Y146278D01*
X102619Y146166D01*
X102718Y145894D01*
X102787Y145614D01*
X102829Y145328D01*
X102843Y145039D01*
X102829Y144751D01*
X102787Y144465D01*
X102718Y144184D01*
X102622Y143912D01*
X102585Y143800D01*
X102567Y143683D01*
X102568Y143565D01*
X102587Y143449D01*
X102625Y143337D01*
X102679Y143232D01*
X102749Y143137D01*
X102833Y143054D01*
X102929Y142985D01*
X103035Y142933D01*
X103147Y142897D01*
X103264Y142879D01*
X103382Y142880D01*
X103456Y142892D01*
Y133746D01*
G37*
G36*
X116931Y16659D02*X116379D01*
X116249Y16713D01*
X115904Y16796D01*
X115551Y16824D01*
X115463Y16817D01*
X113645D01*
Y19125D01*
X113715Y19099D01*
X113792Y19082D01*
X113871Y19078D01*
X113950Y19087D01*
X114027Y19108D01*
X114099Y19140D01*
X114165Y19183D01*
X114224Y19236D01*
X114274Y19298D01*
X114313Y19367D01*
X114341Y19441D01*
X114358Y19518D01*
X114362Y19597D01*
X114353Y19676D01*
X114332Y19752D01*
X114299Y19824D01*
X114176Y20067D01*
X114080Y20322D01*
X114006Y20584D01*
X113957Y20852D01*
X113932Y21124D01*
Y21396D01*
X113957Y21667D01*
X114006Y21935D01*
X114080Y22198D01*
X114176Y22452D01*
X114296Y22697D01*
X114329Y22768D01*
X114350Y22844D01*
X114358Y22923D01*
X114354Y23001D01*
X114338Y23078D01*
X114310Y23152D01*
X114271Y23220D01*
X114222Y23281D01*
X114163Y23334D01*
X114097Y23377D01*
X114026Y23409D01*
X113950Y23430D01*
X113871Y23438D01*
X113793Y23434D01*
X113716Y23418D01*
X113645Y23391D01*
Y78071D01*
X113899Y78684D01*
X114065Y79373D01*
X114106Y80079D01*
X114065Y80785D01*
X113899Y81474D01*
X113645Y82087D01*
Y129018D01*
X113686Y128994D01*
X114093Y128825D01*
X114521Y128722D01*
X114961Y128687D01*
X115400Y128722D01*
X115829Y128825D01*
X116236Y128994D01*
X116612Y129224D01*
X116931Y129496D01*
Y84566D01*
X116371Y84565D01*
X116141Y84510D01*
X115923Y84419D01*
X115722Y84296D01*
X115542Y84143D01*
X115389Y83963D01*
X115266Y83762D01*
X115175Y83544D01*
X115120Y83314D01*
X115106Y83079D01*
X115120Y76843D01*
X115175Y76614D01*
X115266Y76396D01*
X115389Y76194D01*
X115542Y76015D01*
X115722Y75861D01*
X115923Y75738D01*
X116141Y75648D01*
X116371Y75593D01*
X116606Y75579D01*
X116931Y75579D01*
Y25260D01*
X116747D01*
X116385Y25227D01*
X116027Y25161D01*
X115677Y25063D01*
X115337Y24934D01*
X115011Y24774D01*
X114944Y24732D01*
X114885Y24678D01*
X114836Y24617D01*
X114796Y24548D01*
X114768Y24474D01*
X114752Y24397D01*
X114748Y24318D01*
X114756Y24239D01*
X114777Y24162D01*
X114809Y24090D01*
X114852Y24024D01*
X114906Y23965D01*
X114967Y23915D01*
X115036Y23876D01*
X115110Y23848D01*
X115187Y23831D01*
X115266Y23827D01*
X115345Y23836D01*
X115422Y23857D01*
X115493Y23890D01*
X115737Y24013D01*
X115991Y24109D01*
X116254Y24183D01*
X116522Y24232D01*
X116793Y24257D01*
X116931D01*
Y18263D01*
X116793D01*
X116522Y18288D01*
X116254Y18337D01*
X115991Y18410D01*
X115737Y18507D01*
X115492Y18627D01*
X115421Y18660D01*
X115345Y18681D01*
X115266Y18689D01*
X115188Y18685D01*
X115111Y18669D01*
X115037Y18641D01*
X114969Y18602D01*
X114908Y18552D01*
X114855Y18494D01*
X114812Y18428D01*
X114780Y18356D01*
X114759Y18280D01*
X114751Y18202D01*
X114755Y18123D01*
X114771Y18046D01*
X114799Y17973D01*
X114838Y17905D01*
X114888Y17843D01*
X114946Y17791D01*
X115013Y17749D01*
X115337Y17586D01*
X115677Y17456D01*
X116027Y17359D01*
X116385Y17293D01*
X116747Y17260D01*
X116931D01*
Y16659D01*
G37*
G36*
X113645Y82087D02*X113628Y82128D01*
X113258Y82732D01*
X112798Y83271D01*
X112259Y83731D01*
X111856Y83978D01*
Y86369D01*
X111863Y86457D01*
X111835Y86810D01*
X111753Y87154D01*
X111713Y87250D01*
X111617Y87481D01*
X111503Y87669D01*
X111432Y87783D01*
X111432Y87783D01*
X111202Y88053D01*
X111135Y88110D01*
X101260Y97985D01*
X101202Y98053D01*
X100933Y98283D01*
X100933Y98283D01*
X100818Y98353D01*
X100631Y98468D01*
X100400Y98563D01*
X100304Y98603D01*
X99959Y98686D01*
X99606Y98714D01*
X99518Y98707D01*
X98421D01*
Y129246D01*
X113284D01*
X113310Y129224D01*
X113645Y129018D01*
Y82087D01*
G37*
G36*
Y16817D02*X113491D01*
X111699Y18609D01*
Y25935D01*
X111706Y26024D01*
X111678Y26377D01*
X111595Y26721D01*
X111556Y26817D01*
X111541Y26851D01*
Y36329D01*
X111548Y36417D01*
X111520Y36770D01*
X111438Y37115D01*
X111398Y37211D01*
X111302Y37442D01*
X111188Y37629D01*
X111117Y37744D01*
X111117Y37744D01*
X110887Y38013D01*
X110820Y38071D01*
X104331Y44560D01*
X104273Y44627D01*
X104004Y44857D01*
X104004Y44857D01*
X103889Y44928D01*
X103702Y45042D01*
X103470Y45138D01*
X103375Y45178D01*
X103219Y45215D01*
Y77932D01*
X103262Y77939D01*
X103374Y77976D01*
X103479Y78030D01*
X103574Y78101D01*
X103657Y78185D01*
X103726Y78281D01*
X103776Y78387D01*
X103925Y78795D01*
X104028Y79216D01*
X104091Y79645D01*
X104112Y80079D01*
X104091Y80512D01*
X104028Y80942D01*
X103925Y81363D01*
X103781Y81772D01*
X103729Y81879D01*
X103660Y81975D01*
X103576Y82060D01*
X103481Y82130D01*
X103376Y82185D01*
X103263Y82222D01*
X103219Y82229D01*
Y89662D01*
X107356Y85525D01*
Y83978D01*
X106953Y83731D01*
X106415Y83271D01*
X105954Y82732D01*
X105584Y82128D01*
X105313Y81474D01*
X105148Y80785D01*
X105092Y80079D01*
X105148Y79373D01*
X105313Y78684D01*
X105584Y78029D01*
X105954Y77426D01*
X106415Y76887D01*
X106953Y76427D01*
X107557Y76057D01*
X108211Y75786D01*
X108900Y75620D01*
X109606Y75565D01*
X110312Y75620D01*
X111001Y75786D01*
X111656Y76057D01*
X112259Y76427D01*
X112798Y76887D01*
X113258Y77426D01*
X113628Y78029D01*
X113645Y78071D01*
Y23391D01*
X113642Y23390D01*
X113574Y23351D01*
X113513Y23301D01*
X113460Y23243D01*
X113418Y23176D01*
X113255Y22852D01*
X113126Y22512D01*
X113028Y22162D01*
X112962Y21804D01*
X112929Y21442D01*
Y21078D01*
X112962Y20716D01*
X113028Y20358D01*
X113126Y20008D01*
X113255Y19668D01*
X113415Y19341D01*
X113457Y19275D01*
X113511Y19216D01*
X113572Y19166D01*
X113641Y19127D01*
X113645Y19125D01*
Y16817D01*
G37*
G36*
X103219Y45215D02*X103030Y45261D01*
X102677Y45288D01*
X102589Y45281D01*
X98421D01*
Y75736D01*
X98744Y75657D01*
X99173Y75594D01*
X99606Y75574D01*
X100040Y75594D01*
X100469Y75657D01*
X100890Y75760D01*
X101300Y75904D01*
X101406Y75957D01*
X101503Y76026D01*
X101587Y76109D01*
X101658Y76204D01*
X101712Y76309D01*
X101750Y76422D01*
X101769Y76539D01*
X101770Y76658D01*
X101752Y76775D01*
X101716Y76888D01*
X101663Y76994D01*
X101594Y77090D01*
X101511Y77175D01*
X101416Y77245D01*
X101310Y77300D01*
X101198Y77337D01*
X101081Y77357D01*
X100962Y77358D01*
X100845Y77340D01*
X100733Y77302D01*
X100461Y77203D01*
X100181Y77134D01*
X99895Y77093D01*
X99606Y77079D01*
X99318Y77093D01*
X99032Y77134D01*
X98751Y77203D01*
X98479Y77299D01*
X98421Y77318D01*
Y82836D01*
X98480Y82855D01*
X98751Y82954D01*
X99032Y83023D01*
X99318Y83065D01*
X99606Y83079D01*
X99895Y83065D01*
X100181Y83023D01*
X100461Y82954D01*
X100734Y82859D01*
X100846Y82821D01*
X100962Y82803D01*
X101081Y82804D01*
X101197Y82823D01*
X101309Y82861D01*
X101414Y82915D01*
X101509Y82985D01*
X101592Y83069D01*
X101660Y83165D01*
X101713Y83271D01*
X101749Y83383D01*
X101766Y83500D01*
X101766Y83618D01*
X101746Y83735D01*
X101709Y83847D01*
X101655Y83951D01*
X101585Y84046D01*
X101500Y84129D01*
X101404Y84198D01*
X101298Y84249D01*
X100890Y84397D01*
X100469Y84501D01*
X100040Y84563D01*
X99606Y84584D01*
X99173Y84563D01*
X98744Y84501D01*
X98421Y84421D01*
Y94207D01*
X98674D01*
X103219Y89662D01*
Y82229D01*
X103146Y82241D01*
X103027Y82242D01*
X102910Y82225D01*
X102797Y82189D01*
X102691Y82136D01*
X102595Y82067D01*
X102510Y81984D01*
X102440Y81888D01*
X102385Y81783D01*
X102348Y81670D01*
X102328Y81553D01*
X102327Y81435D01*
X102345Y81317D01*
X102383Y81205D01*
X102482Y80934D01*
X102551Y80653D01*
X102592Y80367D01*
X102606Y80079D01*
X102592Y79790D01*
X102551Y79504D01*
X102482Y79224D01*
X102386Y78951D01*
X102348Y78839D01*
X102331Y78723D01*
X102332Y78605D01*
X102351Y78488D01*
X102388Y78376D01*
X102443Y78271D01*
X102513Y78176D01*
X102597Y78093D01*
X102693Y78025D01*
X102798Y77972D01*
X102911Y77936D01*
X103028Y77919D01*
X103146Y77919D01*
X103219Y77932D01*
Y45215D01*
G37*
G36*
X98421Y157480D02*X126773D01*
Y150819D01*
X120945Y156647D01*
X120887Y156714D01*
X120618Y156944D01*
X120618Y156944D01*
X120503Y157014D01*
X120316Y157129D01*
X120085Y157225D01*
X119989Y157265D01*
X119644Y157347D01*
X119291Y157375D01*
X119203Y157368D01*
X98421D01*
Y157480D01*
G37*
G36*
X87322Y98707D02*X90505Y101890D01*
X90572Y101947D01*
X90802Y102216D01*
X90802Y102217D01*
X90987Y102519D01*
X91123Y102846D01*
X91206Y103190D01*
X91233Y103543D01*
X91226Y103632D01*
Y129246D01*
X98421D01*
Y98707D01*
X87322D01*
G37*
G36*
X81497Y57875D02*X81590Y57631D01*
X81663Y57368D01*
X81712Y57100D01*
X81737Y56829D01*
Y56557D01*
X81712Y56285D01*
X81663Y56017D01*
X81590Y55755D01*
X81497Y55511D01*
Y57875D01*
G37*
G36*
X96229Y152868D02*X98421D01*
Y149309D01*
X98149Y149214D01*
X98043Y149162D01*
X97946Y149093D01*
X97862Y149009D01*
X97791Y148914D01*
X97737Y148809D01*
X97699Y148696D01*
X97680Y148579D01*
X97679Y148461D01*
X97697Y148343D01*
X97732Y148230D01*
X97785Y148124D01*
X97854Y148028D01*
X97938Y147943D01*
X98033Y147873D01*
X98138Y147818D01*
X98251Y147781D01*
X98368Y147761D01*
X98421Y147761D01*
Y142314D01*
X98368Y142314D01*
X98252Y142295D01*
X98140Y142257D01*
X98035Y142203D01*
X97940Y142133D01*
X97857Y142049D01*
X97788Y141953D01*
X97736Y141847D01*
X97700Y141735D01*
X97682Y141618D01*
X97683Y141500D01*
X97703Y141383D01*
X97740Y141271D01*
X97794Y141167D01*
X97864Y141072D01*
X97948Y140989D01*
X98044Y140920D01*
X98151Y140869D01*
X98421Y140771D01*
Y133746D01*
X96229D01*
Y142889D01*
X96303Y142877D01*
X96421Y142876D01*
X96539Y142893D01*
X96652Y142929D01*
X96758Y142982D01*
X96854Y143051D01*
X96939Y143135D01*
X97009Y143230D01*
X97064Y143335D01*
X97101Y143448D01*
X97121Y143565D01*
X97121Y143683D01*
X97104Y143801D01*
X97066Y143913D01*
X96967Y144184D01*
X96898Y144465D01*
X96856Y144751D01*
X96843Y145039D01*
X96856Y145328D01*
X96898Y145614D01*
X96967Y145894D01*
X97063Y146167D01*
X97100Y146279D01*
X97118Y146396D01*
X97117Y146514D01*
X97098Y146630D01*
X97061Y146742D01*
X97006Y146847D01*
X96936Y146942D01*
X96852Y147025D01*
X96756Y147093D01*
X96650Y147146D01*
X96538Y147182D01*
X96421Y147200D01*
X96303Y147199D01*
X96229Y147186D01*
Y152868D01*
G37*
G36*
X83726D02*X96229D01*
Y147186D01*
X96187Y147179D01*
X96075Y147142D01*
X95970Y147088D01*
X95875Y147018D01*
X95792Y146933D01*
X95723Y146837D01*
X95673Y146731D01*
X95524Y146324D01*
X95421Y145902D01*
X95358Y145473D01*
X95337Y145039D01*
X95358Y144606D01*
X95421Y144177D01*
X95524Y143755D01*
X95668Y143346D01*
X95720Y143239D01*
X95789Y143143D01*
X95873Y143059D01*
X95968Y142988D01*
X96073Y142934D01*
X96186Y142896D01*
X96229Y142889D01*
Y133746D01*
X91877D01*
X91752Y133871D01*
X91750Y133904D01*
X91648Y134332D01*
X91479Y134740D01*
X91249Y135115D01*
X90962Y135451D01*
X90627Y135737D01*
X90251Y135967D01*
X89844Y136136D01*
X89416Y136239D01*
X88976Y136273D01*
X88537Y136239D01*
X88108Y136136D01*
X87701Y135967D01*
X87326Y135737D01*
X86990Y135451D01*
X86704Y135115D01*
X86474Y134740D01*
X86305Y134332D01*
X86202Y133904D01*
X86168Y133465D01*
X86202Y133025D01*
X86305Y132597D01*
X86474Y132189D01*
X86704Y131814D01*
X86726Y131788D01*
Y104475D01*
X83726Y101475D01*
Y105407D01*
X83794Y105421D01*
X83867Y105448D01*
X83936Y105487D01*
X83998Y105536D01*
X84051Y105594D01*
X84094Y105659D01*
X84126Y105731D01*
X84202Y105964D01*
X84256Y106204D01*
X84288Y106448D01*
X84299Y106693D01*
X84288Y106938D01*
X84256Y107182D01*
X84202Y107421D01*
X84128Y107656D01*
X84096Y107728D01*
X84052Y107793D01*
X83999Y107852D01*
X83937Y107901D01*
X83868Y107939D01*
X83794Y107967D01*
X83726Y107981D01*
Y152868D01*
G37*
G36*
X81497D02*X83726D01*
Y107981D01*
X83717Y107983D01*
X83638Y107986D01*
X83559Y107977D01*
X83483Y107956D01*
X83411Y107923D01*
X83346Y107879D01*
X83288Y107826D01*
X83238Y107764D01*
X83200Y107695D01*
X83172Y107621D01*
X83157Y107543D01*
X83153Y107465D01*
X83162Y107386D01*
X83185Y107311D01*
X83234Y107161D01*
X83268Y107007D01*
X83289Y106850D01*
X83296Y106693D01*
X83289Y106535D01*
X83268Y106379D01*
X83234Y106225D01*
X83187Y106075D01*
X83164Y105999D01*
X83155Y105921D01*
X83158Y105843D01*
X83174Y105765D01*
X83201Y105692D01*
X83240Y105623D01*
X83289Y105561D01*
X83347Y105508D01*
X83412Y105465D01*
X83484Y105432D01*
X83560Y105411D01*
X83638Y105402D01*
X83716Y105405D01*
X83726Y105407D01*
Y101475D01*
X81497Y99246D01*
Y103890D01*
X81741Y103901D01*
X81985Y103933D01*
X82225Y103987D01*
X82459Y104061D01*
X82531Y104093D01*
X82597Y104137D01*
X82655Y104190D01*
X82704Y104252D01*
X82743Y104321D01*
X82770Y104395D01*
X82786Y104472D01*
X82789Y104551D01*
X82780Y104630D01*
X82759Y104706D01*
X82726Y104778D01*
X82682Y104843D01*
X82629Y104901D01*
X82567Y104951D01*
X82498Y104989D01*
X82424Y105017D01*
X82347Y105032D01*
X82268Y105036D01*
X82189Y105027D01*
X82114Y105004D01*
X81964Y104955D01*
X81810Y104921D01*
X81654Y104900D01*
X81497Y104893D01*
Y108493D01*
X81654Y108486D01*
X81810Y108465D01*
X81964Y108431D01*
X82114Y108383D01*
X82190Y108361D01*
X82268Y108352D01*
X82346Y108355D01*
X82424Y108371D01*
X82497Y108398D01*
X82566Y108437D01*
X82628Y108486D01*
X82681Y108544D01*
X82724Y108609D01*
X82757Y108681D01*
X82778Y108757D01*
X82787Y108835D01*
X82784Y108913D01*
X82768Y108990D01*
X82741Y109064D01*
X82702Y109133D01*
X82653Y109194D01*
X82595Y109248D01*
X82530Y109291D01*
X82458Y109323D01*
X82225Y109399D01*
X81985Y109453D01*
X81741Y109485D01*
X81497Y109496D01*
Y152868D01*
G37*
G36*
X98421Y45281D02*X95993D01*
Y77928D01*
X96067Y77916D01*
X96185Y77915D01*
X96302Y77933D01*
X96415Y77969D01*
X96522Y78022D01*
X96618Y78091D01*
X96702Y78174D01*
X96773Y78269D01*
X96828Y78375D01*
X96865Y78487D01*
X96884Y78604D01*
X96885Y78723D01*
X96868Y78840D01*
X96830Y78952D01*
X96731Y79224D01*
X96662Y79504D01*
X96620Y79790D01*
X96606Y80079D01*
X96620Y80367D01*
X96662Y80653D01*
X96731Y80934D01*
X96826Y81207D01*
X96864Y81318D01*
X96882Y81435D01*
X96881Y81553D01*
X96862Y81669D01*
X96824Y81781D01*
X96770Y81886D01*
X96700Y81981D01*
X96616Y82064D01*
X96520Y82133D01*
X96414Y82186D01*
X96302Y82221D01*
X96185Y82239D01*
X96067Y82238D01*
X95993Y82226D01*
Y94207D01*
X98421D01*
Y84421D01*
X98322Y84397D01*
X97913Y84254D01*
X97806Y84201D01*
X97710Y84132D01*
X97625Y84049D01*
X97555Y83953D01*
X97500Y83848D01*
X97463Y83735D01*
X97444Y83618D01*
X97443Y83500D01*
X97460Y83383D01*
X97496Y83270D01*
X97549Y83163D01*
X97618Y83067D01*
X97702Y82983D01*
X97797Y82912D01*
X97902Y82858D01*
X98015Y82820D01*
X98132Y82801D01*
X98250Y82800D01*
X98368Y82817D01*
X98421Y82836D01*
Y77318D01*
X98367Y77337D01*
X98250Y77354D01*
X98132Y77353D01*
X98016Y77334D01*
X97904Y77297D01*
X97799Y77242D01*
X97704Y77172D01*
X97621Y77088D01*
X97552Y76992D01*
X97499Y76887D01*
X97464Y76774D01*
X97446Y76657D01*
X97447Y76539D01*
X97466Y76423D01*
X97504Y76311D01*
X97558Y76206D01*
X97628Y76111D01*
X97712Y76028D01*
X97808Y75960D01*
X97915Y75909D01*
X98322Y75760D01*
X98421Y75736D01*
Y45281D01*
G37*
G36*
X95993D02*X89599D01*
Y75565D01*
X89606Y75565D01*
X90312Y75620D01*
X91001Y75786D01*
X91656Y76057D01*
X92259Y76427D01*
X92798Y76887D01*
X93258Y77426D01*
X93628Y78029D01*
X93899Y78684D01*
X94065Y79373D01*
X94106Y80079D01*
X94065Y80785D01*
X93899Y81474D01*
X93628Y82128D01*
X93258Y82732D01*
X92798Y83271D01*
X92259Y83731D01*
X91656Y84101D01*
X91001Y84372D01*
X90312Y84537D01*
X89606Y84593D01*
X89599Y84592D01*
Y94207D01*
X95993D01*
Y82226D01*
X95950Y82219D01*
X95838Y82181D01*
X95734Y82127D01*
X95639Y82057D01*
X95556Y81973D01*
X95487Y81877D01*
X95436Y81770D01*
X95288Y81363D01*
X95184Y80942D01*
X95122Y80512D01*
X95101Y80079D01*
X95122Y79645D01*
X95184Y79216D01*
X95288Y78795D01*
X95432Y78385D01*
X95484Y78279D01*
X95553Y78182D01*
X95636Y78098D01*
X95732Y78027D01*
X95837Y77973D01*
X95950Y77935D01*
X95993Y77928D01*
Y45281D01*
G37*
G36*
X89599D02*X81497D01*
Y54627D01*
X81506Y54619D01*
X81572Y54576D01*
X81644Y54544D01*
X81720Y54523D01*
X81798Y54515D01*
X81877Y54519D01*
X81954Y54535D01*
X82027Y54563D01*
X82095Y54602D01*
X82157Y54651D01*
X82209Y54710D01*
X82251Y54776D01*
X82414Y55101D01*
X82544Y55441D01*
X82641Y55791D01*
X82707Y56149D01*
X82740Y56511D01*
Y56875D01*
X82707Y57237D01*
X82641Y57595D01*
X82544Y57945D01*
X82414Y58285D01*
X82255Y58611D01*
X82212Y58678D01*
X82159Y58737D01*
X82097Y58786D01*
X82028Y58826D01*
X81954Y58854D01*
X81877Y58870D01*
X81798Y58874D01*
X81719Y58866D01*
X81643Y58845D01*
X81570Y58813D01*
X81504Y58770D01*
X81497Y58763D01*
Y75991D01*
X81656Y76057D01*
X82259Y76427D01*
X82798Y76887D01*
X83258Y77426D01*
X83628Y78029D01*
X83899Y78684D01*
X84065Y79373D01*
X84106Y80079D01*
X84065Y80785D01*
X83899Y81474D01*
X83628Y82128D01*
X83258Y82732D01*
X82798Y83271D01*
X82259Y83731D01*
X81656Y84101D01*
X81497Y84166D01*
Y93679D01*
X81890Y93648D01*
X82329Y93683D01*
X82758Y93786D01*
X83165Y93954D01*
X83541Y94184D01*
X83567Y94207D01*
X89599D01*
Y84592D01*
X88900Y84537D01*
X88211Y84372D01*
X87557Y84101D01*
X86953Y83731D01*
X86415Y83271D01*
X85954Y82732D01*
X85584Y82128D01*
X85313Y81474D01*
X85148Y80785D01*
X85092Y80079D01*
X85148Y79373D01*
X85313Y78684D01*
X85584Y78029D01*
X85954Y77426D01*
X86415Y76887D01*
X86953Y76427D01*
X87557Y76057D01*
X88211Y75786D01*
X88900Y75620D01*
X89599Y75565D01*
Y45281D01*
G37*
G36*
X79266Y95474D02*X79387Y95182D01*
X79618Y94806D01*
X79904Y94471D01*
X80239Y94184D01*
X80615Y93954D01*
X81022Y93786D01*
X81450Y93683D01*
X81497Y93679D01*
Y84166D01*
X81001Y84372D01*
X80312Y84537D01*
X79606Y84593D01*
X79266Y84566D01*
Y95474D01*
G37*
G36*
Y152868D02*X81497D01*
Y109496D01*
X81496Y109496D01*
X81251Y109485D01*
X81007Y109453D01*
X80768Y109399D01*
X80533Y109325D01*
X80461Y109293D01*
X80396Y109249D01*
X80337Y109196D01*
X80288Y109134D01*
X80250Y109065D01*
X80222Y108991D01*
X80206Y108914D01*
X80203Y108835D01*
X80212Y108756D01*
X80233Y108680D01*
X80266Y108608D01*
X80310Y108543D01*
X80363Y108484D01*
X80425Y108435D01*
X80494Y108397D01*
X80568Y108369D01*
X80646Y108353D01*
X80724Y108350D01*
X80803Y108359D01*
X80878Y108382D01*
X81028Y108431D01*
X81182Y108465D01*
X81338Y108486D01*
X81496Y108493D01*
X81497Y108493D01*
Y104893D01*
X81496Y104893D01*
X81338Y104900D01*
X81182Y104921D01*
X81028Y104955D01*
X80878Y105002D01*
X80803Y105025D01*
X80724Y105034D01*
X80646Y105031D01*
X80569Y105015D01*
X80495Y104988D01*
X80426Y104949D01*
X80365Y104900D01*
X80311Y104842D01*
X80268Y104777D01*
X80235Y104705D01*
X80214Y104629D01*
X80205Y104551D01*
X80208Y104472D01*
X80224Y104395D01*
X80251Y104322D01*
X80290Y104253D01*
X80339Y104191D01*
X80397Y104138D01*
X80462Y104095D01*
X80534Y104063D01*
X80768Y103987D01*
X81007Y103933D01*
X81251Y103901D01*
X81496Y103890D01*
X81497Y103890D01*
Y99246D01*
X81485Y99233D01*
X81450Y99231D01*
X81022Y99128D01*
X80615Y98959D01*
X80239Y98729D01*
X79904Y98443D01*
X79618Y98108D01*
X79387Y97732D01*
X79266Y97439D01*
Y105405D01*
X79275Y105403D01*
X79354Y105400D01*
X79433Y105409D01*
X79509Y105430D01*
X79581Y105463D01*
X79646Y105507D01*
X79705Y105560D01*
X79754Y105622D01*
X79792Y105691D01*
X79820Y105765D01*
X79836Y105842D01*
X79839Y105921D01*
X79830Y106000D01*
X79807Y106075D01*
X79758Y106225D01*
X79724Y106379D01*
X79703Y106535D01*
X79696Y106693D01*
X79703Y106850D01*
X79724Y107007D01*
X79758Y107161D01*
X79806Y107311D01*
X79828Y107386D01*
X79837Y107465D01*
X79834Y107543D01*
X79818Y107620D01*
X79791Y107694D01*
X79752Y107763D01*
X79703Y107824D01*
X79645Y107878D01*
X79580Y107921D01*
X79508Y107954D01*
X79432Y107975D01*
X79354Y107984D01*
X79276Y107981D01*
X79266Y107979D01*
Y152868D01*
G37*
G36*
X81497Y45281D02*X79266D01*
Y52724D01*
X79284Y52726D01*
X79642Y52792D01*
X79992Y52890D01*
X80332Y53019D01*
X80659Y53178D01*
X80725Y53221D01*
X80784Y53274D01*
X80834Y53336D01*
X80873Y53405D01*
X80901Y53479D01*
X80918Y53556D01*
X80922Y53635D01*
X80913Y53714D01*
X80892Y53790D01*
X80860Y53863D01*
X80817Y53929D01*
X80764Y53988D01*
X80702Y54037D01*
X80633Y54077D01*
X80559Y54105D01*
X80482Y54121D01*
X80403Y54125D01*
X80324Y54117D01*
X80248Y54096D01*
X80176Y54062D01*
X79933Y53940D01*
X79678Y53843D01*
X79416Y53770D01*
X79266Y53742D01*
Y59643D01*
X79416Y59616D01*
X79678Y59543D01*
X79933Y59446D01*
X80178Y59326D01*
X80249Y59293D01*
X80325Y59272D01*
X80403Y59264D01*
X80482Y59268D01*
X80559Y59284D01*
X80632Y59312D01*
X80700Y59351D01*
X80762Y59400D01*
X80814Y59459D01*
X80857Y59525D01*
X80890Y59596D01*
X80910Y59672D01*
X80919Y59751D01*
X80915Y59829D01*
X80898Y59906D01*
X80870Y59980D01*
X80831Y60048D01*
X80782Y60109D01*
X80723Y60162D01*
X80657Y60204D01*
X80332Y60367D01*
X79992Y60496D01*
X79642Y60594D01*
X79284Y60660D01*
X79266Y60662D01*
Y75592D01*
X79606Y75565D01*
X80312Y75620D01*
X81001Y75786D01*
X81497Y75991D01*
Y58763D01*
X81445Y58716D01*
X81396Y58655D01*
X81356Y58586D01*
X81328Y58512D01*
X81312Y58435D01*
X81308Y58356D01*
X81316Y58277D01*
X81337Y58200D01*
X81371Y58129D01*
X81493Y57886D01*
X81497Y57875D01*
Y55511D01*
X81493Y55500D01*
X81373Y55255D01*
X81340Y55184D01*
X81319Y55108D01*
X81311Y55030D01*
X81315Y54952D01*
X81331Y54875D01*
X81359Y54801D01*
X81398Y54733D01*
X81448Y54671D01*
X81497Y54627D01*
Y45281D01*
G37*
G36*
X75456Y152868D02*X79266D01*
Y107979D01*
X79198Y107965D01*
X79125Y107938D01*
X79056Y107899D01*
X78995Y107850D01*
X78941Y107792D01*
X78898Y107727D01*
X78866Y107655D01*
X78790Y107421D01*
X78736Y107182D01*
X78704Y106938D01*
X78693Y106693D01*
X78704Y106448D01*
X78736Y106204D01*
X78790Y105964D01*
X78864Y105730D01*
X78896Y105658D01*
X78940Y105592D01*
X78993Y105534D01*
X79055Y105485D01*
X79124Y105446D01*
X79198Y105419D01*
X79266Y105405D01*
Y97439D01*
X79219Y97325D01*
X79116Y96896D01*
X79081Y96457D01*
X79116Y96017D01*
X79219Y95589D01*
X79266Y95474D01*
Y84566D01*
X78900Y84537D01*
X78211Y84372D01*
X77557Y84101D01*
X76953Y83731D01*
X76415Y83271D01*
X75954Y82732D01*
X75584Y82128D01*
X75456Y81819D01*
Y152868D01*
G37*
G36*
X79266Y45281D02*X75456D01*
Y54558D01*
X75526Y54532D01*
X75603Y54515D01*
X75682Y54511D01*
X75761Y54520D01*
X75838Y54541D01*
X75910Y54573D01*
X75976Y54616D01*
X76035Y54669D01*
X76085Y54731D01*
X76124Y54800D01*
X76152Y54874D01*
X76169Y54951D01*
X76173Y55030D01*
X76164Y55109D01*
X76143Y55185D01*
X76110Y55257D01*
X75987Y55500D01*
X75891Y55755D01*
X75817Y56017D01*
X75768Y56285D01*
X75743Y56557D01*
Y56829D01*
X75768Y57100D01*
X75817Y57368D01*
X75891Y57631D01*
X75987Y57886D01*
X76107Y58130D01*
X76140Y58201D01*
X76161Y58277D01*
X76169Y58356D01*
X76165Y58434D01*
X76149Y58511D01*
X76121Y58585D01*
X76082Y58653D01*
X76033Y58714D01*
X75974Y58767D01*
X75908Y58810D01*
X75837Y58842D01*
X75761Y58863D01*
X75682Y58871D01*
X75604Y58867D01*
X75527Y58851D01*
X75456Y58824D01*
Y78339D01*
X75584Y78029D01*
X75954Y77426D01*
X76415Y76887D01*
X76953Y76427D01*
X77557Y76057D01*
X78211Y75786D01*
X78900Y75620D01*
X79266Y75592D01*
Y60662D01*
X78922Y60693D01*
X78558D01*
X78196Y60660D01*
X77838Y60594D01*
X77488Y60496D01*
X77148Y60367D01*
X76822Y60207D01*
X76755Y60165D01*
X76696Y60112D01*
X76647Y60050D01*
X76607Y59981D01*
X76579Y59907D01*
X76563Y59830D01*
X76559Y59751D01*
X76567Y59672D01*
X76588Y59595D01*
X76620Y59523D01*
X76663Y59457D01*
X76717Y59398D01*
X76778Y59348D01*
X76847Y59309D01*
X76921Y59281D01*
X76998Y59265D01*
X77077Y59261D01*
X77156Y59269D01*
X77233Y59290D01*
X77304Y59323D01*
X77548Y59446D01*
X77802Y59543D01*
X78065Y59616D01*
X78333Y59665D01*
X78604Y59690D01*
X78876D01*
X79148Y59665D01*
X79266Y59643D01*
Y53742D01*
X79148Y53721D01*
X78876Y53696D01*
X78604D01*
X78333Y53721D01*
X78065Y53770D01*
X77802Y53843D01*
X77548Y53940D01*
X77303Y54060D01*
X77232Y54093D01*
X77156Y54114D01*
X77077Y54122D01*
X76999Y54118D01*
X76922Y54102D01*
X76848Y54074D01*
X76780Y54035D01*
X76719Y53985D01*
X76666Y53927D01*
X76623Y53861D01*
X76591Y53789D01*
X76570Y53713D01*
X76562Y53635D01*
X76566Y53557D01*
X76582Y53479D01*
X76610Y53406D01*
X76649Y53338D01*
X76699Y53276D01*
X76757Y53224D01*
X76824Y53182D01*
X77148Y53019D01*
X77488Y52890D01*
X77838Y52792D01*
X78196Y52726D01*
X78558Y52693D01*
X78922D01*
X79266Y52724D01*
Y45281D01*
G37*
G36*
X75456D02*X69599D01*
Y56575D01*
X70509Y57484D01*
X70632Y57454D01*
X71260Y57405D01*
X71888Y57454D01*
X72500Y57601D01*
X73081Y57842D01*
X73618Y58171D01*
X74097Y58580D01*
X74506Y59059D01*
X74835Y59596D01*
X75076Y60177D01*
X75223Y60790D01*
X75260Y61417D01*
X75223Y62045D01*
X75076Y62657D01*
X74835Y63239D01*
X74506Y63776D01*
X74097Y64254D01*
X73618Y64663D01*
X73081Y64992D01*
X72500Y65233D01*
X71888Y65380D01*
X71260Y65430D01*
X70632Y65380D01*
X70020Y65233D01*
X69599Y65059D01*
Y75565D01*
X69606Y75565D01*
X70312Y75620D01*
X71001Y75786D01*
X71656Y76057D01*
X72259Y76427D01*
X72798Y76887D01*
X73258Y77426D01*
X73628Y78029D01*
X73899Y78684D01*
X74065Y79373D01*
X74106Y80079D01*
X74065Y80785D01*
X73899Y81474D01*
X73628Y82128D01*
X73258Y82732D01*
X72798Y83271D01*
X72259Y83731D01*
X71656Y84101D01*
X71001Y84372D01*
X70312Y84537D01*
X69606Y84593D01*
X69599Y84592D01*
Y141646D01*
X74023Y141656D01*
X74252Y141711D01*
X74470Y141801D01*
X74672Y141924D01*
X74851Y142078D01*
X75005Y142257D01*
X75128Y142459D01*
X75218Y142677D01*
X75274Y142906D01*
X75287Y143142D01*
X75274Y149377D01*
X75218Y149607D01*
X75128Y149825D01*
X75005Y150026D01*
X74851Y150206D01*
X74672Y150359D01*
X74470Y150482D01*
X74252Y150573D01*
X74023Y150628D01*
X73787Y150642D01*
X69599Y150632D01*
Y152868D01*
X75456D01*
Y81819D01*
X75313Y81474D01*
X75148Y80785D01*
X75092Y80079D01*
X75148Y79373D01*
X75313Y78684D01*
X75456Y78339D01*
Y58824D01*
X75453Y58823D01*
X75385Y58784D01*
X75324Y58735D01*
X75271Y58676D01*
X75229Y58610D01*
X75066Y58285D01*
X74937Y57945D01*
X74839Y57595D01*
X74773Y57237D01*
X74740Y56875D01*
Y56511D01*
X74773Y56149D01*
X74839Y55791D01*
X74937Y55441D01*
X75066Y55101D01*
X75226Y54774D01*
X75268Y54708D01*
X75322Y54649D01*
X75383Y54599D01*
X75452Y54560D01*
X75456Y54558D01*
Y45281D01*
G37*
G36*
X69599Y65059D02*X69438Y64992D01*
X68901Y64663D01*
X68423Y64254D01*
X68014Y63776D01*
X67685Y63239D01*
X67444Y62657D01*
X67297Y62045D01*
X67248Y61417D01*
X67297Y60790D01*
X67327Y60666D01*
X64401Y57740D01*
Y143995D01*
X64443Y144002D01*
X64555Y144039D01*
X64660Y144093D01*
X64755Y144164D01*
X64838Y144248D01*
X64907Y144344D01*
X64957Y144450D01*
X65106Y144858D01*
X65209Y145279D01*
X65272Y145708D01*
X65293Y146142D01*
X65272Y146575D01*
X65209Y147005D01*
X65106Y147426D01*
X64962Y147835D01*
X64910Y147942D01*
X64841Y148038D01*
X64757Y148123D01*
X64662Y148193D01*
X64557Y148248D01*
X64444Y148285D01*
X64401Y148292D01*
Y152868D01*
X69599D01*
Y150632D01*
X67552Y150628D01*
X67322Y150573D01*
X67104Y150482D01*
X66903Y150359D01*
X66723Y150206D01*
X66570Y150026D01*
X66447Y149825D01*
X66356Y149607D01*
X66301Y149377D01*
X66287Y149142D01*
X66301Y142906D01*
X66356Y142677D01*
X66447Y142459D01*
X66570Y142257D01*
X66723Y142078D01*
X66903Y141924D01*
X67104Y141801D01*
X67322Y141711D01*
X67552Y141656D01*
X67787Y141642D01*
X69599Y141646D01*
Y84592D01*
X68900Y84537D01*
X68211Y84372D01*
X67557Y84101D01*
X66953Y83731D01*
X66415Y83271D01*
X65954Y82732D01*
X65584Y82128D01*
X65313Y81474D01*
X65148Y80785D01*
X65092Y80079D01*
X65148Y79373D01*
X65313Y78684D01*
X65584Y78029D01*
X65954Y77426D01*
X66415Y76887D01*
X66953Y76427D01*
X67557Y76057D01*
X68211Y75786D01*
X68900Y75620D01*
X69599Y75565D01*
Y65059D01*
G37*
G36*
X64401Y57740D02*X63635Y56974D01*
X60789D01*
Y141637D01*
X61221Y141657D01*
X61650Y141720D01*
X62072Y141823D01*
X62481Y141967D01*
X62587Y142020D01*
X62684Y142089D01*
X62768Y142172D01*
X62839Y142267D01*
X62893Y142372D01*
X62931Y142485D01*
X62950Y142602D01*
X62951Y142721D01*
X62933Y142838D01*
X62897Y142951D01*
X62844Y143057D01*
X62775Y143153D01*
X62692Y143238D01*
X62597Y143308D01*
X62491Y143363D01*
X62379Y143400D01*
X62262Y143420D01*
X62143Y143421D01*
X62026Y143403D01*
X61914Y143365D01*
X61643Y143266D01*
X61362Y143197D01*
X61076Y143156D01*
X60789Y143142D01*
Y149142D01*
X61076Y149128D01*
X61362Y149086D01*
X61643Y149017D01*
X61915Y148922D01*
X62027Y148884D01*
X62144Y148866D01*
X62262Y148867D01*
X62378Y148886D01*
X62490Y148924D01*
X62595Y148978D01*
X62690Y149048D01*
X62773Y149132D01*
X62841Y149228D01*
X62894Y149334D01*
X62930Y149446D01*
X62948Y149563D01*
X62947Y149681D01*
X62927Y149798D01*
X62890Y149910D01*
X62836Y150014D01*
X62766Y150109D01*
X62682Y150192D01*
X62586Y150261D01*
X62479Y150312D01*
X62072Y150460D01*
X61650Y150564D01*
X61221Y150626D01*
X60789Y150647D01*
Y152868D01*
X64401D01*
Y148292D01*
X64327Y148304D01*
X64209Y148305D01*
X64091Y148288D01*
X63978Y148252D01*
X63872Y148199D01*
X63776Y148130D01*
X63691Y148047D01*
X63621Y147951D01*
X63566Y147846D01*
X63529Y147733D01*
X63509Y147616D01*
X63508Y147498D01*
X63526Y147380D01*
X63564Y147268D01*
X63663Y146997D01*
X63732Y146716D01*
X63773Y146430D01*
X63787Y146142D01*
X63773Y145853D01*
X63732Y145567D01*
X63663Y145287D01*
X63567Y145014D01*
X63530Y144902D01*
X63512Y144786D01*
X63513Y144668D01*
X63532Y144551D01*
X63569Y144439D01*
X63624Y144334D01*
X63694Y144239D01*
X63778Y144156D01*
X63874Y144088D01*
X63980Y144035D01*
X64092Y143999D01*
X64209Y143982D01*
X64327Y143982D01*
X64401Y143995D01*
Y57740D01*
G37*
G36*
X60789Y56974D02*X57174D01*
Y143991D01*
X57248Y143979D01*
X57366Y143978D01*
X57484Y143996D01*
X57597Y144032D01*
X57703Y144085D01*
X57799Y144154D01*
X57884Y144237D01*
X57954Y144332D01*
X58009Y144438D01*
X58046Y144550D01*
X58065Y144667D01*
X58066Y144786D01*
X58049Y144903D01*
X58011Y145015D01*
X57912Y145287D01*
X57843Y145567D01*
X57801Y145853D01*
X57787Y146142D01*
X57801Y146430D01*
X57843Y146716D01*
X57912Y146997D01*
X58007Y147270D01*
X58045Y147381D01*
X58063Y147498D01*
X58062Y147616D01*
X58043Y147732D01*
X58005Y147844D01*
X57951Y147949D01*
X57881Y148044D01*
X57797Y148127D01*
X57701Y148196D01*
X57595Y148249D01*
X57483Y148284D01*
X57366Y148302D01*
X57248Y148301D01*
X57174Y148289D01*
Y152868D01*
X60789D01*
Y150647D01*
X60787Y150647D01*
X60354Y150626D01*
X59925Y150564D01*
X59503Y150460D01*
X59094Y150316D01*
X58987Y150264D01*
X58891Y150195D01*
X58807Y150112D01*
X58736Y150016D01*
X58682Y149911D01*
X58644Y149798D01*
X58625Y149681D01*
X58624Y149563D01*
X58641Y149446D01*
X58677Y149333D01*
X58730Y149226D01*
X58799Y149130D01*
X58883Y149046D01*
X58978Y148975D01*
X59083Y148921D01*
X59196Y148883D01*
X59313Y148864D01*
X59431Y148863D01*
X59549Y148880D01*
X59661Y148918D01*
X59932Y149017D01*
X60213Y149086D01*
X60499Y149128D01*
X60787Y149142D01*
X60789Y149142D01*
Y143142D01*
X60787Y143142D01*
X60499Y143156D01*
X60213Y143197D01*
X59932Y143266D01*
X59660Y143362D01*
X59548Y143400D01*
X59431Y143417D01*
X59313Y143416D01*
X59197Y143397D01*
X59085Y143360D01*
X58980Y143305D01*
X58885Y143235D01*
X58802Y143151D01*
X58733Y143055D01*
X58681Y142950D01*
X58645Y142837D01*
X58627Y142720D01*
X58628Y142602D01*
X58647Y142486D01*
X58685Y142374D01*
X58739Y142269D01*
X58809Y142174D01*
X58893Y142091D01*
X58989Y142022D01*
X59096Y141972D01*
X59503Y141823D01*
X59925Y141720D01*
X60354Y141657D01*
X60787Y141637D01*
X60789Y141637D01*
Y56974D01*
G37*
G36*
X57174D02*X45016D01*
Y114404D01*
X45019Y114405D01*
X45087Y114444D01*
X45149Y114494D01*
X45202Y114552D01*
X45243Y114619D01*
X45406Y114944D01*
X45536Y115284D01*
X45634Y115634D01*
X45699Y115991D01*
X45732Y116354D01*
Y116717D01*
X45699Y117079D01*
X45634Y117437D01*
X45536Y117787D01*
X45406Y118127D01*
X45247Y118454D01*
X45204Y118521D01*
X45151Y118579D01*
X45089Y118629D01*
X45021Y118668D01*
X45016Y118670D01*
Y141210D01*
X45438Y141570D01*
X46142Y142394D01*
X46709Y143319D01*
X47124Y144321D01*
X47377Y145376D01*
X47441Y146457D01*
X47377Y147538D01*
X47124Y148592D01*
X46709Y149594D01*
X46142Y150519D01*
X45438Y151344D01*
X45016Y151704D01*
Y152868D01*
X57174D01*
Y148289D01*
X57132Y148282D01*
X57020Y148244D01*
X56915Y148190D01*
X56820Y148120D01*
X56737Y148036D01*
X56668Y147940D01*
X56617Y147833D01*
X56469Y147426D01*
X56366Y147005D01*
X56303Y146575D01*
X56282Y146142D01*
X56303Y145708D01*
X56366Y145279D01*
X56469Y144858D01*
X56613Y144448D01*
X56665Y144342D01*
X56734Y144245D01*
X56817Y144161D01*
X56913Y144090D01*
X57018Y144036D01*
X57131Y143998D01*
X57174Y143991D01*
Y56974D01*
G37*
G36*
X69599Y45281D02*X45016D01*
Y52474D01*
X64479D01*
X64567Y52467D01*
X64920Y52495D01*
X64920Y52495D01*
X65264Y52578D01*
X65592Y52713D01*
X65894Y52899D01*
X66163Y53129D01*
X66220Y53196D01*
X69599Y56575D01*
Y45281D01*
G37*
G36*
X45016Y151704D02*X44613Y152048D01*
X43689Y152614D01*
X43076Y152868D01*
X45016D01*
Y151704D01*
G37*
G36*
Y56974D02*X42710D01*
Y112656D01*
X42984Y112732D01*
X43324Y112861D01*
X43651Y113021D01*
X43717Y113064D01*
X43776Y113117D01*
X43826Y113178D01*
X43865Y113247D01*
X43893Y113321D01*
X43910Y113399D01*
X43914Y113478D01*
X43905Y113556D01*
X43885Y113633D01*
X43852Y113705D01*
X43809Y113771D01*
X43756Y113830D01*
X43694Y113880D01*
X43626Y113919D01*
X43552Y113948D01*
X43474Y113964D01*
X43395Y113968D01*
X43316Y113959D01*
X43240Y113939D01*
X43168Y113905D01*
X42925Y113783D01*
X42710Y113701D01*
Y119370D01*
X42925Y119288D01*
X43170Y119169D01*
X43241Y119135D01*
X43317Y119115D01*
X43395Y119106D01*
X43474Y119110D01*
X43551Y119126D01*
X43624Y119154D01*
X43692Y119194D01*
X43754Y119243D01*
X43807Y119301D01*
X43850Y119367D01*
X43882Y119439D01*
X43902Y119515D01*
X43911Y119593D01*
X43907Y119672D01*
X43891Y119749D01*
X43862Y119822D01*
X43823Y119891D01*
X43774Y119952D01*
X43716Y120005D01*
X43649Y120046D01*
X43324Y120210D01*
X42984Y120339D01*
X42710Y120415D01*
Y139894D01*
X43689Y140299D01*
X44613Y140866D01*
X45016Y141210D01*
Y118670D01*
X44947Y118697D01*
X44869Y118713D01*
X44790Y118717D01*
X44711Y118708D01*
X44635Y118688D01*
X44563Y118655D01*
X44496Y118612D01*
X44438Y118559D01*
X44388Y118497D01*
X44348Y118429D01*
X44320Y118355D01*
X44304Y118277D01*
X44300Y118198D01*
X44308Y118119D01*
X44329Y118043D01*
X44363Y117971D01*
X44485Y117728D01*
X44582Y117473D01*
X44655Y117211D01*
X44704Y116943D01*
X44729Y116672D01*
Y116399D01*
X44704Y116128D01*
X44655Y115860D01*
X44582Y115597D01*
X44485Y115343D01*
X44365Y115098D01*
X44332Y115027D01*
X44311Y114951D01*
X44303Y114873D01*
X44307Y114794D01*
X44323Y114717D01*
X44351Y114644D01*
X44390Y114575D01*
X44440Y114514D01*
X44498Y114461D01*
X44564Y114418D01*
X44636Y114386D01*
X44712Y114365D01*
X44790Y114357D01*
X44869Y114361D01*
X44946Y114377D01*
X45016Y114404D01*
Y56974D01*
G37*
G36*
Y45281D02*X42710D01*
Y52474D01*
X45016D01*
Y45281D01*
G37*
G36*
X97112Y40781D02*X98421D01*
Y29472D01*
X98335Y29508D01*
X97991Y29590D01*
X97638Y29618D01*
X97285Y29590D01*
X97112Y29549D01*
Y33360D01*
X97179Y33373D01*
X97253Y33401D01*
X97322Y33439D01*
X97383Y33488D01*
X97437Y33546D01*
X97480Y33612D01*
X97512Y33684D01*
X97588Y33917D01*
X97642Y34157D01*
X97674Y34400D01*
X97685Y34646D01*
X97674Y34891D01*
X97642Y35134D01*
X97588Y35374D01*
X97514Y35608D01*
X97482Y35680D01*
X97438Y35746D01*
X97385Y35804D01*
X97323Y35853D01*
X97254Y35892D01*
X97180Y35920D01*
X97112Y35933D01*
Y40781D01*
G37*
G36*
X98421Y10236D02*X97112D01*
Y25174D01*
X97285Y25132D01*
X97638Y25104D01*
X97991Y25132D01*
X98335Y25215D01*
X98421Y25250D01*
Y10236D01*
G37*
G36*
X97112D02*X94883D01*
Y31843D01*
X95127Y31854D01*
X95371Y31886D01*
X95610Y31939D01*
X95845Y32013D01*
X95917Y32046D01*
X95982Y32089D01*
X96040Y32143D01*
X96090Y32205D01*
X96128Y32274D01*
X96156Y32348D01*
X96172Y32425D01*
X96175Y32504D01*
X96166Y32582D01*
X96145Y32658D01*
X96112Y32730D01*
X96068Y32796D01*
X96015Y32854D01*
X95953Y32903D01*
X95884Y32942D01*
X95810Y32970D01*
X95732Y32985D01*
X95654Y32989D01*
X95575Y32979D01*
X95500Y32957D01*
X95350Y32908D01*
X95196Y32873D01*
X95039Y32853D01*
X94883Y32846D01*
Y36446D01*
X95039Y36439D01*
X95196Y36418D01*
X95350Y36384D01*
X95500Y36336D01*
X95575Y36314D01*
X95654Y36305D01*
X95732Y36308D01*
X95809Y36323D01*
X95883Y36351D01*
X95952Y36390D01*
X96013Y36438D01*
X96067Y36496D01*
X96110Y36562D01*
X96143Y36633D01*
X96164Y36709D01*
X96173Y36787D01*
X96170Y36866D01*
X96154Y36943D01*
X96127Y37017D01*
X96088Y37086D01*
X96039Y37147D01*
X95981Y37200D01*
X95916Y37244D01*
X95844Y37275D01*
X95610Y37352D01*
X95371Y37405D01*
X95127Y37438D01*
X94883Y37448D01*
Y40781D01*
X97112D01*
Y35933D01*
X97103Y35935D01*
X97024Y35939D01*
X96945Y35930D01*
X96869Y35908D01*
X96797Y35875D01*
X96732Y35832D01*
X96673Y35778D01*
X96624Y35716D01*
X96586Y35648D01*
X96558Y35574D01*
X96542Y35496D01*
X96539Y35417D01*
X96548Y35339D01*
X96571Y35263D01*
X96620Y35114D01*
X96654Y34960D01*
X96675Y34803D01*
X96682Y34646D01*
X96675Y34488D01*
X96654Y34332D01*
X96620Y34178D01*
X96572Y34027D01*
X96550Y33952D01*
X96541Y33874D01*
X96544Y33795D01*
X96560Y33718D01*
X96587Y33644D01*
X96626Y33576D01*
X96675Y33514D01*
X96733Y33461D01*
X96798Y33417D01*
X96870Y33385D01*
X96946Y33364D01*
X97024Y33354D01*
X97102Y33358D01*
X97112Y33360D01*
Y29549D01*
X96940Y29508D01*
X96613Y29372D01*
X96311Y29187D01*
X96042Y28957D01*
X95812Y28688D01*
X95627Y28386D01*
X95491Y28059D01*
X95409Y27714D01*
X95381Y27361D01*
X95409Y27008D01*
X95491Y26664D01*
X95627Y26337D01*
X95812Y26035D01*
X96042Y25765D01*
X96311Y25535D01*
X96613Y25350D01*
X96940Y25215D01*
X97112Y25174D01*
Y10236D01*
G37*
G36*
X94883D02*X92652D01*
Y33358D01*
X92661Y33356D01*
X92740Y33353D01*
X92819Y33362D01*
X92895Y33383D01*
X92966Y33416D01*
X93032Y33460D01*
X93090Y33513D01*
X93139Y33575D01*
X93178Y33644D01*
X93206Y33718D01*
X93221Y33795D01*
X93225Y33874D01*
X93216Y33952D01*
X93193Y34028D01*
X93144Y34178D01*
X93109Y34332D01*
X93089Y34488D01*
X93082Y34646D01*
X93089Y34803D01*
X93109Y34960D01*
X93144Y35114D01*
X93191Y35264D01*
X93214Y35339D01*
X93223Y35417D01*
X93220Y35496D01*
X93204Y35573D01*
X93177Y35647D01*
X93138Y35715D01*
X93089Y35777D01*
X93031Y35830D01*
X92966Y35874D01*
X92894Y35907D01*
X92818Y35928D01*
X92740Y35937D01*
X92661Y35934D01*
X92652Y35932D01*
Y40781D01*
X94883D01*
Y37448D01*
X94882Y37448D01*
X94637Y37438D01*
X94393Y37405D01*
X94153Y37352D01*
X93919Y37278D01*
X93847Y37246D01*
X93781Y37202D01*
X93723Y37148D01*
X93674Y37087D01*
X93635Y37018D01*
X93608Y36944D01*
X93592Y36866D01*
X93589Y36787D01*
X93598Y36709D01*
X93619Y36633D01*
X93652Y36561D01*
X93696Y36495D01*
X93749Y36437D01*
X93811Y36388D01*
X93880Y36349D01*
X93954Y36322D01*
X94031Y36306D01*
X94110Y36303D01*
X94189Y36312D01*
X94264Y36335D01*
X94414Y36384D01*
X94568Y36418D01*
X94724Y36439D01*
X94882Y36446D01*
X94883Y36446D01*
Y32846D01*
X94882Y32846D01*
X94724Y32853D01*
X94568Y32873D01*
X94414Y32908D01*
X94264Y32955D01*
X94188Y32978D01*
X94110Y32987D01*
X94032Y32983D01*
X93954Y32968D01*
X93881Y32940D01*
X93812Y32902D01*
X93750Y32853D01*
X93697Y32795D01*
X93654Y32729D01*
X93621Y32658D01*
X93600Y32582D01*
X93591Y32504D01*
X93594Y32425D01*
X93610Y32348D01*
X93637Y32274D01*
X93676Y32206D01*
X93725Y32144D01*
X93783Y32091D01*
X93848Y32047D01*
X93920Y32016D01*
X94153Y31939D01*
X94393Y31886D01*
X94637Y31854D01*
X94882Y31843D01*
X94883Y31843D01*
Y10236D01*
G37*
G36*
X92652D02*X81886D01*
Y25105D01*
X81890Y25104D01*
X82243Y25132D01*
X82587Y25215D01*
X82914Y25350D01*
X83216Y25535D01*
X83486Y25765D01*
X83716Y26035D01*
X83901Y26337D01*
X84036Y26664D01*
X84119Y27008D01*
X84140Y27361D01*
X84119Y27714D01*
X84036Y28059D01*
X83901Y28386D01*
X83716Y28688D01*
X83486Y28957D01*
X83216Y29187D01*
X82914Y29372D01*
X82587Y29508D01*
X82243Y29590D01*
X81890Y29618D01*
X81886Y29618D01*
Y40781D01*
X92652D01*
Y35932D01*
X92584Y35918D01*
X92511Y35891D01*
X92442Y35852D01*
X92380Y35803D01*
X92327Y35745D01*
X92284Y35679D01*
X92252Y35607D01*
X92176Y35374D01*
X92122Y35134D01*
X92090Y34891D01*
X92079Y34646D01*
X92090Y34400D01*
X92122Y34157D01*
X92176Y33917D01*
X92250Y33683D01*
X92282Y33611D01*
X92326Y33545D01*
X92379Y33487D01*
X92441Y33438D01*
X92510Y33399D01*
X92584Y33372D01*
X92652Y33358D01*
Y10236D01*
G37*
G36*
X81886D02*X77059D01*
Y12411D01*
X77064Y12411D01*
X77535Y12448D01*
X77994Y12558D01*
X78430Y12739D01*
X78833Y12986D01*
X79192Y13292D01*
X79498Y13652D01*
X79745Y14054D01*
X79926Y14490D01*
X80036Y14950D01*
X80064Y15420D01*
X80036Y15891D01*
X79926Y16350D01*
X79897Y16420D01*
X79926Y16490D01*
X80036Y16950D01*
X80064Y17420D01*
X80036Y17891D01*
X79926Y18350D01*
X79897Y18420D01*
X79926Y18490D01*
X80036Y18950D01*
X80064Y19420D01*
X80036Y19891D01*
X79926Y20350D01*
X79745Y20786D01*
X79498Y21189D01*
X79192Y21548D01*
X78833Y21855D01*
X78430Y22102D01*
X77994Y22282D01*
X77535Y22393D01*
X77064Y22430D01*
X77059Y22429D01*
Y40781D01*
X81886D01*
Y29618D01*
X81537Y29590D01*
X81192Y29508D01*
X80865Y29372D01*
X80563Y29187D01*
X80294Y28957D01*
X80064Y28688D01*
X79879Y28386D01*
X79743Y28059D01*
X79661Y27714D01*
X79633Y27361D01*
X79661Y27008D01*
X79743Y26664D01*
X79879Y26337D01*
X80064Y26035D01*
X80294Y25765D01*
X80563Y25535D01*
X80865Y25350D01*
X81192Y25215D01*
X81537Y25132D01*
X81886Y25105D01*
Y10236D01*
G37*
G36*
X77059D02*X42710D01*
Y16204D01*
X42901Y16283D01*
X43826Y16850D01*
X44651Y17554D01*
X45355Y18379D01*
X45922Y19303D01*
X46337Y20305D01*
X46590Y21360D01*
X46654Y22441D01*
X46590Y23522D01*
X46337Y24577D01*
X45922Y25578D01*
X45355Y26503D01*
X44651Y27328D01*
X43826Y28032D01*
X42901Y28599D01*
X42710Y28678D01*
Y40781D01*
X77059D01*
Y22429D01*
X76593Y22393D01*
X76134Y22282D01*
X75698Y22102D01*
X75295Y21855D01*
X74936Y21548D01*
X74629Y21189D01*
X74383Y20786D01*
X74202Y20350D01*
X74092Y19891D01*
X74055Y19420D01*
X74092Y18950D01*
X74202Y18490D01*
X74231Y18420D01*
X74202Y18350D01*
X74092Y17891D01*
X74055Y17420D01*
X74092Y16950D01*
X74202Y16490D01*
X74231Y16420D01*
X74202Y16350D01*
X74092Y15891D01*
X74055Y15420D01*
X74092Y14950D01*
X74202Y14490D01*
X74383Y14054D01*
X74629Y13652D01*
X74936Y13292D01*
X75295Y12986D01*
X75698Y12739D01*
X76134Y12558D01*
X76593Y12448D01*
X77059Y12411D01*
Y10236D01*
G37*
G36*
X42710Y157480D02*X98421D01*
Y157368D01*
X42710D01*
Y157480D01*
G37*
G36*
X30304Y52474D02*X42710D01*
Y45281D01*
X36033D01*
X35945Y45288D01*
X35592Y45261D01*
X35247Y45178D01*
X34920Y45042D01*
X34618Y44857D01*
X34618Y44857D01*
X34349Y44627D01*
X34292Y44560D01*
X30304Y40573D01*
Y52474D01*
G37*
G36*
X42710Y56974D02*X38448D01*
Y114401D01*
X38518Y114374D01*
X38595Y114358D01*
X38675Y114354D01*
X38753Y114362D01*
X38830Y114383D01*
X38902Y114415D01*
X38968Y114459D01*
X39027Y114512D01*
X39077Y114574D01*
X39116Y114642D01*
X39144Y114716D01*
X39161Y114794D01*
X39165Y114873D01*
X39156Y114952D01*
X39136Y115028D01*
X39102Y115099D01*
X38980Y115343D01*
X38883Y115597D01*
X38809Y115860D01*
X38760Y116128D01*
X38735Y116399D01*
Y116672D01*
X38760Y116943D01*
X38809Y117211D01*
X38883Y117473D01*
X38980Y117728D01*
X39099Y117973D01*
X39133Y118044D01*
X39153Y118120D01*
X39162Y118198D01*
X39158Y118277D01*
X39141Y118354D01*
X39113Y118427D01*
X39074Y118496D01*
X39025Y118557D01*
X38966Y118610D01*
X38901Y118653D01*
X38829Y118685D01*
X38753Y118705D01*
X38674Y118714D01*
X38596Y118710D01*
X38519Y118694D01*
X38448Y118667D01*
Y139876D01*
X39470Y139631D01*
X40551Y139546D01*
X41632Y139631D01*
X42687Y139884D01*
X42710Y139894D01*
Y120415D01*
X42634Y120437D01*
X42276Y120502D01*
X41914Y120535D01*
X41550D01*
X41188Y120502D01*
X40831Y120437D01*
X40480Y120339D01*
X40140Y120210D01*
X39814Y120050D01*
X39747Y120007D01*
X39688Y119954D01*
X39639Y119892D01*
X39599Y119824D01*
X39571Y119750D01*
X39555Y119672D01*
X39551Y119593D01*
X39559Y119514D01*
X39580Y119438D01*
X39612Y119366D01*
X39656Y119299D01*
X39709Y119241D01*
X39770Y119191D01*
X39839Y119152D01*
X39913Y119123D01*
X39991Y119107D01*
X40070Y119103D01*
X40148Y119112D01*
X40225Y119132D01*
X40296Y119166D01*
X40540Y119288D01*
X40794Y119385D01*
X41057Y119458D01*
X41325Y119508D01*
X41596Y119532D01*
X41869D01*
X42140Y119508D01*
X42408Y119458D01*
X42670Y119385D01*
X42710Y119370D01*
Y113701D01*
X42670Y113686D01*
X42408Y113612D01*
X42140Y113563D01*
X41869Y113539D01*
X41596D01*
X41325Y113563D01*
X41057Y113612D01*
X40794Y113686D01*
X40540Y113783D01*
X40295Y113902D01*
X40224Y113936D01*
X40148Y113956D01*
X40070Y113965D01*
X39991Y113961D01*
X39914Y113945D01*
X39840Y113917D01*
X39772Y113877D01*
X39711Y113828D01*
X39658Y113770D01*
X39615Y113704D01*
X39583Y113632D01*
X39562Y113556D01*
X39554Y113478D01*
X39558Y113399D01*
X39574Y113322D01*
X39602Y113248D01*
X39641Y113180D01*
X39691Y113119D01*
X39749Y113066D01*
X39816Y113025D01*
X40140Y112861D01*
X40480Y112732D01*
X40831Y112634D01*
X41188Y112568D01*
X41550Y112535D01*
X41914D01*
X42276Y112568D01*
X42634Y112634D01*
X42710Y112656D01*
Y56974D01*
G37*
G36*
X35567Y152868D02*X38026D01*
X37414Y152614D01*
X36489Y152048D01*
X35664Y151344D01*
X35567Y151230D01*
Y152868D01*
G37*
G36*
X38448Y56974D02*X35567D01*
Y61659D01*
X35919Y62070D01*
X36487Y62997D01*
X36903Y64001D01*
X37156Y65058D01*
X37220Y66142D01*
X37156Y67225D01*
X36903Y68282D01*
X36487Y69286D01*
X35919Y70213D01*
X35567Y70625D01*
Y89207D01*
X35570Y89208D01*
X35639Y89248D01*
X35700Y89297D01*
X35753Y89355D01*
X35794Y89422D01*
X35958Y89747D01*
X36087Y90087D01*
X36185Y90437D01*
X36250Y90795D01*
X36283Y91157D01*
Y91520D01*
X36250Y91883D01*
X36185Y92240D01*
X36087Y92590D01*
X35958Y92930D01*
X35798Y93257D01*
X35755Y93324D01*
X35702Y93382D01*
X35640Y93432D01*
X35572Y93472D01*
X35567Y93473D01*
Y141684D01*
X35664Y141570D01*
X36489Y140866D01*
X37414Y140299D01*
X38416Y139884D01*
X38448Y139876D01*
Y118667D01*
X38445Y118666D01*
X38377Y118626D01*
X38316Y118577D01*
X38263Y118519D01*
X38221Y118452D01*
X38058Y118127D01*
X37929Y117787D01*
X37831Y117437D01*
X37765Y117079D01*
X37732Y116717D01*
Y116354D01*
X37765Y115991D01*
X37831Y115634D01*
X37929Y115284D01*
X38058Y114944D01*
X38218Y114617D01*
X38261Y114550D01*
X38314Y114492D01*
X38375Y114442D01*
X38444Y114402D01*
X38448Y114401D01*
Y56974D01*
G37*
G36*
X35567Y70625D02*X35213Y71040D01*
X34386Y71746D01*
X33460Y72314D01*
X32455Y72730D01*
X31399Y72983D01*
X30315Y73069D01*
X30304Y73068D01*
Y87867D01*
X30367Y87828D01*
X30692Y87664D01*
X31032Y87535D01*
X31382Y87437D01*
X31739Y87372D01*
X32102Y87339D01*
X32465D01*
X32827Y87372D01*
X33185Y87437D01*
X33535Y87535D01*
X33875Y87664D01*
X34202Y87824D01*
X34269Y87867D01*
X34327Y87920D01*
X34377Y87982D01*
X34416Y88050D01*
X34445Y88124D01*
X34461Y88202D01*
X34465Y88281D01*
X34456Y88360D01*
X34436Y88436D01*
X34403Y88508D01*
X34360Y88575D01*
X34307Y88633D01*
X34245Y88683D01*
X34177Y88722D01*
X34103Y88751D01*
X34025Y88767D01*
X33946Y88771D01*
X33867Y88762D01*
X33791Y88742D01*
X33719Y88708D01*
X33476Y88586D01*
X33221Y88489D01*
X32959Y88416D01*
X32691Y88366D01*
X32420Y88342D01*
X32147D01*
X31876Y88366D01*
X31608Y88416D01*
X31346Y88489D01*
X31091Y88586D01*
X30846Y88705D01*
X30775Y88739D01*
X30699Y88759D01*
X30621Y88768D01*
X30542Y88764D01*
X30465Y88748D01*
X30392Y88720D01*
X30323Y88680D01*
X30304Y88665D01*
Y94008D01*
X30322Y93994D01*
X30390Y93955D01*
X30464Y93926D01*
X30542Y93910D01*
X30621Y93906D01*
X30700Y93915D01*
X30776Y93935D01*
X30848Y93969D01*
X31091Y94091D01*
X31346Y94188D01*
X31608Y94262D01*
X31876Y94311D01*
X32147Y94335D01*
X32420D01*
X32691Y94311D01*
X32959Y94262D01*
X33221Y94188D01*
X33476Y94091D01*
X33721Y93972D01*
X33792Y93938D01*
X33868Y93918D01*
X33946Y93909D01*
X34025Y93913D01*
X34102Y93929D01*
X34175Y93957D01*
X34244Y93997D01*
X34305Y94046D01*
X34358Y94104D01*
X34401Y94170D01*
X34433Y94242D01*
X34453Y94318D01*
X34462Y94396D01*
X34458Y94475D01*
X34442Y94552D01*
X34414Y94626D01*
X34374Y94694D01*
X34325Y94755D01*
X34267Y94808D01*
X34200Y94850D01*
X33875Y95013D01*
X33535Y95142D01*
X33185Y95240D01*
X32827Y95306D01*
X32465Y95339D01*
X32102D01*
X31739Y95306D01*
X31382Y95240D01*
X31032Y95142D01*
X30692Y95013D01*
X30365Y94853D01*
X30304Y94814D01*
Y152868D01*
X35567D01*
Y151230D01*
X34960Y150519D01*
X34393Y149594D01*
X33978Y148592D01*
X33725Y147538D01*
X33640Y146457D01*
X33725Y145376D01*
X33978Y144321D01*
X34393Y143319D01*
X34960Y142394D01*
X35567Y141684D01*
Y93473D01*
X35498Y93500D01*
X35420Y93516D01*
X35341Y93520D01*
X35262Y93512D01*
X35186Y93491D01*
X35114Y93459D01*
X35047Y93415D01*
X34989Y93362D01*
X34939Y93300D01*
X34900Y93232D01*
X34871Y93158D01*
X34855Y93080D01*
X34851Y93001D01*
X34860Y92923D01*
X34880Y92846D01*
X34914Y92775D01*
X35036Y92531D01*
X35133Y92277D01*
X35206Y92014D01*
X35256Y91746D01*
X35280Y91475D01*
Y91202D01*
X35256Y90931D01*
X35206Y90663D01*
X35133Y90401D01*
X35036Y90146D01*
X34917Y89901D01*
X34883Y89830D01*
X34863Y89754D01*
X34854Y89676D01*
X34858Y89597D01*
X34874Y89520D01*
X34902Y89447D01*
X34942Y89378D01*
X34991Y89317D01*
X35049Y89264D01*
X35115Y89221D01*
X35187Y89189D01*
X35263Y89169D01*
X35341Y89160D01*
X35420Y89164D01*
X35497Y89180D01*
X35567Y89207D01*
Y70625D01*
G37*
G36*
Y56974D02*X30304D01*
Y59216D01*
X30315Y59215D01*
X31399Y59300D01*
X32455Y59554D01*
X33460Y59970D01*
X34386Y60538D01*
X35213Y61244D01*
X35567Y61659D01*
Y56974D01*
G37*
G36*
X29000Y151802D02*X30066Y152868D01*
X30304D01*
Y94814D01*
X30298Y94810D01*
X30240Y94757D01*
X30190Y94696D01*
X30150Y94627D01*
X30122Y94553D01*
X30106Y94475D01*
X30102Y94396D01*
X30110Y94318D01*
X30131Y94241D01*
X30164Y94169D01*
X30207Y94103D01*
X30260Y94044D01*
X30304Y94008D01*
Y88665D01*
X30262Y88631D01*
X30209Y88573D01*
X30166Y88507D01*
X30134Y88435D01*
X30114Y88359D01*
X30105Y88281D01*
X30109Y88202D01*
X30125Y88125D01*
X30153Y88052D01*
X30192Y87983D01*
X30242Y87922D01*
X30300Y87869D01*
X30304Y87867D01*
Y73068D01*
X29231Y72983D01*
X29000Y72928D01*
Y89204D01*
X29069Y89177D01*
X29147Y89161D01*
X29226Y89157D01*
X29304Y89166D01*
X29381Y89186D01*
X29453Y89219D01*
X29520Y89262D01*
X29578Y89315D01*
X29628Y89377D01*
X29667Y89445D01*
X29696Y89519D01*
X29712Y89597D01*
X29716Y89676D01*
X29707Y89755D01*
X29687Y89831D01*
X29653Y89903D01*
X29531Y90146D01*
X29434Y90401D01*
X29361Y90663D01*
X29311Y90931D01*
X29287Y91202D01*
Y91475D01*
X29311Y91746D01*
X29361Y92014D01*
X29434Y92277D01*
X29531Y92531D01*
X29650Y92776D01*
X29684Y92847D01*
X29704Y92923D01*
X29713Y93001D01*
X29709Y93080D01*
X29693Y93157D01*
X29665Y93230D01*
X29625Y93299D01*
X29576Y93360D01*
X29518Y93413D01*
X29452Y93456D01*
X29380Y93488D01*
X29304Y93509D01*
X29226Y93517D01*
X29147Y93513D01*
X29070Y93497D01*
X29000Y93470D01*
Y151802D01*
G37*
G36*
Y52474D02*X30304D01*
Y40573D01*
X29000Y39268D01*
Y52474D01*
G37*
G36*
X30304Y56974D02*X29000D01*
Y59356D01*
X29231Y59300D01*
X30304Y59216D01*
Y56974D01*
G37*
G36*
X16639Y58919D02*X22362Y53196D01*
X22420Y53129D01*
X22689Y52899D01*
X22689Y52899D01*
X22876Y52784D01*
X22991Y52713D01*
X23318Y52578D01*
X23663Y52495D01*
X23663D01*
X24016Y52467D01*
X24104Y52474D01*
X29000D01*
Y39268D01*
X27605Y37874D01*
X27538Y37816D01*
X27308Y37547D01*
X27123Y37245D01*
X26987Y36918D01*
X26905Y36574D01*
X26905Y36573D01*
X26877Y36220D01*
X26884Y36132D01*
Y28267D01*
X23510Y31641D01*
Y40463D01*
X23517Y40551D01*
X23489Y40904D01*
X23406Y41249D01*
X23367Y41344D01*
X23271Y41576D01*
X23156Y41763D01*
X23086Y41878D01*
X23086Y41878D01*
X22856Y42147D01*
X22788Y42205D01*
X16639Y48354D01*
Y54541D01*
X16707Y54554D01*
X16781Y54582D01*
X16849Y54621D01*
X16911Y54669D01*
X16964Y54727D01*
X17008Y54793D01*
X17039Y54865D01*
X17116Y55098D01*
X17169Y55338D01*
X17201Y55581D01*
X17212Y55827D01*
X17201Y56072D01*
X17169Y56316D01*
X17116Y56555D01*
X17042Y56789D01*
X17009Y56861D01*
X16966Y56927D01*
X16912Y56985D01*
X16850Y57034D01*
X16782Y57073D01*
X16707Y57101D01*
X16639Y57115D01*
Y58919D01*
G37*
G36*
X14410Y59392D02*X14801Y59423D01*
X15413Y59570D01*
X15820Y59738D01*
X16639Y58919D01*
Y57115D01*
X16630Y57116D01*
X16551Y57120D01*
X16473Y57111D01*
X16397Y57089D01*
X16325Y57057D01*
X16259Y57013D01*
X16201Y56959D01*
X16152Y56898D01*
X16113Y56829D01*
X16086Y56755D01*
X16070Y56677D01*
X16067Y56598D01*
X16076Y56520D01*
X16098Y56444D01*
X16148Y56295D01*
X16182Y56141D01*
X16203Y55984D01*
X16209Y55827D01*
X16203Y55669D01*
X16182Y55513D01*
X16148Y55359D01*
X16100Y55209D01*
X16077Y55133D01*
X16068Y55055D01*
X16072Y54976D01*
X16087Y54899D01*
X16115Y54826D01*
X16153Y54757D01*
X16202Y54695D01*
X16260Y54642D01*
X16326Y54598D01*
X16397Y54566D01*
X16473Y54545D01*
X16551Y54536D01*
X16630Y54539D01*
X16639Y54541D01*
Y48354D01*
X14410Y50583D01*
Y53024D01*
X14655Y53035D01*
X14898Y53067D01*
X15138Y53120D01*
X15372Y53195D01*
X15444Y53227D01*
X15510Y53271D01*
X15568Y53324D01*
X15617Y53386D01*
X15656Y53455D01*
X15683Y53529D01*
X15699Y53606D01*
X15702Y53685D01*
X15693Y53763D01*
X15672Y53840D01*
X15639Y53911D01*
X15596Y53977D01*
X15542Y54035D01*
X15480Y54084D01*
X15411Y54123D01*
X15337Y54151D01*
X15260Y54166D01*
X15181Y54170D01*
X15103Y54161D01*
X15027Y54138D01*
X14877Y54089D01*
X14723Y54054D01*
X14567Y54034D01*
X14410Y54027D01*
Y57627D01*
X14567Y57620D01*
X14723Y57599D01*
X14877Y57565D01*
X15028Y57517D01*
X15103Y57495D01*
X15181Y57486D01*
X15260Y57489D01*
X15337Y57505D01*
X15411Y57532D01*
X15479Y57571D01*
X15541Y57620D01*
X15594Y57677D01*
X15638Y57743D01*
X15670Y57815D01*
X15692Y57890D01*
X15701Y57969D01*
X15697Y58047D01*
X15682Y58124D01*
X15654Y58198D01*
X15616Y58267D01*
X15567Y58328D01*
X15509Y58382D01*
X15443Y58425D01*
X15371Y58456D01*
X15138Y58533D01*
X14898Y58587D01*
X14655Y58619D01*
X14410Y58629D01*
Y59392D01*
G37*
G36*
X29000Y56974D02*X24948D01*
X18150Y63772D01*
X18136Y64013D01*
X17989Y64626D01*
X17748Y65207D01*
X17419Y65744D01*
X17010Y66223D01*
X16532Y66632D01*
X15995Y66961D01*
X15413Y67202D01*
X14801Y67349D01*
X14410Y67380D01*
Y137213D01*
X29000Y151802D01*
Y93470D01*
X28997Y93469D01*
X28928Y93430D01*
X28867Y93380D01*
X28814Y93322D01*
X28773Y93255D01*
X28609Y92930D01*
X28480Y92590D01*
X28382Y92240D01*
X28316Y91883D01*
X28283Y91520D01*
Y91157D01*
X28316Y90795D01*
X28382Y90437D01*
X28480Y90087D01*
X28609Y89747D01*
X28769Y89420D01*
X28812Y89353D01*
X28865Y89295D01*
X28926Y89245D01*
X28995Y89206D01*
X29000Y89204D01*
Y72928D01*
X28174Y72730D01*
X27170Y72314D01*
X26243Y71746D01*
X25417Y71040D01*
X24711Y70213D01*
X24143Y69286D01*
X23727Y68282D01*
X23473Y67225D01*
X23388Y66142D01*
X23473Y65058D01*
X23727Y64001D01*
X24143Y62997D01*
X24711Y62070D01*
X25417Y61244D01*
X26243Y60538D01*
X27170Y59970D01*
X28174Y59554D01*
X29000Y59356D01*
Y56974D01*
G37*
G36*
X12180Y59916D02*X12352Y59811D01*
X12933Y59570D01*
X13546Y59423D01*
X14173Y59373D01*
X14410Y59392D01*
Y58629D01*
X14409Y58629D01*
X14164Y58619D01*
X13921Y58587D01*
X13681Y58533D01*
X13447Y58459D01*
X13375Y58427D01*
X13309Y58383D01*
X13251Y58330D01*
X13202Y58268D01*
X13163Y58199D01*
X13135Y58125D01*
X13120Y58047D01*
X13117Y57969D01*
X13126Y57890D01*
X13147Y57814D01*
X13180Y57742D01*
X13223Y57676D01*
X13277Y57618D01*
X13339Y57569D01*
X13407Y57530D01*
X13481Y57503D01*
X13559Y57487D01*
X13638Y57484D01*
X13716Y57493D01*
X13792Y57516D01*
X13942Y57565D01*
X14096Y57599D01*
X14252Y57620D01*
X14409Y57627D01*
X14410Y57627D01*
Y54027D01*
X14409Y54027D01*
X14252Y54034D01*
X14096Y54054D01*
X13942Y54089D01*
X13791Y54136D01*
X13716Y54159D01*
X13638Y54168D01*
X13559Y54165D01*
X13482Y54149D01*
X13408Y54122D01*
X13340Y54083D01*
X13278Y54034D01*
X13225Y53976D01*
X13181Y53911D01*
X13148Y53839D01*
X13127Y53763D01*
X13118Y53685D01*
X13122Y53606D01*
X13137Y53529D01*
X13165Y53455D01*
X13203Y53387D01*
X13252Y53325D01*
X13310Y53272D01*
X13376Y53228D01*
X13448Y53197D01*
X13681Y53120D01*
X13921Y53067D01*
X14164Y53035D01*
X14409Y53024D01*
X14410Y53024D01*
Y50583D01*
X12180Y52813D01*
Y54539D01*
X12189Y54537D01*
X12268Y54534D01*
X12346Y54543D01*
X12422Y54564D01*
X12494Y54597D01*
X12560Y54641D01*
X12618Y54694D01*
X12667Y54756D01*
X12706Y54825D01*
X12733Y54899D01*
X12749Y54976D01*
X12752Y55055D01*
X12743Y55134D01*
X12721Y55209D01*
X12671Y55359D01*
X12637Y55513D01*
X12616Y55669D01*
X12609Y55827D01*
X12616Y55984D01*
X12637Y56141D01*
X12671Y56295D01*
X12719Y56445D01*
X12742Y56520D01*
X12751Y56598D01*
X12747Y56677D01*
X12732Y56754D01*
X12704Y56828D01*
X12666Y56897D01*
X12617Y56958D01*
X12559Y57012D01*
X12493Y57055D01*
X12422Y57088D01*
X12346Y57109D01*
X12268Y57118D01*
X12189Y57115D01*
X12180Y57113D01*
Y59916D01*
G37*
G36*
X14410Y67380D02*X14173Y67398D01*
X13546Y67349D01*
X12933Y67202D01*
X12352Y66961D01*
X12180Y66855D01*
Y134982D01*
X14410Y137213D01*
Y67380D01*
G37*
G36*
X12180Y66855D02*X11815Y66632D01*
X11336Y66223D01*
X10927Y65744D01*
X10598Y65207D01*
X10357Y64626D01*
X10210Y64013D01*
X10161Y63386D01*
X10210Y62758D01*
X10357Y62146D01*
X10598Y61564D01*
X10927Y61027D01*
X11336Y60549D01*
X11815Y60140D01*
X12180Y59916D01*
Y57113D01*
X12112Y57099D01*
X12038Y57072D01*
X11970Y57033D01*
X11908Y56984D01*
X11855Y56926D01*
X11811Y56861D01*
X11780Y56789D01*
X11703Y56555D01*
X11650Y56316D01*
X11618Y56072D01*
X11607Y55827D01*
X11618Y55581D01*
X11650Y55338D01*
X11703Y55098D01*
X11777Y54864D01*
X11810Y54792D01*
X11853Y54726D01*
X11907Y54668D01*
X11969Y54619D01*
X12037Y54580D01*
X12111Y54553D01*
X12180Y54539D01*
Y52813D01*
X8156Y56837D01*
Y130958D01*
X12180Y134982D01*
Y66855D01*
G37*
G36*
X10764Y47865D02*X19010Y39619D01*
Y30797D01*
X19003Y30709D01*
X19031Y30356D01*
Y30356D01*
X19113Y30011D01*
X19249Y29684D01*
X19319Y29569D01*
X19434Y29382D01*
X19434Y29382D01*
X19664Y29113D01*
X19731Y29055D01*
X24807Y23980D01*
X24777Y23856D01*
X24728Y23228D01*
X24777Y22601D01*
X24924Y21988D01*
X25165Y21407D01*
X25494Y20870D01*
X25903Y20391D01*
X26382Y19982D01*
X26919Y19653D01*
X27500Y19412D01*
X28112Y19265D01*
X28740Y19216D01*
X29368Y19265D01*
X29980Y19412D01*
X30562Y19653D01*
X31099Y19982D01*
X31577Y20391D01*
X31986Y20870D01*
X32315Y21407D01*
X32556Y21988D01*
X32703Y22601D01*
X32740Y23228D01*
X32703Y23856D01*
X32556Y24468D01*
X32315Y25050D01*
X31986Y25587D01*
X31577Y26065D01*
X31384Y26231D01*
Y35288D01*
X36877Y40781D01*
X42710D01*
Y28678D01*
X41899Y29014D01*
X40845Y29267D01*
X39764Y29352D01*
X38683Y29267D01*
X37628Y29014D01*
X36626Y28599D01*
X35702Y28032D01*
X34877Y27328D01*
X34173Y26503D01*
X33606Y25578D01*
X33191Y24577D01*
X32938Y23522D01*
X32853Y22441D01*
X32938Y21360D01*
X33191Y20305D01*
X33606Y19303D01*
X34173Y18379D01*
X34877Y17554D01*
X35702Y16850D01*
X36626Y16283D01*
X37628Y15868D01*
X38683Y15615D01*
X39764Y15530D01*
X40845Y15615D01*
X41899Y15868D01*
X42710Y16204D01*
Y10236D01*
X10764D01*
Y38814D01*
X10767Y38815D01*
X10836Y38854D01*
X10897Y38903D01*
X10950Y38962D01*
X10991Y39028D01*
X11154Y39353D01*
X11284Y39693D01*
X11382Y40043D01*
X11447Y40401D01*
X11480Y40763D01*
Y41127D01*
X11447Y41489D01*
X11382Y41847D01*
X11284Y42197D01*
X11154Y42537D01*
X10995Y42863D01*
X10952Y42930D01*
X10899Y42989D01*
X10837Y43038D01*
X10769Y43078D01*
X10764Y43080D01*
Y47865D01*
G37*
G36*
X7482Y51147D02*X10764Y47865D01*
Y43080D01*
X10695Y43106D01*
X10617Y43122D01*
X10538Y43126D01*
X10459Y43118D01*
X10383Y43097D01*
X10311Y43065D01*
X10244Y43022D01*
X10186Y42968D01*
X10136Y42907D01*
X10096Y42838D01*
X10068Y42764D01*
X10052Y42687D01*
X10048Y42608D01*
X10056Y42529D01*
X10077Y42452D01*
X10111Y42381D01*
X10233Y42138D01*
X10330Y41883D01*
X10403Y41620D01*
X10452Y41352D01*
X10477Y41081D01*
Y40809D01*
X10452Y40537D01*
X10403Y40269D01*
X10330Y40007D01*
X10233Y39752D01*
X10114Y39507D01*
X10080Y39436D01*
X10059Y39360D01*
X10051Y39282D01*
X10055Y39204D01*
X10071Y39127D01*
X10099Y39053D01*
X10138Y38985D01*
X10188Y38923D01*
X10246Y38871D01*
X10312Y38828D01*
X10384Y38795D01*
X10460Y38775D01*
X10538Y38767D01*
X10617Y38770D01*
X10694Y38787D01*
X10764Y38814D01*
Y10236D01*
X7482D01*
Y36945D01*
X7662D01*
X8024Y36978D01*
X8382Y37044D01*
X8732Y37141D01*
X9072Y37271D01*
X9399Y37430D01*
X9465Y37473D01*
X9524Y37526D01*
X9574Y37588D01*
X9613Y37657D01*
X9642Y37731D01*
X9658Y37808D01*
X9662Y37887D01*
X9653Y37966D01*
X9633Y38042D01*
X9600Y38115D01*
X9557Y38181D01*
X9504Y38240D01*
X9442Y38289D01*
X9374Y38329D01*
X9300Y38357D01*
X9222Y38373D01*
X9143Y38377D01*
X9064Y38369D01*
X8988Y38348D01*
X8916Y38314D01*
X8673Y38192D01*
X8418Y38095D01*
X8156Y38022D01*
X7888Y37973D01*
X7617Y37948D01*
X7482D01*
Y43942D01*
X7617D01*
X7888Y43917D01*
X8156Y43868D01*
X8418Y43794D01*
X8673Y43698D01*
X8918Y43578D01*
X8989Y43545D01*
X9065Y43524D01*
X9143Y43516D01*
X9222Y43520D01*
X9299Y43536D01*
X9372Y43564D01*
X9440Y43603D01*
X9502Y43652D01*
X9555Y43711D01*
X9598Y43777D01*
X9630Y43848D01*
X9650Y43924D01*
X9659Y44003D01*
X9655Y44081D01*
X9639Y44158D01*
X9610Y44232D01*
X9571Y44300D01*
X9522Y44361D01*
X9464Y44414D01*
X9397Y44456D01*
X9072Y44619D01*
X8732Y44748D01*
X8382Y44846D01*
X8024Y44912D01*
X7662Y44945D01*
X7482D01*
Y51147D01*
G37*
G36*
Y157480D02*X42710D01*
Y157368D01*
X29222D01*
X29134Y157375D01*
X28781Y157347D01*
X28436Y157265D01*
X28109Y157129D01*
X27807Y156944D01*
X27807Y156944D01*
X27538Y156714D01*
X27481Y156647D01*
X7482Y136648D01*
Y157480D01*
G37*
G36*
X4196Y54442D02*X4310Y54310D01*
X4377Y54252D01*
X7482Y51147D01*
Y44945D01*
X7298D01*
X6936Y44912D01*
X6579Y44846D01*
X6228Y44748D01*
X5889Y44619D01*
X5562Y44459D01*
X5495Y44417D01*
X5436Y44364D01*
X5387Y44302D01*
X5347Y44233D01*
X5319Y44159D01*
X5303Y44082D01*
X5299Y44003D01*
X5307Y43924D01*
X5328Y43847D01*
X5360Y43775D01*
X5404Y43709D01*
X5457Y43650D01*
X5518Y43600D01*
X5587Y43561D01*
X5661Y43533D01*
X5739Y43516D01*
X5818Y43513D01*
X5896Y43521D01*
X5973Y43542D01*
X6044Y43575D01*
X6288Y43698D01*
X6542Y43794D01*
X6805Y43868D01*
X7073Y43917D01*
X7344Y43942D01*
X7482D01*
Y37948D01*
X7344D01*
X7073Y37973D01*
X6805Y38022D01*
X6542Y38095D01*
X6288Y38192D01*
X6043Y38312D01*
X5972Y38345D01*
X5896Y38366D01*
X5818Y38374D01*
X5739Y38370D01*
X5662Y38354D01*
X5588Y38326D01*
X5520Y38287D01*
X5459Y38237D01*
X5406Y38179D01*
X5363Y38113D01*
X5331Y38041D01*
X5310Y37965D01*
X5302Y37887D01*
X5306Y37808D01*
X5322Y37731D01*
X5350Y37658D01*
X5389Y37590D01*
X5439Y37528D01*
X5497Y37476D01*
X5564Y37434D01*
X5889Y37271D01*
X6228Y37141D01*
X6579Y37044D01*
X6936Y36978D01*
X7298Y36945D01*
X7482D01*
Y10236D01*
X4196D01*
Y38810D01*
X4266Y38784D01*
X4344Y38767D01*
X4423Y38763D01*
X4501Y38772D01*
X4578Y38793D01*
X4650Y38825D01*
X4716Y38868D01*
X4775Y38921D01*
X4825Y38983D01*
X4864Y39052D01*
X4892Y39126D01*
X4909Y39203D01*
X4913Y39282D01*
X4904Y39361D01*
X4884Y39437D01*
X4850Y39509D01*
X4728Y39752D01*
X4631Y40007D01*
X4557Y40269D01*
X4508Y40537D01*
X4483Y40809D01*
Y41081D01*
X4508Y41352D01*
X4557Y41620D01*
X4631Y41883D01*
X4728Y42138D01*
X4847Y42382D01*
X4881Y42453D01*
X4901Y42529D01*
X4910Y42608D01*
X4906Y42686D01*
X4889Y42763D01*
X4861Y42837D01*
X4822Y42905D01*
X4773Y42966D01*
X4714Y43019D01*
X4649Y43062D01*
X4577Y43094D01*
X4501Y43115D01*
X4423Y43123D01*
X4344Y43119D01*
X4267Y43103D01*
X4196Y43076D01*
Y54442D01*
G37*
G36*
Y157480D02*X7482D01*
Y136648D01*
X4377Y133543D01*
X4310Y133486D01*
X4196Y133353D01*
Y157480D01*
G37*
G36*
X0Y10236D02*Y157480D01*
X4196D01*
Y133353D01*
X4080Y133216D01*
X3895Y132914D01*
X3759Y132587D01*
X3676Y132243D01*
X3676Y132243D01*
X3649Y131890D01*
X3656Y131802D01*
Y55994D01*
X3649Y55906D01*
X3676Y55552D01*
Y55552D01*
X3759Y55208D01*
X3895Y54881D01*
X3965Y54766D01*
X4080Y54579D01*
X4080Y54579D01*
X4196Y54442D01*
Y43076D01*
X4193Y43075D01*
X4125Y43036D01*
X4064Y42986D01*
X4011Y42928D01*
X3969Y42861D01*
X3806Y42537D01*
X3677Y42197D01*
X3579Y41847D01*
X3513Y41489D01*
X3480Y41127D01*
Y40763D01*
X3513Y40401D01*
X3579Y40043D01*
X3677Y39693D01*
X3806Y39353D01*
X3966Y39026D01*
X4009Y38960D01*
X4062Y38901D01*
X4123Y38851D01*
X4192Y38812D01*
X4196Y38810D01*
Y10236D01*
X0D01*
G37*
G54D26*X28740Y23228D02*X29134Y23622D01*
X28740Y23228D02*X21260Y30709D01*
Y40551D01*
X29134Y23622D02*Y36220D01*
X71260Y61417D02*X64567Y54724D01*
X24016D01*
X15354Y63386D01*
X14173D01*
X124803Y16142D02*X123071Y14409D01*
X115709D01*
X115551Y14567D01*
X112559D01*
X109449Y17677D01*
Y26024D01*
X109291Y26181D01*
Y36417D01*
X102677Y43031D01*
X88622D01*
X88976D02*X35945D01*
X34055Y41142D01*
X88976Y103543D02*Y133465D01*
X90945Y131496D01*
X114961D01*
X29134Y155118D02*X119291D01*
X129370Y145039D01*
X129843D01*
X81890Y96457D02*X99606D01*
X109606Y86457D01*
Y80079D01*
X81890Y96457D02*X88976Y103543D01*
X29134Y36220D02*X34252Y41339D01*
X21260Y40551D02*X5906Y55906D01*
Y131890D01*
X29134Y155118D01*
G54D25*G36*
X116606Y83079D02*Y77079D01*
X122606D01*
Y83079D01*
X116606D01*
G37*
G54D27*X109606Y80079D03*
X99606D03*
X89606D03*
X79606D03*
X69606D03*
G54D28*X77064Y15420D03*
Y17420D03*
Y19420D03*
X102464Y15420D03*
Y17420D03*
Y19420D03*
G54D27*X159449Y79213D03*
Y69213D03*
G54D25*G36*
X67787Y149142D02*Y143142D01*
X73787D01*
Y149142D01*
X67787D01*
G37*
G54D27*X60787Y146142D03*
G54D25*G36*
X126843Y148039D02*Y142039D01*
X132843D01*
Y148039D01*
X126843D01*
G37*
G54D27*X119843Y145039D03*
X109843D03*
X99843D03*
G54D25*G36*
X156449Y102213D02*Y96213D01*
X162449D01*
Y102213D01*
X156449D01*
G37*
G54D27*X159449Y89213D03*
G54D29*X126772Y131890D03*
X131496Y106693D03*
X114961Y131496D03*
X127165Y101575D03*
X133071Y95669D03*
X81890Y96457D03*
X81496Y106693D03*
X88976Y133465D03*
X94882Y34646D03*
G54D27*X124803Y16142D03*
X116929Y21260D03*
X139764Y14173D03*
X41732Y116535D03*
X32283Y91339D03*
X71260Y61417D03*
X78740Y56693D03*
X7480Y40945D03*
X14173Y63386D03*
X28740Y23228D03*
G54D29*X14409Y55827D03*
G54D30*G54D31*G54D32*G54D30*G54D32*G54D31*G54D33*G54D26*G54D31*G54D30*G54D26*G54D31*G54D30*G54D33*G54D30*G54D33*G54D30*G54D33*M02*
