G04 start of page 14 for group -3984 idx -3984 *
G04 Title: SAP, fab *
G04 Creator: pcb 4.0.2 *
G04 CreationDate: Sat Jan 19 10:52:36 2019 UTC *
G04 For: phil *
G04 Format: Gerber/RS-274X *
G04 PCB-Dimensions (mil): 1811.02 1574.80 *
G04 PCB-Coordinate-Origin: lower left *
%MOIN*%
%FSLAX25Y25*%
%LNFAB*%
%ADD78C,0.0100*%
%ADD77C,0.0075*%
%ADD76C,0.0060*%
%ADD75C,0.0001*%
%ADD74R,0.0080X0.0080*%
G54D74*X142756Y146969D02*Y143769D01*
G54D75*G36*
X142210Y147115D02*X145676Y149115D01*
X146076Y148422D01*
X142609Y146422D01*
X142210Y147115D01*
G37*
G36*
X142902Y146422D02*X139436Y148422D01*
X139836Y149115D01*
X143302Y147115D01*
X142902Y146422D01*
G37*
G54D74*X141156Y146969D02*G75*G03X144356Y146969I1600J0D01*G01*
G75*G03X141156Y146969I-1600J0D01*G01*
X142756Y22953D02*Y19753D01*
G54D75*G36*
X142210Y23099D02*X145676Y25099D01*
X146076Y24406D01*
X142609Y22406D01*
X142210Y23099D01*
G37*
G36*
X142902Y22406D02*X139436Y24406D01*
X139836Y25099D01*
X143302Y23099D01*
X142902Y22406D01*
G37*
G54D74*X141156Y22953D02*G75*G03X144356Y22953I1600J0D01*G01*
G75*G03X141156Y22953I-1600J0D01*G01*
X30551Y146969D02*Y143769D01*
G54D75*G36*
X30005Y147115D02*X33471Y149115D01*
X33871Y148422D01*
X30405Y146422D01*
X30005Y147115D01*
G37*
G36*
X30698Y146422D02*X27231Y148422D01*
X27631Y149115D01*
X31098Y147115D01*
X30698Y146422D01*
G37*
G54D74*X28951Y146969D02*G75*G03X32151Y146969I1600J0D01*G01*
G75*G03X28951Y146969I-1600J0D01*G01*
X30551Y22953D02*Y19753D01*
G54D75*G36*
X30005Y23099D02*X33471Y25099D01*
X33871Y24406D01*
X30405Y22406D01*
X30005Y23099D01*
G37*
G36*
X30698Y22406D02*X27231Y24406D01*
X27631Y25099D01*
X31098Y23099D01*
X30698Y22406D01*
G37*
G54D74*X28951Y22953D02*G75*G03X32151Y22953I1600J0D01*G01*
G75*G03X28951Y22953I-1600J0D01*G01*
X15000Y168730D02*Y165530D01*
G54D75*G36*
X14454Y168877D02*X17920Y170877D01*
X18320Y170184D01*
X14853Y168184D01*
X14454Y168877D01*
G37*
G36*
X15147Y168184D02*X11680Y170184D01*
X12080Y170877D01*
X15546Y168877D01*
X15147Y168184D01*
G37*
G54D74*X13400Y168730D02*G75*G03X16600Y168730I1600J0D01*G01*
G75*G03X13400Y168730I-1600J0D01*G01*
G54D76*X140000Y170980D02*Y164980D01*
Y170980D02*X143750Y164980D01*
Y170980D02*Y164980D01*
X145550Y170230D02*Y165730D01*
Y170230D02*X146300Y170980D01*
X147800D01*
X148550Y170230D01*
Y165730D01*
X147800Y164980D02*X148550Y165730D01*
X146300Y164980D02*X147800D01*
X145550Y165730D02*X146300Y164980D01*
X98000Y167230D02*X101000Y170980D01*
X98000Y167230D02*X101750D01*
X101000Y170980D02*Y164980D01*
X45000Y165730D02*X45750Y164980D01*
X45000Y170230D02*Y165730D01*
Y170230D02*X45750Y170980D01*
X47250D01*
X48000Y170230D01*
Y165730D01*
X47250Y164980D02*X48000Y165730D01*
X45750Y164980D02*X47250D01*
X45000Y166480D02*X48000Y169480D01*
X49800Y164980D02*X50550D01*
X52350Y169780D02*X53550Y170980D01*
Y164980D01*
X52350D02*X54600D01*
X56400Y169780D02*X57600Y170980D01*
Y164980D01*
X56400D02*X58650D01*
X60450Y165730D02*X61200Y164980D01*
X60450Y166930D02*Y165730D01*
Y166930D02*X61500Y167980D01*
X62400D01*
X63450Y166930D01*
Y165730D01*
X62700Y164980D02*X63450Y165730D01*
X61200Y164980D02*X62700D01*
X60450Y169030D02*X61500Y167980D01*
X60450Y170230D02*Y169030D01*
Y170230D02*X61200Y170980D01*
X62700D01*
X63450Y170230D01*
Y169030D01*
X62400Y167980D02*X63450Y169030D01*
X78046Y23332D02*X81246D01*
X78046D02*Y20132D01*
X81246D01*
Y23332D02*Y20132D01*
X98124Y23332D02*X101324D01*
X98124D02*Y20132D01*
X101324D01*
Y23332D02*Y20132D01*
X13400Y185330D02*X16600D01*
X13400D02*Y182130D01*
X16600D01*
Y185330D02*Y182130D01*
X135000Y185980D02*X136500Y182980D01*
X138000Y185980D01*
X136500Y182980D02*Y179980D01*
X139800Y183280D02*X142050D01*
X139800Y179980D02*X142800D01*
X139800Y185980D02*Y179980D01*
Y185980D02*X142800D01*
X147600D02*X148350Y185230D01*
X145350Y185980D02*X147600D01*
X144600Y185230D02*X145350Y185980D01*
X144600Y185230D02*Y183730D01*
X145350Y182980D01*
X147600D01*
X148350Y182230D01*
Y180730D01*
X147600Y179980D02*X148350Y180730D01*
X145350Y179980D02*X147600D01*
X144600Y180730D02*X145350Y179980D01*
X98000Y185230D02*X98750Y185980D01*
X101000D01*
X101750Y185230D01*
Y183730D01*
X98000Y179980D02*X101750Y183730D01*
X98000Y179980D02*X101750D01*
X45000Y180730D02*X45750Y179980D01*
X45000Y185230D02*Y180730D01*
Y185230D02*X45750Y185980D01*
X47250D01*
X48000Y185230D01*
Y180730D01*
X47250Y179980D02*X48000Y180730D01*
X45750Y179980D02*X47250D01*
X45000Y181480D02*X48000Y184480D01*
X49800Y179980D02*X50550D01*
X52350Y180730D02*X53100Y179980D01*
X52350Y185230D02*Y180730D01*
Y185230D02*X53100Y185980D01*
X54600D01*
X55350Y185230D01*
Y180730D01*
X54600Y179980D02*X55350Y180730D01*
X53100Y179980D02*X54600D01*
X52350Y181480D02*X55350Y184480D01*
X57150Y182230D02*X60150Y185980D01*
X57150Y182230D02*X60900D01*
X60150Y185980D02*Y179980D01*
X62700Y185230D02*X63450Y185980D01*
X64950D01*
X65700Y185230D01*
X64950Y179980D02*X65700Y180730D01*
X63450Y179980D02*X64950D01*
X62700Y180730D02*X63450Y179980D01*
Y183280D02*X64950D01*
X65700Y185230D02*Y184030D01*
Y182530D02*Y180730D01*
Y182530D02*X64950Y183280D01*
X65700Y184030D02*X64950Y183280D01*
X79043Y13071D02*G75*G03X80643Y13071I800J0D01*G01*
G75*G03X79043Y13071I-800J0D01*G01*
X98727D02*G75*G03X100327Y13071I800J0D01*G01*
G75*G03X98727Y13071I-800J0D01*G01*
X14200Y198730D02*G75*G03X15800Y198730I800J0D01*G01*
G75*G03X14200Y198730I-800J0D01*G01*
X140000Y200980D02*Y194980D01*
Y200980D02*X143750Y194980D01*
Y200980D02*Y194980D01*
X145550Y200230D02*Y195730D01*
Y200230D02*X146300Y200980D01*
X147800D01*
X148550Y200230D01*
Y195730D01*
X147800Y194980D02*X148550Y195730D01*
X146300Y194980D02*X147800D01*
X145550Y195730D02*X146300Y194980D01*
X98000Y200230D02*X98750Y200980D01*
X101000D01*
X101750Y200230D01*
Y198730D01*
X98000Y194980D02*X101750Y198730D01*
X98000Y194980D02*X101750D01*
X45000Y195730D02*X45750Y194980D01*
X45000Y200230D02*Y195730D01*
Y200230D02*X45750Y200980D01*
X47250D01*
X48000Y200230D01*
Y195730D01*
X47250Y194980D02*X48000Y195730D01*
X45750Y194980D02*X47250D01*
X45000Y196480D02*X48000Y199480D01*
X49800Y194980D02*X50550D01*
X52350Y195730D02*X53100Y194980D01*
X52350Y200230D02*Y195730D01*
Y200230D02*X53100Y200980D01*
X54600D01*
X55350Y200230D01*
Y195730D01*
X54600Y194980D02*X55350Y195730D01*
X53100Y194980D02*X54600D01*
X52350Y196480D02*X55350Y199480D01*
X57150Y197230D02*X60150Y200980D01*
X57150Y197230D02*X60900D01*
X60150Y200980D02*Y194980D01*
X62700Y200230D02*X63450Y200980D01*
X64950D01*
X65700Y200230D01*
X64950Y194980D02*X65700Y195730D01*
X63450Y194980D02*X64950D01*
X62700Y195730D02*X63450Y194980D01*
Y198280D02*X64950D01*
X65700Y200230D02*Y199030D01*
Y197530D02*Y195730D01*
Y197530D02*X64950Y198280D01*
X65700Y199030D02*X64950Y198280D01*
X116556Y146554D02*X118956Y144154D01*
X116556D02*X118956Y146554D01*
X106556D02*X108956Y144154D01*
X106556D02*X108956Y146554D01*
X96556D02*X98956Y144154D01*
X96556D02*X98956Y146554D01*
X86556D02*X88956Y144154D01*
X86556D02*X88956Y146554D01*
X61713Y131791D02*X64113Y129391D01*
X61713D02*X64113Y131791D01*
X51713D02*X54113Y129391D01*
X51713D02*X54113Y131791D01*
X118406Y81279D02*X120806Y78879D01*
X118406D02*X120806Y81279D01*
X108406D02*X110806Y78879D01*
X108406D02*X110806Y81279D01*
X98406D02*X100806Y78879D01*
X98406D02*X100806Y81279D01*
X88406D02*X90806Y78879D01*
X88406D02*X90806Y81279D01*
X78406D02*X80806Y78879D01*
X78406D02*X80806Y81279D01*
X68406D02*X70806Y78879D01*
X68406D02*X70806Y81279D01*
X144509Y100924D02*X146909Y98524D01*
X144509D02*X146909Y100924D01*
X144509Y90924D02*X146909Y88524D01*
X144509D02*X146909Y90924D01*
X144509Y80924D02*X146909Y78524D01*
X144509D02*X146909Y80924D01*
X144509Y70924D02*X146909Y68524D01*
X144509D02*X146909Y70924D01*
X13800Y214930D02*X16200Y212530D01*
X13800D02*X16200Y214930D01*
X135000Y215980D02*X136500Y212980D01*
X138000Y215980D01*
X136500Y212980D02*Y209980D01*
X139800Y213280D02*X142050D01*
X139800Y209980D02*X142800D01*
X139800Y215980D02*Y209980D01*
Y215980D02*X142800D01*
X147600D02*X148350Y215230D01*
X145350Y215980D02*X147600D01*
X144600Y215230D02*X145350Y215980D01*
X144600Y215230D02*Y213730D01*
X145350Y212980D01*
X147600D01*
X148350Y212230D01*
Y210730D01*
X147600Y209980D02*X148350Y210730D01*
X145350Y209980D02*X147600D01*
X144600Y210730D02*X145350Y209980D01*
X98000Y214780D02*X99200Y215980D01*
Y209980D01*
X98000D02*X100250D01*
X104300Y215980D02*X105050Y215230D01*
X102800Y215980D02*X104300D01*
X102050Y215230D02*X102800Y215980D01*
X102050Y215230D02*Y210730D01*
X102800Y209980D01*
X104300Y213280D02*X105050Y212530D01*
X102050Y213280D02*X104300D01*
X102800Y209980D02*X104300D01*
X105050Y210730D01*
Y212530D02*Y210730D01*
X45000D02*X45750Y209980D01*
X45000Y215230D02*Y210730D01*
Y215230D02*X45750Y215980D01*
X47250D01*
X48000Y215230D01*
Y210730D01*
X47250Y209980D02*X48000Y210730D01*
X45750Y209980D02*X47250D01*
X45000Y211480D02*X48000Y214480D01*
X49800Y209980D02*X50550D01*
X52350Y210730D02*X53100Y209980D01*
X52350Y215230D02*Y210730D01*
Y215230D02*X53100Y215980D01*
X54600D01*
X55350Y215230D01*
Y210730D01*
X54600Y209980D02*X55350Y210730D01*
X53100Y209980D02*X54600D01*
X52350Y211480D02*X55350Y214480D01*
X57150Y215230D02*X57900Y215980D01*
X59400D01*
X60150Y215230D01*
X59400Y209980D02*X60150Y210730D01*
X57900Y209980D02*X59400D01*
X57150Y210730D02*X57900Y209980D01*
Y213280D02*X59400D01*
X60150Y215230D02*Y214030D01*
Y212530D02*Y210730D01*
Y212530D02*X59400Y213280D01*
X60150Y214030D02*X59400Y213280D01*
X61950Y210730D02*X62700Y209980D01*
X61950Y211930D02*Y210730D01*
Y211930D02*X63000Y212980D01*
X63900D01*
X64950Y211930D01*
Y210730D01*
X64200Y209980D02*X64950Y210730D01*
X62700Y209980D02*X64200D01*
X61950Y214030D02*X63000Y212980D01*
X61950Y215230D02*Y214030D01*
Y215230D02*X62700Y215980D01*
X64200D01*
X64950Y215230D01*
Y214030D01*
X63900Y212980D02*X64950Y214030D01*
X86575Y55261D02*Y52061D01*
X84975Y53661D02*X88175D01*
X41693Y83450D02*Y80250D01*
X40093Y81850D02*X43293D01*
X118346Y23135D02*Y19935D01*
X116746Y21535D02*X119946D01*
X42402Y110694D02*Y107494D01*
X40802Y109094D02*X44002D01*
X15000Y230330D02*Y227130D01*
X13400Y228730D02*X16600D01*
X135000Y230980D02*X136500Y227980D01*
X138000Y230980D01*
X136500Y227980D02*Y224980D01*
X139800Y228280D02*X142050D01*
X139800Y224980D02*X142800D01*
X139800Y230980D02*Y224980D01*
Y230980D02*X142800D01*
X147600D02*X148350Y230230D01*
X145350Y230980D02*X147600D01*
X144600Y230230D02*X145350Y230980D01*
X144600Y230230D02*Y228730D01*
X145350Y227980D01*
X147600D01*
X148350Y227230D01*
Y225730D01*
X147600Y224980D02*X148350Y225730D01*
X145350Y224980D02*X147600D01*
X144600Y225730D02*X145350Y224980D01*
X98000Y227230D02*X101000Y230980D01*
X98000Y227230D02*X101750D01*
X101000Y230980D02*Y224980D01*
X45000Y225730D02*X45750Y224980D01*
X45000Y230230D02*Y225730D01*
Y230230D02*X45750Y230980D01*
X47250D01*
X48000Y230230D01*
Y225730D01*
X47250Y224980D02*X48000Y225730D01*
X45750Y224980D02*X47250D01*
X45000Y226480D02*X48000Y229480D01*
X49800Y224980D02*X50550D01*
X52350Y225730D02*X53100Y224980D01*
X52350Y230230D02*Y225730D01*
Y230230D02*X53100Y230980D01*
X54600D01*
X55350Y230230D01*
Y225730D01*
X54600Y224980D02*X55350Y225730D01*
X53100Y224980D02*X54600D01*
X52350Y226480D02*X55350Y229480D01*
X57150Y230230D02*X57900Y230980D01*
X59400D01*
X60150Y230230D01*
X59400Y224980D02*X60150Y225730D01*
X57900Y224980D02*X59400D01*
X57150Y225730D02*X57900Y224980D01*
Y228280D02*X59400D01*
X60150Y230230D02*Y229030D01*
Y227530D02*Y225730D01*
Y227530D02*X59400Y228280D01*
X60150Y229030D02*X59400Y228280D01*
X61950Y230980D02*X64950D01*
X61950D02*Y227980D01*
X62700Y228730D01*
X64200D01*
X64950Y227980D01*
Y225730D01*
X64200Y224980D02*X64950Y225730D01*
X62700Y224980D02*X64200D01*
X61950Y225730D02*X62700Y224980D01*
X94882Y34646D02*Y33046D01*
Y34646D02*X96269Y35446D01*
X94882Y34646D02*X93495Y35446D01*
X74252Y96102D02*Y94502D01*
Y96102D02*X75639Y96902D01*
X74252Y96102D02*X72865Y96902D01*
X88976Y133465D02*Y131865D01*
Y133465D02*X90363Y134265D01*
X88976Y133465D02*X87590Y134265D01*
X127441Y100433D02*Y98833D01*
Y100433D02*X128828Y101233D01*
X127441Y100433D02*X126054Y101233D01*
X129409Y93740D02*Y92140D01*
Y93740D02*X130796Y94540D01*
X129409Y93740D02*X128023Y94540D01*
X27835Y36417D02*Y34817D01*
Y36417D02*X29221Y37217D01*
X27835Y36417D02*X26448Y37217D01*
X36929Y52598D02*Y50998D01*
Y52598D02*X38316Y53398D01*
X36929Y52598D02*X35542Y53398D01*
X30394Y61890D02*Y60290D01*
Y61890D02*X31780Y62690D01*
X30394Y61890D02*X29007Y62690D01*
X52480Y29882D02*Y28282D01*
Y29882D02*X53867Y30682D01*
X52480Y29882D02*X51094Y30682D01*
X103622Y132047D02*Y130447D01*
Y132047D02*X105009Y132847D01*
X103622Y132047D02*X102235Y132847D01*
X132638Y127677D02*Y126077D01*
Y127677D02*X134024Y128477D01*
X132638Y127677D02*X131251Y128477D01*
X56614Y62008D02*Y60408D01*
Y62008D02*X58001Y62808D01*
X56614Y62008D02*X55228Y62808D01*
X79291Y62126D02*Y60526D01*
Y62126D02*X80678Y62926D01*
X79291Y62126D02*X77905Y62926D01*
X74016Y89961D02*Y88361D01*
Y89961D02*X75402Y90761D01*
X74016Y89961D02*X72629Y90761D01*
X57441Y102323D02*Y100723D01*
Y102323D02*X58828Y103123D01*
X57441Y102323D02*X56054Y103123D01*
X73425Y102283D02*Y100683D01*
Y102283D02*X74812Y103083D01*
X73425Y102283D02*X72039Y103083D01*
X133661Y106772D02*Y105172D01*
Y106772D02*X135048Y107572D01*
X133661Y106772D02*X132275Y107572D01*
X134291Y34055D02*Y32455D01*
Y34055D02*X135678Y34855D01*
X134291Y34055D02*X132905Y34855D01*
X116024Y33346D02*Y31746D01*
Y33346D02*X117410Y34146D01*
X116024Y33346D02*X114637Y34146D01*
X15000Y243730D02*Y242130D01*
Y243730D02*X16387Y244530D01*
X15000Y243730D02*X13613Y244530D01*
X135000Y245980D02*X136500Y242980D01*
X138000Y245980D01*
X136500Y242980D02*Y239980D01*
X139800Y243280D02*X142050D01*
X139800Y239980D02*X142800D01*
X139800Y245980D02*Y239980D01*
Y245980D02*X142800D01*
X147600D02*X148350Y245230D01*
X145350Y245980D02*X147600D01*
X144600Y245230D02*X145350Y245980D01*
X144600Y245230D02*Y243730D01*
X145350Y242980D01*
X147600D01*
X148350Y242230D01*
Y240730D01*
X147600Y239980D02*X148350Y240730D01*
X145350Y239980D02*X147600D01*
X144600Y240730D02*X145350Y239980D01*
X98000Y244780D02*X99200Y245980D01*
Y239980D01*
X98000D02*X100250D01*
X102800D02*X105050Y242980D01*
Y245230D02*Y242980D01*
X104300Y245980D02*X105050Y245230D01*
X102800Y245980D02*X104300D01*
X102050Y245230D02*X102800Y245980D01*
X102050Y245230D02*Y243730D01*
X102800Y242980D01*
X105050D01*
X45000Y240730D02*X45750Y239980D01*
X45000Y245230D02*Y240730D01*
Y245230D02*X45750Y245980D01*
X47250D01*
X48000Y245230D01*
Y240730D01*
X47250Y239980D02*X48000Y240730D01*
X45750Y239980D02*X47250D01*
X45000Y241480D02*X48000Y244480D01*
X49800Y239980D02*X50550D01*
X52350Y240730D02*X53100Y239980D01*
X52350Y245230D02*Y240730D01*
Y245230D02*X53100Y245980D01*
X54600D01*
X55350Y245230D01*
Y240730D01*
X54600Y239980D02*X55350Y240730D01*
X53100Y239980D02*X54600D01*
X52350Y241480D02*X55350Y244480D01*
X57150Y245230D02*X57900Y245980D01*
X60150D01*
X60900Y245230D01*
Y243730D01*
X57150Y239980D02*X60900Y243730D01*
X57150Y239980D02*X60900D01*
X62700Y240730D02*X63450Y239980D01*
X62700Y241930D02*Y240730D01*
Y241930D02*X63750Y242980D01*
X64650D01*
X65700Y241930D01*
Y240730D01*
X64950Y239980D02*X65700Y240730D01*
X63450Y239980D02*X64950D01*
X62700Y244030D02*X63750Y242980D01*
X62700Y245230D02*Y244030D01*
Y245230D02*X63450Y245980D01*
X64950D01*
X65700Y245230D01*
Y244030D01*
X64650Y242980D02*X65700Y244030D01*
X3000Y260980D02*X3750Y260230D01*
X750Y260980D02*X3000D01*
X0Y260230D02*X750Y260980D01*
X0Y260230D02*Y258730D01*
X750Y257980D01*
X3000D01*
X3750Y257230D01*
Y255730D01*
X3000Y254980D02*X3750Y255730D01*
X750Y254980D02*X3000D01*
X0Y255730D02*X750Y254980D01*
X5550Y257980D02*Y255730D01*
X6300Y254980D01*
X8550Y257980D02*Y253480D01*
X7800Y252730D02*X8550Y253480D01*
X6300Y252730D02*X7800D01*
X5550Y253480D02*X6300Y252730D01*
Y254980D02*X7800D01*
X8550Y255730D01*
X11100Y257230D02*Y254980D01*
Y257230D02*X11850Y257980D01*
X12600D01*
X13350Y257230D01*
Y254980D01*
Y257230D02*X14100Y257980D01*
X14850D01*
X15600Y257230D01*
Y254980D01*
X10350Y257980D02*X11100Y257230D01*
X17400Y260980D02*Y254980D01*
Y255730D02*X18150Y254980D01*
X19650D01*
X20400Y255730D01*
Y257230D02*Y255730D01*
X19650Y257980D02*X20400Y257230D01*
X18150Y257980D02*X19650D01*
X17400Y257230D02*X18150Y257980D01*
X22200Y257230D02*Y255730D01*
Y257230D02*X22950Y257980D01*
X24450D01*
X25200Y257230D01*
Y255730D01*
X24450Y254980D02*X25200Y255730D01*
X22950Y254980D02*X24450D01*
X22200Y255730D02*X22950Y254980D01*
X27000Y260980D02*Y255730D01*
X27750Y254980D01*
X0Y251730D02*X29250D01*
X41750Y260980D02*Y254980D01*
X43700Y260980D02*X44750Y259930D01*
Y256030D01*
X43700Y254980D02*X44750Y256030D01*
X41000Y254980D02*X43700D01*
X41000Y260980D02*X43700D01*
G54D77*X46550Y259480D02*Y259330D01*
G54D76*Y257230D02*Y254980D01*
X50300Y257980D02*X51050Y257230D01*
X48800Y257980D02*X50300D01*
X48050Y257230D02*X48800Y257980D01*
X48050Y257230D02*Y255730D01*
X48800Y254980D01*
X51050Y257980D02*Y255730D01*
X51800Y254980D01*
X48800D02*X50300D01*
X51050Y255730D01*
X54350Y257230D02*Y254980D01*
Y257230D02*X55100Y257980D01*
X55850D01*
X56600Y257230D01*
Y254980D01*
Y257230D02*X57350Y257980D01*
X58100D01*
X58850Y257230D01*
Y254980D01*
X53600Y257980D02*X54350Y257230D01*
X60650Y254980D02*X61400D01*
X65900Y255730D02*X66650Y254980D01*
X65900Y260230D02*X66650Y260980D01*
X65900Y260230D02*Y255730D01*
X68450Y260980D02*X69950D01*
X69200D02*Y254980D01*
X68450D02*X69950D01*
X72500Y257230D02*Y254980D01*
Y257230D02*X73250Y257980D01*
X74000D01*
X74750Y257230D01*
Y254980D01*
X71750Y257980D02*X72500Y257230D01*
X77300Y257980D02*X79550D01*
X76550Y257230D02*X77300Y257980D01*
X76550Y257230D02*Y255730D01*
X77300Y254980D01*
X79550D01*
X81350Y260980D02*Y254980D01*
Y257230D02*X82100Y257980D01*
X83600D01*
X84350Y257230D01*
Y254980D01*
X86150Y260980D02*X86900Y260230D01*
Y255730D01*
X86150Y254980D02*X86900Y255730D01*
X41000Y251730D02*X88700D01*
X96050Y254980D02*X98000D01*
X95000Y256030D02*X96050Y254980D01*
X95000Y259930D02*Y256030D01*
Y259930D02*X96050Y260980D01*
X98000D01*
X99800Y257230D02*Y255730D01*
Y257230D02*X100550Y257980D01*
X102050D01*
X102800Y257230D01*
Y255730D01*
X102050Y254980D02*X102800Y255730D01*
X100550Y254980D02*X102050D01*
X99800Y255730D02*X100550Y254980D01*
X104600Y257980D02*Y255730D01*
X105350Y254980D01*
X106850D01*
X107600Y255730D01*
Y257980D02*Y255730D01*
X110150Y257230D02*Y254980D01*
Y257230D02*X110900Y257980D01*
X111650D01*
X112400Y257230D01*
Y254980D01*
X109400Y257980D02*X110150Y257230D01*
X114950Y260980D02*Y255730D01*
X115700Y254980D01*
X114200Y258730D02*X115700D01*
X95000Y251730D02*X117200D01*
X130750Y260980D02*Y254980D01*
X130000Y260980D02*X133000D01*
X133750Y260230D01*
Y258730D01*
X133000Y257980D02*X133750Y258730D01*
X130750Y257980D02*X133000D01*
X135550Y260980D02*Y255730D01*
X136300Y254980D01*
X140050Y257980D02*X140800Y257230D01*
X138550Y257980D02*X140050D01*
X137800Y257230D02*X138550Y257980D01*
X137800Y257230D02*Y255730D01*
X138550Y254980D01*
X140800Y257980D02*Y255730D01*
X141550Y254980D01*
X138550D02*X140050D01*
X140800Y255730D01*
X144100Y260980D02*Y255730D01*
X144850Y254980D01*
X143350Y258730D02*X144850D01*
X147100Y254980D02*X149350D01*
X146350Y255730D02*X147100Y254980D01*
X146350Y257230D02*Y255730D01*
Y257230D02*X147100Y257980D01*
X148600D01*
X149350Y257230D01*
X146350Y256480D02*X149350D01*
Y257230D02*Y256480D01*
X154150Y260980D02*Y254980D01*
X153400D02*X154150Y255730D01*
X151900Y254980D02*X153400D01*
X151150Y255730D02*X151900Y254980D01*
X151150Y257230D02*Y255730D01*
Y257230D02*X151900Y257980D01*
X153400D01*
X154150Y257230D01*
X157450Y257980D02*Y257230D01*
Y255730D02*Y254980D01*
X155950Y260230D02*Y259480D01*
Y260230D02*X156700Y260980D01*
X158200D01*
X158950Y260230D01*
Y259480D01*
X157450Y257980D02*X158950Y259480D01*
X130000Y251730D02*X160750D01*
X0Y275980D02*X3000D01*
X1500D02*Y269980D01*
X4800Y275980D02*Y269980D01*
Y272230D02*X5550Y272980D01*
X7050D01*
X7800Y272230D01*
Y269980D01*
X10350D02*X12600D01*
X9600Y270730D02*X10350Y269980D01*
X9600Y272230D02*Y270730D01*
Y272230D02*X10350Y272980D01*
X11850D01*
X12600Y272230D01*
X9600Y271480D02*X12600D01*
Y272230D02*Y271480D01*
X15150Y272230D02*Y269980D01*
Y272230D02*X15900Y272980D01*
X17400D01*
X14400D02*X15150Y272230D01*
X19950Y269980D02*X22200D01*
X19200Y270730D02*X19950Y269980D01*
X19200Y272230D02*Y270730D01*
Y272230D02*X19950Y272980D01*
X21450D01*
X22200Y272230D01*
X19200Y271480D02*X22200D01*
Y272230D02*Y271480D01*
X28950Y272980D02*X29700Y272230D01*
X27450Y272980D02*X28950D01*
X26700Y272230D02*X27450Y272980D01*
X26700Y272230D02*Y270730D01*
X27450Y269980D01*
X29700Y272980D02*Y270730D01*
X30450Y269980D01*
X27450D02*X28950D01*
X29700Y270730D01*
X33000Y272230D02*Y269980D01*
Y272230D02*X33750Y272980D01*
X35250D01*
X32250D02*X33000Y272230D01*
X37800Y269980D02*X40050D01*
X37050Y270730D02*X37800Y269980D01*
X37050Y272230D02*Y270730D01*
Y272230D02*X37800Y272980D01*
X39300D01*
X40050Y272230D01*
X37050Y271480D02*X40050D01*
Y272230D02*Y271480D01*
X46800Y275980D02*X47550Y275230D01*
X45300Y275980D02*X46800D01*
X44550Y275230D02*X45300Y275980D01*
X44550Y275230D02*Y270730D01*
X45300Y269980D01*
X46800Y273280D02*X47550Y272530D01*
X44550Y273280D02*X46800D01*
X45300Y269980D02*X46800D01*
X47550Y270730D01*
Y272530D02*Y270730D01*
X55050Y275980D02*Y269980D01*
X54300D02*X55050Y270730D01*
X52800Y269980D02*X54300D01*
X52050Y270730D02*X52800Y269980D01*
X52050Y272230D02*Y270730D01*
Y272230D02*X52800Y272980D01*
X54300D01*
X55050Y272230D01*
G54D77*X56850Y274480D02*Y274330D01*
G54D76*Y272230D02*Y269980D01*
X59100Y275230D02*Y269980D01*
Y275230D02*X59850Y275980D01*
X60600D01*
X58350Y272980D02*X59850D01*
X62850Y275230D02*Y269980D01*
Y275230D02*X63600Y275980D01*
X64350D01*
X62100Y272980D02*X63600D01*
X66600Y269980D02*X68850D01*
X65850Y270730D02*X66600Y269980D01*
X65850Y272230D02*Y270730D01*
Y272230D02*X66600Y272980D01*
X68100D01*
X68850Y272230D01*
X65850Y271480D02*X68850D01*
Y272230D02*Y271480D01*
X71400Y272230D02*Y269980D01*
Y272230D02*X72150Y272980D01*
X73650D01*
X70650D02*X71400Y272230D01*
X76200Y269980D02*X78450D01*
X75450Y270730D02*X76200Y269980D01*
X75450Y272230D02*Y270730D01*
Y272230D02*X76200Y272980D01*
X77700D01*
X78450Y272230D01*
X75450Y271480D02*X78450D01*
Y272230D02*Y271480D01*
X81000Y272230D02*Y269980D01*
Y272230D02*X81750Y272980D01*
X82500D01*
X83250Y272230D01*
Y269980D01*
X80250Y272980D02*X81000Y272230D01*
X85800Y275980D02*Y270730D01*
X86550Y269980D01*
X85050Y273730D02*X86550D01*
X93750Y275980D02*Y269980D01*
X93000D02*X93750Y270730D01*
X91500Y269980D02*X93000D01*
X90750Y270730D02*X91500Y269980D01*
X90750Y272230D02*Y270730D01*
Y272230D02*X91500Y272980D01*
X93000D01*
X93750Y272230D01*
X96300D02*Y269980D01*
Y272230D02*X97050Y272980D01*
X98550D01*
X95550D02*X96300Y272230D01*
G54D77*X100350Y274480D02*Y274330D01*
G54D76*Y272230D02*Y269980D01*
X101850Y275980D02*Y270730D01*
X102600Y269980D01*
X104100Y275980D02*Y270730D01*
X104850Y269980D01*
X109800D02*X112050D01*
X112800Y270730D01*
X112050Y271480D02*X112800Y270730D01*
X109800Y271480D02*X112050D01*
X109050Y272230D02*X109800Y271480D01*
X109050Y272230D02*X109800Y272980D01*
X112050D01*
X112800Y272230D01*
X109050Y270730D02*X109800Y269980D01*
G54D77*X114600Y274480D02*Y274330D01*
G54D76*Y272230D02*Y269980D01*
X116100Y272980D02*X119100D01*
X116100Y269980D02*X119100Y272980D01*
X116100Y269980D02*X119100D01*
X121650D02*X123900D01*
X120900Y270730D02*X121650Y269980D01*
X120900Y272230D02*Y270730D01*
Y272230D02*X121650Y272980D01*
X123150D01*
X123900Y272230D01*
X120900Y271480D02*X123900D01*
Y272230D02*Y271480D01*
X126450Y269980D02*X128700D01*
X129450Y270730D01*
X128700Y271480D02*X129450Y270730D01*
X126450Y271480D02*X128700D01*
X125700Y272230D02*X126450Y271480D01*
X125700Y272230D02*X126450Y272980D01*
X128700D01*
X129450Y272230D01*
X125700Y270730D02*X126450Y269980D01*
X133950Y272980D02*Y270730D01*
X134700Y269980D01*
X136200D01*
X136950Y270730D01*
Y272980D02*Y270730D01*
X139500Y269980D02*X141750D01*
X142500Y270730D01*
X141750Y271480D02*X142500Y270730D01*
X139500Y271480D02*X141750D01*
X138750Y272230D02*X139500Y271480D01*
X138750Y272230D02*X139500Y272980D01*
X141750D01*
X142500Y272230D01*
X138750Y270730D02*X139500Y269980D01*
X145050D02*X147300D01*
X144300Y270730D02*X145050Y269980D01*
X144300Y272230D02*Y270730D01*
Y272230D02*X145050Y272980D01*
X146550D01*
X147300Y272230D01*
X144300Y271480D02*X147300D01*
Y272230D02*Y271480D01*
X152100Y275980D02*Y269980D01*
X151350D02*X152100Y270730D01*
X149850Y269980D02*X151350D01*
X149100Y270730D02*X149850Y269980D01*
X149100Y272230D02*Y270730D01*
Y272230D02*X149850Y272980D01*
X151350D01*
X152100Y272230D01*
G54D77*X156600Y274480D02*Y274330D01*
G54D76*Y272230D02*Y269980D01*
X158850Y272230D02*Y269980D01*
Y272230D02*X159600Y272980D01*
X160350D01*
X161100Y272230D01*
Y269980D01*
X158100Y272980D02*X158850Y272230D01*
X166350Y275980D02*Y270730D01*
X167100Y269980D01*
X165600Y273730D02*X167100D01*
X168600Y275980D02*Y269980D01*
Y272230D02*X169350Y272980D01*
X170850D01*
X171600Y272230D01*
Y269980D01*
G54D77*X173400Y274480D02*Y274330D01*
G54D76*Y272230D02*Y269980D01*
X175650D02*X177900D01*
X178650Y270730D01*
X177900Y271480D02*X178650Y270730D01*
X175650Y271480D02*X177900D01*
X174900Y272230D02*X175650Y271480D01*
X174900Y272230D02*X175650Y272980D01*
X177900D01*
X178650Y272230D01*
X174900Y270730D02*X175650Y269980D01*
X183150Y275980D02*Y270730D01*
X183900Y269980D01*
X187650Y272980D02*X188400Y272230D01*
X186150Y272980D02*X187650D01*
X185400Y272230D02*X186150Y272980D01*
X185400Y272230D02*Y270730D01*
X186150Y269980D01*
X188400Y272980D02*Y270730D01*
X189150Y269980D01*
X186150D02*X187650D01*
X188400Y270730D01*
X190950Y272980D02*Y270730D01*
X191700Y269980D01*
X193950Y272980D02*Y268480D01*
X193200Y267730D02*X193950Y268480D01*
X191700Y267730D02*X193200D01*
X190950Y268480D02*X191700Y267730D01*
Y269980D02*X193200D01*
X193950Y270730D01*
X195750Y272230D02*Y270730D01*
Y272230D02*X196500Y272980D01*
X198000D01*
X198750Y272230D01*
Y270730D01*
X198000Y269980D02*X198750Y270730D01*
X196500Y269980D02*X198000D01*
X195750Y270730D02*X196500Y269980D01*
X200550Y272980D02*Y270730D01*
X201300Y269980D01*
X202800D01*
X203550Y270730D01*
Y272980D02*Y270730D01*
X206100Y275980D02*Y270730D01*
X206850Y269980D01*
X205350Y273730D02*X206850D01*
X208350Y268480D02*X209850Y269980D01*
X214350Y272230D02*X217350Y275980D01*
X214350Y272230D02*X218100D01*
X217350Y275980D02*Y269980D01*
X220650D02*X223650Y275980D01*
X219900D02*X223650D01*
X228150D02*Y269980D01*
Y272230D02*X228900Y272980D01*
X230400D01*
X231150Y272230D01*
Y269980D01*
X232950Y272230D02*Y270730D01*
Y272230D02*X233700Y272980D01*
X235200D01*
X235950Y272230D01*
Y270730D01*
X235200Y269980D02*X235950Y270730D01*
X233700Y269980D02*X235200D01*
X232950Y270730D02*X233700Y269980D01*
X237750Y275980D02*Y270730D01*
X238500Y269980D01*
X240750D02*X243000D01*
X240000Y270730D02*X240750Y269980D01*
X240000Y272230D02*Y270730D01*
Y272230D02*X240750Y272980D01*
X242250D01*
X243000Y272230D01*
X240000Y271480D02*X243000D01*
Y272230D02*Y271480D01*
X245550Y269980D02*X247800D01*
X248550Y270730D01*
X247800Y271480D02*X248550Y270730D01*
X245550Y271480D02*X247800D01*
X244800Y272230D02*X245550Y271480D01*
X244800Y272230D02*X245550Y272980D01*
X247800D01*
X248550Y272230D01*
X244800Y270730D02*X245550Y269980D01*
X253800Y275980D02*Y270730D01*
X254550Y269980D01*
X253050Y273730D02*X254550D01*
X256050Y272230D02*Y270730D01*
Y272230D02*X256800Y272980D01*
X258300D01*
X259050Y272230D01*
Y270730D01*
X258300Y269980D02*X259050Y270730D01*
X256800Y269980D02*X258300D01*
X256050Y270730D02*X256800Y269980D01*
X261600Y275980D02*Y270730D01*
X262350Y269980D01*
X260850Y273730D02*X262350D01*
X266100Y272980D02*X266850Y272230D01*
X264600Y272980D02*X266100D01*
X263850Y272230D02*X264600Y272980D01*
X263850Y272230D02*Y270730D01*
X264600Y269980D01*
X266850Y272980D02*Y270730D01*
X267600Y269980D01*
X264600D02*X266100D01*
X266850Y270730D01*
X269400Y275980D02*Y270730D01*
X270150Y269980D01*
G54D78*X0Y157480D02*Y5591D01*
X167323Y157480D02*X0D01*
X512Y5551D02*X167402D01*
X167323Y5669D02*Y157480D01*
G54D76*X4226Y-9500D02*X7226D01*
X7976Y-8750D01*
Y-6950D02*Y-8750D01*
X7226Y-6200D02*X7976Y-6950D01*
X4976Y-6200D02*X7226D01*
X4976Y-3500D02*Y-9500D01*
X4226Y-3500D02*X7226D01*
X7976Y-4250D01*
Y-5450D01*
X7226Y-6200D02*X7976Y-5450D01*
X9776Y-7250D02*Y-8750D01*
Y-7250D02*X10526Y-6500D01*
X12026D01*
X12776Y-7250D01*
Y-8750D01*
X12026Y-9500D02*X12776Y-8750D01*
X10526Y-9500D02*X12026D01*
X9776Y-8750D02*X10526Y-9500D01*
X16826Y-6500D02*X17576Y-7250D01*
X15326Y-6500D02*X16826D01*
X14576Y-7250D02*X15326Y-6500D01*
X14576Y-7250D02*Y-8750D01*
X15326Y-9500D01*
X17576Y-6500D02*Y-8750D01*
X18326Y-9500D01*
X15326D02*X16826D01*
X17576Y-8750D01*
X20876Y-7250D02*Y-9500D01*
Y-7250D02*X21626Y-6500D01*
X23126D01*
X20126D02*X20876Y-7250D01*
X27926Y-3500D02*Y-9500D01*
X27176D02*X27926Y-8750D01*
X25676Y-9500D02*X27176D01*
X24926Y-8750D02*X25676Y-9500D01*
X24926Y-7250D02*Y-8750D01*
Y-7250D02*X25676Y-6500D01*
X27176D01*
X27926Y-7250D01*
X32426D02*Y-8750D01*
Y-7250D02*X33176Y-6500D01*
X34676D01*
X35426Y-7250D01*
Y-8750D01*
X34676Y-9500D02*X35426Y-8750D01*
X33176Y-9500D02*X34676D01*
X32426Y-8750D02*X33176Y-9500D01*
X37226Y-6500D02*Y-8750D01*
X37976Y-9500D01*
X39476D01*
X40226Y-8750D01*
Y-6500D02*Y-8750D01*
X42776Y-3500D02*Y-8750D01*
X43526Y-9500D01*
X42026Y-5750D02*X43526D01*
X45026Y-3500D02*Y-8750D01*
X45776Y-9500D01*
G54D77*X47276Y-5000D02*Y-5150D01*
G54D76*Y-7250D02*Y-9500D01*
X49526Y-7250D02*Y-9500D01*
Y-7250D02*X50276Y-6500D01*
X51026D01*
X51776Y-7250D01*
Y-9500D01*
X48776Y-6500D02*X49526Y-7250D01*
X54326Y-9500D02*X56576D01*
X53576Y-8750D02*X54326Y-9500D01*
X53576Y-7250D02*Y-8750D01*
Y-7250D02*X54326Y-6500D01*
X55826D01*
X56576Y-7250D01*
X53576Y-8000D02*X56576D01*
Y-7250D02*Y-8000D01*
G54D77*X61076Y-5000D02*Y-5150D01*
G54D76*Y-7250D02*Y-9500D01*
X63326D02*X65576D01*
X66326Y-8750D01*
X65576Y-8000D02*X66326Y-8750D01*
X63326Y-8000D02*X65576D01*
X62576Y-7250D02*X63326Y-8000D01*
X62576Y-7250D02*X63326Y-6500D01*
X65576D01*
X66326Y-7250D01*
X62576Y-8750D02*X63326Y-9500D01*
X71576Y-3500D02*Y-8750D01*
X72326Y-9500D01*
X70826Y-5750D02*X72326D01*
X73826Y-3500D02*Y-9500D01*
Y-7250D02*X74576Y-6500D01*
X76076D01*
X76826Y-7250D01*
Y-9500D01*
X79376D02*X81626D01*
X78626Y-8750D02*X79376Y-9500D01*
X78626Y-7250D02*Y-8750D01*
Y-7250D02*X79376Y-6500D01*
X80876D01*
X81626Y-7250D01*
X78626Y-8000D02*X81626D01*
Y-7250D02*Y-8000D01*
X86876Y-6500D02*X89126D01*
X86126Y-7250D02*X86876Y-6500D01*
X86126Y-7250D02*Y-8750D01*
X86876Y-9500D01*
X89126D01*
X91676D02*X93926D01*
X90926Y-8750D02*X91676Y-9500D01*
X90926Y-7250D02*Y-8750D01*
Y-7250D02*X91676Y-6500D01*
X93176D01*
X93926Y-7250D01*
X90926Y-8000D02*X93926D01*
Y-7250D02*Y-8000D01*
X96476Y-7250D02*Y-9500D01*
Y-7250D02*X97226Y-6500D01*
X97976D01*
X98726Y-7250D01*
Y-9500D01*
X95726Y-6500D02*X96476Y-7250D01*
X101276Y-3500D02*Y-8750D01*
X102026Y-9500D01*
X100526Y-5750D02*X102026D01*
X104276Y-9500D02*X106526D01*
X103526Y-8750D02*X104276Y-9500D01*
X103526Y-7250D02*Y-8750D01*
Y-7250D02*X104276Y-6500D01*
X105776D01*
X106526Y-7250D01*
X103526Y-8000D02*X106526D01*
Y-7250D02*Y-8000D01*
X109076Y-7250D02*Y-9500D01*
Y-7250D02*X109826Y-6500D01*
X111326D01*
X108326D02*X109076Y-7250D01*
X113126Y-3500D02*Y-8750D01*
X113876Y-9500D01*
G54D77*X115376Y-5000D02*Y-5150D01*
G54D76*Y-7250D02*Y-9500D01*
X117626Y-7250D02*Y-9500D01*
Y-7250D02*X118376Y-6500D01*
X119126D01*
X119876Y-7250D01*
Y-9500D01*
X116876Y-6500D02*X117626Y-7250D01*
X122426Y-9500D02*X124676D01*
X121676Y-8750D02*X122426Y-9500D01*
X121676Y-7250D02*Y-8750D01*
Y-7250D02*X122426Y-6500D01*
X123926D01*
X124676Y-7250D01*
X121676Y-8000D02*X124676D01*
Y-7250D02*Y-8000D01*
X129176Y-7250D02*Y-8750D01*
Y-7250D02*X129926Y-6500D01*
X131426D01*
X132176Y-7250D01*
Y-8750D01*
X131426Y-9500D02*X132176Y-8750D01*
X129926Y-9500D02*X131426D01*
X129176Y-8750D02*X129926Y-9500D01*
X134726Y-4250D02*Y-9500D01*
Y-4250D02*X135476Y-3500D01*
X136226D01*
X133976Y-6500D02*X135476D01*
X141176Y-3500D02*Y-8750D01*
X141926Y-9500D01*
X140426Y-5750D02*X141926D01*
X143426Y-3500D02*Y-9500D01*
Y-7250D02*X144176Y-6500D01*
X145676D01*
X146426Y-7250D01*
Y-9500D01*
G54D77*X148226Y-5000D02*Y-5150D01*
G54D76*Y-7250D02*Y-9500D01*
X150476D02*X152726D01*
X153476Y-8750D01*
X152726Y-8000D02*X153476Y-8750D01*
X150476Y-8000D02*X152726D01*
X149726Y-7250D02*X150476Y-8000D01*
X149726Y-7250D02*X150476Y-6500D01*
X152726D01*
X153476Y-7250D01*
X149726Y-8750D02*X150476Y-9500D01*
X158726Y-7250D02*Y-11750D01*
X157976Y-6500D02*X158726Y-7250D01*
X159476Y-6500D01*
X160976D01*
X161726Y-7250D01*
Y-8750D01*
X160976Y-9500D02*X161726Y-8750D01*
X159476Y-9500D02*X160976D01*
X158726Y-8750D02*X159476Y-9500D01*
X165776Y-6500D02*X166526Y-7250D01*
X164276Y-6500D02*X165776D01*
X163526Y-7250D02*X164276Y-6500D01*
X163526Y-7250D02*Y-8750D01*
X164276Y-9500D01*
X166526Y-6500D02*Y-8750D01*
X167276Y-9500D01*
X164276D02*X165776D01*
X166526Y-8750D01*
X169826Y-3500D02*Y-8750D01*
X170576Y-9500D01*
X169076Y-5750D02*X170576D01*
X172076Y-3500D02*Y-9500D01*
Y-7250D02*X172826Y-6500D01*
X174326D01*
X175076Y-7250D01*
Y-9500D01*
X200750Y185980D02*Y179980D01*
X202700Y185980D02*X203750Y184930D01*
Y181030D01*
X202700Y179980D02*X203750Y181030D01*
X200000Y179980D02*X202700D01*
X200000Y185980D02*X202700D01*
X207800Y182980D02*X208550Y182230D01*
X206300Y182980D02*X207800D01*
X205550Y182230D02*X206300Y182980D01*
X205550Y182230D02*Y180730D01*
X206300Y179980D01*
X208550Y182980D02*Y180730D01*
X209300Y179980D01*
X206300D02*X207800D01*
X208550Y180730D01*
X211850Y185980D02*Y180730D01*
X212600Y179980D01*
X211100Y183730D02*X212600D01*
X214850Y179980D02*X217100D01*
X214100Y180730D02*X214850Y179980D01*
X214100Y182230D02*Y180730D01*
Y182230D02*X214850Y182980D01*
X216350D01*
X217100Y182230D01*
X214100Y181480D02*X217100D01*
Y182230D02*Y181480D01*
X218900Y183730D02*X219650D01*
X218900Y182230D02*X219650D01*
X227150Y185980D02*X227900Y185230D01*
X224900Y185980D02*X227150D01*
X224150Y185230D02*X224900Y185980D01*
X224150Y185230D02*Y183730D01*
X224900Y182980D01*
X227150D01*
X227900Y182230D01*
Y180730D01*
X227150Y179980D02*X227900Y180730D01*
X224900Y179980D02*X227150D01*
X224150Y180730D02*X224900Y179980D01*
X231950Y182980D02*X232700Y182230D01*
X230450Y182980D02*X231950D01*
X229700Y182230D02*X230450Y182980D01*
X229700Y182230D02*Y180730D01*
X230450Y179980D01*
X232700Y182980D02*Y180730D01*
X233450Y179980D01*
X230450D02*X231950D01*
X232700Y180730D01*
X236000Y185980D02*Y180730D01*
X236750Y179980D01*
X235250Y183730D02*X236750D01*
X242000Y185980D02*X243200D01*
Y180730D01*
X242450Y179980D02*X243200Y180730D01*
X241700Y179980D02*X242450D01*
X240950Y180730D02*X241700Y179980D01*
X240950Y181480D02*Y180730D01*
X247250Y182980D02*X248000Y182230D01*
X245750Y182980D02*X247250D01*
X245000Y182230D02*X245750Y182980D01*
X245000Y182230D02*Y180730D01*
X245750Y179980D01*
X248000Y182980D02*Y180730D01*
X248750Y179980D01*
X245750D02*X247250D01*
X248000Y180730D01*
X251300Y182230D02*Y179980D01*
Y182230D02*X252050Y182980D01*
X252800D01*
X253550Y182230D01*
Y179980D01*
X250550Y182980D02*X251300Y182230D01*
X258050Y184780D02*X259250Y185980D01*
Y179980D01*
X258050D02*X260300D01*
X262850D02*X265100Y182980D01*
Y185230D02*Y182980D01*
X264350Y185980D02*X265100Y185230D01*
X262850Y185980D02*X264350D01*
X262100Y185230D02*X262850Y185980D01*
X262100Y185230D02*Y183730D01*
X262850Y182980D01*
X265100D01*
X269600Y184780D02*X270800Y185980D01*
Y179980D01*
X269600D02*X271850D01*
X273650Y180730D02*X274400Y179980D01*
X273650Y185230D02*Y180730D01*
Y185230D02*X274400Y185980D01*
X275900D01*
X276650Y185230D01*
Y180730D01*
X275900Y179980D02*X276650Y180730D01*
X274400Y179980D02*X275900D01*
X273650Y181480D02*X276650Y184480D01*
X278450Y183730D02*X279200D01*
X278450Y182230D02*X279200D01*
X281000Y185980D02*X284000D01*
X281000D02*Y182980D01*
X281750Y183730D01*
X283250D01*
X284000Y182980D01*
Y180730D01*
X283250Y179980D02*X284000Y180730D01*
X281750Y179980D02*X283250D01*
X281000Y180730D02*X281750Y179980D01*
X285800Y185230D02*X286550Y185980D01*
X288800D01*
X289550Y185230D01*
Y183730D01*
X285800Y179980D02*X289550Y183730D01*
X285800Y179980D02*X289550D01*
X291350Y183730D02*X292100D01*
X291350Y182230D02*X292100D01*
X293900Y185230D02*X294650Y185980D01*
X296150D01*
X296900Y185230D01*
X296150Y179980D02*X296900Y180730D01*
X294650Y179980D02*X296150D01*
X293900Y180730D02*X294650Y179980D01*
Y183280D02*X296150D01*
X296900Y185230D02*Y184030D01*
Y182530D02*Y180730D01*
Y182530D02*X296150Y183280D01*
X296900Y184030D02*X296150Y183280D01*
X300950Y185980D02*X301700Y185230D01*
X299450Y185980D02*X300950D01*
X298700Y185230D02*X299450Y185980D01*
X298700Y185230D02*Y180730D01*
X299450Y179980D01*
X300950Y183280D02*X301700Y182530D01*
X298700Y183280D02*X300950D01*
X299450Y179980D02*X300950D01*
X301700Y180730D01*
Y182530D02*Y180730D01*
X306200Y185230D02*X306950Y185980D01*
X309200D01*
X309950Y185230D01*
Y183730D01*
X306200Y179980D02*X309950Y183730D01*
X306200Y179980D02*X309950D01*
X311750Y180730D02*X312500Y179980D01*
X311750Y185230D02*Y180730D01*
Y185230D02*X312500Y185980D01*
X314000D01*
X314750Y185230D01*
Y180730D01*
X314000Y179980D02*X314750Y180730D01*
X312500Y179980D02*X314000D01*
X311750Y181480D02*X314750Y184480D01*
X316550Y184780D02*X317750Y185980D01*
Y179980D01*
X316550D02*X318800D01*
X321350D02*X323600Y182980D01*
Y185230D02*Y182980D01*
X322850Y185980D02*X323600Y185230D01*
X321350Y185980D02*X322850D01*
X320600Y185230D02*X321350Y185980D01*
X320600Y185230D02*Y183730D01*
X321350Y182980D01*
X323600D01*
X328100Y185980D02*Y180730D01*
X328850Y179980D01*
X330350D01*
X331100Y180730D01*
Y185980D02*Y180730D01*
X332900Y185980D02*X335900D01*
X334400D02*Y179980D01*
X338750D02*X340700D01*
X337700Y181030D02*X338750Y179980D01*
X337700Y184930D02*Y181030D01*
Y184930D02*X338750Y185980D01*
X340700D01*
X200000Y199480D02*Y194980D01*
Y199480D02*X201050Y200980D01*
X202700D01*
X203750Y199480D01*
Y194980D01*
X200000Y197980D02*X203750D01*
X205550D02*Y195730D01*
X206300Y194980D01*
X207800D01*
X208550Y195730D01*
Y197980D02*Y195730D01*
X211100Y200980D02*Y195730D01*
X211850Y194980D01*
X210350Y198730D02*X211850D01*
X213350Y200980D02*Y194980D01*
Y197230D02*X214100Y197980D01*
X215600D01*
X216350Y197230D01*
Y194980D01*
X218150Y197230D02*Y195730D01*
Y197230D02*X218900Y197980D01*
X220400D01*
X221150Y197230D01*
Y195730D01*
X220400Y194980D02*X221150Y195730D01*
X218900Y194980D02*X220400D01*
X218150Y195730D02*X218900Y194980D01*
X223700Y197230D02*Y194980D01*
Y197230D02*X224450Y197980D01*
X225950D01*
X222950D02*X223700Y197230D01*
X227750Y198730D02*X228500D01*
X227750Y197230D02*X228500D01*
X233750Y200980D02*Y194980D01*
X233000Y200980D02*X236000D01*
X236750Y200230D01*
Y198730D01*
X236000Y197980D02*X236750Y198730D01*
X233750Y197980D02*X236000D01*
X238550Y200980D02*Y194980D01*
Y197230D02*X239300Y197980D01*
X240800D01*
X241550Y197230D01*
Y194980D01*
G54D77*X243350Y199480D02*Y199330D01*
G54D76*Y197230D02*Y194980D01*
X244850Y200980D02*Y195730D01*
X245600Y194980D01*
X249800Y200980D02*Y195730D01*
X250550Y194980D01*
X252050D01*
X252800Y195730D01*
Y200980D02*Y195730D01*
X255350Y197230D02*Y194980D01*
Y197230D02*X256100Y197980D01*
X256850D01*
X257600Y197230D01*
Y194980D01*
X254600Y197980D02*X255350Y197230D01*
X262400Y200980D02*Y194980D01*
X261650D02*X262400Y195730D01*
X260150Y194980D02*X261650D01*
X259400Y195730D02*X260150Y194980D01*
X259400Y197230D02*Y195730D01*
Y197230D02*X260150Y197980D01*
X261650D01*
X262400Y197230D01*
X264950Y194980D02*X267200D01*
X264200Y195730D02*X264950Y194980D01*
X264200Y197230D02*Y195730D01*
Y197230D02*X264950Y197980D01*
X266450D01*
X267200Y197230D01*
X264200Y196480D02*X267200D01*
Y197230D02*Y196480D01*
X269750Y197230D02*Y194980D01*
Y197230D02*X270500Y197980D01*
X272000D01*
X269000D02*X269750Y197230D01*
X273800Y197980D02*Y195730D01*
X274550Y194980D01*
X275300D01*
X276050Y195730D01*
Y197980D02*Y195730D01*
X276800Y194980D01*
X277550D01*
X278300Y195730D01*
Y197980D02*Y195730D01*
X280100Y197230D02*Y195730D01*
Y197230D02*X280850Y197980D01*
X282350D01*
X283100Y197230D01*
Y195730D01*
X282350Y194980D02*X283100Y195730D01*
X280850Y194980D02*X282350D01*
X280100Y195730D02*X280850Y194980D01*
X284900Y197230D02*Y195730D01*
Y197230D02*X285650Y197980D01*
X287150D01*
X287900Y197230D01*
Y195730D01*
X287150Y194980D02*X287900Y195730D01*
X285650Y194980D02*X287150D01*
X284900Y195730D02*X285650Y194980D01*
X292700Y200980D02*Y194980D01*
X291950D02*X292700Y195730D01*
X290450Y194980D02*X291950D01*
X289700Y195730D02*X290450Y194980D01*
X289700Y197230D02*Y195730D01*
Y197230D02*X290450Y197980D01*
X291950D01*
X292700Y197230D01*
X200000Y215980D02*X203000D01*
X201500D02*Y209980D01*
G54D77*X204800Y214480D02*Y214330D01*
G54D76*Y212230D02*Y209980D01*
X207050Y215980D02*Y210730D01*
X207800Y209980D01*
X206300Y213730D02*X207800D01*
X209300Y215980D02*Y210730D01*
X210050Y209980D01*
X212300D02*X214550D01*
X211550Y210730D02*X212300Y209980D01*
X211550Y212230D02*Y210730D01*
Y212230D02*X212300Y212980D01*
X213800D01*
X214550Y212230D01*
X211550Y211480D02*X214550D01*
Y212230D02*Y211480D01*
X216350Y213730D02*X217100D01*
X216350Y212230D02*X217100D01*
X224600Y215980D02*X225350Y215230D01*
X222350Y215980D02*X224600D01*
X221600Y215230D02*X222350Y215980D01*
X221600Y215230D02*Y213730D01*
X222350Y212980D01*
X224600D01*
X225350Y212230D01*
Y210730D01*
X224600Y209980D02*X225350Y210730D01*
X222350Y209980D02*X224600D01*
X221600Y210730D02*X222350Y209980D01*
X227150Y214480D02*Y209980D01*
Y214480D02*X228200Y215980D01*
X229850D01*
X230900Y214480D01*
Y209980D01*
X227150Y212980D02*X230900D01*
X233450Y215980D02*Y209980D01*
X232700Y215980D02*X235700D01*
X236450Y215230D01*
Y213730D01*
X235700Y212980D02*X236450Y213730D01*
X233450Y212980D02*X235700D01*
X240950D02*X243950D01*
X248450Y215980D02*Y209980D01*
Y215980D02*X251450D01*
X248450Y213280D02*X250700D01*
X255500Y212980D02*X256250Y212230D01*
X254000Y212980D02*X255500D01*
X253250Y212230D02*X254000Y212980D01*
X253250Y212230D02*Y210730D01*
X254000Y209980D01*
X256250Y212980D02*Y210730D01*
X257000Y209980D01*
X254000D02*X255500D01*
X256250Y210730D01*
X258800Y215980D02*Y209980D01*
Y210730D02*X259550Y209980D01*
X261050D01*
X261800Y210730D01*
Y212230D02*Y210730D01*
X261050Y212980D02*X261800Y212230D01*
X259550Y212980D02*X261050D01*
X258800Y212230D02*X259550Y212980D01*
X264350Y212230D02*Y209980D01*
Y212230D02*X265100Y212980D01*
X266600D01*
X263600D02*X264350Y212230D01*
G54D77*X268400Y214480D02*Y214330D01*
G54D76*Y212230D02*Y209980D01*
X270650Y212980D02*X272900D01*
X269900Y212230D02*X270650Y212980D01*
X269900Y212230D02*Y210730D01*
X270650Y209980D01*
X272900D01*
X276950Y212980D02*X277700Y212230D01*
X275450Y212980D02*X276950D01*
X274700Y212230D02*X275450Y212980D01*
X274700Y212230D02*Y210730D01*
X275450Y209980D01*
X277700Y212980D02*Y210730D01*
X278450Y209980D01*
X275450D02*X276950D01*
X277700Y210730D01*
X281000Y215980D02*Y210730D01*
X281750Y209980D01*
X280250Y213730D02*X281750D01*
G54D77*X283250Y214480D02*Y214330D01*
G54D76*Y212230D02*Y209980D01*
X284750Y212230D02*Y210730D01*
Y212230D02*X285500Y212980D01*
X287000D01*
X287750Y212230D01*
Y210730D01*
X287000Y209980D02*X287750Y210730D01*
X285500Y209980D02*X287000D01*
X284750Y210730D02*X285500Y209980D01*
X290300Y212230D02*Y209980D01*
Y212230D02*X291050Y212980D01*
X291800D01*
X292550Y212230D01*
Y209980D01*
X289550Y212980D02*X290300Y212230D01*
X297800Y215980D02*Y209980D01*
X299750Y215980D02*X300800Y214930D01*
Y211030D01*
X299750Y209980D02*X300800Y211030D01*
X297050Y209980D02*X299750D01*
X297050Y215980D02*X299750D01*
X303350Y212230D02*Y209980D01*
Y212230D02*X304100Y212980D01*
X305600D01*
X302600D02*X303350Y212230D01*
X309650Y212980D02*X310400Y212230D01*
X308150Y212980D02*X309650D01*
X307400Y212230D02*X308150Y212980D01*
X307400Y212230D02*Y210730D01*
X308150Y209980D01*
X310400Y212980D02*Y210730D01*
X311150Y209980D01*
X308150D02*X309650D01*
X310400Y210730D01*
X312950Y212980D02*Y210730D01*
X313700Y209980D01*
X314450D01*
X315200Y210730D01*
Y212980D02*Y210730D01*
X315950Y209980D01*
X316700D01*
X317450Y210730D01*
Y212980D02*Y210730D01*
G54D77*X319250Y214480D02*Y214330D01*
G54D76*Y212230D02*Y209980D01*
X321500Y212230D02*Y209980D01*
Y212230D02*X322250Y212980D01*
X323000D01*
X323750Y212230D01*
Y209980D01*
X320750Y212980D02*X321500Y212230D01*
X327800Y212980D02*X328550Y212230D01*
X326300Y212980D02*X327800D01*
X325550Y212230D02*X326300Y212980D01*
X325550Y212230D02*Y210730D01*
X326300Y209980D01*
X327800D01*
X328550Y210730D01*
X325550Y208480D02*X326300Y207730D01*
X327800D01*
X328550Y208480D01*
Y212980D02*Y208480D01*
M02*
