#define bt_off2_width 8
#define bt_off2_height 9
static unsigned char bt_off2_bits[] = {
   0x00, 0x10, 0x20, 0x40, 0xfe, 0x84, 0x48, 0x30, 0x00 };
