#define bt_on2_width 8
#define bt_on2_height 9
static unsigned char bt_on2_bits[] = {
   0xfc, 0xee, 0xde, 0xbf, 0x01, 0x7b, 0xb6, 0xce, 0xfc };
